<svg width="193" height="43" viewBox="0 0 193 43" fill="none" xmlns="http://www.w3.org/2000/svg">
<path d="M1.03914 41.8342L4.04758 1.44612H10.3476L17.1991 20.8923L18.6476 1.44612H26.0476L23.0391 41.8342H16.9891L10.2491 20.8923L8.68914 41.8342H1.03914ZM40.6219 42.4326C37.5886 42.4326 35.2282 41.9007 33.5408 40.837C31.8533 39.7733 30.7006 38.2442 30.0825 36.2497C29.4644 34.2552 29.2581 31.8785 29.4636 29.1195L30.5815 14.111C30.7895 11.3188 31.3499 8.94202 32.2627 6.98079C33.1754 5.01956 34.5535 3.5237 36.3969 2.49322C38.2428 1.4295 40.6825 0.897643 43.7158 0.897643C46.7825 0.897643 49.1595 1.4295 50.8469 2.49322C52.5702 3.5237 53.7421 5.01956 54.3627 6.98079C54.9832 8.94202 55.1895 11.3188 54.9815 14.111L53.8636 29.1195C53.6581 31.8785 53.0977 34.2552 52.1825 36.2497C51.2672 38.2442 49.87 39.7733 47.9908 40.837C46.1449 41.9007 43.6886 42.4326 40.6219 42.4326ZM41.0936 36.1001C42.0269 36.1001 42.7276 35.8674 43.1956 35.4021C43.6636 34.9367 43.9915 34.3383 44.1793 33.607C44.3671 32.8757 44.4895 32.1278 44.5465 31.3632L45.995 11.9171C46.0544 11.1193 46.0434 10.3714 45.9621 9.67333C45.8832 8.94202 45.6445 8.34368 45.2458 7.8783C44.8471 7.41293 44.1811 7.18024 43.2478 7.18024C42.3811 7.18024 41.7138 7.41293 41.2458 7.8783C40.7778 8.34368 40.4499 8.94202 40.2621 9.67333C40.0768 10.3714 39.9544 11.1193 39.895 11.9171L38.4465 31.3632C38.3895 32.1278 38.3838 32.8757 38.4293 33.607C38.5082 34.3383 38.7303 34.9367 39.0956 35.4021C39.4943 35.8674 40.1603 36.1001 41.0936 36.1001ZM61.6227 41.8342L64.1372 8.07775H58.0372L58.5312 1.44612H79.6812L79.1872 8.07775H73.1372L70.6227 41.8342H61.6227ZM104.587 42.4326C101.52 42.4326 99.1276 41.8841 97.4093 40.7871C95.7268 39.6569 94.5932 38.0946 94.0085 36.1001C93.4262 34.0724 93.2365 31.6957 93.4396 28.9699L94.5241 14.4102C94.7321 11.6179 95.277 9.22458 96.1589 7.2301C97.0433 5.20238 98.4097 3.64004 100.258 2.54308C102.14 1.44612 104.614 0.897643 107.681 0.897643C110.681 0.897643 112.977 1.39626 114.569 2.3935C116.197 3.3575 117.296 4.72039 117.865 6.48217C118.433 8.24396 118.632 10.2717 118.462 12.5653L118.202 16.0556H109.452L109.752 12.0168C109.812 11.219 109.819 10.4545 109.773 9.72319C109.761 8.99189 109.572 8.39354 109.207 7.92817C108.844 7.42955 108.179 7.18024 107.213 7.18024C106.279 7.18024 105.561 7.42955 105.057 7.92817C104.586 8.42679 104.256 9.05837 104.066 9.82292C103.911 10.5542 103.803 11.3354 103.741 12.1664L102.326 31.1638C102.259 32.0613 102.264 32.8923 102.34 33.6569C102.453 34.3882 102.708 34.9865 103.107 35.4519C103.541 35.8841 104.192 36.1001 105.058 36.1001C105.992 36.1001 106.676 35.8674 107.11 35.4021C107.548 34.9034 107.845 34.2718 108.002 33.5073C108.159 32.7428 108.267 31.9616 108.326 31.1638L108.642 26.9255H117.392L117.132 30.4159C116.961 32.7095 116.457 34.7705 115.621 36.5987C114.821 38.3938 113.531 39.8231 111.752 40.8869C110.008 41.9173 107.62 42.4326 104.587 42.4326ZM119.255 41.8342L129.914 1.44612H140.114L144.655 41.8342H136.405L135.69 33.3079H129.74L127.705 41.8342H119.255ZM130.938 27.9726H135.238L134.261 12.2163L130.938 27.9726ZM148.744 41.8342L151.753 1.44612H160.703L158.144 35.8009H167.444L166.994 41.8342H148.744ZM170.912 41.8342L173.921 1.44612H182.871L180.312 35.8009H189.612L189.162 41.8342H170.912Z" fill="url(#paint0_linear_472_4387)"/>
<path d="M1.03914 41.8342H-1.96086C-2.08393 43.4865 -0.840561 44.8259 0.816294 44.8259L1.03914 41.8342ZM4.04758 1.44612L4.27043 -1.54559C2.61358 -1.54559 1.17066 -0.206153 1.04758 1.44612H4.04758ZM10.3476 1.44612L13.1952 0.274449C12.8064 -0.8292 11.7732 -1.54559 10.5704 -1.54559L10.3476 1.44612ZM17.1991 20.8923L14.3514 22.0639C14.8124 23.3722 16.1621 24.1078 17.5803 23.8236C18.9984 23.5395 20.0932 22.3141 20.1991 20.8923H17.1991ZM18.6476 1.44612L18.8704 -1.54559C17.2136 -1.54559 15.7707 -0.206153 15.6476 1.44612H18.6476ZM26.0476 1.44612H29.0476C29.1707 -0.206153 27.9273 -1.54559 26.2704 -1.54559L26.0476 1.44612ZM23.0391 41.8342L22.8163 44.8259C24.4731 44.8259 25.9161 43.4865 26.0391 41.8342H23.0391ZM16.9891 41.8342L14.1172 42.9339C14.4847 44.0758 15.5351 44.8259 16.7663 44.8259L16.9891 41.8342ZM10.2491 20.8923L13.121 19.7926C12.691 18.4567 11.3417 17.6846 9.90672 17.9534C8.47171 18.2221 7.35607 19.4558 7.24908 20.8923H10.2491ZM8.68914 41.8342L8.46629 44.8259C10.1231 44.8259 11.5661 43.4865 11.6891 41.8342H8.68914ZM4.03914 41.8342L7.04758 1.44612H1.04758L-1.96086 41.8342H4.03914ZM3.82474 4.43783H10.1247L10.5704 -1.54559H4.27043L3.82474 4.43783ZM7.49995 2.6178L14.3514 22.0639L20.0467 19.7206L13.1952 0.274449L7.49995 2.6178ZM20.1991 20.8923L21.6476 1.44612H15.6476L14.1991 20.8923H20.1991ZM18.4247 4.43783H25.8247L26.2704 -1.54559H18.8704L18.4247 4.43783ZM23.0476 1.44612L20.0391 41.8342H26.0391L29.0476 1.44612H23.0476ZM23.262 38.8425H17.212L16.7663 44.8259H22.8163L23.262 38.8425ZM19.861 40.7346L13.121 19.7926L7.37718 21.9919L14.1172 42.9339L19.861 40.7346ZM7.24908 20.8923L5.68914 41.8342H11.6891L13.2491 20.8923H7.24908ZM8.91199 38.8425H1.26199L0.816294 44.8259H8.46629L8.91199 38.8425ZM33.5408 40.837L31.7994 43.3981L33.5408 40.837ZM30.0825 36.2497L27.2015 37.3205L30.0825 36.2497ZM32.2627 6.98079L29.5485 5.89417L29.5485 5.89418L32.2627 6.98079ZM36.3969 2.49322L37.7192 5.07563C37.7318 5.06861 37.7443 5.06151 37.7568 5.05432L36.3969 2.49322ZM50.8469 2.49322L49.1056 5.05432C49.1236 5.06569 49.1418 5.07685 49.1601 5.08779L50.8469 2.49322ZM54.3627 6.98079L51.4866 8.0674L54.3627 6.98079ZM52.1825 36.2497L49.461 35.1789L49.461 35.1789L52.1825 36.2497ZM47.9908 40.837L46.6531 38.2633C46.6457 38.2674 46.6383 38.2717 46.6309 38.2759L47.9908 40.837ZM43.1956 35.4021L41.1489 33.3663L41.1489 33.3663L43.1956 35.4021ZM44.1793 33.607L47.0911 34.1422L47.0911 34.1422L44.1793 33.607ZM45.9621 9.67333L42.9706 10.2085C42.9715 10.2167 42.9724 10.2249 42.9734 10.2331L45.9621 9.67333ZM45.2458 7.8783L42.8958 9.91401L42.8958 9.91402L45.2458 7.8783ZM41.2458 7.8783L43.2925 9.91402L43.2926 9.91401L41.2458 7.8783ZM40.2621 9.67333L43.1674 10.2331C43.1696 10.2249 43.1717 10.2167 43.1738 10.2085L40.2621 9.67333ZM38.4293 33.607L35.4267 34.0112C35.4294 34.055 35.4332 34.0987 35.4378 34.1422L38.4293 33.607ZM39.0956 35.4021L36.6728 37.349C36.6964 37.3791 36.7207 37.4087 36.7456 37.4378L39.0956 35.4021ZM40.8448 39.4409C38.1174 39.4409 36.3601 38.9554 35.2821 38.2759L31.7994 43.3981C34.0963 44.846 37.0597 45.4243 40.3991 45.4243L40.8448 39.4409ZM35.2821 38.2759C34.1625 37.5701 33.3968 36.577 32.9635 35.1789L27.2015 37.3205C28.0044 39.9113 29.5442 41.9765 31.7994 43.3981L35.2821 38.2759ZM32.9635 35.1789C32.4772 33.6097 32.2778 31.614 32.4636 29.1195H26.4636C26.2384 32.1429 26.4515 34.9007 27.2015 37.3205L32.9635 35.1789ZM32.4636 29.1195L33.5815 14.111H27.5815L26.4636 29.1195H32.4636ZM33.5815 14.111C33.7704 11.5759 34.2685 9.58952 34.9768 8.0674L29.5485 5.89418C28.4314 8.29453 27.8087 11.0616 27.5815 14.111H33.5815ZM34.9768 8.0674C35.6071 6.71313 36.5051 5.7543 37.7192 5.07563L35.0746 -0.0891851C32.6019 1.2931 30.7437 3.32598 29.5485 5.89417L34.9768 8.0674ZM37.7568 5.05432C38.936 4.37478 40.7656 3.88936 43.4929 3.88936L43.9386 -2.09407C40.5993 -2.09407 37.5497 -1.51577 35.0371 -0.0678742L37.7568 5.05432ZM43.4929 3.88936C46.2608 3.88936 48.0316 4.3773 49.1056 5.05432L52.5883 -0.0678742C50.2874 -1.51829 47.3041 -2.09407 43.9386 -2.09407L43.4929 3.88936ZM49.1601 5.08779C50.3045 5.77218 51.0635 6.73041 51.4866 8.0674L57.2387 5.89418C56.4206 3.3087 54.8358 1.27522 52.5338 -0.101349L49.1601 5.08779ZM51.4866 8.0674C51.9682 9.58952 52.1704 11.5759 51.9815 14.111H57.9815C58.2087 11.0616 57.9983 8.29453 57.2387 5.89418L51.4866 8.0674ZM51.9815 14.111L50.8636 29.1195H56.8636L57.9815 14.111H51.9815ZM50.8636 29.1195C50.6778 31.614 50.181 33.6097 49.461 35.1789L54.9039 37.3205C56.0144 34.9007 56.6384 32.1429 56.8636 29.1195H50.8636ZM49.461 35.1789C48.8272 36.5599 47.9096 37.552 46.6531 38.2633L49.3285 43.4107C51.8304 41.9946 53.7072 39.9284 54.9039 37.3205L49.461 35.1789ZM46.6309 38.2759C45.4561 38.9529 43.6126 39.4409 40.8448 39.4409L40.3991 45.4243C43.7645 45.4243 46.8337 44.8485 49.3506 43.3981L46.6309 38.2759ZM40.8708 39.0918C42.2464 39.0918 43.9229 38.7498 45.2424 37.4378L41.1489 33.3663C41.2317 33.284 41.3175 33.2197 41.3964 33.1726C41.4738 33.1264 41.5326 33.1037 41.5606 33.0944C41.6083 33.0786 41.5447 33.1084 41.3165 33.1084L40.8708 39.0918ZM45.2424 37.4378C46.1985 36.487 46.7841 35.3377 47.0911 34.1422L41.2676 33.0718C41.2316 33.2118 41.1948 33.2906 41.1749 33.3268C41.1649 33.3451 41.1578 33.3552 41.1545 33.3596C41.1513 33.3639 41.1496 33.3656 41.1489 33.3663L45.2424 37.4378ZM47.0911 34.1422C47.3255 33.2293 47.4765 32.3021 47.5465 31.3632H41.5465C41.5025 31.9534 41.4088 32.5221 41.2676 33.0719L47.0911 34.1422ZM47.5465 31.3632L48.995 11.9171H42.995L41.5465 31.3632H47.5465ZM48.995 11.9171C49.0667 10.954 49.0561 10.017 48.9508 9.11355L42.9734 10.2331C43.0308 10.7258 43.0421 11.2847 42.995 11.9171H48.995ZM48.9536 9.13816C48.8247 7.9427 48.4103 6.79335 47.5958 5.84259L42.8958 9.91402C42.8964 9.91471 42.8978 9.91643 42.9004 9.92071C42.903 9.92512 42.9087 9.93528 42.916 9.95357C42.9304 9.9898 42.9555 10.0685 42.9706 10.2085L48.9536 9.13816ZM47.5958 5.84259C46.4719 4.53056 44.8463 4.18853 43.4707 4.18853L43.025 10.1719C43.2532 10.1719 43.3123 10.2018 43.267 10.186C43.2404 10.1767 43.1849 10.154 43.1145 10.1077C43.0426 10.0606 42.9663 9.99635 42.8958 9.91401L47.5958 5.84259ZM43.4707 4.18853C42.0822 4.18853 40.4771 4.57169 39.1991 5.84259L43.2926 9.91401C43.2242 9.982 43.1497 10.0399 43.0752 10.0857C43.0015 10.1309 42.9403 10.1569 42.9012 10.1705C42.8281 10.196 42.8527 10.1719 43.025 10.1719L43.4707 4.18853ZM39.1991 5.84259C38.2429 6.79335 37.6574 7.94271 37.3504 9.13816L43.1738 10.2085C43.2098 10.0685 43.2466 9.9898 43.2665 9.95357C43.2765 9.93527 43.2837 9.92512 43.2869 9.92071C43.2902 9.91643 43.2919 9.91471 43.2925 9.91402L39.1991 5.84259ZM37.3568 9.11354C37.1169 10.017 36.9667 10.954 36.895 11.9171H42.895C42.9421 11.2847 43.0366 10.7258 43.1674 10.2331L37.3568 9.11354ZM36.895 11.9171L35.4465 31.3632H41.4465L42.895 11.9171H36.895ZM35.4465 31.3632C35.3798 32.2582 35.3726 33.1413 35.4267 34.0112L41.4319 33.2028C41.395 32.6102 41.3992 31.9974 41.4465 31.3632H35.4465ZM35.4378 34.1422C35.561 35.2845 35.9303 36.4032 36.6728 37.349L41.5184 33.4551C41.5183 33.455 41.5155 33.4515 41.5106 33.4425C41.5055 33.4334 41.4971 33.4164 41.487 33.3892C41.4667 33.3345 41.4383 33.2343 41.4208 33.0719L35.4378 34.1422ZM36.7456 37.4378C37.8695 38.7498 39.4951 39.0918 40.8708 39.0918L41.3165 33.1084C41.0882 33.1084 41.0291 33.0786 41.0744 33.0944C41.101 33.1037 41.1565 33.1264 41.227 33.1726C41.2988 33.2197 41.3751 33.284 41.4456 33.3663L36.7456 37.4378ZM61.6227 41.8342H58.6227C58.4997 43.4865 59.743 44.8259 61.3999 44.8259L61.6227 41.8342ZM64.1372 8.07775H67.1372C67.2603 6.42547 66.0169 5.08604 64.36 5.08604L64.1372 8.07775ZM58.0372 8.07775H55.0372C54.9141 9.73003 56.1575 11.0695 57.8144 11.0695L58.0372 8.07775ZM58.5312 1.44612L58.754 -1.54559C57.0972 -1.54559 55.6543 -0.206153 55.5312 1.44612H58.5312ZM79.6812 1.44612H82.6812C82.8043 -0.206153 81.5609 -1.54559 79.904 -1.54559L79.6812 1.44612ZM79.1872 8.07775L78.9643 11.0695C80.6212 11.0695 82.0641 9.73003 82.1872 8.07775H79.1872ZM73.1372 8.07775L73.36 5.08604C71.7032 5.08604 70.2603 6.42547 70.1372 8.07775H73.1372ZM70.6227 41.8342L70.3999 44.8259C72.0567 44.8259 73.4997 43.4865 73.6227 41.8342H70.6227ZM64.6227 41.8342L67.1372 8.07775H61.1372L58.6227 41.8342H64.6227ZM64.36 5.08604H58.26L57.8144 11.0695H63.9144L64.36 5.08604ZM61.0372 8.07775L61.5312 1.44612H55.5312L55.0372 8.07775H61.0372ZM58.3083 4.43783H79.4583L79.904 -1.54559H58.754L58.3083 4.43783ZM76.6812 1.44612L76.1872 8.07775H82.1872L82.6812 1.44612H76.6812ZM79.41 5.08604H73.36L72.9144 11.0695H78.9643L79.41 5.08604ZM70.1372 8.07775L67.6227 41.8342H73.6227L76.1372 8.07775H70.1372ZM70.8456 38.8425H61.8456L61.3999 44.8259H70.3999L70.8456 38.8425ZM97.4093 40.7871L95.6019 43.3052C95.6194 43.317 95.637 43.3286 95.6548 43.3399L97.4093 40.7871ZM94.0085 36.1001L91.1108 37.1151C91.1122 37.1201 91.1137 37.1251 91.1151 37.13L94.0085 36.1001ZM96.1589 7.2301L98.8988 8.26001C98.901 8.25504 98.9032 8.25007 98.9054 8.24508L96.1589 7.2301ZM100.258 2.54308L98.8839 -0.00968964C98.8764 -0.00534529 98.869 -0.000972407 98.8616 0.003429L100.258 2.54308ZM114.569 2.3935L112.835 4.95887C112.854 4.97087 112.873 4.98264 112.893 4.99417L114.569 2.3935ZM117.865 6.48217L114.994 7.58421L117.865 6.48217ZM118.202 16.0556L117.979 19.0474C119.636 19.0474 121.078 17.7079 121.202 16.0556H118.202ZM109.452 16.0556H106.452C106.328 17.7079 107.572 19.0474 109.229 19.0474L109.452 16.0556ZM109.773 9.72319L106.765 9.99405C106.766 10.0386 106.768 10.0831 106.771 10.1274L109.773 9.72319ZM109.207 7.92817L106.725 9.79707C106.744 9.82346 106.764 9.84949 106.784 9.87515L109.207 7.92817ZM105.057 7.92817L103.016 5.88687C102.989 5.91373 102.962 5.94104 102.936 5.9688L105.057 7.92817ZM104.066 9.82292L101.148 9.31031C101.139 9.34633 101.131 9.38247 101.123 9.4187L104.066 9.82292ZM102.34 33.6569L99.3466 34.1695C99.3517 34.2199 99.358 34.27 99.3657 34.3199L102.34 33.6569ZM103.107 35.4519L100.757 37.4876C100.803 37.5417 100.852 37.594 100.902 37.6442L103.107 35.4519ZM107.11 35.4021L109.243 37.349C109.267 37.3234 109.291 37.2973 109.314 37.271L107.11 35.4021ZM108.002 33.5073L105.056 33.1204L105.056 33.1204L108.002 33.5073ZM108.642 26.9255L108.865 23.9338C107.208 23.9338 105.765 25.2733 105.642 26.9255H108.642ZM117.392 26.9255H120.392C120.515 25.2733 119.272 23.9338 117.615 23.9338L117.392 26.9255ZM115.621 36.5987L112.898 35.5316C112.894 35.5409 112.89 35.5503 112.885 35.5597L115.621 36.5987ZM111.752 40.8869L113.143 43.4295C113.148 43.4267 113.153 43.4239 113.158 43.421L111.752 40.8869ZM104.81 39.4409C102.059 39.4409 100.273 38.9424 99.1638 38.2344L95.6548 43.3399C97.9824 44.8258 100.981 45.4243 104.364 45.4243L104.81 39.4409ZM99.2168 38.269C98.0675 37.497 97.3097 36.4615 96.9018 35.0702L91.1151 37.13C91.8767 39.7276 93.3862 41.8169 95.6019 43.3052L99.2168 38.269ZM96.9061 35.0851C96.4383 33.4562 96.2558 31.4371 96.4396 28.9699H90.4396C90.2173 31.9542 90.414 34.6886 91.1108 37.1151L96.9061 35.0851ZM96.4396 28.9699L97.5241 14.4102H91.5241L90.4396 28.9699H96.4396ZM97.5241 14.4102C97.7137 11.865 98.2006 9.83909 98.8988 8.26001L93.419 6.20019C92.3534 8.61006 91.7505 11.3709 91.5241 14.4102H97.5241ZM98.9054 8.24508C99.5255 6.82332 100.429 5.80989 101.655 5.08274L98.8616 0.003429C96.3901 1.4702 94.5611 3.58145 93.4125 6.21512L98.9054 8.24508ZM101.632 5.09586C102.847 4.38785 104.707 3.88936 107.458 3.88936L107.903 -2.09407C104.521 -2.09407 101.433 -1.4956 98.8839 -0.00968964L101.632 5.09586ZM107.458 3.88936C110.185 3.88936 111.867 4.353 112.835 4.95887L116.304 -0.17187C114.086 -1.56047 111.176 -2.09407 107.903 -2.09407L107.458 3.88936ZM112.893 4.99417C113.97 5.63209 114.636 6.47538 114.994 7.58421L120.736 5.38013C119.956 2.96539 118.425 1.0829 116.246 -0.207165L112.893 4.99417ZM114.994 7.58421C115.428 8.9299 115.61 10.5717 115.462 12.5653H121.462C121.655 9.97161 121.439 7.55802 120.736 5.38013L114.994 7.58421ZM115.462 12.5653L115.202 16.0556H121.202L121.462 12.5653H115.462ZM118.424 13.0639H109.674L109.229 19.0474H117.979L118.424 13.0639ZM112.452 16.0556L112.752 12.0168H106.752L106.452 16.0556H112.452ZM112.752 12.0168C112.821 11.0946 112.83 10.1945 112.776 9.31897L106.771 10.1274C106.807 10.7145 106.803 11.3435 106.752 12.0168H112.752ZM112.781 9.45234C112.761 8.22765 112.434 7.0055 111.63 5.98118L106.784 9.87515C106.772 9.85937 106.762 9.84347 106.754 9.82952C106.747 9.81574 106.745 9.80829 106.746 9.81029C106.747 9.81425 106.763 9.86793 106.765 9.99405L112.781 9.45234ZM111.689 6.05926C110.59 4.54924 108.839 4.18853 107.435 4.18853L106.99 10.1719C107.23 10.1719 107.271 10.205 107.196 10.1768C107.153 10.1607 107.077 10.1262 106.987 10.0607C106.895 9.99382 106.804 9.90555 106.725 9.79707L111.689 6.05926ZM107.435 4.18853C105.985 4.18853 104.33 4.58581 103.016 5.88687L107.098 9.96946C107.038 10.0288 106.973 10.0787 106.91 10.1175C106.847 10.1558 106.798 10.1758 106.773 10.1846C106.727 10.2005 106.783 10.1719 106.99 10.1719L107.435 4.18853ZM102.936 5.9688C102.014 6.94579 101.448 8.10545 101.148 9.31031L106.983 10.3355C107.064 10.0113 107.159 9.90778 107.178 9.88753L102.936 5.9688ZM101.123 9.4187C100.937 10.2994 100.812 11.2167 100.741 12.1664H106.741C106.794 11.454 106.885 10.809 107.008 10.2271L101.123 9.4187ZM100.741 12.1664L99.3262 31.1638H105.326L106.741 12.1664H100.741ZM99.3262 31.1638C99.2484 32.2071 99.251 33.2118 99.3466 34.1695L105.334 33.1443C105.277 32.5728 105.27 31.9155 105.326 31.1638H99.3262ZM99.3657 34.3199C99.5423 35.4712 99.9722 36.5718 100.757 37.4876L105.457 33.4162C105.444 33.4013 105.363 33.3052 105.315 32.9939L99.3657 34.3199ZM100.902 37.6442C102.015 38.7516 103.489 39.0918 104.836 39.0918L105.281 33.1084C105.091 33.1084 105.033 33.084 105.06 33.0928C105.075 33.0979 105.111 33.1116 105.159 33.1403C105.208 33.1694 105.261 33.209 105.311 33.2596L100.902 37.6442ZM104.836 39.0918C106.187 39.0918 107.926 38.7595 109.243 37.349L104.978 33.4551C105.076 33.35 105.18 33.2673 105.278 33.2062C105.374 33.1464 105.45 33.1157 105.491 33.1018C105.562 33.0778 105.513 33.1084 105.281 33.1084L104.836 39.0918ZM109.314 37.271C110.196 36.2643 110.702 35.0882 110.948 33.8942L105.056 33.1204C105.021 33.2911 104.98 33.3973 104.952 33.4559C104.926 33.5117 104.909 33.5313 104.907 33.5331L109.314 37.271ZM110.948 33.8943C111.132 32.997 111.257 32.0865 111.326 31.1638H105.326C105.276 31.8367 105.185 32.4885 105.056 33.1204L110.948 33.8943ZM111.326 31.1638L111.642 26.9255H105.642L105.326 31.1638H111.326ZM108.419 29.9172H117.169L117.615 23.9338H108.865L108.419 29.9172ZM114.392 26.9255L114.132 30.4159H120.132L120.392 26.9255H114.392ZM114.132 30.4159C113.984 32.4064 113.554 34.0972 112.898 35.5316L118.344 37.6659C119.361 35.4437 119.938 33.0127 120.132 30.4159H114.132ZM112.885 35.5597C112.374 36.7063 111.568 37.6225 110.346 38.3527L113.158 43.421C115.495 42.0238 117.268 40.0812 118.357 37.6378L112.885 35.5597ZM110.36 38.3442C109.315 38.962 107.565 39.4409 104.81 39.4409L104.364 45.4243C107.675 45.4243 110.702 44.8726 113.143 43.4295L110.36 38.3442ZM119.255 41.8342L116.349 41.279C116.118 42.1542 116.284 43.0575 116.803 43.7433C117.322 44.4291 118.139 44.8259 119.032 44.8259L119.255 41.8342ZM129.914 1.44612L130.136 -1.54559C128.694 -1.54559 127.38 -0.522315 127.007 0.89084L129.914 1.44612ZM140.114 1.44612L143.104 0.897853C142.944 -0.518578 141.781 -1.54559 140.336 -1.54559L140.114 1.44612ZM144.655 41.8342L144.432 44.8259C145.324 44.8259 146.199 44.4302 146.82 43.746C147.441 43.0619 147.744 42.1603 147.645 41.286L144.655 41.8342ZM136.405 41.8342L133.407 42.3008C133.529 43.755 134.706 44.8259 136.182 44.8259L136.405 41.8342ZM135.69 33.3079L138.688 32.8413C138.566 31.3871 137.389 30.3161 135.913 30.3161L135.69 33.3079ZM129.74 33.3079L129.963 30.3161C128.493 30.3161 127.161 31.378 126.816 32.8244L129.74 33.3079ZM127.705 41.8342L127.482 44.8259C128.952 44.8259 130.284 43.7641 130.63 42.3177L127.705 41.8342ZM130.938 27.9726L127.995 27.5693C127.815 28.4252 128.01 29.2896 128.531 29.9403C129.053 30.591 129.849 30.9643 130.715 30.9643L130.938 27.9726ZM135.238 27.9726L135.015 30.9643C135.881 30.9643 136.733 30.591 137.351 29.9403C137.969 29.2896 138.293 28.4252 138.24 27.5693L135.238 27.9726ZM134.261 12.2163L137.264 11.8129C137.172 10.3302 135.985 9.22457 134.484 9.22457C132.984 9.22457 131.632 10.3302 131.319 11.8129L134.261 12.2163ZM122.162 42.3895L132.82 2.00141L127.007 0.89084L116.349 41.279L122.162 42.3895ZM129.691 4.43783H139.891L140.336 -1.54559H130.136L129.691 4.43783ZM137.124 1.99439L141.665 42.3825L147.645 41.286L143.104 0.897853L137.124 1.99439ZM144.878 38.8425H136.628L136.182 44.8259H144.432L144.878 38.8425ZM139.403 41.3676L138.688 32.8413L132.692 33.7745L133.407 42.3008L139.403 41.3676ZM135.913 30.3161H129.963L129.517 36.2996H135.467L135.913 30.3161ZM126.816 32.8244L124.781 41.3508L130.63 42.3177L132.665 33.7913L126.816 32.8244ZM127.928 38.8425H119.478L119.032 44.8259H127.482L127.928 38.8425ZM130.715 30.9643H135.015L135.461 24.9809H131.161L130.715 30.9643ZM138.24 27.5693L137.264 11.8129L131.259 12.6197L132.235 28.376L138.24 27.5693ZM131.319 11.8129L127.995 27.5693L133.88 28.376L137.204 12.6197L131.319 11.8129ZM148.744 41.8342H145.744C145.621 43.4865 146.865 44.8259 148.521 44.8259L148.744 41.8342ZM151.753 1.44612L151.976 -1.54559C150.319 -1.54559 148.876 -0.206153 148.753 1.44612H151.753ZM160.703 1.44612H163.703C163.826 -0.206153 162.582 -1.54559 160.926 -1.54559L160.703 1.44612ZM158.144 35.8009H155.144C155.021 37.4532 156.264 38.7927 157.921 38.7927L158.144 35.8009ZM167.444 35.8009H170.444C170.567 34.1487 169.323 32.8092 167.666 32.8092L167.444 35.8009ZM166.994 41.8342L166.771 44.8259C168.428 44.8259 169.871 43.4865 169.994 41.8342H166.994ZM151.744 41.8342L154.753 1.44612H148.753L145.744 41.8342H151.744ZM151.53 4.43783H160.48L160.926 -1.54559H151.976L151.53 4.43783ZM157.703 1.44612L155.144 35.8009H161.144L163.703 1.44612H157.703ZM157.921 38.7927H167.221L167.666 32.8092H158.366L157.921 38.7927ZM164.444 35.8009L163.994 41.8342H169.994L170.444 35.8009H164.444ZM167.217 38.8425H148.967L148.521 44.8259H166.771L167.217 38.8425ZM170.912 41.8342H167.912C167.789 43.4865 169.032 44.8259 170.689 44.8259L170.912 41.8342ZM173.921 1.44612L174.143 -1.54559C172.487 -1.54559 171.044 -0.206153 170.921 1.44612H173.921ZM182.871 1.44612H185.871C185.994 -0.206153 184.75 -1.54559 183.093 -1.54559L182.871 1.44612ZM180.312 35.8009H177.312C177.189 37.4532 178.432 38.7927 180.089 38.7927L180.312 35.8009ZM189.612 35.8009H192.612C192.735 34.1487 191.491 32.8092 189.834 32.8092L189.612 35.8009ZM189.162 41.8342L188.939 44.8259C190.596 44.8259 192.039 43.4865 192.162 41.8342H189.162ZM173.912 41.8342L176.921 1.44612H170.921L167.912 41.8342H173.912ZM173.698 4.43783H182.648L183.093 -1.54559H174.143L173.698 4.43783ZM179.871 1.44612L177.312 35.8009H183.312L185.871 1.44612H179.871ZM180.089 38.7927H189.389L189.834 32.8092H180.534L180.089 38.7927ZM186.612 35.8009L186.162 41.8342H192.162L192.612 35.8009H186.612ZM189.385 38.8425H171.135L170.689 44.8259H188.939L189.385 38.8425Z" fill="#F811FD" fill-opacity="0.6"/>
<defs>
<linearGradient id="paint0_linear_472_4387" x1="98.7029" y1="-1.06024" x2="103.188" y2="45.2341" gradientUnits="userSpaceOnUse">
<stop stop-color="#FFFACE"/>
<stop offset="0.838542" stop-color="#F7B553"/>
</linearGradient>
</defs>
</svg>