<svg width="104" height="43" viewBox="0 0 104 43" fill="none" xmlns="http://www.w3.org/2000/svg">
<path d="M1.03914 41.8342L4.04758 1.44612H17.6476C20.0809 1.44612 22.0463 1.9115 23.5436 2.84225C25.0434 3.73977 26.111 5.06942 26.7465 6.83121C27.3844 8.55975 27.6105 10.6706 27.4248 13.1637C27.192 16.2883 26.4971 18.6817 25.3399 20.3438C24.1853 21.9726 22.7011 23.1028 20.8874 23.7344C19.0737 24.366 17.0668 24.6818 14.8668 24.6818H11.2668L9.98914 41.8342H1.03914ZM11.7311 18.449H14.7311C15.8311 18.449 16.6793 18.2496 17.2756 17.8507C17.872 17.4518 18.2833 16.8534 18.5093 16.0556C18.7688 15.2579 18.9443 14.244 19.0359 13.0141C19.1127 11.9836 19.0962 11.0861 18.9865 10.3215C18.9126 9.52375 18.6096 8.89216 18.0776 8.42679C17.5456 7.96141 16.6796 7.72872 15.4796 7.72872H12.5296L11.7311 18.449ZM25.3098 41.8342L35.9683 1.44612H46.1683L50.7098 41.8342H42.4598L41.745 33.3079H35.795L33.7598 41.8342H25.3098ZM36.9924 27.9726H41.2924L40.316 12.2163L36.9924 27.9726ZM65.1137 42.4326C62.5804 42.4326 60.4971 41.9838 58.864 41.0863C57.2308 40.1888 56.0503 38.8093 55.3223 36.9478C54.5967 35.053 54.2954 32.6098 54.4182 29.6181L62.1537 28.4713C62.0582 30.1998 62.1042 31.5959 62.2917 32.6596C62.5124 33.7234 62.8555 34.4879 63.3208 34.9533C63.8195 35.4187 64.4355 35.6514 65.1688 35.6514C66.1022 35.6514 66.7257 35.3356 67.0394 34.704C67.3864 34.0724 67.586 33.4076 67.638 32.7095C67.7618 31.0474 67.4658 29.6513 66.75 28.5211C66.0366 27.3577 65.0399 26.1942 63.7599 25.0308L60.4865 21.9892C59.0497 20.6928 57.8587 19.2302 56.9133 17.6014C56.0038 15.9393 55.6394 13.895 55.8202 11.4684C56.0752 8.04451 57.2863 5.43507 59.4533 3.64005C61.6228 1.81178 64.4576 0.897643 67.9576 0.897643C70.1242 0.897643 71.8303 1.2633 73.0759 1.9946C74.3547 2.72591 75.2829 3.68991 75.8605 4.88659C76.4738 6.05004 76.8476 7.29658 76.9819 8.62623C77.152 9.92264 77.2091 11.1692 77.1533 12.3659L69.3828 13.3132C69.4386 12.1166 69.432 11.0861 69.363 10.2218C69.3299 9.3243 69.1473 8.64285 68.8153 8.17748C68.4858 7.67886 67.9377 7.42955 67.171 7.42955C66.3377 7.42955 65.695 7.77858 65.243 8.47665C64.8244 9.17471 64.589 9.87278 64.537 10.5708C64.4256 12.0667 64.684 13.2966 65.3122 14.2606C65.9762 15.1914 66.8532 16.172 67.9431 17.2025L71.0739 20.1443C72.7292 21.6402 74.0862 23.3355 75.1451 25.2302C76.2373 27.125 76.6794 29.4685 76.4714 32.2608C76.3303 34.1555 75.7682 35.8841 74.7851 37.4464C73.8046 38.9755 72.4808 40.1888 70.814 41.0863C69.1805 41.9838 67.2804 42.4326 65.1137 42.4326ZM90.0161 42.4326C87.4827 42.4326 85.3995 41.9838 83.7663 41.0863C82.1332 40.1888 80.9526 38.8093 80.2246 36.9478C79.4991 35.053 79.1977 32.6098 79.3206 29.6181L87.056 28.4713C86.9606 30.1998 87.0066 31.5959 87.194 32.6596C87.4148 33.7234 87.7578 34.4879 88.2232 34.9533C88.7218 35.4187 89.3378 35.6514 90.0712 35.6514C91.0045 35.6514 91.628 35.3356 91.9417 34.704C92.2888 34.0724 92.4883 33.4076 92.5403 32.7095C92.6641 31.0474 92.3681 29.6513 91.6523 28.5211C90.939 27.3577 89.9423 26.1942 88.6623 25.0308L85.3888 21.9892C83.9521 20.6928 82.761 19.2302 81.8157 17.6014C80.9062 15.9393 80.5418 13.895 80.7225 11.4684C80.9776 8.04451 82.1886 5.43507 84.3556 3.64005C86.5252 1.81178 89.3599 0.897643 92.8599 0.897643C95.0266 0.897643 96.7327 1.2633 97.9782 1.9946C99.2571 2.72591 100.185 3.68991 100.763 4.88659C101.376 6.05004 101.75 7.29658 101.884 8.62623C102.054 9.92264 102.111 11.1692 102.056 12.3659L94.2851 13.3132C94.3409 12.1166 94.3343 11.0861 94.2654 10.2218C94.2322 9.3243 94.0497 8.64285 93.7177 8.17748C93.3881 7.67886 92.84 7.42955 92.0734 7.42955C91.24 7.42955 90.5974 7.77858 90.1454 8.47665C89.7267 9.17471 89.4914 9.87278 89.4394 10.5708C89.328 12.0667 89.5863 13.2966 90.2145 14.2606C90.8785 15.1914 91.7555 16.172 92.8454 17.2025L95.9763 20.1443C97.6315 21.6402 98.9886 23.3355 100.047 25.2302C101.14 27.125 101.582 29.4685 101.374 32.2608C101.233 34.1555 100.671 35.8841 99.6875 37.4464C98.7069 38.9755 97.3832 40.1888 95.7163 41.0863C94.0828 41.9838 92.1827 42.4326 90.0161 42.4326Z" fill="url(#paint0_linear_256_2876)"/>
<path d="M1.03914 41.8342H-1.96086C-2.08393 43.4865 -0.840561 44.8259 0.816294 44.8259L1.03914 41.8342ZM4.04758 1.44612L4.27043 -1.54559C2.61358 -1.54559 1.17066 -0.206153 1.04758 1.44612H4.04758ZM23.5436 2.84226L21.8167 5.41244C21.8297 5.42053 21.8428 5.42851 21.856 5.43638L23.5436 2.84226ZM26.7465 6.83121L23.9057 8.02219C23.908 8.02859 23.9104 8.03499 23.9127 8.04137L26.7465 6.83121ZM25.3399 20.3438L27.756 21.9433C27.7615 21.9356 27.7668 21.9279 27.7722 21.9202L25.3399 20.3438ZM20.8874 23.7344L21.69 26.5506L20.8874 23.7344ZM11.2668 24.6818L11.4896 21.69C9.83279 21.69 8.38988 23.0295 8.2668 24.6818H11.2668ZM9.98914 41.8342L9.76629 44.8259C11.4231 44.8259 12.8661 43.4865 12.9891 41.8342H9.98914ZM11.7311 18.449H8.73107C8.60799 20.1013 9.85137 21.4407 11.5082 21.4407L11.7311 18.449ZM17.2756 17.8507L15.7276 15.4065L15.7276 15.4065L17.2756 17.8507ZM18.5093 16.0556L15.653 15.3301C15.6405 15.3684 15.6288 15.4068 15.6179 15.4455L18.5093 16.0556ZM18.9865 10.3215L15.9907 10.8134C15.9951 10.8615 16.0008 10.9094 16.0076 10.9571L18.9865 10.3215ZM18.0776 8.42679L15.9985 10.7362H15.9985L18.0776 8.42679ZM12.5296 7.72872L12.7525 4.73701C11.0956 4.73701 9.65268 6.07644 9.5296 7.72872H12.5296ZM4.03914 41.8342L7.04758 1.44612H1.04758L-1.96086 41.8342H4.03914ZM3.82474 4.43783H17.4247L17.8704 -1.54559H4.27043L3.82474 4.43783ZM17.4247 4.43783C19.4927 4.43783 20.8878 4.83503 21.8167 5.41244L25.2705 0.272071C23.2047 -1.01203 20.6691 -1.54559 17.8704 -1.54559L17.4247 4.43783ZM21.856 5.43638C22.7836 5.9915 23.4683 6.80946 23.9057 8.02219L29.5872 5.64023C28.7537 3.32938 27.3032 1.48803 25.2312 0.248126L21.856 5.43638ZM23.9127 8.04137C24.3727 9.28786 24.5889 10.9608 24.4248 13.1637H30.4248C30.6321 10.3804 30.396 7.83164 29.5802 5.62104L23.9127 8.04137ZM24.4248 13.1637C24.211 16.0338 23.5931 17.7828 22.9076 18.7673L27.7722 21.9202C29.401 19.5807 30.1731 16.5429 30.4248 13.1637H24.4248ZM22.9238 18.7443C22.1558 19.8278 21.2318 20.5187 20.0848 20.9182L21.69 26.5506C24.1704 25.6869 26.2148 24.1174 27.756 21.9433L22.9238 18.7443ZM20.0848 20.9182C18.6565 21.4155 17.0027 21.69 15.0896 21.69L14.644 27.6735C17.1309 27.6735 19.4909 27.3164 21.69 26.5506L20.0848 20.9182ZM15.0896 21.69H11.4896L11.044 27.6735H14.644L15.0896 21.69ZM8.2668 24.6818L6.98914 41.8342H12.9891L14.2668 24.6818H8.2668ZM10.212 38.8425H1.26199L0.816294 44.8259H9.76629L10.212 38.8425ZM11.5082 21.4407H14.5082L14.9539 15.4573H11.9539L11.5082 21.4407ZM14.5082 21.4407C15.8927 21.4407 17.465 21.2035 18.8236 20.2948L15.7276 15.4065C15.8234 15.3425 15.8423 15.3589 15.7088 15.3903C15.573 15.4223 15.3309 15.4573 14.9539 15.4573L14.5082 21.4407ZM18.8236 20.2948C20.1874 19.3826 21.0044 18.0645 21.4008 16.6658L15.6179 15.4455C15.5848 15.562 15.5625 15.5795 15.5877 15.5427C15.6 15.5248 15.6197 15.4999 15.6471 15.4728C15.6746 15.4456 15.7027 15.4233 15.7276 15.4065L18.8236 20.2948ZM21.3657 16.7812C21.7302 15.6603 21.9341 14.3806 22.0359 13.0141H16.0359C15.9545 14.1074 15.8073 14.8554 15.653 15.3301L21.3657 16.7812ZM22.0359 13.0141C22.1239 11.8329 22.1127 10.713 21.9653 9.68601L16.0076 10.9571C16.0797 11.4591 16.1014 12.1343 16.0359 13.0141H22.0359ZM21.9823 9.8297C21.8498 8.39955 21.2701 7.0913 20.1568 6.11739L15.9985 10.7362C15.9992 10.7368 15.9939 10.7322 15.9863 10.7222C15.9787 10.7122 15.9733 10.7027 15.9703 10.6966C15.9675 10.6907 15.9698 10.6938 15.9742 10.7103C15.9786 10.7272 15.9857 10.7602 15.9907 10.8134L21.9823 9.8297ZM20.1568 6.11739C18.8872 5.00682 17.1884 4.73701 15.7025 4.73701L15.2568 10.7204C15.6739 10.7204 15.9223 10.7621 16.0475 10.7957C16.1682 10.8282 16.1126 10.8361 15.9985 10.7362L20.1568 6.11739ZM15.7025 4.73701H12.7525L12.3068 10.7204H15.2568L15.7025 4.73701ZM9.5296 7.72872L8.73107 18.449H14.7311L15.5296 7.72872H9.5296ZM25.3098 41.8342L22.4033 41.279C22.1724 42.1542 22.339 43.0575 22.8578 43.7433C23.3767 44.4291 24.1938 44.8259 25.087 44.8259L25.3098 41.8342ZM35.9683 1.44612L36.1911 -1.54559C34.749 -1.54559 33.4347 -0.522315 33.0618 0.89084L35.9683 1.44612ZM46.1683 1.44612L49.1583 0.897853C48.999 -0.518578 47.836 -1.54559 46.3911 -1.54559L46.1683 1.44612ZM50.7098 41.8342L50.487 44.8259C51.3789 44.8259 52.254 44.4302 52.875 43.746C53.4959 43.0619 53.7982 42.1603 53.6999 41.286L50.7098 41.8342ZM42.4598 41.8342L39.4618 42.3008C39.5837 43.755 40.7608 44.8259 42.237 44.8259L42.4598 41.8342ZM41.745 33.3079L44.743 32.8413C44.6211 31.3871 43.444 30.3161 41.9678 30.3161L41.745 33.3079ZM35.795 33.3079L36.0178 30.3161C34.5481 30.3161 33.2156 31.378 32.8704 32.8244L35.795 33.3079ZM33.7598 41.8342L33.537 44.8259C35.0067 44.8259 36.3392 43.7641 36.6844 42.3177L33.7598 41.8342ZM36.9924 27.9726L34.0498 27.5693C33.8693 28.4252 34.0648 29.2896 34.586 29.9403C35.1072 30.591 35.9033 30.9643 36.7695 30.9643L36.9924 27.9726ZM41.2924 27.9726L41.0695 30.9643C41.9357 30.9643 42.7874 30.591 43.4056 29.9403C44.0238 29.2896 44.3481 28.4252 44.295 27.5693L41.2924 27.9726ZM40.316 12.2163L43.3187 11.8129C43.2268 10.3302 42.0394 9.22457 40.5389 9.22457C39.0383 9.22457 37.6862 10.3302 37.3735 11.8129L40.316 12.2163ZM28.2164 42.3895L38.8748 2.00141L33.0618 0.89084L22.4033 41.279L28.2164 42.3895ZM35.7454 4.43783H45.9454L46.3911 -1.54559H36.1911L35.7454 4.43783ZM43.1783 1.99439L47.7198 42.3825L53.6999 41.286L49.1583 0.897853L43.1783 1.99439ZM50.9327 38.8425H42.6827L42.237 44.8259H50.487L50.9327 38.8425ZM45.4579 41.3676L44.743 32.8413L38.7469 33.7745L39.4618 42.3008L45.4579 41.3676ZM41.9678 30.3161H36.0178L35.5721 36.2996H41.5221L41.9678 30.3161ZM32.8704 32.8244L30.8353 41.3508L36.6844 42.3177L38.7195 33.7913L32.8704 32.8244ZM33.9827 38.8425H25.5327L25.087 44.8259H33.537L33.9827 38.8425ZM36.7695 30.9643H41.0695L41.5152 24.9809H37.2152L36.7695 30.9643ZM44.295 27.5693L43.3187 11.8129L37.3134 12.6197L38.2897 28.376L44.295 27.5693ZM37.3735 11.8129L34.0498 27.5693L39.9349 28.376L43.2586 12.6197L37.3735 11.8129ZM58.864 41.0863L57.2634 43.7303L58.864 41.0863ZM55.3223 36.9478L52.5003 38.1893C52.5027 38.1954 52.505 38.2015 52.5074 38.2076L55.3223 36.9478ZM54.4182 29.6181L54.1926 26.6596C52.6701 26.8853 51.4748 28.2001 51.4125 29.7177L54.4182 29.6181ZM62.1537 28.4713L65.1574 28.4137C65.2049 27.5528 64.8777 26.7408 64.2593 26.1853C63.6409 25.6299 62.7914 25.3848 61.9281 25.5128L62.1537 28.4713ZM62.2917 32.6596L59.3272 33.3852C59.3322 33.4135 59.3376 33.4416 59.3434 33.4696L62.2917 32.6596ZM63.3208 34.9533L61.111 37.1404C61.1328 37.1622 61.155 37.1837 61.1776 37.2048L63.3208 34.9533ZM67.0394 34.704L64.4236 33.4233C64.4019 33.4628 64.381 33.5027 64.361 33.543L67.0394 34.704ZM66.75 28.5211L64.1497 30.213C64.1566 30.2242 64.1635 30.2353 64.1705 30.2464L66.75 28.5211ZM63.7599 25.0308L61.621 27.2863C61.6282 27.2929 61.6354 27.2996 61.6427 27.3062L63.7599 25.0308ZM60.4865 21.9892L62.6254 19.7337C62.6159 19.7248 62.6062 19.716 62.5965 19.7073L60.4865 21.9892ZM56.9133 17.6014L54.2462 19.1778C54.2571 19.1978 54.2683 19.2176 54.2797 19.2372L56.9133 17.6014ZM59.4533 3.64005L61.275 5.88013C61.2822 5.8741 61.2895 5.86804 61.2967 5.86196L59.4533 3.64005ZM73.0759 1.99461L71.4078 4.60032C71.4168 4.60559 71.4258 4.61082 71.4348 4.61599L73.0759 1.99461ZM75.8604 4.88659L73.1298 6.3395C73.1438 6.36854 73.1583 6.39732 73.1733 6.42581L75.8604 4.88659ZM76.9819 8.62623L73.9884 9.14194C73.9913 9.17051 73.9946 9.199 73.9983 9.2274L76.9819 8.62623ZM77.1533 12.3659L77.2995 15.3351C78.8486 15.1462 80.0865 13.8246 80.1584 12.2828L77.1533 12.3659ZM69.3828 13.3132L66.3777 13.3963C66.3384 14.2388 66.6581 15.0323 67.258 15.5818C67.8579 16.1312 68.6825 16.3856 69.5289 16.2824L69.3828 13.3132ZM69.363 10.2218L66.3568 10.5522C66.3583 10.5938 66.3607 10.6353 66.364 10.6767L69.363 10.2218ZM68.8153 8.17748L66.2643 9.94666C66.282 9.97338 66.3001 9.99977 66.3187 10.0258L68.8153 8.17748ZM65.243 8.47665L62.7489 6.99234C62.7283 7.02406 62.7083 7.05611 62.6889 7.08847L65.243 8.47665ZM65.3122 14.2606L62.7517 16.0153C62.7723 16.047 62.7936 16.0782 62.8156 16.109L65.3122 14.2606ZM67.9431 17.2025L65.7871 19.442L65.7932 19.4477L67.9431 17.2025ZM71.0739 20.1443L68.924 22.3896C68.9367 22.4015 68.9495 22.4132 68.9624 22.4249L71.0739 20.1443ZM75.1451 25.2302L72.4896 26.8278C72.4955 26.8383 72.5014 26.8487 72.5074 26.8591L75.1451 25.2302ZM74.7851 37.4464L77.2872 38.9185C77.2923 38.9105 77.2973 38.9026 77.3024 38.8946L74.7851 37.4464ZM70.814 41.0863L69.5374 38.4788C69.5292 38.4832 69.521 38.4877 69.5129 38.4922L70.814 41.0863ZM65.3366 39.4409C63.143 39.4409 61.5716 39.0506 60.4646 38.4423L57.2634 43.7303C59.4227 44.917 62.0178 45.4243 64.8909 45.4243L65.3366 39.4409ZM60.4646 38.4423C59.4276 37.8724 58.6507 37.0011 58.1371 35.6879L52.5074 38.2076C53.4498 40.6174 55.0341 42.5052 57.2634 43.7303L60.4646 38.4423ZM58.1442 35.7062C57.6025 34.2914 57.3108 32.2743 57.424 29.5184L51.4125 29.7177C51.28 32.9452 51.591 35.8146 52.5003 38.1893L58.1442 35.7062ZM54.6438 32.5765L62.3793 31.4297L61.9281 25.5128L54.1926 26.6596L54.6438 32.5765ZM59.1499 28.5288C59.0483 30.3694 59.0858 32.0152 59.3272 33.3852L65.2562 31.9341C65.1227 31.1767 65.0682 30.0302 65.1574 28.4137L59.1499 28.5288ZM59.3434 33.4696C59.6124 34.7659 60.1074 36.1367 61.111 37.1404L65.5307 32.7662C65.5812 32.8166 65.5481 32.8047 65.4774 32.647C65.4071 32.4903 65.32 32.2353 65.24 31.8497L59.3434 33.4696ZM61.1776 37.2048C62.2068 38.1652 63.5137 38.6431 64.946 38.6431L65.3917 32.6596C65.3679 32.6596 65.3602 32.6578 65.3654 32.6587C65.371 32.6597 65.3846 32.6626 65.4031 32.6696C65.4216 32.6766 65.4383 32.6851 65.4514 32.6933C65.4643 32.7014 65.4683 32.7058 65.4641 32.7018L61.1776 37.2048ZM64.946 38.6431C65.7266 38.6431 66.6429 38.5145 67.5397 38.0603C68.4977 37.5751 69.2488 36.8091 69.7178 35.8649L64.361 33.543C64.4278 33.4084 64.5313 33.2524 64.6799 33.1022C64.829 32.9515 64.9884 32.842 65.1333 32.7687C65.4066 32.6303 65.5444 32.6596 65.3917 32.6596L64.946 38.6431ZM69.6552 35.9847C70.222 34.9533 70.5529 33.8511 70.638 32.7095H64.638C64.619 32.9641 64.5509 33.1915 64.4236 33.4233L69.6552 35.9847ZM70.638 32.7095C70.7983 30.5567 70.4248 28.5255 69.3294 26.7958L64.1705 30.2464C64.5067 30.7771 64.7252 31.5382 64.638 32.7095H70.638ZM69.3502 26.8292C68.4738 25.3999 67.297 24.0458 65.8772 22.7554L61.6427 27.3062C62.7829 28.3426 63.5994 29.3154 64.1497 30.213L69.3502 26.8292ZM65.8989 22.7753L62.6254 19.7337L58.3476 24.2447L61.621 27.2863L65.8989 22.7753ZM62.5965 19.7073C61.3604 18.5918 60.3478 17.3453 59.547 15.9655L54.2797 19.2372C55.3696 21.1151 56.7391 22.7938 58.3765 24.2712L62.5965 19.7073ZM59.5805 16.0249C58.9859 14.9384 58.671 13.4717 58.8202 11.4684H52.8202C52.6079 14.3183 53.0217 16.9402 54.2462 19.1778L59.5805 16.0249ZM58.8202 11.4684C59.0295 8.65817 59.9665 6.96399 61.275 5.88013L57.6316 1.39997C54.6061 3.90615 53.1209 7.43085 52.8202 11.4684H58.8202ZM61.2967 5.86196C62.7287 4.65524 64.7635 3.88936 67.7347 3.88936L68.1804 -2.09407C64.1516 -2.09407 60.517 -1.03168 57.6099 1.41814L61.2967 5.86196ZM67.7347 3.88936C69.6032 3.88936 70.7447 4.21095 71.4078 4.60032L74.7439 -0.611112C72.916 -1.68436 70.6453 -2.09407 68.1804 -2.09407L67.7347 3.88936ZM71.4348 4.61599C72.2924 5.10639 72.815 5.68735 73.1298 6.3395L78.5911 3.43369C77.7508 1.69246 76.417 0.345438 74.7169 -0.626781L71.4348 4.61599ZM73.1733 6.42581C73.6215 7.27605 73.8908 8.17589 73.9884 9.14194L79.9754 8.11052C79.8044 6.41728 79.326 4.82402 78.5476 3.34737L73.1733 6.42581ZM73.9983 9.2274C74.1483 10.3708 74.1952 11.4435 74.1483 12.4489L80.1584 12.2828C80.2231 10.8949 80.1557 9.47448 79.9655 8.02506L73.9983 9.2274ZM77.0072 9.39667L69.2366 10.344L69.5289 16.2824L77.2995 15.3351L77.0072 9.39667ZM72.3878 13.2302C72.4475 11.9509 72.4436 10.7898 72.362 9.7669L66.364 10.6767C66.4203 11.3824 66.4297 12.2822 66.3777 13.3963L72.3878 13.2302ZM72.3693 9.89143C72.3257 8.70953 72.0801 7.40586 71.312 6.32913L66.3187 10.0258C66.2599 9.94339 66.2664 9.91559 66.2902 10.0043C66.3143 10.0945 66.3463 10.268 66.3568 10.5522L72.3693 9.89143ZM71.3663 6.40829C70.4081 4.95842 68.8636 4.43783 67.3939 4.43783L66.9482 10.4213C67.0109 10.4213 66.914 10.4318 66.7423 10.3537C66.5507 10.2666 66.3785 10.1195 66.2643 9.94666L71.3663 6.40829ZM67.3939 4.43783C65.5287 4.43783 63.8291 5.32403 62.7489 6.99234L67.7372 9.96095C67.7034 10.0131 67.5819 10.1678 67.351 10.2932C67.1253 10.4157 66.9591 10.4213 66.9482 10.4213L67.3939 4.43783ZM62.6889 7.08847C62.0469 8.15902 61.6295 9.32992 61.537 10.5708H67.537C67.5486 10.4156 67.6019 10.1904 67.7971 9.86482L62.6889 7.08847ZM61.537 10.5708C61.3908 12.5336 61.7139 14.4229 62.7517 16.0153L67.8727 12.506C67.6541 12.1704 67.4604 11.5998 67.537 10.5708H61.537ZM62.8156 16.109C63.6059 17.2168 64.6079 18.3271 65.7871 19.442L70.099 14.9629C69.0984 14.0169 68.3465 13.166 67.8088 12.4123L62.8156 16.109ZM65.7932 19.4477L68.924 22.3896L73.2238 17.8991L70.0929 14.9572L65.7932 19.4477ZM68.9624 22.4249C70.4073 23.7307 71.5785 25.1974 72.4896 26.8278L77.8006 23.6327C76.5939 21.4735 75.0511 19.5497 73.1855 17.8638L68.9624 22.4249ZM72.5074 26.8591C73.2605 28.1656 73.6465 29.9098 73.4714 32.2608H79.4714C79.7123 29.0272 79.214 26.0843 77.7828 23.6013L72.5074 26.8591ZM73.4714 32.2608C73.3656 33.681 72.9549 34.9064 72.2679 35.9982L77.3024 38.8946C78.5814 36.8617 79.2949 34.63 79.4714 32.2608H73.4714ZM72.2831 35.9743C71.6204 37.0076 70.7293 37.837 69.5374 38.4788L72.0906 43.6938C74.2324 42.5405 75.9887 40.9433 77.2872 38.9185L72.2831 35.9743ZM69.5129 38.4922C68.4398 39.0818 67.0834 39.4409 65.3366 39.4409L64.8909 45.4243C67.4774 45.4243 69.9212 44.8859 72.1151 43.6804L69.5129 38.4922ZM83.7663 41.0863L82.1657 43.7303L83.7663 41.0863ZM80.2246 36.9478L77.4027 38.1893C77.405 38.1954 77.4074 38.2015 77.4097 38.2076L80.2246 36.9478ZM79.3206 29.6181L79.095 26.6596C77.5724 26.8853 76.3771 28.2001 76.3148 29.7177L79.3206 29.6181ZM87.056 28.4713L90.0597 28.4137C90.1073 27.5528 89.78 26.7408 89.1616 26.1853C88.5433 25.6299 87.6938 25.3848 86.8304 25.5128L87.056 28.4713ZM87.194 32.6596L84.2296 33.3852C84.2345 33.4135 84.2399 33.4416 84.2457 33.4696L87.194 32.6596ZM88.2232 34.9533L86.0133 37.1404C86.0351 37.1622 86.0574 37.1837 86.0799 37.2048L88.2232 34.9533ZM91.9417 34.704L89.3259 33.4233C89.3042 33.4628 89.2833 33.5027 89.2633 33.543L91.9417 34.704ZM91.6523 28.5211L89.0521 30.213C89.0589 30.2242 89.0659 30.2353 89.0729 30.2464L91.6523 28.5211ZM88.6623 25.0308L86.5233 27.2863C86.5305 27.2929 86.5378 27.2996 86.545 27.3062L88.6623 25.0308ZM85.3888 21.9892L87.5278 19.7337C87.5182 19.7248 87.5086 19.716 87.4989 19.7073L85.3888 21.9892ZM81.8157 17.6014L79.1486 19.1778C79.1595 19.1978 79.1706 19.2176 79.182 19.2372L81.8157 17.6014ZM84.3556 3.64005L86.1773 5.88013C86.1846 5.8741 86.1918 5.86804 86.199 5.86196L84.3556 3.64005ZM97.9782 1.99461L96.3102 4.60032C96.3191 4.60559 96.3281 4.61082 96.3372 4.61599L97.9782 1.99461ZM100.763 4.88659L98.0321 6.3395C98.0461 6.36854 98.0606 6.39732 98.0757 6.42581L100.763 4.88659ZM101.884 8.62623L98.8907 9.14194C98.8936 9.17051 98.8969 9.199 98.9006 9.2274L101.884 8.62623ZM102.056 12.3659L102.202 15.3351C103.751 15.1462 104.989 13.8246 105.061 12.2828L102.056 12.3659ZM94.2851 13.3132L91.2801 13.3963C91.2408 14.2388 91.5604 15.0323 92.1603 15.5818C92.7602 16.1312 93.5848 16.3856 94.4313 16.2824L94.2851 13.3132ZM94.2654 10.2218L91.2591 10.5522C91.2607 10.5938 91.2631 10.6353 91.2664 10.6767L94.2654 10.2218ZM93.7177 8.17748L91.1667 9.94666C91.1843 9.97338 91.2024 9.99977 91.221 10.0258L93.7177 8.17748ZM90.1454 8.47665L87.6512 6.99234C87.6307 7.02406 87.6107 7.05611 87.5913 7.08847L90.1454 8.47665ZM90.2145 14.2606L87.654 16.0153C87.6747 16.047 87.696 16.0782 87.7179 16.109L90.2145 14.2606ZM92.8454 17.2025L90.6895 19.442L90.6955 19.4477L92.8454 17.2025ZM95.9763 20.1443L93.8264 22.3896C93.839 22.4015 93.8518 22.4132 93.8647 22.4249L95.9763 20.1443ZM100.047 25.2302L97.392 26.8278C97.3978 26.8383 97.4038 26.8487 97.4098 26.8591L100.047 25.2302ZM99.6875 37.4464L102.19 38.9185C102.195 38.9105 102.2 38.9026 102.205 38.8946L99.6875 37.4464ZM95.7163 41.0863L94.4398 38.4788C94.4316 38.4832 94.4234 38.4877 94.4152 38.4922L95.7163 41.0863ZM90.2389 39.4409C88.0453 39.4409 86.4739 39.0506 85.367 38.4423L82.1657 43.7303C84.325 44.917 86.9201 45.4243 89.7932 45.4243L90.2389 39.4409ZM85.367 38.4423C84.33 37.8724 83.5531 37.0011 83.0395 35.6879L77.4097 38.2076C78.3522 40.6174 79.9364 42.5052 82.1657 43.7303L85.367 38.4423ZM83.0466 35.7062C82.5048 34.2914 82.2132 32.2743 82.3263 29.5184L76.3148 29.7177C76.1823 32.9452 76.4933 35.8146 77.4027 38.1893L83.0466 35.7062ZM79.5462 32.5765L87.2816 31.4297L86.8304 25.5128L79.095 26.6596L79.5462 32.5765ZM84.0523 28.5288C83.9507 30.3694 83.9881 32.0152 84.2296 33.3852L90.1585 31.9341C90.025 31.1767 89.9705 30.0302 90.0597 28.4137L84.0523 28.5288ZM84.2457 33.4696C84.5148 34.7659 85.0097 36.1367 86.0133 37.1404L90.433 32.7662C90.4835 32.8166 90.4505 32.8047 90.3797 32.647C90.3094 32.4903 90.2224 32.2353 90.1423 31.8497L84.2457 33.4696ZM86.0799 37.2048C87.1091 38.1652 88.416 38.6431 89.8483 38.6431L90.294 32.6596C90.2702 32.6596 90.2625 32.6578 90.2677 32.6587C90.2733 32.6597 90.287 32.6626 90.3054 32.6696C90.3239 32.6766 90.3406 32.6851 90.3538 32.6933C90.3666 32.7014 90.3707 32.7058 90.3664 32.7018L86.0799 37.2048ZM89.8483 38.6431C90.629 38.6431 91.5452 38.5145 92.442 38.0603C93.4 37.5751 94.1512 36.8091 94.6202 35.8649L89.2633 33.543C89.3302 33.4084 89.4336 33.2524 89.5823 33.1022C89.7313 32.9515 89.8908 32.842 90.0356 32.7687C90.3089 32.6303 90.4467 32.6596 90.294 32.6596L89.8483 38.6431ZM94.5576 35.9847C95.1243 34.9533 95.4553 33.8511 95.5403 32.7095H89.5403C89.5214 32.9641 89.4533 33.1915 89.3259 33.4233L94.5576 35.9847ZM95.5403 32.7095C95.7007 30.5567 95.3272 28.5255 94.2317 26.7958L89.0729 30.2464C89.409 30.7771 89.6276 31.5382 89.5403 32.7095H95.5403ZM94.2525 26.8292C93.3762 25.3999 92.1993 24.0458 90.7796 22.7554L86.545 27.3062C87.6853 28.3426 88.5018 29.3154 89.0521 30.213L94.2525 26.8292ZM90.8012 22.7753L87.5278 19.7337L83.2499 24.2447L86.5233 27.2863L90.8012 22.7753ZM87.4989 19.7073C86.2627 18.5918 85.2501 17.3453 84.4494 15.9655L79.182 19.2372C80.2719 21.1151 81.6415 22.7938 83.2788 24.2712L87.4989 19.7073ZM84.4828 16.0249C83.8882 14.9384 83.5733 13.4717 83.7225 11.4684H77.7225C77.5102 14.3183 77.9241 16.9402 79.1486 19.1778L84.4828 16.0249ZM83.7225 11.4684C83.9319 8.65817 84.8688 6.96399 86.1773 5.88013L82.534 1.39997C79.5084 3.90615 78.0233 7.43085 77.7225 11.4684H83.7225ZM86.199 5.86196C87.631 4.65524 89.6659 3.88936 92.6371 3.88936L93.0828 -2.09407C89.054 -2.09407 85.4193 -1.03168 82.5122 1.41814L86.199 5.86196ZM92.6371 3.88936C94.5055 3.88936 95.647 4.21095 96.3102 4.60032L99.6463 -0.611112C97.8184 -1.68436 95.5477 -2.09407 93.0828 -2.09407L92.6371 3.88936ZM96.3372 4.61599C97.1948 5.10639 97.7174 5.68735 98.0321 6.3395L103.493 3.43369C102.653 1.69246 101.319 0.345438 99.6192 -0.626781L96.3372 4.61599ZM98.0757 6.42581C98.5239 7.27605 98.7932 8.17589 98.8907 9.14194L104.878 8.11052C104.707 6.41728 104.228 4.82402 103.45 3.34737L98.0757 6.42581ZM98.9006 9.2274C99.0507 10.3708 99.0975 11.4435 99.0506 12.4489L105.061 12.2828C105.125 10.8949 105.058 9.47448 104.868 8.02506L98.9006 9.2274ZM101.91 9.39667L94.1389 10.344L94.4313 16.2824L102.202 15.3351L101.91 9.39667ZM97.2901 13.2302C97.3498 11.9509 97.346 10.7898 97.2644 9.7669L91.2664 10.6767C91.3227 11.3824 91.332 12.2822 91.2801 13.3963L97.2901 13.2302ZM97.2716 9.89143C97.228 8.70953 96.9824 7.40586 96.2143 6.32913L91.221 10.0258C91.1622 9.94339 91.1688 9.91559 91.1925 10.0043C91.2167 10.0945 91.2486 10.268 91.2591 10.5522L97.2716 9.89143ZM96.2687 6.40829C95.3105 4.95842 93.7659 4.43783 92.2962 4.43783L91.8505 10.4213C91.9133 10.4213 91.8163 10.4318 91.6446 10.3537C91.4531 10.2666 91.2809 10.1195 91.1667 9.94666L96.2687 6.40829ZM92.2962 4.43783C90.4311 4.43783 88.7314 5.32403 87.6512 6.99234L92.6395 9.96095C92.6058 10.0131 92.4842 10.1678 92.2534 10.2932C92.0277 10.4157 91.8615 10.4213 91.8505 10.4213L92.2962 4.43783ZM87.5913 7.08847C86.9492 8.15902 86.5318 9.32992 86.4394 10.5708H92.4394C92.4509 10.4156 92.5042 10.1904 92.6995 9.86482L87.5913 7.08847ZM86.4394 10.5708C86.2932 12.5336 86.6163 14.4229 87.654 16.0153L92.7751 12.506C92.5564 12.1704 92.3627 11.5998 92.4394 10.5708H86.4394ZM87.7179 16.109C88.5082 17.2168 89.5102 18.3271 90.6895 19.442L95.0013 14.9629C94.0008 14.0169 93.2489 13.166 92.7112 12.4123L87.7179 16.109ZM90.6955 19.4477L93.8264 22.3896L98.1262 17.8991L94.9953 14.9572L90.6955 19.4477ZM93.8647 22.4249C95.3096 23.7307 96.4809 25.1974 97.392 26.8278L102.703 23.6327C101.496 21.4735 99.9534 19.5497 98.0878 17.8638L93.8647 22.4249ZM97.4098 26.8591C98.1629 28.1656 98.5489 29.9098 98.3737 32.2608H104.374C104.615 29.0272 104.116 26.0843 102.685 23.6013L97.4098 26.8591ZM98.3737 32.2608C98.2679 33.681 97.8572 34.9064 97.1702 35.9982L102.205 38.8946C103.484 36.8617 104.197 34.63 104.374 32.2608H98.3737ZM97.1854 35.9743C96.5228 37.0076 95.6316 37.837 94.4398 38.4788L96.9929 43.6938C99.1347 42.5405 100.891 40.9433 102.19 38.9185L97.1854 35.9743ZM94.4152 38.4922C93.3421 39.0818 91.9857 39.4409 90.2389 39.4409L89.7932 45.4243C92.3797 45.4243 94.8235 44.8859 97.0175 43.6804L94.4152 38.4922Z" fill="#F811FD" fill-opacity="0.6"/>
<defs>
<linearGradient id="paint0_linear_256_2876" x1="53.7562" y1="-1.06024" x2="61.7974" y2="43.945" gradientUnits="userSpaceOnUse">
<stop stop-color="#FFFACE"/>
<stop offset="0.838542" stop-color="#F7B553"/>
</linearGradient>
</defs>
</svg>
