<svg xmlns="http://www.w3.org/2000/svg" width="44" height="65" viewBox="0 0 44 65" fill="none">
  <path d="M36.6655 3.5H7.13841C4.29623 3.5 1.99219 6.03548 1.99219 9.16316V56.8368C1.99219 59.9645 4.29623 62.5 7.13841 62.5H36.6655C39.5076 62.5 41.8117 59.9645 41.8117 56.8368V9.16316C41.8117 6.03548 39.5076 3.5 36.6655 3.5Z" fill="#5344B3"/>
  <path d="M36.6655 2.5H7.13841C4.29623 2.5 1.99219 4.99251 1.99219 8.06718V54.9328C1.99219 58.0075 4.29623 60.5 7.13841 60.5H36.6655C39.5076 60.5 41.8117 58.0075 41.8117 54.9328V8.06718C41.8117 4.99251 39.5076 2.5 36.6655 2.5Z" fill="#E0B9FF"/>
  <path d="M7.13841 3.8453H36.6655C39.2973 3.8453 41.4664 6.12002 41.4664 8.97119V55.0288C41.4664 57.88 39.2973 60.1547 36.6655 60.1547H7.13841C4.50655 60.1547 2.33749 57.88 2.33749 55.0288V8.97119C2.33749 6.12002 4.50655 3.8453 7.13841 3.8453Z" fill="url(#paint0_linear_351_2903)" stroke="url(#paint1_linear_351_2903)" stroke-width="0.690607" stroke-miterlimit="10"/>
  <g style="mix-blend-mode:multiply" opacity="0.7">
    <path fill-rule="evenodd" clip-rule="evenodd" d="M37.6635 58.475C37.5544 58.4915 37.443 58.5 37.3299 58.5H7.46528C7.35214 58.5 7.24077 58.4915 7.13163 58.475C7.03758 58.4914 6.94124 58.5 6.8431 58.5C5.81224 58.5 4.97656 57.5562 4.97656 56.3919C4.97656 56.2811 4.98414 56.1722 4.99873 56.066C4.98411 55.9427 4.97656 55.817 4.97656 55.6892V9.31081C4.97656 9.18304 4.98411 9.05726 4.99873 8.93401C4.98414 8.82779 4.97656 8.71895 4.97656 8.60811C4.97656 7.44383 5.81224 6.5 6.8431 6.5C6.94124 6.5 7.03761 6.50855 7.13166 6.52504C7.24079 6.50853 7.35215 6.5 7.46528 6.5H37.3299C37.443 6.5 37.5544 6.50853 37.6635 6.52504C37.7576 6.50855 37.8539 6.5 37.9521 6.5C38.9829 6.5 39.8186 7.44383 39.8186 8.60811C39.8186 8.71895 39.811 8.82775 39.7964 8.93397C39.8111 9.05724 39.8186 9.18303 39.8186 9.31081V55.6892C39.8186 55.817 39.8111 55.9427 39.7964 56.066C39.811 56.1722 39.8186 56.2811 39.8186 56.3919C39.8186 57.5562 38.9829 58.5 37.9521 58.5C37.8539 58.5 37.7576 58.4914 37.6635 58.475ZM37.9521 10.7162C38.4301 10.7162 38.8662 10.5132 39.1964 10.1794V54.8206C38.8662 54.4868 38.4301 54.2838 37.9521 54.2838C36.9212 54.2838 36.0855 55.2276 36.0855 56.3919C36.0855 56.9318 36.2653 57.4243 36.5608 57.7973H8.23436C8.52992 57.4243 8.70964 56.9318 8.70964 56.3919C8.70964 55.2276 7.87396 54.2838 6.8431 54.2838C6.36505 54.2838 5.92897 54.4868 5.59874 54.8206V10.1794C5.92897 10.5132 6.36505 10.7162 6.8431 10.7162C7.87396 10.7162 8.70964 9.77238 8.70964 8.60811C8.70964 8.06818 8.52992 7.57567 8.23436 7.2027H36.5608C36.2653 7.57567 36.0855 8.06818 36.0855 8.60811C36.0855 9.77238 36.9212 10.7162 37.9521 10.7162Z" fill="#BCBEEA"/>
  </g>
  <rect x="1" y="1.5" width="42" height="61.9999" rx="7" stroke="white" stroke-width="2"/>
  <defs>
    <linearGradient id="paint0_linear_351_2903" x1="24.0033" y1="3.49275" x2="22.0175" y2="59.9217" gradientUnits="userSpaceOnUse">
      <stop stop-color="#7F74FE"/>
      <stop offset="1" stop-color="#5C43F3"/>
    </linearGradient>
    <linearGradient id="paint1_linear_351_2903" x1="21.9026" y1="3.15788" x2="21.9026" y2="60.8421" gradientUnits="userSpaceOnUse">
      <stop stop-color="#482BFA"/>
      <stop offset="1" stop-color="#6244DA"/>
    </linearGradient>
  </defs>
</svg>