<svg width="132" height="200" viewBox="0 0 132 200" fill="none" xmlns="http://www.w3.org/2000/svg">
<g filter="url(#filter0_dd_350_2358)">
<rect x="10" y="16" width="112" height="168" rx="12" fill="#F1F5F9"/>
</g>
<path d="M35.914 100.541C36.0822 100.774 36.2497 101.006 36.4161 101.25H29.5837C29.7501 101.006 29.9177 100.774 30.0858 100.541C30.1009 100.52 30.116 100.499 30.1311 100.479C30.5149 99.9481 30.9115 99.3999 31.2577 98.7546C31.9969 97.3765 32.4682 95.6321 32.4682 92.5501C32.4682 91.8377 31.8221 91.5 31.352 91.5C30.8812 91.5 30.2359 91.8382 30.2359 92.5501C30.2359 94.4882 28.2592 96.3 25.4928 96.3C22.7266 96.3 20.75 94.4882 20.75 92.5501C20.75 88.5726 22.9109 85.4931 25.6865 82.3805C26.2614 81.7358 26.8655 81.0876 27.4787 80.4298C29.4489 78.3163 31.5123 76.1026 33 73.5791C34.4876 76.1027 36.5511 78.3164 38.5213 80.43C39.1345 81.0878 39.7385 81.7358 40.3134 82.3805C43.089 85.4931 45.25 88.5726 45.25 92.5501C45.25 94.4882 43.2732 96.3 40.5069 96.3C37.7407 96.3 35.7641 94.4882 35.7641 92.5501C35.7641 91.8377 35.1179 91.5 34.6478 91.5C34.1777 91.5 33.5315 91.8377 33.5315 92.5501C33.5315 95.6322 34.003 97.3765 34.7422 98.7546C35.0883 99.3998 35.4849 99.948 35.8686 100.478C35.8838 100.499 35.8989 100.52 35.914 100.541Z" fill="black" fill-opacity="0.8" stroke="black" stroke-width="1.5"/>
<path d="M70.7441 115.238C73.8662 111.909 76.7713 108.406 79 104.547C81.2285 108.406 84.1336 111.909 87.2557 115.238C89.2048 117.316 91.2803 119.368 93.3326 121.398C94.8695 122.917 96.3933 124.424 97.8414 125.919C104.704 133.006 110.25 140.211 110.25 149.58C110.25 152.11 108.893 154.455 106.588 156.194C104.283 157.933 101.065 159.03 97.4786 159.03C93.8924 159.03 90.6744 157.933 88.3695 156.194C86.065 154.455 84.7078 152.11 84.7078 149.58C84.7078 149.105 84.4507 148.731 84.1455 148.501C83.8405 148.271 83.4529 148.15 83.0561 148.15C82.6594 148.15 82.2718 148.271 81.9668 148.501C81.6616 148.731 81.4045 149.105 81.4045 149.58C81.4045 156.471 82.5482 160.267 84.2672 163.218C85.0862 164.624 86.0263 165.82 86.9786 167.032L87.0791 167.16C87.8335 168.121 88.6013 169.106 89.3599 170.25H68.6396C69.3983 169.106 70.1662 168.121 70.9206 167.16L71.0207 167.033C71.9732 165.82 72.9134 164.624 73.7324 163.218C75.4513 160.267 76.5949 156.471 76.5949 149.58C76.5949 149.105 76.3379 148.731 76.0326 148.501C75.7277 148.271 75.3401 148.15 74.9433 148.15C74.5465 148.15 74.1589 148.271 73.854 148.501C73.5488 148.731 73.2922 149.106 73.2922 149.58C73.2922 152.11 71.9349 154.455 69.6302 156.194C67.3252 157.933 64.107 159.03 60.5208 159.03C56.9346 159.03 53.7166 157.933 51.4117 156.194C49.1073 154.455 47.75 152.11 47.75 149.58C47.75 140.211 53.2956 133.006 60.1584 125.919C61.6066 124.424 63.1306 122.917 64.6676 121.397C66.7198 119.368 68.7951 117.316 70.7441 115.238Z" fill="black" fill-opacity="0.8" stroke="black" stroke-width="1.5"/>
<path d="M22.3244 61L28.4444 28.6H36.6044L42.6444 61H36.0444L34.9644 54.16H30.2044L29.0844 61H22.3244ZM30.8444 49.88H34.2844L32.5644 37.24L30.8444 49.88Z" fill="black" fill-opacity="0.8"/>
<path d="M22.3244 61L20.8504 60.7216C20.7676 61.1604 20.8845 61.6133 21.1695 61.9572C21.4544 62.301 21.8778 62.5 22.3244 62.5V61ZM28.4444 28.6V27.1C27.7233 27.1 27.1043 27.6131 26.9704 28.3216L28.4444 28.6ZM36.6044 28.6L38.079 28.3251C37.9466 27.6149 37.3268 27.1 36.6044 27.1V28.6ZM42.6444 61V62.5C43.0903 62.5 43.5132 62.3016 43.7981 61.9586C44.0831 61.6155 44.2007 61.1635 44.119 60.7251L42.6444 61ZM36.0444 61L34.5627 61.2339C34.6778 61.963 35.3063 62.5 36.0444 62.5V61ZM34.9644 54.16L36.446 53.9261C36.3309 53.197 35.7025 52.66 34.9644 52.66V54.16ZM30.2044 54.16V52.66C29.4695 52.66 28.8428 53.1924 28.7241 53.9176L30.2044 54.16ZM29.0844 61V62.5C29.8192 62.5 30.4459 61.9676 30.5647 61.2424L29.0844 61ZM30.8444 49.88L29.3581 49.6777C29.2997 50.1069 29.4296 50.5403 29.7145 50.8666C29.9993 51.1928 30.4113 51.38 30.8444 51.38V49.88ZM34.2844 49.88V51.38C34.7175 51.38 35.1294 51.1928 35.4143 50.8666C35.6991 50.5403 35.8291 50.1069 35.7707 49.6777L34.2844 49.88ZM32.5644 37.24L34.0507 37.0377C33.9495 36.2943 33.3146 35.74 32.5644 35.74C31.8141 35.74 31.1792 36.2943 31.0781 37.0377L32.5644 37.24ZM23.7983 61.2784L29.9183 28.8784L26.9704 28.3216L20.8504 60.7216L23.7983 61.2784ZM28.4444 30.1H36.6044V27.1H28.4444V30.1ZM35.1298 28.8749L41.1698 61.2749L44.119 60.7251L38.079 28.3251L35.1298 28.8749ZM42.6444 59.5H36.0444V62.5H42.6444V59.5ZM37.526 60.7661L36.446 53.9261L33.4827 54.3939L34.5627 61.2339L37.526 60.7661ZM34.9644 52.66H30.2044V55.66H34.9644V52.66ZM28.7241 53.9176L27.6041 60.7576L30.5647 61.2424L31.6847 54.4024L28.7241 53.9176ZM29.0844 59.5H22.3244V62.5H29.0844V59.5ZM30.8444 51.38H34.2844V48.38H30.8444V51.38ZM35.7707 49.6777L34.0507 37.0377L31.0781 37.4422L32.7981 50.0822L35.7707 49.6777ZM31.0781 37.0377L29.3581 49.6777L32.3307 50.0822L34.0507 37.4422L31.0781 37.0377Z" fill="black"/>
<defs>
<filter id="filter0_dd_350_2358" x="2" y="14" width="128" height="184" filterUnits="userSpaceOnUse" color-interpolation-filters="sRGB">
<feFlood flood-opacity="0" result="BackgroundImageFix"/>
<feColorMatrix in="SourceAlpha" type="matrix" values="0 0 0 0 0 0 0 0 0 0 0 0 0 0 0 0 0 0 127 0" result="hardAlpha"/>
<feOffset dy="6"/>
<feGaussianBlur stdDeviation="4"/>
<feColorMatrix type="matrix" values="0 0 0 0 0 0 0 0 0 0 0 0 0 0 0 0 0 0 0.15 0"/>
<feBlend mode="normal" in2="BackgroundImageFix" result="effect1_dropShadow_350_2358"/>
<feColorMatrix in="SourceAlpha" type="matrix" values="0 0 0 0 0 0 0 0 0 0 0 0 0 0 0 0 0 0 127 0" result="hardAlpha"/>
<feOffset dy="4"/>
<feGaussianBlur stdDeviation="2"/>
<feColorMatrix type="matrix" values="0 0 0 0 0 0 0 0 0 0 0 0 0 0 0 0 0 0 0.25 0"/>
<feBlend mode="normal" in2="effect1_dropShadow_350_2358" result="effect2_dropShadow_350_2358"/>
<feBlend mode="normal" in="SourceGraphic" in2="effect2_dropShadow_350_2358" result="shape"/>
</filter>
</defs>
</svg>
