<svg width="132" height="200" viewBox="0 0 132 200" fill="none" xmlns="http://www.w3.org/2000/svg">
<g filter="url(#filter0_dd_350_2728)">
<rect x="10" y="16" width="112" height="168" rx="12" fill="#F1F5F9"/>
</g>
<path d="M35.914 100.541C36.0822 100.774 36.2497 101.006 36.4161 101.25H29.5837C29.7501 101.006 29.9177 100.774 30.0858 100.541C30.1009 100.52 30.116 100.499 30.1311 100.479C30.5149 99.9481 30.9115 99.3999 31.2577 98.7546C31.9969 97.3765 32.4682 95.6321 32.4682 92.5501C32.4682 91.8377 31.8221 91.5 31.352 91.5C30.8812 91.5 30.2359 91.8382 30.2359 92.5501C30.2359 94.4882 28.2592 96.3 25.4928 96.3C22.7266 96.3 20.75 94.4882 20.75 92.5501C20.75 88.5726 22.9109 85.4931 25.6865 82.3805C26.2614 81.7358 26.8655 81.0876 27.4787 80.4298C29.4489 78.3163 31.5123 76.1026 33 73.5791C34.4876 76.1027 36.5511 78.3164 38.5213 80.43C39.1345 81.0878 39.7385 81.7358 40.3134 82.3805C43.089 85.4931 45.25 88.5726 45.25 92.5501C45.25 94.4882 43.2732 96.3 40.5069 96.3C37.7407 96.3 35.7641 94.4882 35.7641 92.5501C35.7641 91.8377 35.1179 91.5 34.6478 91.5C34.1777 91.5 33.5315 91.8377 33.5315 92.5501C33.5315 95.6322 34.003 97.3765 34.7422 98.7546C35.0883 99.3998 35.4849 99.948 35.8686 100.478C35.8838 100.499 35.8989 100.52 35.914 100.541Z" fill="black" fill-opacity="0.8" stroke="black" stroke-width="1.5"/>
<path d="M70.7441 115.238C73.8662 111.909 76.7713 108.406 79 104.547C81.2285 108.406 84.1336 111.909 87.2557 115.238C89.2048 117.316 91.2803 119.368 93.3326 121.398C94.8695 122.917 96.3933 124.424 97.8414 125.919C104.704 133.006 110.25 140.211 110.25 149.58C110.25 152.11 108.893 154.455 106.588 156.194C104.283 157.933 101.065 159.03 97.4786 159.03C93.8924 159.03 90.6744 157.933 88.3695 156.194C86.065 154.455 84.7078 152.11 84.7078 149.58C84.7078 149.105 84.4507 148.731 84.1455 148.501C83.8405 148.271 83.4529 148.15 83.0561 148.15C82.6594 148.15 82.2718 148.271 81.9668 148.501C81.6616 148.731 81.4045 149.105 81.4045 149.58C81.4045 156.471 82.5482 160.267 84.2672 163.218C85.0862 164.624 86.0263 165.82 86.9786 167.032L87.0791 167.16C87.8335 168.121 88.6013 169.106 89.3599 170.25H68.6396C69.3983 169.106 70.1662 168.121 70.9206 167.16L71.0207 167.033C71.9732 165.82 72.9134 164.624 73.7324 163.218C75.4513 160.267 76.5949 156.471 76.5949 149.58C76.5949 149.105 76.3379 148.731 76.0326 148.501C75.7277 148.271 75.3401 148.15 74.9433 148.15C74.5465 148.15 74.1589 148.271 73.854 148.501C73.5488 148.731 73.2922 149.106 73.2922 149.58C73.2922 152.11 71.9349 154.455 69.6302 156.194C67.3252 157.933 64.107 159.03 60.5208 159.03C56.9346 159.03 53.7166 157.933 51.4117 156.194C49.1073 154.455 47.75 152.11 47.75 149.58C47.75 140.211 53.2956 133.006 60.1584 125.919C61.6066 124.424 63.1306 122.917 64.6676 121.397C66.7198 119.368 68.7951 117.316 70.7441 115.238Z" fill="black" fill-opacity="0.8" stroke="black" stroke-width="1.5"/>
<path d="M16.52 61.84V56.84C17.24 56.84 17.8533 56.8 18.36 56.72C18.8667 56.64 19.2667 56.4933 19.56 56.28C19.8533 56.04 20.0667 55.7067 20.2 55.28C20.3333 54.8267 20.4 54.2533 20.4 53.56V28.6H27.56V53.88C27.56 55.64 27.3333 57.12 26.88 58.32C26.4533 59.4933 25.6933 60.3733 24.6 60.96C23.5067 61.5467 21.9733 61.84 20 61.84H16.52Z" fill="black" fill-opacity="0.8"/>
<path d="M16.52 61.84H15.02C15.02 62.6684 15.6916 63.34 16.52 63.34L16.52 61.84ZM16.52 56.84V55.34C15.6916 55.34 15.02 56.0116 15.02 56.84H16.52ZM18.36 56.72L18.1261 55.2384H18.1261L18.36 56.72ZM19.56 56.28L20.4423 57.4931C20.4653 57.4764 20.4878 57.459 20.5099 57.4409L19.56 56.28ZM20.2 55.28L21.6317 55.7274C21.6342 55.7194 21.6367 55.7113 21.639 55.7033L20.2 55.28ZM20.4 28.6V27.1C19.5716 27.1 18.9 27.7716 18.9 28.6H20.4ZM27.56 28.6H29.06C29.06 27.7716 28.3884 27.1 27.56 27.1V28.6ZM26.88 58.32L25.4768 57.7899C25.4746 57.7957 25.4724 57.8015 25.4703 57.8074L26.88 58.32ZM24.6 60.96L23.8908 59.6383H23.8908L24.6 60.96ZM18.02 61.84V56.84H15.02V61.84H18.02ZM16.52 58.34C17.2897 58.34 17.986 58.2976 18.5939 58.2016L18.1261 55.2384C17.7207 55.3024 17.1903 55.34 16.52 55.34V58.34ZM18.5939 58.2016C19.2439 58.099 19.8944 57.8916 20.4423 57.4931L18.6777 55.0669C18.639 55.0951 18.4894 55.181 18.1261 55.2384L18.5939 58.2016ZM20.5099 57.4409C21.0683 56.984 21.4269 56.3827 21.6317 55.7274L18.7683 54.8326C18.7064 55.0306 18.6384 55.096 18.6101 55.1191L20.5099 57.4409ZM21.639 55.7033C21.8269 55.0646 21.9 54.3363 21.9 53.56H18.9C18.9 54.1704 18.8398 54.5887 18.761 54.8568L21.639 55.7033ZM21.9 53.56V28.6H18.9V53.56H21.9ZM20.4 30.1H27.56V27.1H20.4V30.1ZM26.06 28.6V53.88H29.06V28.6H26.06ZM26.06 53.88C26.06 55.5217 25.8472 56.8095 25.4768 57.7899L28.2832 58.8501C28.8195 57.4305 29.06 55.7583 29.06 53.88H26.06ZM25.4703 57.8074C25.1688 58.6364 24.6568 59.2272 23.8908 59.6383L25.3092 62.2817C26.7298 61.5195 27.7378 60.3502 28.2897 58.8326L25.4703 57.8074ZM23.8908 59.6383C23.1076 60.0585 21.8572 60.34 20 60.34V63.34C22.0895 63.34 23.9057 63.0348 25.3092 62.2817L23.8908 59.6383ZM20 60.34H16.52V63.34H20V60.34Z" fill="black"/>
<defs>
<filter id="filter0_dd_350_2728" x="2" y="14" width="128" height="184" filterUnits="userSpaceOnUse" color-interpolation-filters="sRGB">
<feFlood flood-opacity="0" result="BackgroundImageFix"/>
<feColorMatrix in="SourceAlpha" type="matrix" values="0 0 0 0 0 0 0 0 0 0 0 0 0 0 0 0 0 0 127 0" result="hardAlpha"/>
<feOffset dy="6"/>
<feGaussianBlur stdDeviation="4"/>
<feColorMatrix type="matrix" values="0 0 0 0 0 0 0 0 0 0 0 0 0 0 0 0 0 0 0.15 0"/>
<feBlend mode="normal" in2="BackgroundImageFix" result="effect1_dropShadow_350_2728"/>
<feColorMatrix in="SourceAlpha" type="matrix" values="0 0 0 0 0 0 0 0 0 0 0 0 0 0 0 0 0 0 127 0" result="hardAlpha"/>
<feOffset dy="4"/>
<feGaussianBlur stdDeviation="2"/>
<feColorMatrix type="matrix" values="0 0 0 0 0 0 0 0 0 0 0 0 0 0 0 0 0 0 0.25 0"/>
<feBlend mode="normal" in2="effect1_dropShadow_350_2728" result="effect2_dropShadow_350_2728"/>
<feBlend mode="normal" in="SourceGraphic" in2="effect2_dropShadow_350_2728" result="shape"/>
</filter>
</defs>
</svg>
