<svg width="132" height="200" viewBox="0 0 132 200" fill="none" xmlns="http://www.w3.org/2000/svg">
<g filter="url(#filter0_dd_350_2748)">
<rect x="10" y="16" width="112" height="168" rx="12" fill="#F1F5F9"/>
</g>
<path d="M35.914 100.541C36.0822 100.774 36.2497 101.006 36.4161 101.25H29.5837C29.7501 101.006 29.9177 100.774 30.0858 100.541C30.1009 100.52 30.116 100.499 30.1311 100.479C30.5149 99.9481 30.9115 99.3999 31.2577 98.7546C31.9969 97.3765 32.4682 95.6321 32.4682 92.5501C32.4682 91.8377 31.8221 91.5 31.352 91.5C30.8812 91.5 30.2359 91.8382 30.2359 92.5501C30.2359 94.4882 28.2592 96.3 25.4928 96.3C22.7266 96.3 20.75 94.4882 20.75 92.5501C20.75 88.5726 22.9109 85.4931 25.6865 82.3805C26.2614 81.7358 26.8655 81.0876 27.4787 80.4298C29.4489 78.3163 31.5123 76.1026 33 73.5791C34.4876 76.1027 36.5511 78.3164 38.5213 80.43C39.1345 81.0878 39.7385 81.7358 40.3134 82.3805C43.089 85.4931 45.25 88.5726 45.25 92.5501C45.25 94.4882 43.2732 96.3 40.5069 96.3C37.7407 96.3 35.7641 94.4882 35.7641 92.5501C35.7641 91.8377 35.1179 91.5 34.6478 91.5C34.1777 91.5 33.5315 91.8377 33.5315 92.5501C33.5315 95.6322 34.003 97.3765 34.7422 98.7546C35.0883 99.3998 35.4849 99.948 35.8686 100.478C35.8838 100.499 35.8989 100.52 35.914 100.541Z" fill="black" fill-opacity="0.8" stroke="black" stroke-width="1.5"/>
<path d="M70.7441 115.238C73.8662 111.909 76.7713 108.406 79 104.547C81.2285 108.406 84.1336 111.909 87.2557 115.238C89.2048 117.316 91.2803 119.368 93.3326 121.398C94.8695 122.917 96.3933 124.424 97.8414 125.919C104.704 133.006 110.25 140.211 110.25 149.58C110.25 152.11 108.893 154.455 106.588 156.194C104.283 157.933 101.065 159.03 97.4786 159.03C93.8924 159.03 90.6744 157.933 88.3695 156.194C86.065 154.455 84.7078 152.11 84.7078 149.58C84.7078 149.105 84.4507 148.731 84.1455 148.501C83.8405 148.271 83.4529 148.15 83.0561 148.15C82.6594 148.15 82.2718 148.271 81.9668 148.501C81.6616 148.731 81.4045 149.105 81.4045 149.58C81.4045 156.471 82.5482 160.267 84.2672 163.218C85.0862 164.624 86.0263 165.82 86.9786 167.032L87.0791 167.16C87.8335 168.121 88.6013 169.106 89.3599 170.25H68.6396C69.3983 169.106 70.1662 168.121 70.9206 167.16L71.0207 167.033C71.9732 165.82 72.9134 164.624 73.7324 163.218C75.4513 160.267 76.5949 156.471 76.5949 149.58C76.5949 149.105 76.3379 148.731 76.0326 148.501C75.7277 148.271 75.3401 148.15 74.9433 148.15C74.5465 148.15 74.1589 148.271 73.854 148.501C73.5488 148.731 73.2922 149.106 73.2922 149.58C73.2922 152.11 71.9349 154.455 69.6302 156.194C67.3252 157.933 64.107 159.03 60.5208 159.03C56.9346 159.03 53.7166 157.933 51.4117 156.194C49.1073 154.455 47.75 152.11 47.75 149.58C47.75 140.211 53.2956 133.006 60.1584 125.919C61.6066 124.424 63.1306 122.917 64.6676 121.397C66.7198 119.368 68.7951 117.316 70.7441 115.238Z" fill="black" fill-opacity="0.8" stroke="black" stroke-width="1.5"/>
<path d="M18.4 61V28.6H25.56V41.84L31 28.6H38L32 43.24L38.28 61H31L26.32 46.68L25.56 47.96V61H18.4Z" fill="black" fill-opacity="0.8"/>
<path d="M18.4 61H16.9C16.9 61.8284 17.5716 62.5 18.4 62.5V61ZM18.4 28.6V27.1C17.5716 27.1 16.9 27.7716 16.9 28.6H18.4ZM25.56 28.6H27.06C27.06 27.7716 26.3884 27.1 25.56 27.1V28.6ZM25.56 41.84H24.06C24.06 42.5564 24.5666 43.1728 25.2695 43.3116C25.9723 43.4504 26.6752 43.0727 26.9475 42.4101L25.56 41.84ZM31 28.6V27.1C30.3918 27.1 29.8437 27.4673 29.6126 28.0299L31 28.6ZM38 28.6L39.388 29.1688C39.5776 28.7062 39.5242 28.1795 39.2456 27.7643C38.9671 27.3491 38.5 27.1 38 27.1V28.6ZM32 43.24L30.612 42.6712C30.4723 43.0121 30.463 43.3926 30.5858 43.7401L32 43.24ZM38.28 61V62.5C38.767 62.5 39.2236 62.2636 39.5048 61.866C39.7859 61.4684 39.8565 60.959 39.6942 60.4999L38.28 61ZM31 61L29.5742 61.466C29.7758 62.0828 30.3511 62.5 31 62.5V61ZM26.32 46.68L27.7458 46.214C27.5629 45.6545 27.0697 45.2537 26.4846 45.1891C25.8995 45.1245 25.3307 45.408 25.0302 45.9142L26.32 46.68ZM25.56 47.96L24.2702 47.1942C24.1326 47.4259 24.06 47.6905 24.06 47.96H25.56ZM25.56 61V62.5C26.3884 62.5 27.06 61.8284 27.06 61H25.56ZM19.9 61V28.6H16.9V61H19.9ZM18.4 30.1H25.56V27.1H18.4V30.1ZM24.06 28.6V41.84H27.06V28.6H24.06ZM26.9475 42.4101L32.3875 29.1701L29.6126 28.0299L24.1725 41.2699L26.9475 42.4101ZM31 30.1H38V27.1H31V30.1ZM36.612 28.0312L30.612 42.6712L33.388 43.8088L39.388 29.1688L36.612 28.0312ZM30.5858 43.7401L36.8658 61.5001L39.6942 60.4999L33.4142 42.7399L30.5858 43.7401ZM38.28 59.5H31V62.5H38.28V59.5ZM32.4258 60.534L27.7458 46.214L24.8942 47.146L29.5742 61.466L32.4258 60.534ZM25.0302 45.9142L24.2702 47.1942L26.8498 48.7258L27.6098 47.4458L25.0302 45.9142ZM24.06 47.96V61H27.06V47.96H24.06ZM25.56 59.5H18.4V62.5H25.56V59.5Z" fill="black"/>
<defs>
<filter id="filter0_dd_350_2748" x="2" y="14" width="128" height="184" filterUnits="userSpaceOnUse" color-interpolation-filters="sRGB">
<feFlood flood-opacity="0" result="BackgroundImageFix"/>
<feColorMatrix in="SourceAlpha" type="matrix" values="0 0 0 0 0 0 0 0 0 0 0 0 0 0 0 0 0 0 127 0" result="hardAlpha"/>
<feOffset dy="6"/>
<feGaussianBlur stdDeviation="4"/>
<feColorMatrix type="matrix" values="0 0 0 0 0 0 0 0 0 0 0 0 0 0 0 0 0 0 0.15 0"/>
<feBlend mode="normal" in2="BackgroundImageFix" result="effect1_dropShadow_350_2748"/>
<feColorMatrix in="SourceAlpha" type="matrix" values="0 0 0 0 0 0 0 0 0 0 0 0 0 0 0 0 0 0 127 0" result="hardAlpha"/>
<feOffset dy="4"/>
<feGaussianBlur stdDeviation="2"/>
<feColorMatrix type="matrix" values="0 0 0 0 0 0 0 0 0 0 0 0 0 0 0 0 0 0 0.25 0"/>
<feBlend mode="normal" in2="effect1_dropShadow_350_2748" result="effect2_dropShadow_350_2748"/>
<feBlend mode="normal" in="SourceGraphic" in2="effect2_dropShadow_350_2748" result="shape"/>
</filter>
</defs>
</svg>
