<svg width="132" height="200" viewBox="0 0 132 200" fill="none" xmlns="http://www.w3.org/2000/svg">
<g filter="url(#filter0_dd_350_2368)">
<rect x="10" y="16" width="112" height="168" rx="12" fill="#F1F5F9"/>
</g>
<path d="M32.25 77.9999C32.25 78.4141 32.5858 78.7499 33 78.7499C33.4142 78.7499 33.75 78.4141 33.75 77.9999C33.75 76.8091 34.509 75.5034 35.8124 74.4606C37.1027 73.4284 38.8159 72.75 40.4997 72.75C43.885 72.75 47.25 75.4621 47.25 79.4996C47.25 81.1538 46.4105 83.1587 45.0221 85.3571C43.6474 87.5338 41.8031 89.7958 39.934 91.9453C39.1091 92.894 38.2682 93.8329 37.4652 94.7294C36.4759 95.8339 35.5442 96.8742 34.7709 97.7893C34.0624 98.6277 33.4522 99.4004 33.016 100.07C33.0107 100.078 33.0053 100.087 33 100.095C32.9947 100.087 32.9893 100.078 32.984 100.07C32.5478 99.4004 31.9376 98.6277 31.2291 97.7893C30.4557 96.8742 29.5241 95.8339 28.5348 94.7294C27.7318 93.8329 26.8909 92.894 26.066 91.9453C24.1969 89.7958 22.3526 87.5338 20.9779 85.3571C19.5895 83.1587 18.75 81.1538 18.75 79.4996C18.75 75.4622 22.115 72.75 25.5009 72.75C27.1843 72.75 28.8975 73.4284 30.1877 74.4606C31.491 75.5033 32.25 76.8091 32.25 77.9999Z" fill="#FF191A" stroke="#DF191A" stroke-width="1.5" stroke-linejoin="round"/>
<path d="M78.25 116.6C78.25 117.014 78.5858 117.35 79 117.35C79.4142 117.35 79.75 117.014 79.75 116.6C79.75 113.509 81.6966 110.303 84.7813 107.836C87.8529 105.378 91.941 103.75 95.9993 103.75C104.134 103.75 112.25 110.262 112.25 119.999C112.25 124.028 110.223 128.765 107.053 133.783C103.897 138.78 99.6781 143.952 95.434 148.833C93.5396 151.011 91.6292 153.144 89.8109 155.174C87.5823 157.662 85.4921 159.995 83.7396 162.069C82.1405 163.961 80.7881 165.677 79.8324 167.144C79.5123 167.636 79.2319 168.107 79 168.554C78.7681 168.107 78.4877 167.636 78.1676 167.144C77.2118 165.677 75.8595 163.961 74.2603 162.069C72.5078 159.995 70.4177 157.662 68.1891 155.174C66.3708 153.144 64.4604 151.011 62.566 148.833C58.3219 143.952 54.1026 138.78 50.9466 133.783C47.777 128.765 45.75 124.028 45.75 119.999C45.75 110.262 53.8655 103.75 62.002 103.75C66.0596 103.75 70.1475 105.378 73.2188 107.836C76.3034 110.303 78.25 113.509 78.25 116.6Z" fill="#FF191A" stroke="#DF191A" stroke-width="1.5" stroke-linejoin="round"/>
<path d="M22.3244 61L28.4444 28.6H36.6044L42.6444 61H36.0444L34.9644 54.16H30.2044L29.0844 61H22.3244ZM30.8444 49.88H34.2844L32.5644 37.24L30.8444 49.88Z" fill="#FF191A"/>
<path d="M22.3244 61L20.8504 60.7216C20.7676 61.1604 20.8845 61.6133 21.1695 61.9572C21.4544 62.301 21.8778 62.5 22.3244 62.5V61ZM28.4444 28.6V27.1C27.7233 27.1 27.1043 27.6131 26.9704 28.3216L28.4444 28.6ZM36.6044 28.6L38.079 28.3251C37.9466 27.6149 37.3268 27.1 36.6044 27.1V28.6ZM42.6444 61V62.5C43.0903 62.5 43.5132 62.3016 43.7981 61.9586C44.0831 61.6155 44.2007 61.1635 44.119 60.7251L42.6444 61ZM36.0444 61L34.5627 61.2339C34.6778 61.963 35.3063 62.5 36.0444 62.5V61ZM34.9644 54.16L36.446 53.9261C36.3309 53.197 35.7025 52.66 34.9644 52.66V54.16ZM30.2044 54.16V52.66C29.4695 52.66 28.8428 53.1924 28.7241 53.9176L30.2044 54.16ZM29.0844 61V62.5C29.8192 62.5 30.4459 61.9676 30.5647 61.2424L29.0844 61ZM30.8444 49.88L29.3581 49.6777C29.2997 50.1069 29.4296 50.5403 29.7145 50.8666C29.9993 51.1928 30.4113 51.38 30.8444 51.38V49.88ZM34.2844 49.88V51.38C34.7175 51.38 35.1294 51.1928 35.4143 50.8666C35.6991 50.5403 35.8291 50.1069 35.7707 49.6777L34.2844 49.88ZM32.5644 37.24L34.0507 37.0377C33.9495 36.2943 33.3146 35.74 32.5644 35.74C31.8141 35.74 31.1792 36.2943 31.0781 37.0377L32.5644 37.24ZM23.7983 61.2784L29.9183 28.8784L26.9704 28.3216L20.8504 60.7216L23.7983 61.2784ZM28.4444 30.1H36.6044V27.1H28.4444V30.1ZM35.1298 28.8749L41.1698 61.2749L44.119 60.7251L38.079 28.3251L35.1298 28.8749ZM42.6444 59.5H36.0444V62.5H42.6444V59.5ZM37.526 60.7661L36.446 53.9261L33.4827 54.3939L34.5627 61.2339L37.526 60.7661ZM34.9644 52.66H30.2044V55.66H34.9644V52.66ZM28.7241 53.9176L27.6041 60.7576L30.5647 61.2424L31.6847 54.4024L28.7241 53.9176ZM29.0844 59.5H22.3244V62.5H29.0844V59.5ZM30.8444 51.38H34.2844V48.38H30.8444V51.38ZM35.7707 49.6777L34.0507 37.0377L31.0781 37.4422L32.7981 50.0822L35.7707 49.6777ZM31.0781 37.0377L29.3581 49.6777L32.3307 50.0822L34.0507 37.4422L31.0781 37.0377Z" fill="#DF191A"/>
<defs>
<filter id="filter0_dd_350_2368" x="2" y="14" width="128" height="184" filterUnits="userSpaceOnUse" color-interpolation-filters="sRGB">
<feFlood flood-opacity="0" result="BackgroundImageFix"/>
<feColorMatrix in="SourceAlpha" type="matrix" values="0 0 0 0 0 0 0 0 0 0 0 0 0 0 0 0 0 0 127 0" result="hardAlpha"/>
<feOffset dy="6"/>
<feGaussianBlur stdDeviation="4"/>
<feColorMatrix type="matrix" values="0 0 0 0 0 0 0 0 0 0 0 0 0 0 0 0 0 0 0.15 0"/>
<feBlend mode="normal" in2="BackgroundImageFix" result="effect1_dropShadow_350_2368"/>
<feColorMatrix in="SourceAlpha" type="matrix" values="0 0 0 0 0 0 0 0 0 0 0 0 0 0 0 0 0 0 127 0" result="hardAlpha"/>
<feOffset dy="4"/>
<feGaussianBlur stdDeviation="2"/>
<feColorMatrix type="matrix" values="0 0 0 0 0 0 0 0 0 0 0 0 0 0 0 0 0 0 0.25 0"/>
<feBlend mode="normal" in2="effect1_dropShadow_350_2368" result="effect2_dropShadow_350_2368"/>
<feBlend mode="normal" in="SourceGraphic" in2="effect2_dropShadow_350_2368" result="shape"/>
</filter>
</defs>
</svg>
