<svg width="132" height="200" viewBox="0 0 132 200" fill="none" xmlns="http://www.w3.org/2000/svg">
<g filter="url(#filter0_dd_350_2488)">
<rect x="10" y="16" width="112" height="168" rx="12" fill="#F1F5F9"/>
</g>
<path d="M32.9717 61V53.72H23.0117V48.8L31.4517 28.6H39.2117V48.76H42.2117V53.72H39.2117V61H32.9717ZM28.0917 48.76H32.9717V35.28L28.0917 48.76Z" fill="#FF191A"/>
<path d="M32.9717 61H31.4717C31.4717 61.8284 32.1433 62.5 32.9717 62.5V61ZM32.9717 53.72H34.4717C34.4717 52.8916 33.8001 52.22 32.9717 52.22V53.72ZM23.0117 53.72H21.5117C21.5117 54.5484 22.1833 55.22 23.0117 55.22V53.72ZM23.0117 48.8L21.6277 48.2217C21.5511 48.4049 21.5117 48.6015 21.5117 48.8H23.0117ZM31.4517 28.6V27.1C30.8467 27.1 30.3009 27.4635 30.0677 28.0217L31.4517 28.6ZM39.2117 28.6H40.7117C40.7117 27.7716 40.0401 27.1 39.2117 27.1V28.6ZM39.2117 48.76H37.7117C37.7117 49.5884 38.3833 50.26 39.2117 50.26V48.76ZM42.2117 48.76H43.7117C43.7117 47.9316 43.0401 47.26 42.2117 47.26V48.76ZM42.2117 53.72V55.22C43.0401 55.22 43.7117 54.5484 43.7117 53.72H42.2117ZM39.2117 53.72V52.22C38.3833 52.22 37.7117 52.8916 37.7117 53.72H39.2117ZM39.2117 61V62.5C40.0401 62.5 40.7117 61.8284 40.7117 61H39.2117ZM28.0917 48.76L26.6813 48.2494C26.5149 48.7091 26.5829 49.2211 26.8637 49.6214C27.1445 50.0217 27.6028 50.26 28.0917 50.26V48.76ZM32.9717 48.76V50.26C33.8001 50.26 34.4717 49.5884 34.4717 48.76H32.9717ZM32.9717 35.28H34.4717C34.4717 34.5516 33.9484 33.9284 33.2309 33.8026C32.5134 33.6767 31.8093 34.0845 31.5613 34.7694L32.9717 35.28ZM34.4717 61V53.72H31.4717V61H34.4717ZM32.9717 52.22H23.0117V55.22H32.9717V52.22ZM24.5117 53.72V48.8H21.5117V53.72H24.5117ZM24.3958 49.3783L32.8358 29.1783L30.0677 28.0217L21.6277 48.2217L24.3958 49.3783ZM31.4517 30.1H39.2117V27.1H31.4517V30.1ZM37.7117 28.6V48.76H40.7117V28.6H37.7117ZM39.2117 50.26H42.2117V47.26H39.2117V50.26ZM40.7117 48.76V53.72H43.7117V48.76H40.7117ZM42.2117 52.22H39.2117V55.22H42.2117V52.22ZM37.7117 53.72V61H40.7117V53.72H37.7117ZM39.2117 59.5H32.9717V62.5H39.2117V59.5ZM28.0917 50.26H32.9717V47.26H28.0917V50.26ZM34.4717 48.76V35.28H31.4717V48.76H34.4717ZM31.5613 34.7694L26.6813 48.2494L29.5021 49.2706L34.3821 35.7906L31.5613 34.7694Z" fill="#DF191A"/>
<path d="M32.25 77.9999C32.25 78.4141 32.5858 78.7499 33 78.7499C33.4142 78.7499 33.75 78.4141 33.75 77.9999C33.75 76.8091 34.509 75.5034 35.8124 74.4606C37.1027 73.4284 38.8159 72.75 40.4997 72.75C43.885 72.75 47.25 75.4621 47.25 79.4996C47.25 81.1538 46.4105 83.1587 45.0221 85.3571C43.6474 87.5338 41.8031 89.7958 39.934 91.9453C39.1091 92.894 38.2682 93.8329 37.4652 94.7294C36.4759 95.8339 35.5442 96.8742 34.7709 97.7893C34.0624 98.6277 33.4522 99.4004 33.016 100.07C33.0107 100.078 33.0053 100.087 33 100.095C32.9947 100.087 32.9893 100.078 32.984 100.07C32.5478 99.4004 31.9376 98.6277 31.2291 97.7893C30.4557 96.8742 29.5241 95.8339 28.5348 94.7294C27.7318 93.8329 26.8909 92.894 26.066 91.9453C24.1969 89.7958 22.3526 87.5338 20.9779 85.3571C19.5895 83.1587 18.75 81.1538 18.75 79.4996C18.75 75.4622 22.115 72.75 25.5009 72.75C27.1843 72.75 28.8975 73.4284 30.1877 74.4606C31.491 75.5033 32.25 76.8091 32.25 77.9999Z" fill="#FF191A" stroke="#DF191A" stroke-width="1.5" stroke-linejoin="round"/>
<path d="M78.25 116.6C78.25 117.014 78.5858 117.35 79 117.35C79.4142 117.35 79.75 117.014 79.75 116.6C79.75 113.509 81.6966 110.303 84.7813 107.836C87.8529 105.378 91.941 103.75 95.9993 103.75C104.134 103.75 112.25 110.262 112.25 119.999C112.25 124.028 110.223 128.765 107.053 133.783C103.897 138.78 99.6781 143.952 95.434 148.833C93.5396 151.011 91.6292 153.144 89.8109 155.174C87.5823 157.662 85.4921 159.995 83.7396 162.069C82.1405 163.961 80.7881 165.677 79.8324 167.144C79.5123 167.636 79.2319 168.107 79 168.554C78.7681 168.107 78.4877 167.636 78.1676 167.144C77.2118 165.677 75.8595 163.961 74.2603 162.069C72.5078 159.995 70.4177 157.662 68.1891 155.174C66.3708 153.144 64.4604 151.011 62.566 148.833C58.3219 143.952 54.1026 138.78 50.9466 133.783C47.777 128.765 45.75 124.028 45.75 119.999C45.75 110.262 53.8655 103.75 62.002 103.75C66.0596 103.75 70.1475 105.378 73.2188 107.836C76.3034 110.303 78.25 113.509 78.25 116.6Z" fill="#FF191A" stroke="#DF191A" stroke-width="1.5" stroke-linejoin="round"/>
<defs>
<filter id="filter0_dd_350_2488" x="2" y="14" width="128" height="184" filterUnits="userSpaceOnUse" color-interpolation-filters="sRGB">
<feFlood flood-opacity="0" result="BackgroundImageFix"/>
<feColorMatrix in="SourceAlpha" type="matrix" values="0 0 0 0 0 0 0 0 0 0 0 0 0 0 0 0 0 0 127 0" result="hardAlpha"/>
<feOffset dy="6"/>
<feGaussianBlur stdDeviation="4"/>
<feColorMatrix type="matrix" values="0 0 0 0 0 0 0 0 0 0 0 0 0 0 0 0 0 0 0.15 0"/>
<feBlend mode="normal" in2="BackgroundImageFix" result="effect1_dropShadow_350_2488"/>
<feColorMatrix in="SourceAlpha" type="matrix" values="0 0 0 0 0 0 0 0 0 0 0 0 0 0 0 0 0 0 127 0" result="hardAlpha"/>
<feOffset dy="4"/>
<feGaussianBlur stdDeviation="2"/>
<feColorMatrix type="matrix" values="0 0 0 0 0 0 0 0 0 0 0 0 0 0 0 0 0 0 0.25 0"/>
<feBlend mode="normal" in2="effect1_dropShadow_350_2488" result="effect2_dropShadow_350_2488"/>
<feBlend mode="normal" in="SourceGraphic" in2="effect2_dropShadow_350_2488" result="shape"/>
</filter>
</defs>
</svg>
