<svg width="132" height="200" viewBox="0 0 132 200" fill="none" xmlns="http://www.w3.org/2000/svg">
<g filter="url(#filter0_dd_350_2528)">
<rect x="10" y="16" width="112" height="168" rx="12" fill="#F1F5F9"/>
</g>
<path d="M32.5242 61.6C30.1509 61.6 28.3509 61.1867 27.1242 60.36C25.9242 59.5067 25.1109 58.32 24.6842 56.8C24.2576 55.28 24.0442 53.52 24.0442 51.52H30.4842C30.4842 52.7467 30.5509 53.7467 30.6842 54.52C30.8176 55.2933 31.0576 55.8533 31.4042 56.2C31.7776 56.52 32.2976 56.6667 32.9642 56.64C33.6576 56.6133 34.1509 56.3333 34.4442 55.8C34.7376 55.2667 34.9109 54.5067 34.9642 53.52C35.0442 52.5067 35.0842 51.2933 35.0842 49.88C35.0842 48.8133 35.0176 47.8667 34.8842 47.04C34.7776 46.2133 34.5376 45.56 34.1642 45.08C33.8176 44.5733 33.2842 44.32 32.5642 44.32C31.8976 44.32 31.3509 44.56 30.9242 45.04C30.4976 45.52 30.1909 46.2667 30.0042 47.28H24.2442L24.8442 28.6H39.9642V34.2H30.2042L29.8442 40.88C30.1109 40.5067 30.6176 40.1867 31.3642 39.92C32.1109 39.6267 32.9109 39.44 33.7642 39.36C35.4176 39.1733 36.8042 39.48 37.9242 40.28C39.0709 41.0533 39.9242 42.24 40.4842 43.84C41.0709 45.44 41.3642 47.4 41.3642 49.72C41.3642 51.4533 41.2576 53.0533 41.0442 54.52C40.8309 55.96 40.4176 57.2133 39.8042 58.28C39.1909 59.32 38.2976 60.1333 37.1242 60.72C35.9509 61.3067 34.4176 61.6 32.5242 61.6Z" fill="#FF191A"/>
<path d="M27.1242 60.36L26.2549 61.5824C26.2652 61.5897 26.2755 61.5969 26.2859 61.6039L27.1242 60.36ZM24.6842 56.8L26.1284 56.3946L24.6842 56.8ZM24.0442 51.52V50.02C23.2158 50.02 22.5442 50.6916 22.5442 51.52H24.0442ZM30.4842 51.52H31.9842C31.9842 50.6916 31.3126 50.02 30.4842 50.02V51.52ZM30.6842 54.52L29.206 54.7749L30.6842 54.52ZM31.4042 56.2L30.3436 57.2607C30.3707 57.2878 30.3989 57.3139 30.428 57.3389L31.4042 56.2ZM32.9642 56.64L32.9066 55.1411L32.9043 55.1412L32.9642 56.64ZM34.4442 55.8L33.1299 55.0771H33.1299L34.4442 55.8ZM34.9642 53.52L33.4689 53.4019C33.4679 53.4143 33.4671 53.4267 33.4664 53.439L34.9642 53.52ZM34.8842 47.04L33.3966 47.232C33.3986 47.2476 33.4008 47.2633 33.4034 47.2788L34.8842 47.04ZM34.1642 45.08L32.9263 45.927C32.9435 45.9522 32.9615 45.9768 32.9802 46.0009L34.1642 45.08ZM30.9242 45.04L29.8031 44.0435H29.8031L30.9242 45.04ZM30.0042 47.28V48.78C30.7278 48.78 31.3483 48.2634 31.4794 47.5517L30.0042 47.28ZM24.2442 47.28L22.745 47.2318C22.732 47.6378 22.8841 48.0317 23.1667 48.3235C23.4492 48.6153 23.838 48.78 24.2442 48.78V47.28ZM24.8442 28.6V27.1C24.0345 27.1 23.371 27.7426 23.345 28.5518L24.8442 28.6ZM39.9642 28.6H41.4642C41.4642 27.7716 40.7926 27.1 39.9642 27.1V28.6ZM39.9642 34.2V35.7C40.7926 35.7 41.4642 35.0284 41.4642 34.2H39.9642ZM30.2042 34.2V32.7C29.4072 32.7 28.7493 33.3234 28.7064 34.1193L30.2042 34.2ZM29.8442 40.88L28.3464 40.7993C28.3105 41.4653 28.7187 42.075 29.3482 42.2956C29.9776 42.5162 30.6771 42.2946 31.0648 41.7519L29.8442 40.88ZM31.3642 39.92L31.8687 41.3326C31.8835 41.3273 31.8981 41.3219 31.9127 41.3161L31.3642 39.92ZM33.7642 39.36L33.9042 40.8535C33.9137 40.8526 33.9231 40.8516 33.9325 40.8505L33.7642 39.36ZM37.9242 40.28L37.0524 41.5006C37.0633 41.5084 37.0744 41.5161 37.0855 41.5236L37.9242 40.28ZM40.4842 43.84L39.0684 44.3355C39.0709 44.3425 39.0734 44.3494 39.0759 44.3564L40.4842 43.84ZM41.0442 54.52L42.528 54.7398L42.5286 54.7359L41.0442 54.52ZM39.8042 58.28L41.0963 59.042C41.0991 59.0372 41.1018 59.0325 41.1046 59.0277L39.8042 58.28ZM37.1242 60.72L36.4534 59.3784L37.1242 60.72ZM32.5242 60.1C30.2845 60.1 28.833 59.7028 27.9625 59.1161L26.2859 61.6039C27.8687 62.6706 30.0172 63.1 32.5242 63.1V60.1ZM27.9935 59.1376C27.0938 58.4977 26.4696 57.6101 26.1284 56.3946L23.24 57.2054C23.7522 59.0299 24.7547 60.5156 26.2549 61.5824L27.9935 59.1376ZM26.1284 56.3946C25.7471 55.0362 25.5442 53.4176 25.5442 51.52H22.5442C22.5442 53.6224 22.768 55.5238 23.24 57.2054L26.1284 56.3946ZM24.0442 53.02H30.4842V50.02H24.0442V53.02ZM28.9842 51.52C28.9842 52.7902 29.0525 53.8842 29.206 54.7749L32.1624 54.2651C32.0493 53.6091 31.9842 52.7031 31.9842 51.52H28.9842ZM29.206 54.7749C29.3629 55.6849 29.6819 56.599 30.3436 57.2607L32.4649 55.1393C32.4332 55.1077 32.2722 54.9018 32.1624 54.2651L29.206 54.7749ZM30.428 57.3389C31.1785 57.9821 32.1162 58.1751 33.0242 58.1388L32.9043 55.1412C32.693 55.1496 32.5588 55.1281 32.4814 55.1063C32.41 55.0862 32.386 55.0659 32.3804 55.0611L30.428 57.3389ZM33.0219 58.1389C34.1536 58.0954 35.1719 57.5895 35.7585 56.5229L33.1299 55.0771C33.1227 55.0902 33.1171 55.0986 33.1136 55.1033C33.1118 55.1057 33.1105 55.1073 33.1097 55.1083C33.1093 55.1088 33.109 55.1091 33.1088 55.1093C33.1086 55.1096 33.1085 55.1097 33.1085 55.1097C33.1085 55.1097 33.1086 55.1096 33.1088 55.1094C33.1089 55.1093 33.1091 55.1091 33.1094 55.1089C33.11 55.1083 33.1106 55.1078 33.1114 55.1072C33.1131 55.1059 33.1141 55.1053 33.1138 55.1055C33.1135 55.1057 33.1106 55.1073 33.1042 55.1098C33.0978 55.1124 33.0872 55.1161 33.0714 55.1202C33.0396 55.1284 32.9865 55.138 32.9066 55.1411L33.0219 58.1389ZM35.7585 56.5229C36.2077 55.7063 36.4032 54.6885 36.462 53.601L33.4664 53.439C33.4185 54.3248 33.2674 54.8271 33.1299 55.0771L35.7585 56.5229ZM36.4596 53.6381C36.5436 52.5737 36.5842 51.3188 36.5842 49.88H33.5842C33.5842 51.2679 33.5448 52.4397 33.4689 53.4019L36.4596 53.6381ZM36.5842 49.88C36.5842 48.7539 36.514 47.7248 36.3651 46.8012L33.4034 47.2788C33.5211 48.0086 33.5842 48.8728 33.5842 49.88H36.5842ZM36.3719 46.848C36.2431 45.8501 35.9361 44.9149 35.3482 44.1591L32.9802 46.0009C33.139 46.2051 33.312 46.5765 33.3966 47.232L36.3719 46.848ZM35.4022 44.233C34.7245 43.2426 33.6808 42.82 32.5642 42.82V45.82C32.7495 45.82 32.8343 45.8524 32.8606 45.8649C32.878 45.8732 32.8965 45.8835 32.9263 45.927L35.4022 44.233ZM32.5642 42.82C31.4877 42.82 30.5265 43.2296 29.8031 44.0435L32.0453 46.0365C32.1752 45.8904 32.3074 45.82 32.5642 45.82V42.82ZM29.8031 44.0435C29.1156 44.8169 28.7382 45.8729 28.529 47.0083L31.4794 47.5517C31.6436 46.6605 31.8795 46.2231 32.0453 46.0365L29.8031 44.0435ZM30.0042 45.78H24.2442V48.78H30.0042V45.78ZM25.7434 47.3282L26.3434 28.6482L23.345 28.5518L22.745 47.2318L25.7434 47.3282ZM24.8442 30.1H39.9642V27.1H24.8442V30.1ZM38.4642 28.6V34.2H41.4642V28.6H38.4642ZM39.9642 32.7H30.2042V35.7H39.9642V32.7ZM28.7064 34.1193L28.3464 40.7993L31.342 40.9607L31.702 34.2807L28.7064 34.1193ZM31.0648 41.7519C31.0565 41.7635 31.0883 41.7147 31.2252 41.6282C31.361 41.5425 31.5681 41.44 31.8687 41.3326L30.8597 38.5074C30.0113 38.8104 29.1563 39.2625 28.6236 40.0081L31.0648 41.7519ZM31.9127 41.3161C32.5198 41.0776 33.1814 40.9212 33.9042 40.8535L33.6242 37.8665C32.6404 37.9588 31.702 38.1757 30.8157 38.5239L31.9127 41.3161ZM33.9325 40.8505C35.2985 40.6963 36.294 40.9589 37.0524 41.5006L38.7961 39.0594C37.3144 38.0011 35.5366 37.6504 33.5959 37.8695L33.9325 40.8505ZM37.0855 41.5236C37.9085 42.0786 38.5906 42.9703 39.0684 44.3355L41.9 43.3445C41.2578 41.5097 40.2333 40.028 38.7629 39.0364L37.0855 41.5236ZM39.0759 44.3564C39.5844 45.7431 39.8642 47.5168 39.8642 49.72H42.8642C42.8642 47.2832 42.5574 45.1369 41.8925 43.3236L39.0759 44.3564ZM39.8642 49.72C39.8642 51.3929 39.7612 52.9197 39.5598 54.3041L42.5286 54.7359C42.7539 53.187 42.8642 51.5138 42.8642 49.72H39.8642ZM39.5604 54.3002C39.3697 55.5876 39.0081 56.6554 38.5039 57.5323L41.1046 59.0277C41.827 57.7712 42.2921 56.3324 42.528 54.7398L39.5604 54.3002ZM38.5122 57.518C38.0584 58.2874 37.3914 58.9093 36.4534 59.3784L37.795 62.0616C39.2037 61.3573 40.3234 60.3526 41.0963 59.042L38.5122 57.518ZM36.4534 59.3784C35.5599 59.8251 34.2806 60.1 32.5242 60.1V63.1C34.5545 63.1 36.3419 62.7882 37.795 62.0616L36.4534 59.3784Z" fill="#DF191A"/>
<path d="M32.25 77.9999C32.25 78.4141 32.5858 78.7499 33 78.7499C33.4142 78.7499 33.75 78.4141 33.75 77.9999C33.75 76.8091 34.509 75.5034 35.8124 74.4606C37.1027 73.4284 38.8159 72.75 40.4997 72.75C43.885 72.75 47.25 75.4621 47.25 79.4996C47.25 81.1538 46.4105 83.1587 45.0221 85.3571C43.6474 87.5338 41.8031 89.7958 39.934 91.9453C39.1091 92.894 38.2682 93.8329 37.4652 94.7294C36.4759 95.8339 35.5442 96.8742 34.7709 97.7893C34.0624 98.6277 33.4522 99.4004 33.016 100.07C33.0107 100.078 33.0053 100.087 33 100.095C32.9947 100.087 32.9893 100.078 32.984 100.07C32.5478 99.4004 31.9376 98.6277 31.2291 97.7893C30.4557 96.8742 29.5241 95.8339 28.5348 94.7294C27.7318 93.8329 26.8909 92.894 26.066 91.9453C24.1969 89.7958 22.3526 87.5338 20.9779 85.3571C19.5895 83.1587 18.75 81.1538 18.75 79.4996C18.75 75.4622 22.115 72.75 25.5009 72.75C27.1843 72.75 28.8975 73.4284 30.1877 74.4606C31.491 75.5033 32.25 76.8091 32.25 77.9999Z" fill="#FF191A" stroke="#DF191A" stroke-width="1.5" stroke-linejoin="round"/>
<path d="M78.25 116.6C78.25 117.014 78.5858 117.35 79 117.35C79.4142 117.35 79.75 117.014 79.75 116.6C79.75 113.509 81.6966 110.303 84.7813 107.836C87.8529 105.378 91.941 103.75 95.9993 103.75C104.134 103.75 112.25 110.262 112.25 119.999C112.25 124.028 110.223 128.765 107.053 133.783C103.897 138.78 99.6781 143.952 95.434 148.833C93.5396 151.011 91.6292 153.144 89.8109 155.174C87.5823 157.662 85.4921 159.995 83.7396 162.069C82.1405 163.961 80.7881 165.677 79.8324 167.144C79.5123 167.636 79.2319 168.107 79 168.554C78.7681 168.107 78.4877 167.636 78.1676 167.144C77.2118 165.677 75.8595 163.961 74.2603 162.069C72.5078 159.995 70.4177 157.662 68.1891 155.174C66.3708 153.144 64.4604 151.011 62.566 148.833C58.3219 143.952 54.1026 138.78 50.9466 133.783C47.777 128.765 45.75 124.028 45.75 119.999C45.75 110.262 53.8655 103.75 62.002 103.75C66.0596 103.75 70.1475 105.378 73.2188 107.836C76.3034 110.303 78.25 113.509 78.25 116.6Z" fill="#FF191A" stroke="#DF191A" stroke-width="1.5" stroke-linejoin="round"/>
<defs>
<filter id="filter0_dd_350_2528" x="2" y="14" width="128" height="184" filterUnits="userSpaceOnUse" color-interpolation-filters="sRGB">
<feFlood flood-opacity="0" result="BackgroundImageFix"/>
<feColorMatrix in="SourceAlpha" type="matrix" values="0 0 0 0 0 0 0 0 0 0 0 0 0 0 0 0 0 0 127 0" result="hardAlpha"/>
<feOffset dy="6"/>
<feGaussianBlur stdDeviation="4"/>
<feColorMatrix type="matrix" values="0 0 0 0 0 0 0 0 0 0 0 0 0 0 0 0 0 0 0.15 0"/>
<feBlend mode="normal" in2="BackgroundImageFix" result="effect1_dropShadow_350_2528"/>
<feColorMatrix in="SourceAlpha" type="matrix" values="0 0 0 0 0 0 0 0 0 0 0 0 0 0 0 0 0 0 127 0" result="hardAlpha"/>
<feOffset dy="4"/>
<feGaussianBlur stdDeviation="2"/>
<feColorMatrix type="matrix" values="0 0 0 0 0 0 0 0 0 0 0 0 0 0 0 0 0 0 0.25 0"/>
<feBlend mode="normal" in2="effect1_dropShadow_350_2528" result="effect2_dropShadow_350_2528"/>
<feBlend mode="normal" in="SourceGraphic" in2="effect2_dropShadow_350_2528" result="shape"/>
</filter>
</defs>
</svg>
