<svg width="132" height="200" viewBox="0 0 132 200" fill="none" xmlns="http://www.w3.org/2000/svg">
<g filter="url(#filter0_dd_350_2568)">
<rect x="10" y="16" width="112" height="168" rx="12" fill="#F1F5F9"/>
</g>
<path d="M32.2783 61.48C30.1716 61.48 28.4516 61.0267 27.1183 60.12C25.8116 59.1867 24.8516 57.92 24.2383 56.32C23.6249 54.72 23.3183 52.8933 23.3183 50.84V39.12C23.3183 37.0133 23.5583 35.1333 24.0383 33.48C24.5449 31.8267 25.4383 30.5333 26.7183 29.6C27.9983 28.64 29.8383 28.16 32.2383 28.16C34.3183 28.16 35.9583 28.48 37.1583 29.12C38.3583 29.76 39.2116 30.6933 39.7183 31.92C40.2249 33.1467 40.4783 34.6667 40.4783 36.48C40.4783 36.5867 40.4783 36.6933 40.4783 36.8C40.5049 36.88 40.5183 36.96 40.5183 37.04H34.2383C34.2383 35.7333 34.1316 34.7733 33.9183 34.16C33.7316 33.52 33.1849 33.2 32.2783 33.2C31.6649 33.2 31.1983 33.3867 30.8783 33.76C30.5849 34.1333 30.3849 34.7867 30.2783 35.72C30.1716 36.6533 30.1183 37.96 30.1183 39.64V42.52C30.4383 41.96 30.9583 41.5333 31.6783 41.24C32.3983 40.92 33.2116 40.7467 34.1183 40.72C35.8249 40.6667 37.1849 41.0533 38.1983 41.88C39.2383 42.7067 39.9849 43.84 40.4383 45.28C40.8916 46.6933 41.1183 48.28 41.1183 50.04C41.1183 52.3067 40.8516 54.3067 40.3183 56.04C39.7849 57.7467 38.8783 59.08 37.5983 60.04C36.3183 61 34.5449 61.48 32.2783 61.48ZM32.3583 56.56C32.9716 56.56 33.4116 56.36 33.6783 55.96C33.9716 55.5333 34.1583 54.92 34.2383 54.12C34.3449 53.2933 34.3983 52.28 34.3983 51.08C34.3983 50.0133 34.3583 49.0933 34.2783 48.32C34.2249 47.5467 34.0516 46.9467 33.7583 46.52C33.4649 46.0667 32.9716 45.84 32.2783 45.84C31.9583 45.84 31.6516 45.9067 31.3583 46.04C31.0649 46.1733 30.8116 46.3467 30.5983 46.56C30.3849 46.7467 30.2249 46.9333 30.1183 47.12V52.4C30.1183 53.12 30.1716 53.8 30.2783 54.44C30.4116 55.08 30.6383 55.6 30.9583 56C31.3049 56.3733 31.7716 56.56 32.3583 56.56Z" fill="#FF191A"/>
<path d="M27.1183 60.12L26.2464 61.3406C26.2558 61.3473 26.2653 61.3539 26.2748 61.3604L27.1183 60.12ZM24.2383 56.32L25.6389 55.7831H25.6389L24.2383 56.32ZM24.0383 33.48L22.6041 33.0405C22.6019 33.0476 22.5998 33.0547 22.5978 33.0618L24.0383 33.48ZM26.7183 29.6L27.602 30.812C27.6075 30.808 27.6129 30.804 27.6183 30.8L26.7183 29.6ZM37.1583 29.12L37.8642 27.7965L37.1583 29.12ZM39.7183 31.92L38.3319 32.4926L39.7183 31.92ZM40.4783 36.8H38.9783C38.9783 36.9612 39.0043 37.1214 39.0553 37.2743L40.4783 36.8ZM40.5183 37.04V38.54C41.3467 38.54 42.0183 37.8684 42.0183 37.04H40.5183ZM34.2383 37.04H32.7383C32.7383 37.8684 33.4099 38.54 34.2383 38.54V37.04ZM33.9183 34.16L32.4783 34.58C32.4854 34.6045 32.4932 34.6287 32.5015 34.6528L33.9183 34.16ZM30.8783 33.76L29.7394 32.7838C29.7255 32.8 29.712 32.8165 29.6988 32.8333L30.8783 33.76ZM30.1183 42.52H28.6183C28.6183 43.2001 29.0759 43.7952 29.7333 43.9697C30.3906 44.1443 31.0832 43.8547 31.4206 43.2642L30.1183 42.52ZM31.6783 41.24L32.2442 42.6291C32.2587 42.6232 32.2732 42.6171 32.2875 42.6107L31.6783 41.24ZM34.1183 40.72L34.1624 42.2194L34.1651 42.2193L34.1183 40.72ZM38.1983 41.88L37.2501 43.0423C37.255 43.0463 37.26 43.0503 37.2649 43.0542L38.1983 41.88ZM40.4383 45.28L39.0075 45.7304L39.01 45.7381L40.4383 45.28ZM40.3183 56.04L41.75 56.4874L41.752 56.4811L40.3183 56.04ZM37.5983 60.04L36.6983 58.84L37.5983 60.04ZM33.6783 55.96L32.4422 55.1102C32.4382 55.1161 32.4342 55.122 32.4302 55.1279L33.6783 55.96ZM34.2383 54.12L32.7506 53.928C32.7488 53.9423 32.7472 53.9565 32.7457 53.9707L34.2383 54.12ZM34.2783 48.32L32.7818 48.4232C32.783 48.4403 32.7845 48.4573 32.7862 48.4743L34.2783 48.32ZM33.7583 46.52L32.4989 47.3349C32.5065 47.3466 32.5143 47.3583 32.5222 47.3698L33.7583 46.52ZM31.3583 46.04L31.979 47.4055H31.979L31.3583 46.04ZM30.5983 46.56L31.586 47.6889C31.6111 47.6669 31.6354 47.6442 31.6589 47.6207L30.5983 46.56ZM30.1183 47.12L28.8159 46.3758C28.6864 46.6024 28.6183 46.859 28.6183 47.12H30.1183ZM30.2783 54.44L28.7987 54.6866C28.802 54.7064 28.8057 54.7262 28.8098 54.7459L30.2783 54.44ZM30.9583 56L29.787 56.937C29.81 56.9658 29.834 56.9937 29.8591 57.0207L30.9583 56ZM32.2783 59.98C30.3812 59.98 28.9803 59.5722 27.9617 58.8796L26.2748 61.3604C27.9229 62.4811 29.962 62.98 32.2783 62.98V59.98ZM27.9901 58.8994C26.9393 58.1488 26.1543 57.1276 25.6389 55.7831L22.8377 56.8569C23.5489 58.7124 24.6839 60.2245 26.2464 61.3406L27.9901 58.8994ZM25.6389 55.7831C25.1029 54.3848 24.8183 52.7453 24.8183 50.84H21.8183C21.8183 53.0414 22.147 55.0552 22.8377 56.8569L25.6389 55.7831ZM24.8183 50.84V39.12H21.8183V50.84H24.8183ZM24.8183 39.12C24.8183 37.1245 25.0459 35.3893 25.4788 33.8982L22.5978 33.0618C22.0707 34.8774 21.8183 36.9022 21.8183 39.12H24.8183ZM25.4724 33.9195C25.8932 32.5464 26.6086 31.5364 27.602 30.812L25.8345 28.388C24.268 29.5302 23.1966 31.107 22.6041 33.0405L25.4724 33.9195ZM27.6183 30.8C28.5377 30.1105 30.0086 29.66 32.2383 29.66V26.66C29.668 26.66 27.4589 27.1695 25.8183 28.4L27.6183 30.8ZM32.2383 29.66C34.1911 29.66 35.5548 29.9648 36.4524 30.4435L37.8642 27.7965C36.3618 26.9952 34.4455 26.66 32.2383 26.66V29.66ZM36.4524 30.4435C37.3536 30.9242 37.9616 31.5962 38.3319 32.4926L41.1047 31.3474C40.4616 29.7905 39.363 28.5958 37.8642 27.7965L36.4524 30.4435ZM38.3319 32.4926C38.7415 33.4843 38.9783 34.7957 38.9783 36.48H41.9783C41.9783 34.5376 41.7084 32.809 41.1047 31.3474L38.3319 32.4926ZM38.9783 36.48C38.9783 36.4802 38.9783 36.4804 38.9783 36.4806C38.9783 36.4808 38.9783 36.481 38.9783 36.4812C38.9783 36.4815 38.9783 36.4817 38.9783 36.4819C38.9783 36.4821 38.9783 36.4823 38.9783 36.4825C38.9783 36.4827 38.9783 36.4829 38.9783 36.4831C38.9783 36.4833 38.9783 36.4835 38.9783 36.4837C38.9783 36.484 38.9783 36.4842 38.9783 36.4844C38.9783 36.4846 38.9783 36.4848 38.9783 36.485C38.9783 36.4852 38.9783 36.4854 38.9783 36.4856C38.9783 36.4858 38.9783 36.486 38.9783 36.4862C38.9783 36.4865 38.9783 36.4867 38.9783 36.4869C38.9783 36.4871 38.9783 36.4873 38.9783 36.4875C38.9783 36.4877 38.9783 36.4879 38.9783 36.4881C38.9783 36.4883 38.9783 36.4885 38.9783 36.4887C38.9783 36.489 38.9783 36.4892 38.9783 36.4894C38.9783 36.4896 38.9783 36.4898 38.9783 36.49C38.9783 36.4902 38.9783 36.4904 38.9783 36.4906C38.9783 36.4908 38.9783 36.491 38.9783 36.4912C38.9783 36.4915 38.9783 36.4917 38.9783 36.4919C38.9783 36.4921 38.9783 36.4923 38.9783 36.4925C38.9783 36.4927 38.9783 36.4929 38.9783 36.4931C38.9783 36.4933 38.9783 36.4935 38.9783 36.4937C38.9783 36.494 38.9783 36.4942 38.9783 36.4944C38.9783 36.4946 38.9783 36.4948 38.9783 36.495C38.9783 36.4952 38.9783 36.4954 38.9783 36.4956C38.9783 36.4958 38.9783 36.496 38.9783 36.4962C38.9783 36.4965 38.9783 36.4967 38.9783 36.4969C38.9783 36.4971 38.9783 36.4973 38.9783 36.4975C38.9783 36.4977 38.9783 36.4979 38.9783 36.4981C38.9783 36.4983 38.9783 36.4985 38.9783 36.4987C38.9783 36.499 38.9783 36.4992 38.9783 36.4994C38.9783 36.4996 38.9783 36.4998 38.9783 36.5C38.9783 36.5002 38.9783 36.5004 38.9783 36.5006C38.9783 36.5008 38.9783 36.501 38.9783 36.5012C38.9783 36.5015 38.9783 36.5017 38.9783 36.5019C38.9783 36.5021 38.9783 36.5023 38.9783 36.5025C38.9783 36.5027 38.9783 36.5029 38.9783 36.5031C38.9783 36.5033 38.9783 36.5035 38.9783 36.5037C38.9783 36.504 38.9783 36.5042 38.9783 36.5044C38.9783 36.5046 38.9783 36.5048 38.9783 36.505C38.9783 36.5052 38.9783 36.5054 38.9783 36.5056C38.9783 36.5058 38.9783 36.506 38.9783 36.5062C38.9783 36.5065 38.9783 36.5067 38.9783 36.5069C38.9783 36.5071 38.9783 36.5073 38.9783 36.5075C38.9783 36.5077 38.9783 36.5079 38.9783 36.5081C38.9783 36.5083 38.9783 36.5085 38.9783 36.5087C38.9783 36.509 38.9783 36.5092 38.9783 36.5094C38.9783 36.5096 38.9783 36.5098 38.9783 36.51C38.9783 36.5102 38.9783 36.5104 38.9783 36.5106C38.9783 36.5108 38.9783 36.511 38.9783 36.5112C38.9783 36.5115 38.9783 36.5117 38.9783 36.5119C38.9783 36.5121 38.9783 36.5123 38.9783 36.5125C38.9783 36.5127 38.9783 36.5129 38.9783 36.5131C38.9783 36.5133 38.9783 36.5135 38.9783 36.5137C38.9783 36.514 38.9783 36.5142 38.9783 36.5144C38.9783 36.5146 38.9783 36.5148 38.9783 36.515C38.9783 36.5152 38.9783 36.5154 38.9783 36.5156C38.9783 36.5158 38.9783 36.516 38.9783 36.5162C38.9783 36.5165 38.9783 36.5167 38.9783 36.5169C38.9783 36.5171 38.9783 36.5173 38.9783 36.5175C38.9783 36.5177 38.9783 36.5179 38.9783 36.5181C38.9783 36.5183 38.9783 36.5185 38.9783 36.5187C38.9783 36.519 38.9783 36.5192 38.9783 36.5194C38.9783 36.5196 38.9783 36.5198 38.9783 36.52C38.9783 36.5202 38.9783 36.5204 38.9783 36.5206C38.9783 36.5208 38.9783 36.521 38.9783 36.5212C38.9783 36.5215 38.9783 36.5217 38.9783 36.5219C38.9783 36.5221 38.9783 36.5223 38.9783 36.5225C38.9783 36.5227 38.9783 36.5229 38.9783 36.5231C38.9783 36.5233 38.9783 36.5235 38.9783 36.5237C38.9783 36.524 38.9783 36.5242 38.9783 36.5244C38.9783 36.5246 38.9783 36.5248 38.9783 36.525C38.9783 36.5252 38.9783 36.5254 38.9783 36.5256C38.9783 36.5258 38.9783 36.526 38.9783 36.5262C38.9783 36.5265 38.9783 36.5267 38.9783 36.5269C38.9783 36.5271 38.9783 36.5273 38.9783 36.5275C38.9783 36.5277 38.9783 36.5279 38.9783 36.5281C38.9783 36.5283 38.9783 36.5285 38.9783 36.5287C38.9783 36.529 38.9783 36.5292 38.9783 36.5294C38.9783 36.5296 38.9783 36.5298 38.9783 36.53C38.9783 36.5302 38.9783 36.5304 38.9783 36.5306C38.9783 36.5308 38.9783 36.531 38.9783 36.5312C38.9783 36.5315 38.9783 36.5317 38.9783 36.5319C38.9783 36.5321 38.9783 36.5323 38.9783 36.5325C38.9783 36.5327 38.9783 36.5329 38.9783 36.5331C38.9783 36.5333 38.9783 36.5335 38.9783 36.5337C38.9783 36.534 38.9783 36.5342 38.9783 36.5344C38.9783 36.5346 38.9783 36.5348 38.9783 36.535C38.9783 36.5352 38.9783 36.5354 38.9783 36.5356C38.9783 36.5358 38.9783 36.536 38.9783 36.5362C38.9783 36.5365 38.9783 36.5367 38.9783 36.5369C38.9783 36.5371 38.9783 36.5373 38.9783 36.5375C38.9783 36.5377 38.9783 36.5379 38.9783 36.5381C38.9783 36.5383 38.9783 36.5385 38.9783 36.5387C38.9783 36.539 38.9783 36.5392 38.9783 36.5394C38.9783 36.5396 38.9783 36.5398 38.9783 36.54C38.9783 36.5402 38.9783 36.5404 38.9783 36.5406C38.9783 36.5408 38.9783 36.541 38.9783 36.5412C38.9783 36.5415 38.9783 36.5417 38.9783 36.5419C38.9783 36.5421 38.9783 36.5423 38.9783 36.5425C38.9783 36.5427 38.9783 36.5429 38.9783 36.5431C38.9783 36.5433 38.9783 36.5435 38.9783 36.5437C38.9783 36.544 38.9783 36.5442 38.9783 36.5444C38.9783 36.5446 38.9783 36.5448 38.9783 36.545C38.9783 36.5452 38.9783 36.5454 38.9783 36.5456C38.9783 36.5458 38.9783 36.546 38.9783 36.5462C38.9783 36.5465 38.9783 36.5467 38.9783 36.5469C38.9783 36.5471 38.9783 36.5473 38.9783 36.5475C38.9783 36.5477 38.9783 36.5479 38.9783 36.5481C38.9783 36.5483 38.9783 36.5485 38.9783 36.5487C38.9783 36.549 38.9783 36.5492 38.9783 36.5494C38.9783 36.5496 38.9783 36.5498 38.9783 36.55C38.9783 36.5502 38.9783 36.5504 38.9783 36.5506C38.9783 36.5508 38.9783 36.551 38.9783 36.5512C38.9783 36.5515 38.9783 36.5517 38.9783 36.5519C38.9783 36.5521 38.9783 36.5523 38.9783 36.5525C38.9783 36.5527 38.9783 36.5529 38.9783 36.5531C38.9783 36.5533 38.9783 36.5535 38.9783 36.5537C38.9783 36.554 38.9783 36.5542 38.9783 36.5544C38.9783 36.5546 38.9783 36.5548 38.9783 36.555C38.9783 36.5552 38.9783 36.5554 38.9783 36.5556C38.9783 36.5558 38.9783 36.556 38.9783 36.5562C38.9783 36.5565 38.9783 36.5567 38.9783 36.5569C38.9783 36.5571 38.9783 36.5573 38.9783 36.5575C38.9783 36.5577 38.9783 36.5579 38.9783 36.5581C38.9783 36.5583 38.9783 36.5585 38.9783 36.5587C38.9783 36.559 38.9783 36.5592 38.9783 36.5594C38.9783 36.5596 38.9783 36.5598 38.9783 36.56C38.9783 36.5602 38.9783 36.5604 38.9783 36.5606C38.9783 36.5608 38.9783 36.561 38.9783 36.5612C38.9783 36.5615 38.9783 36.5617 38.9783 36.5619C38.9783 36.5621 38.9783 36.5623 38.9783 36.5625C38.9783 36.5627 38.9783 36.5629 38.9783 36.5631C38.9783 36.5633 38.9783 36.5635 38.9783 36.5637C38.9783 36.564 38.9783 36.5642 38.9783 36.5644C38.9783 36.5646 38.9783 36.5648 38.9783 36.565C38.9783 36.5652 38.9783 36.5654 38.9783 36.5656C38.9783 36.5658 38.9783 36.566 38.9783 36.5662C38.9783 36.5665 38.9783 36.5667 38.9783 36.5669C38.9783 36.5671 38.9783 36.5673 38.9783 36.5675C38.9783 36.5677 38.9783 36.5679 38.9783 36.5681C38.9783 36.5683 38.9783 36.5685 38.9783 36.5687C38.9783 36.569 38.9783 36.5692 38.9783 36.5694C38.9783 36.5696 38.9783 36.5698 38.9783 36.57C38.9783 36.5702 38.9783 36.5704 38.9783 36.5706C38.9783 36.5708 38.9783 36.571 38.9783 36.5712C38.9783 36.5715 38.9783 36.5717 38.9783 36.5719C38.9783 36.5721 38.9783 36.5723 38.9783 36.5725C38.9783 36.5727 38.9783 36.5729 38.9783 36.5731C38.9783 36.5733 38.9783 36.5735 38.9783 36.5737C38.9783 36.574 38.9783 36.5742 38.9783 36.5744C38.9783 36.5746 38.9783 36.5748 38.9783 36.575C38.9783 36.5752 38.9783 36.5754 38.9783 36.5756C38.9783 36.5758 38.9783 36.576 38.9783 36.5762C38.9783 36.5765 38.9783 36.5767 38.9783 36.5769C38.9783 36.5771 38.9783 36.5773 38.9783 36.5775C38.9783 36.5777 38.9783 36.5779 38.9783 36.5781C38.9783 36.5783 38.9783 36.5785 38.9783 36.5787C38.9783 36.579 38.9783 36.5792 38.9783 36.5794C38.9783 36.5796 38.9783 36.5798 38.9783 36.58C38.9783 36.5802 38.9783 36.5804 38.9783 36.5806C38.9783 36.5808 38.9783 36.581 38.9783 36.5812C38.9783 36.5815 38.9783 36.5817 38.9783 36.5819C38.9783 36.5821 38.9783 36.5823 38.9783 36.5825C38.9783 36.5827 38.9783 36.5829 38.9783 36.5831C38.9783 36.5833 38.9783 36.5835 38.9783 36.5837C38.9783 36.584 38.9783 36.5842 38.9783 36.5844C38.9783 36.5846 38.9783 36.5848 38.9783 36.585C38.9783 36.5852 38.9783 36.5854 38.9783 36.5856C38.9783 36.5858 38.9783 36.586 38.9783 36.5862C38.9783 36.5865 38.9783 36.5867 38.9783 36.5869C38.9783 36.5871 38.9783 36.5873 38.9783 36.5875C38.9783 36.5877 38.9783 36.5879 38.9783 36.5881C38.9783 36.5883 38.9783 36.5885 38.9783 36.5887C38.9783 36.589 38.9783 36.5892 38.9783 36.5894C38.9783 36.5896 38.9783 36.5898 38.9783 36.59C38.9783 36.5902 38.9783 36.5904 38.9783 36.5906C38.9783 36.5908 38.9783 36.591 38.9783 36.5912C38.9783 36.5915 38.9783 36.5917 38.9783 36.5919C38.9783 36.5921 38.9783 36.5923 38.9783 36.5925C38.9783 36.5927 38.9783 36.5929 38.9783 36.5931C38.9783 36.5933 38.9783 36.5935 38.9783 36.5937C38.9783 36.594 38.9783 36.5942 38.9783 36.5944C38.9783 36.5946 38.9783 36.5948 38.9783 36.595C38.9783 36.5952 38.9783 36.5954 38.9783 36.5956C38.9783 36.5958 38.9783 36.596 38.9783 36.5962C38.9783 36.5965 38.9783 36.5967 38.9783 36.5969C38.9783 36.5971 38.9783 36.5973 38.9783 36.5975C38.9783 36.5977 38.9783 36.5979 38.9783 36.5981C38.9783 36.5983 38.9783 36.5985 38.9783 36.5987C38.9783 36.599 38.9783 36.5992 38.9783 36.5994C38.9783 36.5996 38.9783 36.5998 38.9783 36.6C38.9783 36.6002 38.9783 36.6004 38.9783 36.6006C38.9783 36.6008 38.9783 36.601 38.9783 36.6012C38.9783 36.6015 38.9783 36.6017 38.9783 36.6019C38.9783 36.6021 38.9783 36.6023 38.9783 36.6025C38.9783 36.6027 38.9783 36.6029 38.9783 36.6031C38.9783 36.6033 38.9783 36.6035 38.9783 36.6037C38.9783 36.604 38.9783 36.6042 38.9783 36.6044C38.9783 36.6046 38.9783 36.6048 38.9783 36.605C38.9783 36.6052 38.9783 36.6054 38.9783 36.6056C38.9783 36.6058 38.9783 36.606 38.9783 36.6062C38.9783 36.6065 38.9783 36.6067 38.9783 36.6069C38.9783 36.6071 38.9783 36.6073 38.9783 36.6075C38.9783 36.6077 38.9783 36.6079 38.9783 36.6081C38.9783 36.6083 38.9783 36.6085 38.9783 36.6087C38.9783 36.609 38.9783 36.6092 38.9783 36.6094C38.9783 36.6096 38.9783 36.6098 38.9783 36.61C38.9783 36.6102 38.9783 36.6104 38.9783 36.6106C38.9783 36.6108 38.9783 36.611 38.9783 36.6112C38.9783 36.6115 38.9783 36.6117 38.9783 36.6119C38.9783 36.6121 38.9783 36.6123 38.9783 36.6125C38.9783 36.6127 38.9783 36.6129 38.9783 36.6131C38.9783 36.6133 38.9783 36.6135 38.9783 36.6137C38.9783 36.614 38.9783 36.6142 38.9783 36.6144C38.9783 36.6146 38.9783 36.6148 38.9783 36.615C38.9783 36.6152 38.9783 36.6154 38.9783 36.6156C38.9783 36.6158 38.9783 36.616 38.9783 36.6162C38.9783 36.6165 38.9783 36.6167 38.9783 36.6169C38.9783 36.6171 38.9783 36.6173 38.9783 36.6175C38.9783 36.6177 38.9783 36.6179 38.9783 36.6181C38.9783 36.6183 38.9783 36.6185 38.9783 36.6187C38.9783 36.619 38.9783 36.6192 38.9783 36.6194C38.9783 36.6196 38.9783 36.6198 38.9783 36.62C38.9783 36.6202 38.9783 36.6204 38.9783 36.6206C38.9783 36.6208 38.9783 36.621 38.9783 36.6212C38.9783 36.6215 38.9783 36.6217 38.9783 36.6219C38.9783 36.6221 38.9783 36.6223 38.9783 36.6225C38.9783 36.6227 38.9783 36.6229 38.9783 36.6231C38.9783 36.6233 38.9783 36.6235 38.9783 36.6237C38.9783 36.624 38.9783 36.6242 38.9783 36.6244C38.9783 36.6246 38.9783 36.6248 38.9783 36.625C38.9783 36.6252 38.9783 36.6254 38.9783 36.6256C38.9783 36.6258 38.9783 36.626 38.9783 36.6262C38.9783 36.6265 38.9783 36.6267 38.9783 36.6269C38.9783 36.6271 38.9783 36.6273 38.9783 36.6275C38.9783 36.6277 38.9783 36.6279 38.9783 36.6281C38.9783 36.6283 38.9783 36.6285 38.9783 36.6287C38.9783 36.629 38.9783 36.6292 38.9783 36.6294C38.9783 36.6296 38.9783 36.6298 38.9783 36.63C38.9783 36.6302 38.9783 36.6304 38.9783 36.6306C38.9783 36.6308 38.9783 36.631 38.9783 36.6312C38.9783 36.6315 38.9783 36.6317 38.9783 36.6319C38.9783 36.6321 38.9783 36.6323 38.9783 36.6325C38.9783 36.6327 38.9783 36.6329 38.9783 36.6331C38.9783 36.6333 38.9783 36.6335 38.9783 36.6337C38.9783 36.634 38.9783 36.6342 38.9783 36.6344C38.9783 36.6346 38.9783 36.6348 38.9783 36.635C38.9783 36.6352 38.9783 36.6354 38.9783 36.6356C38.9783 36.6358 38.9783 36.636 38.9783 36.6362C38.9783 36.6365 38.9783 36.6367 38.9783 36.6369C38.9783 36.6371 38.9783 36.6373 38.9783 36.6375C38.9783 36.6377 38.9783 36.6379 38.9783 36.6381C38.9783 36.6383 38.9783 36.6385 38.9783 36.6387C38.9783 36.639 38.9783 36.6392 38.9783 36.6394C38.9783 36.6396 38.9783 36.6398 38.9783 36.64C38.9783 36.6402 38.9783 36.6404 38.9783 36.6406C38.9783 36.6408 38.9783 36.641 38.9783 36.6412C38.9783 36.6415 38.9783 36.6417 38.9783 36.6419C38.9783 36.6421 38.9783 36.6423 38.9783 36.6425C38.9783 36.6427 38.9783 36.6429 38.9783 36.6431C38.9783 36.6433 38.9783 36.6435 38.9783 36.6437C38.9783 36.644 38.9783 36.6442 38.9783 36.6444C38.9783 36.6446 38.9783 36.6448 38.9783 36.645C38.9783 36.6452 38.9783 36.6454 38.9783 36.6456C38.9783 36.6458 38.9783 36.646 38.9783 36.6462C38.9783 36.6465 38.9783 36.6467 38.9783 36.6469C38.9783 36.6471 38.9783 36.6473 38.9783 36.6475C38.9783 36.6477 38.9783 36.6479 38.9783 36.6481C38.9783 36.6483 38.9783 36.6485 38.9783 36.6487C38.9783 36.649 38.9783 36.6492 38.9783 36.6494C38.9783 36.6496 38.9783 36.6498 38.9783 36.65C38.9783 36.6502 38.9783 36.6504 38.9783 36.6506C38.9783 36.6508 38.9783 36.651 38.9783 36.6512C38.9783 36.6515 38.9783 36.6517 38.9783 36.6519C38.9783 36.6521 38.9783 36.6523 38.9783 36.6525C38.9783 36.6527 38.9783 36.6529 38.9783 36.6531C38.9783 36.6533 38.9783 36.6535 38.9783 36.6537C38.9783 36.654 38.9783 36.6542 38.9783 36.6544C38.9783 36.6546 38.9783 36.6548 38.9783 36.655C38.9783 36.6552 38.9783 36.6554 38.9783 36.6556C38.9783 36.6558 38.9783 36.656 38.9783 36.6562C38.9783 36.6565 38.9783 36.6567 38.9783 36.6569C38.9783 36.6571 38.9783 36.6573 38.9783 36.6575C38.9783 36.6577 38.9783 36.6579 38.9783 36.6581C38.9783 36.6583 38.9783 36.6585 38.9783 36.6587C38.9783 36.659 38.9783 36.6592 38.9783 36.6594C38.9783 36.6596 38.9783 36.6598 38.9783 36.66C38.9783 36.6602 38.9783 36.6604 38.9783 36.6606C38.9783 36.6608 38.9783 36.661 38.9783 36.6612C38.9783 36.6615 38.9783 36.6617 38.9783 36.6619C38.9783 36.6621 38.9783 36.6623 38.9783 36.6625C38.9783 36.6627 38.9783 36.6629 38.9783 36.6631C38.9783 36.6633 38.9783 36.6635 38.9783 36.6637C38.9783 36.664 38.9783 36.6642 38.9783 36.6644C38.9783 36.6646 38.9783 36.6648 38.9783 36.665C38.9783 36.6652 38.9783 36.6654 38.9783 36.6656C38.9783 36.6658 38.9783 36.666 38.9783 36.6662C38.9783 36.6665 38.9783 36.6667 38.9783 36.6669C38.9783 36.6671 38.9783 36.6673 38.9783 36.6675C38.9783 36.6677 38.9783 36.6679 38.9783 36.6681C38.9783 36.6683 38.9783 36.6685 38.9783 36.6687C38.9783 36.669 38.9783 36.6692 38.9783 36.6694C38.9783 36.6696 38.9783 36.6698 38.9783 36.67C38.9783 36.6702 38.9783 36.6704 38.9783 36.6706C38.9783 36.6708 38.9783 36.671 38.9783 36.6712C38.9783 36.6715 38.9783 36.6717 38.9783 36.6719C38.9783 36.6721 38.9783 36.6723 38.9783 36.6725C38.9783 36.6727 38.9783 36.6729 38.9783 36.6731C38.9783 36.6733 38.9783 36.6735 38.9783 36.6737C38.9783 36.674 38.9783 36.6742 38.9783 36.6744C38.9783 36.6746 38.9783 36.6748 38.9783 36.675C38.9783 36.6752 38.9783 36.6754 38.9783 36.6756C38.9783 36.6758 38.9783 36.676 38.9783 36.6762C38.9783 36.6765 38.9783 36.6767 38.9783 36.6769C38.9783 36.6771 38.9783 36.6773 38.9783 36.6775C38.9783 36.6777 38.9783 36.6779 38.9783 36.6781C38.9783 36.6783 38.9783 36.6785 38.9783 36.6787C38.9783 36.679 38.9783 36.6792 38.9783 36.6794C38.9783 36.6796 38.9783 36.6798 38.9783 36.68C38.9783 36.6802 38.9783 36.6804 38.9783 36.6806C38.9783 36.6808 38.9783 36.681 38.9783 36.6812C38.9783 36.6815 38.9783 36.6817 38.9783 36.6819C38.9783 36.6821 38.9783 36.6823 38.9783 36.6825C38.9783 36.6827 38.9783 36.6829 38.9783 36.6831C38.9783 36.6833 38.9783 36.6835 38.9783 36.6837C38.9783 36.684 38.9783 36.6842 38.9783 36.6844C38.9783 36.6846 38.9783 36.6848 38.9783 36.685C38.9783 36.6852 38.9783 36.6854 38.9783 36.6856C38.9783 36.6858 38.9783 36.686 38.9783 36.6862C38.9783 36.6865 38.9783 36.6867 38.9783 36.6869C38.9783 36.6871 38.9783 36.6873 38.9783 36.6875C38.9783 36.6877 38.9783 36.6879 38.9783 36.6881C38.9783 36.6883 38.9783 36.6885 38.9783 36.6887C38.9783 36.689 38.9783 36.6892 38.9783 36.6894C38.9783 36.6896 38.9783 36.6898 38.9783 36.69C38.9783 36.6902 38.9783 36.6904 38.9783 36.6906C38.9783 36.6908 38.9783 36.691 38.9783 36.6912C38.9783 36.6915 38.9783 36.6917 38.9783 36.6919C38.9783 36.6921 38.9783 36.6923 38.9783 36.6925C38.9783 36.6927 38.9783 36.6929 38.9783 36.6931C38.9783 36.6933 38.9783 36.6935 38.9783 36.6937C38.9783 36.694 38.9783 36.6942 38.9783 36.6944C38.9783 36.6946 38.9783 36.6948 38.9783 36.695C38.9783 36.6952 38.9783 36.6954 38.9783 36.6956C38.9783 36.6958 38.9783 36.696 38.9783 36.6962C38.9783 36.6965 38.9783 36.6967 38.9783 36.6969C38.9783 36.6971 38.9783 36.6973 38.9783 36.6975C38.9783 36.6977 38.9783 36.6979 38.9783 36.6981C38.9783 36.6983 38.9783 36.6985 38.9783 36.6987C38.9783 36.699 38.9783 36.6992 38.9783 36.6994C38.9783 36.6996 38.9783 36.6998 38.9783 36.7C38.9783 36.7002 38.9783 36.7004 38.9783 36.7006C38.9783 36.7008 38.9783 36.701 38.9783 36.7012C38.9783 36.7015 38.9783 36.7017 38.9783 36.7019C38.9783 36.7021 38.9783 36.7023 38.9783 36.7025C38.9783 36.7027 38.9783 36.7029 38.9783 36.7031C38.9783 36.7033 38.9783 36.7035 38.9783 36.7037C38.9783 36.704 38.9783 36.7042 38.9783 36.7044C38.9783 36.7046 38.9783 36.7048 38.9783 36.705C38.9783 36.7052 38.9783 36.7054 38.9783 36.7056C38.9783 36.7058 38.9783 36.706 38.9783 36.7062C38.9783 36.7065 38.9783 36.7067 38.9783 36.7069C38.9783 36.7071 38.9783 36.7073 38.9783 36.7075C38.9783 36.7077 38.9783 36.7079 38.9783 36.7081C38.9783 36.7083 38.9783 36.7085 38.9783 36.7087C38.9783 36.709 38.9783 36.7092 38.9783 36.7094C38.9783 36.7096 38.9783 36.7098 38.9783 36.71C38.9783 36.7102 38.9783 36.7104 38.9783 36.7106C38.9783 36.7108 38.9783 36.711 38.9783 36.7112C38.9783 36.7115 38.9783 36.7117 38.9783 36.7119C38.9783 36.7121 38.9783 36.7123 38.9783 36.7125C38.9783 36.7127 38.9783 36.7129 38.9783 36.7131C38.9783 36.7133 38.9783 36.7135 38.9783 36.7137C38.9783 36.714 38.9783 36.7142 38.9783 36.7144C38.9783 36.7146 38.9783 36.7148 38.9783 36.715C38.9783 36.7152 38.9783 36.7154 38.9783 36.7156C38.9783 36.7158 38.9783 36.716 38.9783 36.7162C38.9783 36.7165 38.9783 36.7167 38.9783 36.7169C38.9783 36.7171 38.9783 36.7173 38.9783 36.7175C38.9783 36.7177 38.9783 36.7179 38.9783 36.7181C38.9783 36.7183 38.9783 36.7185 38.9783 36.7188C38.9783 36.719 38.9783 36.7192 38.9783 36.7194C38.9783 36.7196 38.9783 36.7198 38.9783 36.72C38.9783 36.7202 38.9783 36.7204 38.9783 36.7206C38.9783 36.7208 38.9783 36.721 38.9783 36.7212C38.9783 36.7215 38.9783 36.7217 38.9783 36.7219C38.9783 36.7221 38.9783 36.7223 38.9783 36.7225C38.9783 36.7227 38.9783 36.7229 38.9783 36.7231C38.9783 36.7233 38.9783 36.7235 38.9783 36.7237C38.9783 36.724 38.9783 36.7242 38.9783 36.7244C38.9783 36.7246 38.9783 36.7248 38.9783 36.725C38.9783 36.7252 38.9783 36.7254 38.9783 36.7256C38.9783 36.7258 38.9783 36.726 38.9783 36.7262C38.9783 36.7265 38.9783 36.7267 38.9783 36.7269C38.9783 36.7271 38.9783 36.7273 38.9783 36.7275C38.9783 36.7277 38.9783 36.7279 38.9783 36.7281C38.9783 36.7283 38.9783 36.7285 38.9783 36.7287C38.9783 36.729 38.9783 36.7292 38.9783 36.7294C38.9783 36.7296 38.9783 36.7298 38.9783 36.73C38.9783 36.7302 38.9783 36.7304 38.9783 36.7306C38.9783 36.7308 38.9783 36.731 38.9783 36.7312C38.9783 36.7315 38.9783 36.7317 38.9783 36.7319C38.9783 36.7321 38.9783 36.7323 38.9783 36.7325C38.9783 36.7327 38.9783 36.7329 38.9783 36.7331C38.9783 36.7333 38.9783 36.7335 38.9783 36.7337C38.9783 36.734 38.9783 36.7342 38.9783 36.7344C38.9783 36.7346 38.9783 36.7348 38.9783 36.735C38.9783 36.7352 38.9783 36.7354 38.9783 36.7356C38.9783 36.7358 38.9783 36.736 38.9783 36.7362C38.9783 36.7365 38.9783 36.7367 38.9783 36.7369C38.9783 36.7371 38.9783 36.7373 38.9783 36.7375C38.9783 36.7377 38.9783 36.7379 38.9783 36.7381C38.9783 36.7383 38.9783 36.7385 38.9783 36.7387C38.9783 36.739 38.9783 36.7392 38.9783 36.7394C38.9783 36.7396 38.9783 36.7398 38.9783 36.74C38.9783 36.7402 38.9783 36.7404 38.9783 36.7406C38.9783 36.7408 38.9783 36.741 38.9783 36.7412C38.9783 36.7415 38.9783 36.7417 38.9783 36.7419C38.9783 36.7421 38.9783 36.7423 38.9783 36.7425C38.9783 36.7427 38.9783 36.7429 38.9783 36.7431C38.9783 36.7433 38.9783 36.7435 38.9783 36.7437C38.9783 36.744 38.9783 36.7442 38.9783 36.7444C38.9783 36.7446 38.9783 36.7448 38.9783 36.745C38.9783 36.7452 38.9783 36.7454 38.9783 36.7456C38.9783 36.7458 38.9783 36.746 38.9783 36.7462C38.9783 36.7465 38.9783 36.7467 38.9783 36.7469C38.9783 36.7471 38.9783 36.7473 38.9783 36.7475C38.9783 36.7477 38.9783 36.7479 38.9783 36.7481C38.9783 36.7483 38.9783 36.7485 38.9783 36.7487C38.9783 36.749 38.9783 36.7492 38.9783 36.7494C38.9783 36.7496 38.9783 36.7498 38.9783 36.75C38.9783 36.7502 38.9783 36.7504 38.9783 36.7506C38.9783 36.7508 38.9783 36.751 38.9783 36.7512C38.9783 36.7515 38.9783 36.7517 38.9783 36.7519C38.9783 36.7521 38.9783 36.7523 38.9783 36.7525C38.9783 36.7527 38.9783 36.7529 38.9783 36.7531C38.9783 36.7533 38.9783 36.7535 38.9783 36.7537C38.9783 36.754 38.9783 36.7542 38.9783 36.7544C38.9783 36.7546 38.9783 36.7548 38.9783 36.755C38.9783 36.7552 38.9783 36.7554 38.9783 36.7556C38.9783 36.7558 38.9783 36.756 38.9783 36.7562C38.9783 36.7565 38.9783 36.7567 38.9783 36.7569C38.9783 36.7571 38.9783 36.7573 38.9783 36.7575C38.9783 36.7577 38.9783 36.7579 38.9783 36.7581C38.9783 36.7583 38.9783 36.7585 38.9783 36.7587C38.9783 36.759 38.9783 36.7592 38.9783 36.7594C38.9783 36.7596 38.9783 36.7598 38.9783 36.76C38.9783 36.7602 38.9783 36.7604 38.9783 36.7606C38.9783 36.7608 38.9783 36.761 38.9783 36.7612C38.9783 36.7615 38.9783 36.7617 38.9783 36.7619C38.9783 36.7621 38.9783 36.7623 38.9783 36.7625C38.9783 36.7627 38.9783 36.7629 38.9783 36.7631C38.9783 36.7633 38.9783 36.7635 38.9783 36.7638C38.9783 36.764 38.9783 36.7642 38.9783 36.7644C38.9783 36.7646 38.9783 36.7648 38.9783 36.765C38.9783 36.7652 38.9783 36.7654 38.9783 36.7656C38.9783 36.7658 38.9783 36.766 38.9783 36.7662C38.9783 36.7665 38.9783 36.7667 38.9783 36.7669C38.9783 36.7671 38.9783 36.7673 38.9783 36.7675C38.9783 36.7677 38.9783 36.7679 38.9783 36.7681C38.9783 36.7683 38.9783 36.7685 38.9783 36.7687C38.9783 36.769 38.9783 36.7692 38.9783 36.7694C38.9783 36.7696 38.9783 36.7698 38.9783 36.77C38.9783 36.7702 38.9783 36.7704 38.9783 36.7706C38.9783 36.7708 38.9783 36.771 38.9783 36.7712C38.9783 36.7715 38.9783 36.7717 38.9783 36.7719C38.9783 36.7721 38.9783 36.7723 38.9783 36.7725C38.9783 36.7727 38.9783 36.7729 38.9783 36.7731C38.9783 36.7733 38.9783 36.7735 38.9783 36.7737C38.9783 36.774 38.9783 36.7742 38.9783 36.7744C38.9783 36.7746 38.9783 36.7748 38.9783 36.775C38.9783 36.7752 38.9783 36.7754 38.9783 36.7756C38.9783 36.7758 38.9783 36.776 38.9783 36.7762C38.9783 36.7765 38.9783 36.7767 38.9783 36.7769C38.9783 36.7771 38.9783 36.7773 38.9783 36.7775C38.9783 36.7777 38.9783 36.7779 38.9783 36.7781C38.9783 36.7783 38.9783 36.7785 38.9783 36.7787C38.9783 36.779 38.9783 36.7792 38.9783 36.7794C38.9783 36.7796 38.9783 36.7798 38.9783 36.78C38.9783 36.7802 38.9783 36.7804 38.9783 36.7806C38.9783 36.7808 38.9783 36.781 38.9783 36.7812C38.9783 36.7815 38.9783 36.7817 38.9783 36.7819C38.9783 36.7821 38.9783 36.7823 38.9783 36.7825C38.9783 36.7827 38.9783 36.7829 38.9783 36.7831C38.9783 36.7833 38.9783 36.7835 38.9783 36.7837C38.9783 36.784 38.9783 36.7842 38.9783 36.7844C38.9783 36.7846 38.9783 36.7848 38.9783 36.785C38.9783 36.7852 38.9783 36.7854 38.9783 36.7856C38.9783 36.7858 38.9783 36.786 38.9783 36.7862C38.9783 36.7865 38.9783 36.7867 38.9783 36.7869C38.9783 36.7871 38.9783 36.7873 38.9783 36.7875C38.9783 36.7877 38.9783 36.7879 38.9783 36.7881C38.9783 36.7883 38.9783 36.7885 38.9783 36.7887C38.9783 36.789 38.9783 36.7892 38.9783 36.7894C38.9783 36.7896 38.9783 36.7898 38.9783 36.79C38.9783 36.7902 38.9783 36.7904 38.9783 36.7906C38.9783 36.7908 38.9783 36.791 38.9783 36.7912C38.9783 36.7915 38.9783 36.7917 38.9783 36.7919C38.9783 36.7921 38.9783 36.7923 38.9783 36.7925C38.9783 36.7927 38.9783 36.7929 38.9783 36.7931C38.9783 36.7933 38.9783 36.7935 38.9783 36.7937C38.9783 36.794 38.9783 36.7942 38.9783 36.7944C38.9783 36.7946 38.9783 36.7948 38.9783 36.795C38.9783 36.7952 38.9783 36.7954 38.9783 36.7956C38.9783 36.7958 38.9783 36.796 38.9783 36.7962C38.9783 36.7965 38.9783 36.7967 38.9783 36.7969C38.9783 36.7971 38.9783 36.7973 38.9783 36.7975C38.9783 36.7977 38.9783 36.7979 38.9783 36.7981C38.9783 36.7983 38.9783 36.7985 38.9783 36.7987C38.9783 36.799 38.9783 36.7992 38.9783 36.7994C38.9783 36.7996 38.9783 36.7998 38.9783 36.8H41.9783C41.9783 36.7998 41.9783 36.7996 41.9783 36.7994C41.9783 36.7992 41.9783 36.799 41.9783 36.7987C41.9783 36.7985 41.9783 36.7983 41.9783 36.7981C41.9783 36.7979 41.9783 36.7977 41.9783 36.7975C41.9783 36.7973 41.9783 36.7971 41.9783 36.7969C41.9783 36.7967 41.9783 36.7965 41.9783 36.7962C41.9783 36.796 41.9783 36.7958 41.9783 36.7956C41.9783 36.7954 41.9783 36.7952 41.9783 36.795C41.9783 36.7948 41.9783 36.7946 41.9783 36.7944C41.9783 36.7942 41.9783 36.794 41.9783 36.7937C41.9783 36.7935 41.9783 36.7933 41.9783 36.7931C41.9783 36.7929 41.9783 36.7927 41.9783 36.7925C41.9783 36.7923 41.9783 36.7921 41.9783 36.7919C41.9783 36.7917 41.9783 36.7915 41.9783 36.7912C41.9783 36.791 41.9783 36.7908 41.9783 36.7906C41.9783 36.7904 41.9783 36.7902 41.9783 36.79C41.9783 36.7898 41.9783 36.7896 41.9783 36.7894C41.9783 36.7892 41.9783 36.789 41.9783 36.7887C41.9783 36.7885 41.9783 36.7883 41.9783 36.7881C41.9783 36.7879 41.9783 36.7877 41.9783 36.7875C41.9783 36.7873 41.9783 36.7871 41.9783 36.7869C41.9783 36.7867 41.9783 36.7865 41.9783 36.7862C41.9783 36.786 41.9783 36.7858 41.9783 36.7856C41.9783 36.7854 41.9783 36.7852 41.9783 36.785C41.9783 36.7848 41.9783 36.7846 41.9783 36.7844C41.9783 36.7842 41.9783 36.784 41.9783 36.7837C41.9783 36.7835 41.9783 36.7833 41.9783 36.7831C41.9783 36.7829 41.9783 36.7827 41.9783 36.7825C41.9783 36.7823 41.9783 36.7821 41.9783 36.7819C41.9783 36.7817 41.9783 36.7815 41.9783 36.7812C41.9783 36.781 41.9783 36.7808 41.9783 36.7806C41.9783 36.7804 41.9783 36.7802 41.9783 36.78C41.9783 36.7798 41.9783 36.7796 41.9783 36.7794C41.9783 36.7792 41.9783 36.779 41.9783 36.7787C41.9783 36.7785 41.9783 36.7783 41.9783 36.7781C41.9783 36.7779 41.9783 36.7777 41.9783 36.7775C41.9783 36.7773 41.9783 36.7771 41.9783 36.7769C41.9783 36.7767 41.9783 36.7765 41.9783 36.7762C41.9783 36.776 41.9783 36.7758 41.9783 36.7756C41.9783 36.7754 41.9783 36.7752 41.9783 36.775C41.9783 36.7748 41.9783 36.7746 41.9783 36.7744C41.9783 36.7742 41.9783 36.774 41.9783 36.7737C41.9783 36.7735 41.9783 36.7733 41.9783 36.7731C41.9783 36.7729 41.9783 36.7727 41.9783 36.7725C41.9783 36.7723 41.9783 36.7721 41.9783 36.7719C41.9783 36.7717 41.9783 36.7715 41.9783 36.7712C41.9783 36.771 41.9783 36.7708 41.9783 36.7706C41.9783 36.7704 41.9783 36.7702 41.9783 36.77C41.9783 36.7698 41.9783 36.7696 41.9783 36.7694C41.9783 36.7692 41.9783 36.769 41.9783 36.7687C41.9783 36.7685 41.9783 36.7683 41.9783 36.7681C41.9783 36.7679 41.9783 36.7677 41.9783 36.7675C41.9783 36.7673 41.9783 36.7671 41.9783 36.7669C41.9783 36.7667 41.9783 36.7665 41.9783 36.7662C41.9783 36.766 41.9783 36.7658 41.9783 36.7656C41.9783 36.7654 41.9783 36.7652 41.9783 36.765C41.9783 36.7648 41.9783 36.7646 41.9783 36.7644C41.9783 36.7642 41.9783 36.764 41.9783 36.7638C41.9783 36.7635 41.9783 36.7633 41.9783 36.7631C41.9783 36.7629 41.9783 36.7627 41.9783 36.7625C41.9783 36.7623 41.9783 36.7621 41.9783 36.7619C41.9783 36.7617 41.9783 36.7615 41.9783 36.7612C41.9783 36.761 41.9783 36.7608 41.9783 36.7606C41.9783 36.7604 41.9783 36.7602 41.9783 36.76C41.9783 36.7598 41.9783 36.7596 41.9783 36.7594C41.9783 36.7592 41.9783 36.759 41.9783 36.7587C41.9783 36.7585 41.9783 36.7583 41.9783 36.7581C41.9783 36.7579 41.9783 36.7577 41.9783 36.7575C41.9783 36.7573 41.9783 36.7571 41.9783 36.7569C41.9783 36.7567 41.9783 36.7565 41.9783 36.7562C41.9783 36.756 41.9783 36.7558 41.9783 36.7556C41.9783 36.7554 41.9783 36.7552 41.9783 36.755C41.9783 36.7548 41.9783 36.7546 41.9783 36.7544C41.9783 36.7542 41.9783 36.754 41.9783 36.7537C41.9783 36.7535 41.9783 36.7533 41.9783 36.7531C41.9783 36.7529 41.9783 36.7527 41.9783 36.7525C41.9783 36.7523 41.9783 36.7521 41.9783 36.7519C41.9783 36.7517 41.9783 36.7515 41.9783 36.7512C41.9783 36.751 41.9783 36.7508 41.9783 36.7506C41.9783 36.7504 41.9783 36.7502 41.9783 36.75C41.9783 36.7498 41.9783 36.7496 41.9783 36.7494C41.9783 36.7492 41.9783 36.749 41.9783 36.7487C41.9783 36.7485 41.9783 36.7483 41.9783 36.7481C41.9783 36.7479 41.9783 36.7477 41.9783 36.7475C41.9783 36.7473 41.9783 36.7471 41.9783 36.7469C41.9783 36.7467 41.9783 36.7465 41.9783 36.7462C41.9783 36.746 41.9783 36.7458 41.9783 36.7456C41.9783 36.7454 41.9783 36.7452 41.9783 36.745C41.9783 36.7448 41.9783 36.7446 41.9783 36.7444C41.9783 36.7442 41.9783 36.744 41.9783 36.7437C41.9783 36.7435 41.9783 36.7433 41.9783 36.7431C41.9783 36.7429 41.9783 36.7427 41.9783 36.7425C41.9783 36.7423 41.9783 36.7421 41.9783 36.7419C41.9783 36.7417 41.9783 36.7415 41.9783 36.7412C41.9783 36.741 41.9783 36.7408 41.9783 36.7406C41.9783 36.7404 41.9783 36.7402 41.9783 36.74C41.9783 36.7398 41.9783 36.7396 41.9783 36.7394C41.9783 36.7392 41.9783 36.739 41.9783 36.7387C41.9783 36.7385 41.9783 36.7383 41.9783 36.7381C41.9783 36.7379 41.9783 36.7377 41.9783 36.7375C41.9783 36.7373 41.9783 36.7371 41.9783 36.7369C41.9783 36.7367 41.9783 36.7365 41.9783 36.7362C41.9783 36.736 41.9783 36.7358 41.9783 36.7356C41.9783 36.7354 41.9783 36.7352 41.9783 36.735C41.9783 36.7348 41.9783 36.7346 41.9783 36.7344C41.9783 36.7342 41.9783 36.734 41.9783 36.7337C41.9783 36.7335 41.9783 36.7333 41.9783 36.7331C41.9783 36.7329 41.9783 36.7327 41.9783 36.7325C41.9783 36.7323 41.9783 36.7321 41.9783 36.7319C41.9783 36.7317 41.9783 36.7315 41.9783 36.7312C41.9783 36.731 41.9783 36.7308 41.9783 36.7306C41.9783 36.7304 41.9783 36.7302 41.9783 36.73C41.9783 36.7298 41.9783 36.7296 41.9783 36.7294C41.9783 36.7292 41.9783 36.729 41.9783 36.7287C41.9783 36.7285 41.9783 36.7283 41.9783 36.7281C41.9783 36.7279 41.9783 36.7277 41.9783 36.7275C41.9783 36.7273 41.9783 36.7271 41.9783 36.7269C41.9783 36.7267 41.9783 36.7265 41.9783 36.7262C41.9783 36.726 41.9783 36.7258 41.9783 36.7256C41.9783 36.7254 41.9783 36.7252 41.9783 36.725C41.9783 36.7248 41.9783 36.7246 41.9783 36.7244C41.9783 36.7242 41.9783 36.724 41.9783 36.7237C41.9783 36.7235 41.9783 36.7233 41.9783 36.7231C41.9783 36.7229 41.9783 36.7227 41.9783 36.7225C41.9783 36.7223 41.9783 36.7221 41.9783 36.7219C41.9783 36.7217 41.9783 36.7215 41.9783 36.7212C41.9783 36.721 41.9783 36.7208 41.9783 36.7206C41.9783 36.7204 41.9783 36.7202 41.9783 36.72C41.9783 36.7198 41.9783 36.7196 41.9783 36.7194C41.9783 36.7192 41.9783 36.719 41.9783 36.7188C41.9783 36.7185 41.9783 36.7183 41.9783 36.7181C41.9783 36.7179 41.9783 36.7177 41.9783 36.7175C41.9783 36.7173 41.9783 36.7171 41.9783 36.7169C41.9783 36.7167 41.9783 36.7165 41.9783 36.7162C41.9783 36.716 41.9783 36.7158 41.9783 36.7156C41.9783 36.7154 41.9783 36.7152 41.9783 36.715C41.9783 36.7148 41.9783 36.7146 41.9783 36.7144C41.9783 36.7142 41.9783 36.714 41.9783 36.7137C41.9783 36.7135 41.9783 36.7133 41.9783 36.7131C41.9783 36.7129 41.9783 36.7127 41.9783 36.7125C41.9783 36.7123 41.9783 36.7121 41.9783 36.7119C41.9783 36.7117 41.9783 36.7115 41.9783 36.7112C41.9783 36.711 41.9783 36.7108 41.9783 36.7106C41.9783 36.7104 41.9783 36.7102 41.9783 36.71C41.9783 36.7098 41.9783 36.7096 41.9783 36.7094C41.9783 36.7092 41.9783 36.709 41.9783 36.7087C41.9783 36.7085 41.9783 36.7083 41.9783 36.7081C41.9783 36.7079 41.9783 36.7077 41.9783 36.7075C41.9783 36.7073 41.9783 36.7071 41.9783 36.7069C41.9783 36.7067 41.9783 36.7065 41.9783 36.7062C41.9783 36.706 41.9783 36.7058 41.9783 36.7056C41.9783 36.7054 41.9783 36.7052 41.9783 36.705C41.9783 36.7048 41.9783 36.7046 41.9783 36.7044C41.9783 36.7042 41.9783 36.704 41.9783 36.7037C41.9783 36.7035 41.9783 36.7033 41.9783 36.7031C41.9783 36.7029 41.9783 36.7027 41.9783 36.7025C41.9783 36.7023 41.9783 36.7021 41.9783 36.7019C41.9783 36.7017 41.9783 36.7015 41.9783 36.7012C41.9783 36.701 41.9783 36.7008 41.9783 36.7006C41.9783 36.7004 41.9783 36.7002 41.9783 36.7C41.9783 36.6998 41.9783 36.6996 41.9783 36.6994C41.9783 36.6992 41.9783 36.699 41.9783 36.6987C41.9783 36.6985 41.9783 36.6983 41.9783 36.6981C41.9783 36.6979 41.9783 36.6977 41.9783 36.6975C41.9783 36.6973 41.9783 36.6971 41.9783 36.6969C41.9783 36.6967 41.9783 36.6965 41.9783 36.6962C41.9783 36.696 41.9783 36.6958 41.9783 36.6956C41.9783 36.6954 41.9783 36.6952 41.9783 36.695C41.9783 36.6948 41.9783 36.6946 41.9783 36.6944C41.9783 36.6942 41.9783 36.694 41.9783 36.6937C41.9783 36.6935 41.9783 36.6933 41.9783 36.6931C41.9783 36.6929 41.9783 36.6927 41.9783 36.6925C41.9783 36.6923 41.9783 36.6921 41.9783 36.6919C41.9783 36.6917 41.9783 36.6915 41.9783 36.6912C41.9783 36.691 41.9783 36.6908 41.9783 36.6906C41.9783 36.6904 41.9783 36.6902 41.9783 36.69C41.9783 36.6898 41.9783 36.6896 41.9783 36.6894C41.9783 36.6892 41.9783 36.689 41.9783 36.6887C41.9783 36.6885 41.9783 36.6883 41.9783 36.6881C41.9783 36.6879 41.9783 36.6877 41.9783 36.6875C41.9783 36.6873 41.9783 36.6871 41.9783 36.6869C41.9783 36.6867 41.9783 36.6865 41.9783 36.6862C41.9783 36.686 41.9783 36.6858 41.9783 36.6856C41.9783 36.6854 41.9783 36.6852 41.9783 36.685C41.9783 36.6848 41.9783 36.6846 41.9783 36.6844C41.9783 36.6842 41.9783 36.684 41.9783 36.6837C41.9783 36.6835 41.9783 36.6833 41.9783 36.6831C41.9783 36.6829 41.9783 36.6827 41.9783 36.6825C41.9783 36.6823 41.9783 36.6821 41.9783 36.6819C41.9783 36.6817 41.9783 36.6815 41.9783 36.6812C41.9783 36.681 41.9783 36.6808 41.9783 36.6806C41.9783 36.6804 41.9783 36.6802 41.9783 36.68C41.9783 36.6798 41.9783 36.6796 41.9783 36.6794C41.9783 36.6792 41.9783 36.679 41.9783 36.6787C41.9783 36.6785 41.9783 36.6783 41.9783 36.6781C41.9783 36.6779 41.9783 36.6777 41.9783 36.6775C41.9783 36.6773 41.9783 36.6771 41.9783 36.6769C41.9783 36.6767 41.9783 36.6765 41.9783 36.6762C41.9783 36.676 41.9783 36.6758 41.9783 36.6756C41.9783 36.6754 41.9783 36.6752 41.9783 36.675C41.9783 36.6748 41.9783 36.6746 41.9783 36.6744C41.9783 36.6742 41.9783 36.674 41.9783 36.6737C41.9783 36.6735 41.9783 36.6733 41.9783 36.6731C41.9783 36.6729 41.9783 36.6727 41.9783 36.6725C41.9783 36.6723 41.9783 36.6721 41.9783 36.6719C41.9783 36.6717 41.9783 36.6715 41.9783 36.6712C41.9783 36.671 41.9783 36.6708 41.9783 36.6706C41.9783 36.6704 41.9783 36.6702 41.9783 36.67C41.9783 36.6698 41.9783 36.6696 41.9783 36.6694C41.9783 36.6692 41.9783 36.669 41.9783 36.6687C41.9783 36.6685 41.9783 36.6683 41.9783 36.6681C41.9783 36.6679 41.9783 36.6677 41.9783 36.6675C41.9783 36.6673 41.9783 36.6671 41.9783 36.6669C41.9783 36.6667 41.9783 36.6665 41.9783 36.6662C41.9783 36.666 41.9783 36.6658 41.9783 36.6656C41.9783 36.6654 41.9783 36.6652 41.9783 36.665C41.9783 36.6648 41.9783 36.6646 41.9783 36.6644C41.9783 36.6642 41.9783 36.664 41.9783 36.6637C41.9783 36.6635 41.9783 36.6633 41.9783 36.6631C41.9783 36.6629 41.9783 36.6627 41.9783 36.6625C41.9783 36.6623 41.9783 36.6621 41.9783 36.6619C41.9783 36.6617 41.9783 36.6615 41.9783 36.6612C41.9783 36.661 41.9783 36.6608 41.9783 36.6606C41.9783 36.6604 41.9783 36.6602 41.9783 36.66C41.9783 36.6598 41.9783 36.6596 41.9783 36.6594C41.9783 36.6592 41.9783 36.659 41.9783 36.6587C41.9783 36.6585 41.9783 36.6583 41.9783 36.6581C41.9783 36.6579 41.9783 36.6577 41.9783 36.6575C41.9783 36.6573 41.9783 36.6571 41.9783 36.6569C41.9783 36.6567 41.9783 36.6565 41.9783 36.6562C41.9783 36.656 41.9783 36.6558 41.9783 36.6556C41.9783 36.6554 41.9783 36.6552 41.9783 36.655C41.9783 36.6548 41.9783 36.6546 41.9783 36.6544C41.9783 36.6542 41.9783 36.654 41.9783 36.6537C41.9783 36.6535 41.9783 36.6533 41.9783 36.6531C41.9783 36.6529 41.9783 36.6527 41.9783 36.6525C41.9783 36.6523 41.9783 36.6521 41.9783 36.6519C41.9783 36.6517 41.9783 36.6515 41.9783 36.6512C41.9783 36.651 41.9783 36.6508 41.9783 36.6506C41.9783 36.6504 41.9783 36.6502 41.9783 36.65C41.9783 36.6498 41.9783 36.6496 41.9783 36.6494C41.9783 36.6492 41.9783 36.649 41.9783 36.6487C41.9783 36.6485 41.9783 36.6483 41.9783 36.6481C41.9783 36.6479 41.9783 36.6477 41.9783 36.6475C41.9783 36.6473 41.9783 36.6471 41.9783 36.6469C41.9783 36.6467 41.9783 36.6465 41.9783 36.6462C41.9783 36.646 41.9783 36.6458 41.9783 36.6456C41.9783 36.6454 41.9783 36.6452 41.9783 36.645C41.9783 36.6448 41.9783 36.6446 41.9783 36.6444C41.9783 36.6442 41.9783 36.644 41.9783 36.6437C41.9783 36.6435 41.9783 36.6433 41.9783 36.6431C41.9783 36.6429 41.9783 36.6427 41.9783 36.6425C41.9783 36.6423 41.9783 36.6421 41.9783 36.6419C41.9783 36.6417 41.9783 36.6415 41.9783 36.6412C41.9783 36.641 41.9783 36.6408 41.9783 36.6406C41.9783 36.6404 41.9783 36.6402 41.9783 36.64C41.9783 36.6398 41.9783 36.6396 41.9783 36.6394C41.9783 36.6392 41.9783 36.639 41.9783 36.6387C41.9783 36.6385 41.9783 36.6383 41.9783 36.6381C41.9783 36.6379 41.9783 36.6377 41.9783 36.6375C41.9783 36.6373 41.9783 36.6371 41.9783 36.6369C41.9783 36.6367 41.9783 36.6365 41.9783 36.6362C41.9783 36.636 41.9783 36.6358 41.9783 36.6356C41.9783 36.6354 41.9783 36.6352 41.9783 36.635C41.9783 36.6348 41.9783 36.6346 41.9783 36.6344C41.9783 36.6342 41.9783 36.634 41.9783 36.6337C41.9783 36.6335 41.9783 36.6333 41.9783 36.6331C41.9783 36.6329 41.9783 36.6327 41.9783 36.6325C41.9783 36.6323 41.9783 36.6321 41.9783 36.6319C41.9783 36.6317 41.9783 36.6315 41.9783 36.6312C41.9783 36.631 41.9783 36.6308 41.9783 36.6306C41.9783 36.6304 41.9783 36.6302 41.9783 36.63C41.9783 36.6298 41.9783 36.6296 41.9783 36.6294C41.9783 36.6292 41.9783 36.629 41.9783 36.6287C41.9783 36.6285 41.9783 36.6283 41.9783 36.6281C41.9783 36.6279 41.9783 36.6277 41.9783 36.6275C41.9783 36.6273 41.9783 36.6271 41.9783 36.6269C41.9783 36.6267 41.9783 36.6265 41.9783 36.6262C41.9783 36.626 41.9783 36.6258 41.9783 36.6256C41.9783 36.6254 41.9783 36.6252 41.9783 36.625C41.9783 36.6248 41.9783 36.6246 41.9783 36.6244C41.9783 36.6242 41.9783 36.624 41.9783 36.6237C41.9783 36.6235 41.9783 36.6233 41.9783 36.6231C41.9783 36.6229 41.9783 36.6227 41.9783 36.6225C41.9783 36.6223 41.9783 36.6221 41.9783 36.6219C41.9783 36.6217 41.9783 36.6215 41.9783 36.6212C41.9783 36.621 41.9783 36.6208 41.9783 36.6206C41.9783 36.6204 41.9783 36.6202 41.9783 36.62C41.9783 36.6198 41.9783 36.6196 41.9783 36.6194C41.9783 36.6192 41.9783 36.619 41.9783 36.6187C41.9783 36.6185 41.9783 36.6183 41.9783 36.6181C41.9783 36.6179 41.9783 36.6177 41.9783 36.6175C41.9783 36.6173 41.9783 36.6171 41.9783 36.6169C41.9783 36.6167 41.9783 36.6165 41.9783 36.6162C41.9783 36.616 41.9783 36.6158 41.9783 36.6156C41.9783 36.6154 41.9783 36.6152 41.9783 36.615C41.9783 36.6148 41.9783 36.6146 41.9783 36.6144C41.9783 36.6142 41.9783 36.614 41.9783 36.6137C41.9783 36.6135 41.9783 36.6133 41.9783 36.6131C41.9783 36.6129 41.9783 36.6127 41.9783 36.6125C41.9783 36.6123 41.9783 36.6121 41.9783 36.6119C41.9783 36.6117 41.9783 36.6115 41.9783 36.6112C41.9783 36.611 41.9783 36.6108 41.9783 36.6106C41.9783 36.6104 41.9783 36.6102 41.9783 36.61C41.9783 36.6098 41.9783 36.6096 41.9783 36.6094C41.9783 36.6092 41.9783 36.609 41.9783 36.6087C41.9783 36.6085 41.9783 36.6083 41.9783 36.6081C41.9783 36.6079 41.9783 36.6077 41.9783 36.6075C41.9783 36.6073 41.9783 36.6071 41.9783 36.6069C41.9783 36.6067 41.9783 36.6065 41.9783 36.6062C41.9783 36.606 41.9783 36.6058 41.9783 36.6056C41.9783 36.6054 41.9783 36.6052 41.9783 36.605C41.9783 36.6048 41.9783 36.6046 41.9783 36.6044C41.9783 36.6042 41.9783 36.604 41.9783 36.6037C41.9783 36.6035 41.9783 36.6033 41.9783 36.6031C41.9783 36.6029 41.9783 36.6027 41.9783 36.6025C41.9783 36.6023 41.9783 36.6021 41.9783 36.6019C41.9783 36.6017 41.9783 36.6015 41.9783 36.6012C41.9783 36.601 41.9783 36.6008 41.9783 36.6006C41.9783 36.6004 41.9783 36.6002 41.9783 36.6C41.9783 36.5998 41.9783 36.5996 41.9783 36.5994C41.9783 36.5992 41.9783 36.599 41.9783 36.5987C41.9783 36.5985 41.9783 36.5983 41.9783 36.5981C41.9783 36.5979 41.9783 36.5977 41.9783 36.5975C41.9783 36.5973 41.9783 36.5971 41.9783 36.5969C41.9783 36.5967 41.9783 36.5965 41.9783 36.5962C41.9783 36.596 41.9783 36.5958 41.9783 36.5956C41.9783 36.5954 41.9783 36.5952 41.9783 36.595C41.9783 36.5948 41.9783 36.5946 41.9783 36.5944C41.9783 36.5942 41.9783 36.594 41.9783 36.5937C41.9783 36.5935 41.9783 36.5933 41.9783 36.5931C41.9783 36.5929 41.9783 36.5927 41.9783 36.5925C41.9783 36.5923 41.9783 36.5921 41.9783 36.5919C41.9783 36.5917 41.9783 36.5915 41.9783 36.5912C41.9783 36.591 41.9783 36.5908 41.9783 36.5906C41.9783 36.5904 41.9783 36.5902 41.9783 36.59C41.9783 36.5898 41.9783 36.5896 41.9783 36.5894C41.9783 36.5892 41.9783 36.589 41.9783 36.5887C41.9783 36.5885 41.9783 36.5883 41.9783 36.5881C41.9783 36.5879 41.9783 36.5877 41.9783 36.5875C41.9783 36.5873 41.9783 36.5871 41.9783 36.5869C41.9783 36.5867 41.9783 36.5865 41.9783 36.5862C41.9783 36.586 41.9783 36.5858 41.9783 36.5856C41.9783 36.5854 41.9783 36.5852 41.9783 36.585C41.9783 36.5848 41.9783 36.5846 41.9783 36.5844C41.9783 36.5842 41.9783 36.584 41.9783 36.5837C41.9783 36.5835 41.9783 36.5833 41.9783 36.5831C41.9783 36.5829 41.9783 36.5827 41.9783 36.5825C41.9783 36.5823 41.9783 36.5821 41.9783 36.5819C41.9783 36.5817 41.9783 36.5815 41.9783 36.5812C41.9783 36.581 41.9783 36.5808 41.9783 36.5806C41.9783 36.5804 41.9783 36.5802 41.9783 36.58C41.9783 36.5798 41.9783 36.5796 41.9783 36.5794C41.9783 36.5792 41.9783 36.579 41.9783 36.5787C41.9783 36.5785 41.9783 36.5783 41.9783 36.5781C41.9783 36.5779 41.9783 36.5777 41.9783 36.5775C41.9783 36.5773 41.9783 36.5771 41.9783 36.5769C41.9783 36.5767 41.9783 36.5765 41.9783 36.5762C41.9783 36.576 41.9783 36.5758 41.9783 36.5756C41.9783 36.5754 41.9783 36.5752 41.9783 36.575C41.9783 36.5748 41.9783 36.5746 41.9783 36.5744C41.9783 36.5742 41.9783 36.574 41.9783 36.5737C41.9783 36.5735 41.9783 36.5733 41.9783 36.5731C41.9783 36.5729 41.9783 36.5727 41.9783 36.5725C41.9783 36.5723 41.9783 36.5721 41.9783 36.5719C41.9783 36.5717 41.9783 36.5715 41.9783 36.5712C41.9783 36.571 41.9783 36.5708 41.9783 36.5706C41.9783 36.5704 41.9783 36.5702 41.9783 36.57C41.9783 36.5698 41.9783 36.5696 41.9783 36.5694C41.9783 36.5692 41.9783 36.569 41.9783 36.5687C41.9783 36.5685 41.9783 36.5683 41.9783 36.5681C41.9783 36.5679 41.9783 36.5677 41.9783 36.5675C41.9783 36.5673 41.9783 36.5671 41.9783 36.5669C41.9783 36.5667 41.9783 36.5665 41.9783 36.5662C41.9783 36.566 41.9783 36.5658 41.9783 36.5656C41.9783 36.5654 41.9783 36.5652 41.9783 36.565C41.9783 36.5648 41.9783 36.5646 41.9783 36.5644C41.9783 36.5642 41.9783 36.564 41.9783 36.5637C41.9783 36.5635 41.9783 36.5633 41.9783 36.5631C41.9783 36.5629 41.9783 36.5627 41.9783 36.5625C41.9783 36.5623 41.9783 36.5621 41.9783 36.5619C41.9783 36.5617 41.9783 36.5615 41.9783 36.5612C41.9783 36.561 41.9783 36.5608 41.9783 36.5606C41.9783 36.5604 41.9783 36.5602 41.9783 36.56C41.9783 36.5598 41.9783 36.5596 41.9783 36.5594C41.9783 36.5592 41.9783 36.559 41.9783 36.5587C41.9783 36.5585 41.9783 36.5583 41.9783 36.5581C41.9783 36.5579 41.9783 36.5577 41.9783 36.5575C41.9783 36.5573 41.9783 36.5571 41.9783 36.5569C41.9783 36.5567 41.9783 36.5565 41.9783 36.5562C41.9783 36.556 41.9783 36.5558 41.9783 36.5556C41.9783 36.5554 41.9783 36.5552 41.9783 36.555C41.9783 36.5548 41.9783 36.5546 41.9783 36.5544C41.9783 36.5542 41.9783 36.554 41.9783 36.5537C41.9783 36.5535 41.9783 36.5533 41.9783 36.5531C41.9783 36.5529 41.9783 36.5527 41.9783 36.5525C41.9783 36.5523 41.9783 36.5521 41.9783 36.5519C41.9783 36.5517 41.9783 36.5515 41.9783 36.5512C41.9783 36.551 41.9783 36.5508 41.9783 36.5506C41.9783 36.5504 41.9783 36.5502 41.9783 36.55C41.9783 36.5498 41.9783 36.5496 41.9783 36.5494C41.9783 36.5492 41.9783 36.549 41.9783 36.5487C41.9783 36.5485 41.9783 36.5483 41.9783 36.5481C41.9783 36.5479 41.9783 36.5477 41.9783 36.5475C41.9783 36.5473 41.9783 36.5471 41.9783 36.5469C41.9783 36.5467 41.9783 36.5465 41.9783 36.5462C41.9783 36.546 41.9783 36.5458 41.9783 36.5456C41.9783 36.5454 41.9783 36.5452 41.9783 36.545C41.9783 36.5448 41.9783 36.5446 41.9783 36.5444C41.9783 36.5442 41.9783 36.544 41.9783 36.5437C41.9783 36.5435 41.9783 36.5433 41.9783 36.5431C41.9783 36.5429 41.9783 36.5427 41.9783 36.5425C41.9783 36.5423 41.9783 36.5421 41.9783 36.5419C41.9783 36.5417 41.9783 36.5415 41.9783 36.5412C41.9783 36.541 41.9783 36.5408 41.9783 36.5406C41.9783 36.5404 41.9783 36.5402 41.9783 36.54C41.9783 36.5398 41.9783 36.5396 41.9783 36.5394C41.9783 36.5392 41.9783 36.539 41.9783 36.5387C41.9783 36.5385 41.9783 36.5383 41.9783 36.5381C41.9783 36.5379 41.9783 36.5377 41.9783 36.5375C41.9783 36.5373 41.9783 36.5371 41.9783 36.5369C41.9783 36.5367 41.9783 36.5365 41.9783 36.5362C41.9783 36.536 41.9783 36.5358 41.9783 36.5356C41.9783 36.5354 41.9783 36.5352 41.9783 36.535C41.9783 36.5348 41.9783 36.5346 41.9783 36.5344C41.9783 36.5342 41.9783 36.534 41.9783 36.5337C41.9783 36.5335 41.9783 36.5333 41.9783 36.5331C41.9783 36.5329 41.9783 36.5327 41.9783 36.5325C41.9783 36.5323 41.9783 36.5321 41.9783 36.5319C41.9783 36.5317 41.9783 36.5315 41.9783 36.5312C41.9783 36.531 41.9783 36.5308 41.9783 36.5306C41.9783 36.5304 41.9783 36.5302 41.9783 36.53C41.9783 36.5298 41.9783 36.5296 41.9783 36.5294C41.9783 36.5292 41.9783 36.529 41.9783 36.5287C41.9783 36.5285 41.9783 36.5283 41.9783 36.5281C41.9783 36.5279 41.9783 36.5277 41.9783 36.5275C41.9783 36.5273 41.9783 36.5271 41.9783 36.5269C41.9783 36.5267 41.9783 36.5265 41.9783 36.5262C41.9783 36.526 41.9783 36.5258 41.9783 36.5256C41.9783 36.5254 41.9783 36.5252 41.9783 36.525C41.9783 36.5248 41.9783 36.5246 41.9783 36.5244C41.9783 36.5242 41.9783 36.524 41.9783 36.5237C41.9783 36.5235 41.9783 36.5233 41.9783 36.5231C41.9783 36.5229 41.9783 36.5227 41.9783 36.5225C41.9783 36.5223 41.9783 36.5221 41.9783 36.5219C41.9783 36.5217 41.9783 36.5215 41.9783 36.5212C41.9783 36.521 41.9783 36.5208 41.9783 36.5206C41.9783 36.5204 41.9783 36.5202 41.9783 36.52C41.9783 36.5198 41.9783 36.5196 41.9783 36.5194C41.9783 36.5192 41.9783 36.519 41.9783 36.5187C41.9783 36.5185 41.9783 36.5183 41.9783 36.5181C41.9783 36.5179 41.9783 36.5177 41.9783 36.5175C41.9783 36.5173 41.9783 36.5171 41.9783 36.5169C41.9783 36.5167 41.9783 36.5165 41.9783 36.5162C41.9783 36.516 41.9783 36.5158 41.9783 36.5156C41.9783 36.5154 41.9783 36.5152 41.9783 36.515C41.9783 36.5148 41.9783 36.5146 41.9783 36.5144C41.9783 36.5142 41.9783 36.514 41.9783 36.5137C41.9783 36.5135 41.9783 36.5133 41.9783 36.5131C41.9783 36.5129 41.9783 36.5127 41.9783 36.5125C41.9783 36.5123 41.9783 36.5121 41.9783 36.5119C41.9783 36.5117 41.9783 36.5115 41.9783 36.5112C41.9783 36.511 41.9783 36.5108 41.9783 36.5106C41.9783 36.5104 41.9783 36.5102 41.9783 36.51C41.9783 36.5098 41.9783 36.5096 41.9783 36.5094C41.9783 36.5092 41.9783 36.509 41.9783 36.5087C41.9783 36.5085 41.9783 36.5083 41.9783 36.5081C41.9783 36.5079 41.9783 36.5077 41.9783 36.5075C41.9783 36.5073 41.9783 36.5071 41.9783 36.5069C41.9783 36.5067 41.9783 36.5065 41.9783 36.5062C41.9783 36.506 41.9783 36.5058 41.9783 36.5056C41.9783 36.5054 41.9783 36.5052 41.9783 36.505C41.9783 36.5048 41.9783 36.5046 41.9783 36.5044C41.9783 36.5042 41.9783 36.504 41.9783 36.5037C41.9783 36.5035 41.9783 36.5033 41.9783 36.5031C41.9783 36.5029 41.9783 36.5027 41.9783 36.5025C41.9783 36.5023 41.9783 36.5021 41.9783 36.5019C41.9783 36.5017 41.9783 36.5015 41.9783 36.5012C41.9783 36.501 41.9783 36.5008 41.9783 36.5006C41.9783 36.5004 41.9783 36.5002 41.9783 36.5C41.9783 36.4998 41.9783 36.4996 41.9783 36.4994C41.9783 36.4992 41.9783 36.499 41.9783 36.4987C41.9783 36.4985 41.9783 36.4983 41.9783 36.4981C41.9783 36.4979 41.9783 36.4977 41.9783 36.4975C41.9783 36.4973 41.9783 36.4971 41.9783 36.4969C41.9783 36.4967 41.9783 36.4965 41.9783 36.4962C41.9783 36.496 41.9783 36.4958 41.9783 36.4956C41.9783 36.4954 41.9783 36.4952 41.9783 36.495C41.9783 36.4948 41.9783 36.4946 41.9783 36.4944C41.9783 36.4942 41.9783 36.494 41.9783 36.4937C41.9783 36.4935 41.9783 36.4933 41.9783 36.4931C41.9783 36.4929 41.9783 36.4927 41.9783 36.4925C41.9783 36.4923 41.9783 36.4921 41.9783 36.4919C41.9783 36.4917 41.9783 36.4915 41.9783 36.4912C41.9783 36.491 41.9783 36.4908 41.9783 36.4906C41.9783 36.4904 41.9783 36.4902 41.9783 36.49C41.9783 36.4898 41.9783 36.4896 41.9783 36.4894C41.9783 36.4892 41.9783 36.489 41.9783 36.4887C41.9783 36.4885 41.9783 36.4883 41.9783 36.4881C41.9783 36.4879 41.9783 36.4877 41.9783 36.4875C41.9783 36.4873 41.9783 36.4871 41.9783 36.4869C41.9783 36.4867 41.9783 36.4865 41.9783 36.4862C41.9783 36.486 41.9783 36.4858 41.9783 36.4856C41.9783 36.4854 41.9783 36.4852 41.9783 36.485C41.9783 36.4848 41.9783 36.4846 41.9783 36.4844C41.9783 36.4842 41.9783 36.484 41.9783 36.4837C41.9783 36.4835 41.9783 36.4833 41.9783 36.4831C41.9783 36.4829 41.9783 36.4827 41.9783 36.4825C41.9783 36.4823 41.9783 36.4821 41.9783 36.4819C41.9783 36.4817 41.9783 36.4815 41.9783 36.4812C41.9783 36.481 41.9783 36.4808 41.9783 36.4806C41.9783 36.4804 41.9783 36.4802 41.9783 36.48H38.9783ZM39.0553 37.2743C39.0337 37.2097 39.0183 37.1298 39.0183 37.04H42.0183C42.0183 36.7902 41.9762 36.5503 41.9013 36.3257L39.0553 37.2743ZM40.5183 35.54H34.2383V38.54H40.5183V35.54ZM35.7383 37.04C35.7383 35.6998 35.6349 34.5294 35.335 33.6672L32.5015 34.6528C32.6283 35.0173 32.7383 35.7668 32.7383 37.04H35.7383ZM35.3583 33.74C35.1638 33.0733 34.7488 32.51 34.1261 32.1455C33.5445 31.8051 32.8896 31.7 32.2783 31.7V34.7C32.4191 34.7 32.5125 34.7126 32.5682 34.7249C32.6229 34.7369 32.6304 34.7461 32.6105 34.7345C32.5872 34.7209 32.5512 34.6931 32.5188 34.6506C32.4872 34.6092 32.478 34.579 32.4783 34.58L35.3583 33.74ZM32.2783 31.7C31.3445 31.7 30.4128 31.9982 29.7394 32.7838L32.0172 34.7362C32.0193 34.7337 32.0185 34.735 32.0157 34.737C32.013 34.7389 32.0148 34.7369 32.0254 34.7327C32.0472 34.724 32.1216 34.7 32.2783 34.7V31.7ZM29.6988 32.8333C29.1343 33.5517 28.9007 34.5631 28.788 35.5497L31.7686 35.8903C31.8151 35.4835 31.8773 35.1824 31.9426 34.9691C32.0102 34.7481 32.0638 34.6791 32.0578 34.6867L29.6988 32.8333ZM28.788 35.5497C28.6717 36.5671 28.6183 37.9399 28.6183 39.64H31.6183C31.6183 37.9801 31.6715 36.7396 31.7686 35.8903L28.788 35.5497ZM28.6183 39.64V42.52H31.6183V39.64H28.6183ZM31.4206 43.2642C31.542 43.0518 31.769 42.8227 32.2442 42.6291L31.1123 39.8509C30.1475 40.2439 29.3345 40.8682 28.8159 41.7758L31.4206 43.2642ZM32.2875 42.6107C32.8044 42.381 33.4215 42.2411 34.1624 42.2194L34.0742 39.2206C33.0018 39.2522 31.9922 39.459 31.0691 39.8693L32.2875 42.6107ZM34.1651 42.2193C35.623 42.1737 36.5935 42.5066 37.2501 43.0423L39.1465 40.7177C37.7764 39.6 36.0269 39.1596 34.0714 39.2207L34.1651 42.2193ZM37.2649 43.0542C38.0396 43.67 38.6314 44.5357 39.0075 45.7304L41.8691 44.8296C41.3385 43.1443 40.4369 41.7433 39.1316 40.7058L37.2649 43.0542ZM39.01 45.7381C39.4079 46.9789 39.6183 48.4074 39.6183 50.04H42.6183C42.6183 48.1526 42.3753 46.4078 41.8666 44.8219L39.01 45.7381ZM39.6183 50.04C39.6183 52.1928 39.3646 54.0389 38.8846 55.5989L41.752 56.4811C42.3386 54.5744 42.6183 52.4205 42.6183 50.04H39.6183ZM38.8866 55.5926C38.4356 57.0357 37.6972 58.0908 36.6983 58.84L38.4983 61.24C40.0594 60.0692 41.1343 58.4576 41.75 56.4874L38.8866 55.5926ZM36.6983 58.84C35.7664 59.5389 34.3518 59.98 32.2783 59.98V62.98C34.7381 62.98 36.8702 62.4611 38.4983 61.24L36.6983 58.84ZM32.3583 58.06C33.3174 58.06 34.305 57.7241 34.9264 56.792L32.4302 55.1279C32.4381 55.1161 32.4529 55.0978 32.4749 55.0791C32.4969 55.0604 32.5166 55.0495 32.5276 55.0444C32.5475 55.0354 32.5065 55.06 32.3583 55.06V58.06ZM34.9143 56.8098C35.4087 56.0907 35.6383 55.1943 35.7308 54.2693L32.7457 53.9707C32.6782 54.6457 32.5345 54.976 32.4422 55.1102L34.9143 56.8098ZM35.7259 54.312C35.8435 53.4007 35.8983 52.3189 35.8983 51.08H32.8983C32.8983 52.2411 32.8464 53.186 32.7506 53.928L35.7259 54.312ZM35.8983 51.08C35.8983 49.9793 35.8572 49.0051 35.7703 48.1656L32.7862 48.4743C32.8594 49.1816 32.8983 50.0474 32.8983 51.08H35.8983ZM35.7747 48.2168C35.7115 47.2993 35.4971 46.4015 34.9943 45.6702L32.5222 47.3698C32.6061 47.4918 32.7384 47.794 32.7818 48.4232L35.7747 48.2168ZM35.0176 45.7051C34.3696 44.7036 33.3172 44.34 32.2783 44.34V47.34C32.4665 47.34 32.5383 47.3713 32.542 47.373C32.5427 47.3733 32.5331 47.3687 32.5199 47.3573C32.5138 47.3521 32.5087 47.3469 32.5047 47.3423C32.5028 47.3401 32.5014 47.3382 32.5004 47.3369C32.4994 47.3356 32.4989 47.3348 32.4989 47.3349L35.0176 45.7051ZM32.2783 44.34C31.7426 44.34 31.2245 44.4531 30.7376 44.6744L31.979 47.4055C32.0788 47.3602 32.1739 47.34 32.2783 47.34V44.34ZM30.7376 44.6744C30.2917 44.8771 29.8866 45.1504 29.5376 45.4993L31.6589 47.6207C31.7367 47.5429 31.8382 47.4696 31.979 47.4055L30.7376 44.6744ZM29.6105 45.4311C29.3093 45.6947 29.027 46.0065 28.8159 46.3758L31.4206 47.8642C31.4206 47.8642 31.423 47.8601 31.4289 47.8519C31.4348 47.8436 31.4439 47.8317 31.4572 47.8162C31.4841 47.7848 31.5254 47.742 31.586 47.6889L29.6105 45.4311ZM28.6183 47.12V52.4H31.6183V47.12H28.6183ZM28.6183 52.4C28.6183 53.1938 28.6771 53.9568 28.7987 54.6866L31.7579 54.1934C31.6662 53.6432 31.6183 53.0462 31.6183 52.4H28.6183ZM28.8098 54.7459C28.9783 55.5548 29.2847 56.3092 29.787 56.937L32.1296 55.063C31.9919 54.8908 31.8449 54.6052 31.7468 54.1341L28.8098 54.7459ZM29.8591 57.0207C30.5335 57.747 31.4239 58.06 32.3583 58.06V55.06C32.1194 55.06 32.0763 54.9997 32.0575 54.9793L29.8591 57.0207Z" fill="#DF191A"/>
<path d="M32.25 77.9999C32.25 78.4141 32.5858 78.7499 33 78.7499C33.4142 78.7499 33.75 78.4141 33.75 77.9999C33.75 76.8091 34.509 75.5034 35.8124 74.4606C37.1027 73.4284 38.8159 72.75 40.4997 72.75C43.885 72.75 47.25 75.4621 47.25 79.4996C47.25 81.1538 46.4105 83.1587 45.0221 85.3571C43.6474 87.5338 41.8031 89.7958 39.934 91.9453C39.1091 92.894 38.2682 93.8329 37.4652 94.7294C36.4759 95.8339 35.5442 96.8742 34.7709 97.7893C34.0624 98.6277 33.4522 99.4004 33.016 100.07C33.0107 100.078 33.0053 100.087 33 100.095C32.9947 100.087 32.9893 100.078 32.984 100.07C32.5478 99.4004 31.9376 98.6277 31.2291 97.7893C30.4557 96.8742 29.5241 95.8339 28.5348 94.7294C27.7318 93.8329 26.8909 92.894 26.066 91.9453C24.1969 89.7958 22.3526 87.5338 20.9779 85.3571C19.5895 83.1587 18.75 81.1538 18.75 79.4996C18.75 75.4622 22.115 72.75 25.5009 72.75C27.1843 72.75 28.8975 73.4284 30.1877 74.4606C31.491 75.5033 32.25 76.8091 32.25 77.9999Z" fill="#FF191A" stroke="#DF191A" stroke-width="1.5" stroke-linejoin="round"/>
<path d="M78.25 116.6C78.25 117.014 78.5858 117.35 79 117.35C79.4142 117.35 79.75 117.014 79.75 116.6C79.75 113.509 81.6966 110.303 84.7813 107.836C87.8529 105.378 91.941 103.75 95.9993 103.75C104.134 103.75 112.25 110.262 112.25 119.999C112.25 124.028 110.223 128.765 107.053 133.783C103.897 138.78 99.6781 143.952 95.434 148.833C93.5396 151.011 91.6292 153.144 89.8109 155.174C87.5823 157.662 85.4921 159.995 83.7396 162.069C82.1405 163.961 80.7881 165.677 79.8324 167.144C79.5123 167.636 79.2319 168.107 79 168.554C78.7681 168.107 78.4877 167.636 78.1676 167.144C77.2118 165.677 75.8595 163.961 74.2603 162.069C72.5078 159.995 70.4177 157.662 68.1891 155.174C66.3708 153.144 64.4604 151.011 62.566 148.833C58.3219 143.952 54.1026 138.78 50.9466 133.783C47.777 128.765 45.75 124.028 45.75 119.999C45.75 110.262 53.8655 103.75 62.002 103.75C66.0596 103.75 70.1475 105.378 73.2188 107.836C76.3034 110.303 78.25 113.509 78.25 116.6Z" fill="#FF191A" stroke="#DF191A" stroke-width="1.5" stroke-linejoin="round"/>
<defs>
<filter id="filter0_dd_350_2568" x="2" y="14" width="128" height="184" filterUnits="userSpaceOnUse" color-interpolation-filters="sRGB">
<feFlood flood-opacity="0" result="BackgroundImageFix"/>
<feColorMatrix in="SourceAlpha" type="matrix" values="0 0 0 0 0 0 0 0 0 0 0 0 0 0 0 0 0 0 127 0" result="hardAlpha"/>
<feOffset dy="6"/>
<feGaussianBlur stdDeviation="4"/>
<feColorMatrix type="matrix" values="0 0 0 0 0 0 0 0 0 0 0 0 0 0 0 0 0 0 0.15 0"/>
<feBlend mode="normal" in2="BackgroundImageFix" result="effect1_dropShadow_350_2568"/>
<feColorMatrix in="SourceAlpha" type="matrix" values="0 0 0 0 0 0 0 0 0 0 0 0 0 0 0 0 0 0 127 0" result="hardAlpha"/>
<feOffset dy="4"/>
<feGaussianBlur stdDeviation="2"/>
<feColorMatrix type="matrix" values="0 0 0 0 0 0 0 0 0 0 0 0 0 0 0 0 0 0 0.25 0"/>
<feBlend mode="normal" in2="effect1_dropShadow_350_2568" result="effect2_dropShadow_350_2568"/>
<feBlend mode="normal" in="SourceGraphic" in2="effect2_dropShadow_350_2568" result="shape"/>
</filter>
</defs>
</svg>
