<svg width="132" height="200" viewBox="0 0 132 200" fill="none" xmlns="http://www.w3.org/2000/svg">
<g filter="url(#filter0_dd_350_2398)">
<rect x="10" y="16" width="112" height="168" rx="12" fill="#F1F5F9"/>
</g>
<path d="M35.914 100.541C36.0822 100.774 36.2497 101.006 36.4161 101.25H29.5837C29.7501 101.006 29.9177 100.774 30.0858 100.541C30.1009 100.52 30.116 100.499 30.1311 100.479C30.5149 99.9481 30.9115 99.3999 31.2577 98.7546C31.9969 97.3765 32.4682 95.6321 32.4682 92.5501C32.4682 91.8377 31.8221 91.5 31.352 91.5C30.8812 91.5 30.2359 91.8382 30.2359 92.5501C30.2359 94.4882 28.2592 96.3 25.4928 96.3C22.7266 96.3 20.75 94.4882 20.75 92.5501C20.75 88.5726 22.9109 85.4931 25.6865 82.3805C26.2614 81.7358 26.8655 81.0876 27.4787 80.4298C29.4489 78.3163 31.5123 76.1026 33 73.5791C34.4876 76.1027 36.5511 78.3164 38.5213 80.43C39.1345 81.0878 39.7385 81.7358 40.3134 82.3805C43.089 85.4931 45.25 88.5726 45.25 92.5501C45.25 94.4882 43.2732 96.3 40.5069 96.3C37.7407 96.3 35.7641 94.4882 35.7641 92.5501C35.7641 91.8377 35.1179 91.5 34.6478 91.5C34.1777 91.5 33.5315 91.8377 33.5315 92.5501C33.5315 95.6322 34.003 97.3765 34.7422 98.7546C35.0883 99.3998 35.4849 99.948 35.8686 100.478C35.8838 100.499 35.8989 100.52 35.914 100.541Z" fill="black" fill-opacity="0.8" stroke="black" stroke-width="1.5"/>
<path d="M70.7441 115.238C73.8662 111.909 76.7713 108.406 79 104.547C81.2285 108.406 84.1336 111.909 87.2557 115.238C89.2048 117.316 91.2803 119.368 93.3326 121.398C94.8695 122.917 96.3933 124.424 97.8414 125.919C104.704 133.006 110.25 140.211 110.25 149.58C110.25 152.11 108.893 154.455 106.588 156.194C104.283 157.933 101.065 159.03 97.4786 159.03C93.8924 159.03 90.6744 157.933 88.3695 156.194C86.065 154.455 84.7078 152.11 84.7078 149.58C84.7078 149.105 84.4507 148.731 84.1455 148.501C83.8405 148.271 83.4529 148.15 83.0561 148.15C82.6594 148.15 82.2718 148.271 81.9668 148.501C81.6616 148.731 81.4045 149.105 81.4045 149.58C81.4045 156.471 82.5482 160.267 84.2672 163.218C85.0862 164.624 86.0263 165.82 86.9786 167.032L87.0791 167.16C87.8335 168.121 88.6013 169.106 89.3599 170.25H68.6396C69.3983 169.106 70.1662 168.121 70.9206 167.16L71.0207 167.033C71.9732 165.82 72.9134 164.624 73.7324 163.218C75.4513 160.267 76.5949 156.471 76.5949 149.58C76.5949 149.105 76.3379 148.731 76.0326 148.501C75.7277 148.271 75.3401 148.15 74.9433 148.15C74.5465 148.15 74.1589 148.271 73.854 148.501C73.5488 148.731 73.2922 149.106 73.2922 149.58C73.2922 152.11 71.9349 154.455 69.6302 156.194C67.3252 157.933 64.107 159.03 60.5208 159.03C56.9346 159.03 53.7166 157.933 51.4117 156.194C49.1073 154.455 47.75 152.11 47.75 149.58C47.75 140.211 53.2956 133.006 60.1584 125.919C61.6066 124.424 63.1306 122.917 64.6676 121.397C66.7198 119.368 68.7951 117.316 70.7441 115.238Z" fill="black" fill-opacity="0.8" stroke="black" stroke-width="1.5"/>
<path d="M23.8666 61V56.28L31.6266 44.36C32.2132 43.48 32.7599 42.6267 33.2666 41.8C33.7999 40.9733 34.2266 40.1333 34.5466 39.28C34.8932 38.4267 35.0666 37.5333 35.0666 36.6C35.0666 35.6667 34.8799 34.9733 34.5066 34.52C34.1332 34.0667 33.6266 33.84 32.9866 33.84C32.2666 33.84 31.7066 34.04 31.3066 34.44C30.9066 34.84 30.6266 35.3733 30.4666 36.04C30.3332 36.7067 30.2666 37.4533 30.2666 38.28V39.88H23.7866V38.16C23.7866 36.24 24.0932 34.5333 24.7066 33.04C25.3199 31.52 26.2932 30.3333 27.6266 29.48C28.9599 28.6 30.7066 28.16 32.8666 28.16C35.7732 28.16 37.9599 28.92 39.4266 30.44C40.9199 31.9333 41.6666 34.0267 41.6666 36.72C41.6666 38.0267 41.4532 39.24 41.0266 40.36C40.6266 41.48 40.0799 42.5733 39.3866 43.64C38.7199 44.68 37.9999 45.7733 37.2266 46.92L31.3066 55.76H40.7866V61H23.8666Z" fill="black" fill-opacity="0.8"/>
<path d="M23.8666 61H22.3666C22.3666 61.8284 23.0381 62.5 23.8666 62.5V61ZM23.8666 56.28L22.6095 55.4616C22.451 55.7051 22.3666 55.9894 22.3666 56.28H23.8666ZM31.6266 44.36L30.3785 43.528C30.3755 43.5325 30.3725 43.5371 30.3695 43.5416L31.6266 44.36ZM33.2666 41.8L32.0061 40.9868C31.9999 40.9965 31.9937 41.0063 31.9877 41.0162L33.2666 41.8ZM34.5466 39.28L33.1569 38.7154C33.1518 38.728 33.1468 38.7406 33.1421 38.7533L34.5466 39.28ZM34.5066 34.52L35.6645 33.5664L35.6645 33.5664L34.5066 34.52ZM30.4666 36.04L29.008 35.6899C29.0035 35.7085 28.9994 35.7271 28.9957 35.7458L30.4666 36.04ZM30.2666 39.88V41.38C31.095 41.38 31.7666 40.7084 31.7666 39.88H30.2666ZM23.7866 39.88H22.2866C22.2866 40.7084 22.9581 41.38 23.7866 41.38V39.88ZM24.7066 33.04L26.0941 33.6099L26.0976 33.6013L24.7066 33.04ZM27.6266 29.48L28.4351 30.7434C28.4411 30.7396 28.447 30.7358 28.4528 30.7319L27.6266 29.48ZM39.4266 30.44L38.3471 31.4816C38.3533 31.488 38.3596 31.4943 38.3659 31.5007L39.4266 30.44ZM41.0266 40.36L39.6248 39.826C39.6211 39.8358 39.6175 39.8456 39.614 39.8555L41.0266 40.36ZM39.3866 43.64L38.1289 42.8225L38.1237 42.8305L39.3866 43.64ZM37.2266 46.92L35.9829 46.0813L35.9802 46.0853L37.2266 46.92ZM31.3066 55.76L30.0602 54.9253C29.7521 55.3855 29.7225 55.9779 29.9833 56.4664C30.2441 56.9549 30.7528 57.26 31.3066 57.26V55.76ZM40.7866 55.76H42.2866C42.2866 54.9316 41.615 54.26 40.7866 54.26V55.76ZM40.7866 61V62.5C41.615 62.5 42.2866 61.8284 42.2866 61H40.7866ZM25.3666 61V56.28H22.3666V61H25.3666ZM25.1236 57.0984L32.8836 45.1784L30.3695 43.5416L22.6095 55.4616L25.1236 57.0984ZM32.8746 45.1921C33.4709 44.2976 34.028 43.4282 34.5455 42.5838L31.9877 41.0162C31.4918 41.8252 30.9555 42.6624 30.3785 43.528L32.8746 45.1921ZM34.527 42.6132C35.1139 41.7035 35.5906 40.768 35.9511 39.8067L33.1421 38.7533C32.8626 39.4987 32.4859 40.2431 32.0061 40.9868L34.527 42.6132ZM35.9363 39.8446C36.3568 38.8095 36.5666 37.7242 36.5666 36.6H33.5666C33.5666 37.3424 33.4297 38.0438 33.1569 38.7154L35.9363 39.8446ZM36.5666 36.6C36.5666 35.5113 36.3564 34.4066 35.6645 33.5664L33.3487 35.4736C33.4034 35.54 33.5666 35.822 33.5666 36.6H36.5666ZM35.6645 33.5664C34.9783 32.7332 34.029 32.34 32.9866 32.34V35.34C33.2241 35.34 33.2882 35.4001 33.3487 35.4736L35.6645 33.5664ZM32.9866 32.34C31.9827 32.34 30.9987 32.6266 30.2459 33.3793L32.3672 35.5007C32.4145 35.4534 32.5504 35.34 32.9866 35.34V32.34ZM30.2459 33.3793C29.6125 34.0128 29.2188 34.8115 29.008 35.6899L31.9251 36.3901C32.0343 35.9352 32.2007 35.6672 32.3672 35.5007L30.2459 33.3793ZM28.9957 35.7458C28.8394 36.5274 28.7666 37.3749 28.7666 38.28H31.7666C31.7666 37.5318 31.8271 36.8859 31.9374 36.3342L28.9957 35.7458ZM28.7666 38.28V39.88H31.7666V38.28H28.7666ZM30.2666 38.38H23.7866V41.38H30.2666V38.38ZM25.2866 39.88V38.16H22.2866V39.88H25.2866ZM25.2866 38.16C25.2866 36.3992 25.5677 34.8916 26.0941 33.6099L23.319 32.4701C22.6188 34.1751 22.2866 36.0808 22.2866 38.16H25.2866ZM26.0976 33.6013C26.5988 32.3592 27.3739 31.4226 28.4351 30.7434L26.818 28.2166C25.2126 29.244 24.041 30.6808 23.3155 32.4787L26.0976 33.6013ZM28.4528 30.7319C29.4686 30.0615 30.8996 29.66 32.8666 29.66V26.66C30.5136 26.66 28.4512 27.1385 26.8003 28.2281L28.4528 30.7319ZM32.8666 29.66C35.5234 29.66 37.2564 30.3511 38.3471 31.4816L40.506 29.3984C38.6634 27.4889 36.0231 26.66 32.8666 26.66V29.66ZM38.3659 31.5007C39.5059 32.6407 40.1666 34.3096 40.1666 36.72H43.1666C43.1666 33.7438 42.3339 31.226 40.4872 29.3793L38.3659 31.5007ZM40.1666 36.72C40.1666 37.8607 39.9809 38.8913 39.6248 39.826L42.4283 40.894C42.9256 39.5887 43.1666 38.1927 43.1666 36.72H40.1666ZM39.614 39.8555C39.2559 40.8581 38.763 41.847 38.1289 42.8225L40.6442 44.4575C41.3968 43.2997 41.9973 42.1019 42.4392 40.8645L39.614 39.8555ZM38.1237 42.8305C37.4641 43.8596 36.7505 44.9432 35.983 46.0813L38.4702 47.7587C39.2493 46.6035 39.9757 45.5004 40.6494 44.4495L38.1237 42.8305ZM35.9802 46.0853L30.0602 54.9253L32.5529 56.5947L38.4729 47.7547L35.9802 46.0853ZM31.3066 57.26H40.7866V54.26H31.3066V57.26ZM39.2866 55.76V61H42.2866V55.76H39.2866ZM40.7866 59.5H23.8666V62.5H40.7866V59.5Z" fill="black"/>
<defs>
<filter id="filter0_dd_350_2398" x="2" y="14" width="128" height="184" filterUnits="userSpaceOnUse" color-interpolation-filters="sRGB">
<feFlood flood-opacity="0" result="BackgroundImageFix"/>
<feColorMatrix in="SourceAlpha" type="matrix" values="0 0 0 0 0 0 0 0 0 0 0 0 0 0 0 0 0 0 127 0" result="hardAlpha"/>
<feOffset dy="6"/>
<feGaussianBlur stdDeviation="4"/>
<feColorMatrix type="matrix" values="0 0 0 0 0 0 0 0 0 0 0 0 0 0 0 0 0 0 0.15 0"/>
<feBlend mode="normal" in2="BackgroundImageFix" result="effect1_dropShadow_350_2398"/>
<feColorMatrix in="SourceAlpha" type="matrix" values="0 0 0 0 0 0 0 0 0 0 0 0 0 0 0 0 0 0 127 0" result="hardAlpha"/>
<feOffset dy="4"/>
<feGaussianBlur stdDeviation="2"/>
<feColorMatrix type="matrix" values="0 0 0 0 0 0 0 0 0 0 0 0 0 0 0 0 0 0 0.25 0"/>
<feBlend mode="normal" in2="effect1_dropShadow_350_2398" result="effect2_dropShadow_350_2398"/>
<feBlend mode="normal" in="SourceGraphic" in2="effect2_dropShadow_350_2398" result="shape"/>
</filter>
</defs>
</svg>
