<svg width="132" height="200" viewBox="0 0 132 200" fill="none" xmlns="http://www.w3.org/2000/svg">
<g filter="url(#filter0_dd_350_2608)">
<rect x="10" y="16" width="112" height="168" rx="12" fill="#F1F5F9"/>
</g>
<path d="M25.8109 61L32.8509 33.68H24.0109V28.6H39.3709V33.2L32.3309 61H25.8109Z" fill="#FF191A"/>
<path d="M25.8109 61L24.3584 60.6257C24.2427 61.0748 24.3412 61.5522 24.6253 61.9188C24.9094 62.2854 25.3471 62.5 25.8109 62.5V61ZM32.8509 33.68L34.3035 34.0543C34.4192 33.6052 34.3207 33.1278 34.0366 32.7612C33.7525 32.3946 33.3147 32.18 32.8509 32.18V33.68ZM24.0109 33.68H22.5109C22.5109 34.5084 23.1825 35.18 24.0109 35.18V33.68ZM24.0109 28.6V27.1C23.1825 27.1 22.5109 27.7716 22.5109 28.6H24.0109ZM39.3709 28.6H40.8709C40.8709 27.7716 40.1994 27.1 39.3709 27.1V28.6ZM39.3709 33.2L40.825 33.5682C40.8555 33.4479 40.8709 33.3242 40.8709 33.2H39.3709ZM32.3309 61V62.5C33.0175 62.5 33.6165 62.0338 33.785 61.3682L32.3309 61ZM27.2635 61.3743L34.3035 34.0543L31.3984 33.3057L24.3584 60.6257L27.2635 61.3743ZM32.8509 32.18H24.0109V35.18H32.8509V32.18ZM25.5109 33.68V28.6H22.5109V33.68H25.5109ZM24.0109 30.1H39.3709V27.1H24.0109V30.1ZM37.8709 28.6V33.2H40.8709V28.6H37.8709ZM37.9168 32.8318L30.8768 60.6318L33.785 61.3682L40.825 33.5682L37.9168 32.8318ZM32.3309 59.5H25.8109V62.5H32.3309V59.5Z" fill="#DF191A"/>
<path d="M32.25 77.9999C32.25 78.4141 32.5858 78.7499 33 78.7499C33.4142 78.7499 33.75 78.4141 33.75 77.9999C33.75 76.8091 34.509 75.5034 35.8124 74.4606C37.1027 73.4284 38.8159 72.75 40.4997 72.75C43.885 72.75 47.25 75.4621 47.25 79.4996C47.25 81.1538 46.4105 83.1587 45.0221 85.3571C43.6474 87.5338 41.8031 89.7958 39.934 91.9453C39.1091 92.894 38.2682 93.8329 37.4652 94.7294C36.4759 95.8339 35.5442 96.8742 34.7709 97.7893C34.0624 98.6277 33.4522 99.4004 33.016 100.07C33.0107 100.078 33.0053 100.087 33 100.095C32.9947 100.087 32.9893 100.078 32.984 100.07C32.5478 99.4004 31.9376 98.6277 31.2291 97.7893C30.4557 96.8742 29.5241 95.8339 28.5348 94.7294C27.7318 93.8329 26.8909 92.894 26.066 91.9453C24.1969 89.7958 22.3526 87.5338 20.9779 85.3571C19.5895 83.1587 18.75 81.1538 18.75 79.4996C18.75 75.4622 22.115 72.75 25.5009 72.75C27.1843 72.75 28.8975 73.4284 30.1877 74.4606C31.491 75.5033 32.25 76.8091 32.25 77.9999Z" fill="#FF191A" stroke="#DF191A" stroke-width="1.5" stroke-linejoin="round"/>
<path d="M78.25 116.6C78.25 117.014 78.5858 117.35 79 117.35C79.4142 117.35 79.75 117.014 79.75 116.6C79.75 113.509 81.6966 110.303 84.7813 107.836C87.8529 105.378 91.941 103.75 95.9993 103.75C104.134 103.75 112.25 110.262 112.25 119.999C112.25 124.028 110.223 128.765 107.053 133.783C103.897 138.78 99.6781 143.952 95.434 148.833C93.5396 151.011 91.6292 153.144 89.8109 155.174C87.5823 157.662 85.4921 159.995 83.7396 162.069C82.1405 163.961 80.7881 165.677 79.8324 167.144C79.5123 167.636 79.2319 168.107 79 168.554C78.7681 168.107 78.4877 167.636 78.1676 167.144C77.2118 165.677 75.8595 163.961 74.2603 162.069C72.5078 159.995 70.4177 157.662 68.1891 155.174C66.3708 153.144 64.4604 151.011 62.566 148.833C58.3219 143.952 54.1026 138.78 50.9466 133.783C47.777 128.765 45.75 124.028 45.75 119.999C45.75 110.262 53.8655 103.75 62.002 103.75C66.0596 103.75 70.1475 105.378 73.2188 107.836C76.3034 110.303 78.25 113.509 78.25 116.6Z" fill="#FF191A" stroke="#DF191A" stroke-width="1.5" stroke-linejoin="round"/>
<defs>
<filter id="filter0_dd_350_2608" x="2" y="14" width="128" height="184" filterUnits="userSpaceOnUse" color-interpolation-filters="sRGB">
<feFlood flood-opacity="0" result="BackgroundImageFix"/>
<feColorMatrix in="SourceAlpha" type="matrix" values="0 0 0 0 0 0 0 0 0 0 0 0 0 0 0 0 0 0 127 0" result="hardAlpha"/>
<feOffset dy="6"/>
<feGaussianBlur stdDeviation="4"/>
<feColorMatrix type="matrix" values="0 0 0 0 0 0 0 0 0 0 0 0 0 0 0 0 0 0 0.15 0"/>
<feBlend mode="normal" in2="BackgroundImageFix" result="effect1_dropShadow_350_2608"/>
<feColorMatrix in="SourceAlpha" type="matrix" values="0 0 0 0 0 0 0 0 0 0 0 0 0 0 0 0 0 0 127 0" result="hardAlpha"/>
<feOffset dy="4"/>
<feGaussianBlur stdDeviation="2"/>
<feColorMatrix type="matrix" values="0 0 0 0 0 0 0 0 0 0 0 0 0 0 0 0 0 0 0.25 0"/>
<feBlend mode="normal" in2="effect1_dropShadow_350_2608" result="effect2_dropShadow_350_2608"/>
<feBlend mode="normal" in="SourceGraphic" in2="effect2_dropShadow_350_2608" result="shape"/>
</filter>
</defs>
</svg>
