<svg width="132" height="200" viewBox="0 0 132 200" fill="none" xmlns="http://www.w3.org/2000/svg">
<g filter="url(#filter0_dd_350_2768)">
<rect x="10" y="16" width="112" height="168" rx="12" fill="#F1F5F9"/>
</g>
<path d="M16.52 61.84V56.84C17.24 56.84 17.8533 56.8 18.36 56.72C18.8667 56.64 19.2667 56.4933 19.56 56.28C19.8533 56.04 20.0667 55.7067 20.2 55.28C20.3333 54.8267 20.4 54.2533 20.4 53.56V28.6H27.56V53.88C27.56 55.64 27.3333 57.12 26.88 58.32C26.4533 59.4933 25.6933 60.3733 24.6 60.96C23.5067 61.5467 21.9733 61.84 20 61.84H16.52Z" fill="#FF191A"/>
<path d="M16.52 61.84H15.02C15.02 62.6684 15.6916 63.34 16.52 63.34L16.52 61.84ZM16.52 56.84V55.34C15.6916 55.34 15.02 56.0116 15.02 56.84H16.52ZM18.36 56.72L18.1261 55.2384H18.1261L18.36 56.72ZM19.56 56.28L20.4423 57.4931C20.4653 57.4764 20.4878 57.459 20.5099 57.4409L19.56 56.28ZM20.2 55.28L21.6317 55.7274C21.6342 55.7194 21.6367 55.7113 21.639 55.7033L20.2 55.28ZM20.4 28.6V27.1C19.5716 27.1 18.9 27.7716 18.9 28.6H20.4ZM27.56 28.6H29.06C29.06 27.7716 28.3884 27.1 27.56 27.1V28.6ZM26.88 58.32L25.4768 57.7899C25.4746 57.7957 25.4724 57.8015 25.4703 57.8074L26.88 58.32ZM24.6 60.96L23.8908 59.6383H23.8908L24.6 60.96ZM18.02 61.84V56.84H15.02V61.84H18.02ZM16.52 58.34C17.2897 58.34 17.986 58.2976 18.5939 58.2016L18.1261 55.2384C17.7207 55.3024 17.1903 55.34 16.52 55.34V58.34ZM18.5939 58.2016C19.2439 58.099 19.8944 57.8916 20.4423 57.4931L18.6777 55.0669C18.639 55.0951 18.4894 55.181 18.1261 55.2384L18.5939 58.2016ZM20.5099 57.4409C21.0683 56.984 21.4269 56.3827 21.6317 55.7274L18.7683 54.8326C18.7064 55.0306 18.6384 55.096 18.6101 55.1191L20.5099 57.4409ZM21.639 55.7033C21.8269 55.0646 21.9 54.3363 21.9 53.56H18.9C18.9 54.1704 18.8398 54.5887 18.761 54.8568L21.639 55.7033ZM21.9 53.56V28.6H18.9V53.56H21.9ZM20.4 30.1H27.56V27.1H20.4V30.1ZM26.06 28.6V53.88H29.06V28.6H26.06ZM26.06 53.88C26.06 55.5217 25.8472 56.8095 25.4768 57.7899L28.2832 58.8501C28.8195 57.4305 29.06 55.7583 29.06 53.88H26.06ZM25.4703 57.8074C25.1688 58.6364 24.6568 59.2272 23.8908 59.6383L25.3092 62.2817C26.7298 61.5195 27.7378 60.3502 28.2897 58.8326L25.4703 57.8074ZM23.8908 59.6383C23.1076 60.0585 21.8572 60.34 20 60.34V63.34C22.0895 63.34 23.9057 63.0348 25.3092 62.2817L23.8908 59.6383ZM20 60.34H16.52V63.34H20V60.34Z" fill="#DF191A"/>
<path d="M32.25 77.9999C32.25 78.4141 32.5858 78.7499 33 78.7499C33.4142 78.7499 33.75 78.4141 33.75 77.9999C33.75 76.8091 34.509 75.5034 35.8124 74.4606C37.1027 73.4284 38.8159 72.75 40.4997 72.75C43.885 72.75 47.25 75.4621 47.25 79.4996C47.25 81.1538 46.4105 83.1587 45.0221 85.3571C43.6474 87.5338 41.8031 89.7958 39.934 91.9453C39.1091 92.894 38.2682 93.8329 37.4652 94.7294C36.4759 95.8339 35.5442 96.8742 34.7709 97.7893C34.0624 98.6277 33.4522 99.4004 33.016 100.07C33.0107 100.078 33.0053 100.087 33 100.095C32.9947 100.087 32.9893 100.078 32.984 100.07C32.5478 99.4004 31.9376 98.6277 31.2291 97.7893C30.4557 96.8742 29.5241 95.8339 28.5348 94.7294C27.7318 93.8329 26.8909 92.894 26.066 91.9453C24.1969 89.7958 22.3526 87.5338 20.9779 85.3571C19.5895 83.1587 18.75 81.1538 18.75 79.4996C18.75 75.4622 22.115 72.75 25.5009 72.75C27.1843 72.75 28.8975 73.4284 30.1877 74.4606C31.491 75.5033 32.25 76.8091 32.25 77.9999Z" fill="#FF191A" stroke="#DF191A" stroke-width="1.5" stroke-linejoin="round"/>
<path d="M78.25 116.6C78.25 117.014 78.5858 117.35 79 117.35C79.4142 117.35 79.75 117.014 79.75 116.6C79.75 113.509 81.6966 110.303 84.7813 107.836C87.8529 105.378 91.941 103.75 95.9993 103.75C104.134 103.75 112.25 110.262 112.25 119.999C112.25 124.028 110.223 128.765 107.053 133.783C103.897 138.78 99.6781 143.952 95.434 148.833C93.5396 151.011 91.6292 153.144 89.8109 155.174C87.5823 157.662 85.4921 159.995 83.7396 162.069C82.1405 163.961 80.7881 165.677 79.8324 167.144C79.5123 167.636 79.2319 168.107 79 168.554C78.7681 168.107 78.4877 167.636 78.1676 167.144C77.2118 165.677 75.8595 163.961 74.2603 162.069C72.5078 159.995 70.4177 157.662 68.1891 155.174C66.3708 153.144 64.4604 151.011 62.566 148.833C58.3219 143.952 54.1026 138.78 50.9466 133.783C47.777 128.765 45.75 124.028 45.75 119.999C45.75 110.262 53.8655 103.75 62.002 103.75C66.0596 103.75 70.1475 105.378 73.2188 107.836C76.3034 110.303 78.25 113.509 78.25 116.6Z" fill="#FF191A" stroke="#DF191A" stroke-width="1.5" stroke-linejoin="round"/>
<defs>
<filter id="filter0_dd_350_2768" x="2" y="14" width="128" height="184" filterUnits="userSpaceOnUse" color-interpolation-filters="sRGB">
<feFlood flood-opacity="0" result="BackgroundImageFix"/>
<feColorMatrix in="SourceAlpha" type="matrix" values="0 0 0 0 0 0 0 0 0 0 0 0 0 0 0 0 0 0 127 0" result="hardAlpha"/>
<feOffset dy="6"/>
<feGaussianBlur stdDeviation="4"/>
<feColorMatrix type="matrix" values="0 0 0 0 0 0 0 0 0 0 0 0 0 0 0 0 0 0 0.15 0"/>
<feBlend mode="normal" in2="BackgroundImageFix" result="effect1_dropShadow_350_2768"/>
<feColorMatrix in="SourceAlpha" type="matrix" values="0 0 0 0 0 0 0 0 0 0 0 0 0 0 0 0 0 0 127 0" result="hardAlpha"/>
<feOffset dy="4"/>
<feGaussianBlur stdDeviation="2"/>
<feColorMatrix type="matrix" values="0 0 0 0 0 0 0 0 0 0 0 0 0 0 0 0 0 0 0.25 0"/>
<feBlend mode="normal" in2="effect1_dropShadow_350_2768" result="effect2_dropShadow_350_2768"/>
<feBlend mode="normal" in="SourceGraphic" in2="effect2_dropShadow_350_2768" result="shape"/>
</filter>
</defs>
</svg>
