<svg width="132" height="200" viewBox="0 0 132 200" fill="none" xmlns="http://www.w3.org/2000/svg">
<g filter="url(#filter0_dd_350_2788)">
<rect x="10" y="16" width="112" height="168" rx="12" fill="#F1F5F9"/>
</g>
<path d="M18.4 61V28.6H25.56V41.84L31 28.6H38L32 43.24L38.28 61H31L26.32 46.68L25.56 47.96V61H18.4Z" fill="#FF191A"/>
<path d="M18.4 61H16.9C16.9 61.8284 17.5716 62.5 18.4 62.5V61ZM18.4 28.6V27.1C17.5716 27.1 16.9 27.7716 16.9 28.6H18.4ZM25.56 28.6H27.06C27.06 27.7716 26.3884 27.1 25.56 27.1V28.6ZM25.56 41.84H24.06C24.06 42.5564 24.5666 43.1728 25.2695 43.3116C25.9723 43.4504 26.6752 43.0727 26.9475 42.4101L25.56 41.84ZM31 28.6V27.1C30.3918 27.1 29.8437 27.4673 29.6126 28.0299L31 28.6ZM38 28.6L39.388 29.1688C39.5776 28.7062 39.5242 28.1795 39.2456 27.7643C38.9671 27.3491 38.5 27.1 38 27.1V28.6ZM32 43.24L30.612 42.6712C30.4723 43.0121 30.463 43.3926 30.5858 43.7401L32 43.24ZM38.28 61V62.5C38.767 62.5 39.2236 62.2636 39.5048 61.866C39.7859 61.4684 39.8565 60.959 39.6942 60.4999L38.28 61ZM31 61L29.5742 61.466C29.7758 62.0828 30.3511 62.5 31 62.5V61ZM26.32 46.68L27.7458 46.214C27.5629 45.6545 27.0697 45.2537 26.4846 45.1891C25.8995 45.1245 25.3307 45.408 25.0302 45.9142L26.32 46.68ZM25.56 47.96L24.2702 47.1942C24.1326 47.4259 24.06 47.6905 24.06 47.96H25.56ZM25.56 61V62.5C26.3884 62.5 27.06 61.8284 27.06 61H25.56ZM19.9 61V28.6H16.9V61H19.9ZM18.4 30.1H25.56V27.1H18.4V30.1ZM24.06 28.6V41.84H27.06V28.6H24.06ZM26.9475 42.4101L32.3875 29.1701L29.6126 28.0299L24.1725 41.2699L26.9475 42.4101ZM31 30.1H38V27.1H31V30.1ZM36.612 28.0312L30.612 42.6712L33.388 43.8088L39.388 29.1688L36.612 28.0312ZM30.5858 43.7401L36.8658 61.5001L39.6942 60.4999L33.4142 42.7399L30.5858 43.7401ZM38.28 59.5H31V62.5H38.28V59.5ZM32.4258 60.534L27.7458 46.214L24.8942 47.146L29.5742 61.466L32.4258 60.534ZM25.0302 45.9142L24.2702 47.1942L26.8498 48.7258L27.6098 47.4458L25.0302 45.9142ZM24.06 47.96V61H27.06V47.96H24.06ZM25.56 59.5H18.4V62.5H25.56V59.5Z" fill="#DF191A"/>
<path d="M32.25 77.9999C32.25 78.4141 32.5858 78.7499 33 78.7499C33.4142 78.7499 33.75 78.4141 33.75 77.9999C33.75 76.8091 34.509 75.5034 35.8124 74.4606C37.1027 73.4284 38.8159 72.75 40.4997 72.75C43.885 72.75 47.25 75.4621 47.25 79.4996C47.25 81.1538 46.4105 83.1587 45.0221 85.3571C43.6474 87.5338 41.8031 89.7958 39.934 91.9453C39.1091 92.894 38.2682 93.8329 37.4652 94.7294C36.4759 95.8339 35.5442 96.8742 34.7709 97.7893C34.0624 98.6277 33.4522 99.4004 33.016 100.07C33.0107 100.078 33.0053 100.087 33 100.095C32.9947 100.087 32.9893 100.078 32.984 100.07C32.5478 99.4004 31.9376 98.6277 31.2291 97.7893C30.4557 96.8742 29.5241 95.8339 28.5348 94.7294C27.7318 93.8329 26.8909 92.894 26.066 91.9453C24.1969 89.7958 22.3526 87.5338 20.9779 85.3571C19.5895 83.1587 18.75 81.1538 18.75 79.4996C18.75 75.4622 22.115 72.75 25.5009 72.75C27.1843 72.75 28.8975 73.4284 30.1877 74.4606C31.491 75.5033 32.25 76.8091 32.25 77.9999Z" fill="#FF191A" stroke="#DF191A" stroke-width="1.5" stroke-linejoin="round"/>
<path d="M78.25 116.6C78.25 117.014 78.5858 117.35 79 117.35C79.4142 117.35 79.75 117.014 79.75 116.6C79.75 113.509 81.6966 110.303 84.7813 107.836C87.8529 105.378 91.941 103.75 95.9993 103.75C104.134 103.75 112.25 110.262 112.25 119.999C112.25 124.028 110.223 128.765 107.053 133.783C103.897 138.78 99.6781 143.952 95.434 148.833C93.5396 151.011 91.6292 153.144 89.8109 155.174C87.5823 157.662 85.4921 159.995 83.7396 162.069C82.1405 163.961 80.7881 165.677 79.8324 167.144C79.5123 167.636 79.2319 168.107 79 168.554C78.7681 168.107 78.4877 167.636 78.1676 167.144C77.2118 165.677 75.8595 163.961 74.2603 162.069C72.5078 159.995 70.4177 157.662 68.1891 155.174C66.3708 153.144 64.4604 151.011 62.566 148.833C58.3219 143.952 54.1026 138.78 50.9466 133.783C47.777 128.765 45.75 124.028 45.75 119.999C45.75 110.262 53.8655 103.75 62.002 103.75C66.0596 103.75 70.1475 105.378 73.2188 107.836C76.3034 110.303 78.25 113.509 78.25 116.6Z" fill="#FF191A" stroke="#DF191A" stroke-width="1.5" stroke-linejoin="round"/>
<defs>
<filter id="filter0_dd_350_2788" x="2" y="14" width="128" height="184" filterUnits="userSpaceOnUse" color-interpolation-filters="sRGB">
<feFlood flood-opacity="0" result="BackgroundImageFix"/>
<feColorMatrix in="SourceAlpha" type="matrix" values="0 0 0 0 0 0 0 0 0 0 0 0 0 0 0 0 0 0 127 0" result="hardAlpha"/>
<feOffset dy="6"/>
<feGaussianBlur stdDeviation="4"/>
<feColorMatrix type="matrix" values="0 0 0 0 0 0 0 0 0 0 0 0 0 0 0 0 0 0 0.15 0"/>
<feBlend mode="normal" in2="BackgroundImageFix" result="effect1_dropShadow_350_2788"/>
<feColorMatrix in="SourceAlpha" type="matrix" values="0 0 0 0 0 0 0 0 0 0 0 0 0 0 0 0 0 0 127 0" result="hardAlpha"/>
<feOffset dy="4"/>
<feGaussianBlur stdDeviation="2"/>
<feColorMatrix type="matrix" values="0 0 0 0 0 0 0 0 0 0 0 0 0 0 0 0 0 0 0.25 0"/>
<feBlend mode="normal" in2="effect1_dropShadow_350_2788" result="effect2_dropShadow_350_2788"/>
<feBlend mode="normal" in="SourceGraphic" in2="effect2_dropShadow_350_2788" result="shape"/>
</filter>
</defs>
</svg>
