<svg width="132" height="200" viewBox="0 0 132 200" fill="none" xmlns="http://www.w3.org/2000/svg">
<g filter="url(#filter0_dd_350_2418)">
<rect x="10" y="16" width="112" height="168" rx="12" fill="#F1F5F9"/>
</g>
<path d="M23.8666 61V56.28L31.6266 44.36C32.2132 43.48 32.7599 42.6267 33.2666 41.8C33.7999 40.9733 34.2266 40.1333 34.5466 39.28C34.8932 38.4267 35.0666 37.5333 35.0666 36.6C35.0666 35.6667 34.8799 34.9733 34.5066 34.52C34.1332 34.0667 33.6266 33.84 32.9866 33.84C32.2666 33.84 31.7066 34.04 31.3066 34.44C30.9066 34.84 30.6266 35.3733 30.4666 36.04C30.3332 36.7067 30.2666 37.4533 30.2666 38.28V39.88H23.7866V38.16C23.7866 36.24 24.0932 34.5333 24.7066 33.04C25.3199 31.52 26.2932 30.3333 27.6266 29.48C28.9599 28.6 30.7066 28.16 32.8666 28.16C35.7732 28.16 37.9599 28.92 39.4266 30.44C40.9199 31.9333 41.6666 34.0267 41.6666 36.72C41.6666 38.0267 41.4532 39.24 41.0266 40.36C40.6266 41.48 40.0799 42.5733 39.3866 43.64C38.7199 44.68 37.9999 45.7733 37.2266 46.92L31.3066 55.76H40.7866V61H23.8666Z" fill="black" fill-opacity="0.8"/>
<path d="M23.8666 61H22.3666C22.3666 61.8284 23.0381 62.5 23.8666 62.5V61ZM23.8666 56.28L22.6095 55.4616C22.451 55.7051 22.3666 55.9894 22.3666 56.28H23.8666ZM31.6266 44.36L30.3785 43.528C30.3755 43.5325 30.3725 43.5371 30.3695 43.5416L31.6266 44.36ZM33.2666 41.8L32.0061 40.9868C31.9999 40.9965 31.9937 41.0063 31.9877 41.0162L33.2666 41.8ZM34.5466 39.28L33.1569 38.7154C33.1518 38.728 33.1468 38.7406 33.1421 38.7533L34.5466 39.28ZM34.5066 34.52L35.6645 33.5664L35.6645 33.5664L34.5066 34.52ZM30.4666 36.04L29.008 35.6899C29.0035 35.7085 28.9994 35.7271 28.9957 35.7458L30.4666 36.04ZM30.2666 39.88V41.38C31.095 41.38 31.7666 40.7084 31.7666 39.88H30.2666ZM23.7866 39.88H22.2866C22.2866 40.7084 22.9581 41.38 23.7866 41.38V39.88ZM24.7066 33.04L26.0941 33.6099L26.0976 33.6013L24.7066 33.04ZM27.6266 29.48L28.4351 30.7434C28.4411 30.7396 28.447 30.7358 28.4528 30.7319L27.6266 29.48ZM39.4266 30.44L38.3471 31.4816C38.3533 31.488 38.3596 31.4943 38.3659 31.5007L39.4266 30.44ZM41.0266 40.36L39.6248 39.826C39.6211 39.8358 39.6175 39.8456 39.614 39.8555L41.0266 40.36ZM39.3866 43.64L38.1289 42.8225L38.1237 42.8305L39.3866 43.64ZM37.2266 46.92L35.9829 46.0813L35.9802 46.0853L37.2266 46.92ZM31.3066 55.76L30.0602 54.9253C29.7521 55.3855 29.7225 55.9779 29.9833 56.4664C30.2441 56.9549 30.7528 57.26 31.3066 57.26V55.76ZM40.7866 55.76H42.2866C42.2866 54.9316 41.615 54.26 40.7866 54.26V55.76ZM40.7866 61V62.5C41.615 62.5 42.2866 61.8284 42.2866 61H40.7866ZM25.3666 61V56.28H22.3666V61H25.3666ZM25.1236 57.0984L32.8836 45.1784L30.3695 43.5416L22.6095 55.4616L25.1236 57.0984ZM32.8746 45.1921C33.4709 44.2976 34.028 43.4282 34.5455 42.5838L31.9877 41.0162C31.4918 41.8252 30.9555 42.6624 30.3785 43.528L32.8746 45.1921ZM34.527 42.6132C35.1139 41.7035 35.5906 40.768 35.9511 39.8067L33.1421 38.7533C32.8626 39.4987 32.4859 40.2431 32.0061 40.9868L34.527 42.6132ZM35.9363 39.8446C36.3568 38.8095 36.5666 37.7242 36.5666 36.6H33.5666C33.5666 37.3424 33.4297 38.0438 33.1569 38.7154L35.9363 39.8446ZM36.5666 36.6C36.5666 35.5113 36.3564 34.4066 35.6645 33.5664L33.3487 35.4736C33.4034 35.54 33.5666 35.822 33.5666 36.6H36.5666ZM35.6645 33.5664C34.9783 32.7332 34.029 32.34 32.9866 32.34V35.34C33.2241 35.34 33.2882 35.4001 33.3487 35.4736L35.6645 33.5664ZM32.9866 32.34C31.9827 32.34 30.9987 32.6266 30.2459 33.3793L32.3672 35.5007C32.4145 35.4534 32.5504 35.34 32.9866 35.34V32.34ZM30.2459 33.3793C29.6125 34.0128 29.2188 34.8115 29.008 35.6899L31.9251 36.3901C32.0343 35.9352 32.2007 35.6672 32.3672 35.5007L30.2459 33.3793ZM28.9957 35.7458C28.8394 36.5274 28.7666 37.3749 28.7666 38.28H31.7666C31.7666 37.5318 31.8271 36.8859 31.9374 36.3342L28.9957 35.7458ZM28.7666 38.28V39.88H31.7666V38.28H28.7666ZM30.2666 38.38H23.7866V41.38H30.2666V38.38ZM25.2866 39.88V38.16H22.2866V39.88H25.2866ZM25.2866 38.16C25.2866 36.3992 25.5677 34.8916 26.0941 33.6099L23.319 32.4701C22.6188 34.1751 22.2866 36.0808 22.2866 38.16H25.2866ZM26.0976 33.6013C26.5988 32.3592 27.3739 31.4226 28.4351 30.7434L26.818 28.2166C25.2126 29.244 24.041 30.6808 23.3155 32.4787L26.0976 33.6013ZM28.4528 30.7319C29.4686 30.0615 30.8996 29.66 32.8666 29.66V26.66C30.5136 26.66 28.4512 27.1385 26.8003 28.2281L28.4528 30.7319ZM32.8666 29.66C35.5234 29.66 37.2564 30.3511 38.3471 31.4816L40.506 29.3984C38.6634 27.4889 36.0231 26.66 32.8666 26.66V29.66ZM38.3659 31.5007C39.5059 32.6407 40.1666 34.3096 40.1666 36.72H43.1666C43.1666 33.7438 42.3339 31.226 40.4872 29.3793L38.3659 31.5007ZM40.1666 36.72C40.1666 37.8607 39.9809 38.8913 39.6248 39.826L42.4283 40.894C42.9256 39.5887 43.1666 38.1927 43.1666 36.72H40.1666ZM39.614 39.8555C39.2559 40.8581 38.763 41.847 38.1289 42.8225L40.6442 44.4575C41.3968 43.2997 41.9973 42.1019 42.4392 40.8645L39.614 39.8555ZM38.1237 42.8305C37.4641 43.8596 36.7505 44.9432 35.983 46.0813L38.4702 47.7587C39.2493 46.6035 39.9757 45.5004 40.6494 44.4495L38.1237 42.8305ZM35.9802 46.0853L30.0602 54.9253L32.5529 56.5947L38.4729 47.7547L35.9802 46.0853ZM31.3066 57.26H40.7866V54.26H31.3066V57.26ZM39.2866 55.76V61H42.2866V55.76H39.2866ZM40.7866 59.5H23.8666V62.5H40.7866V59.5Z" fill="black"/>
<path d="M33.215 91.4776V91.469C33.215 90.8348 33.7505 90.4198 34.2866 90.4198C34.7969 90.4198 35.3033 90.7949 35.3537 91.3738C35.5385 92.2674 35.9563 93.1068 36.5756 93.8218C38.6646 96.2201 42.4699 96.5972 45.0547 94.6295C47.611 92.6831 47.9811 89.1982 45.9199 86.8309L45.9191 86.8299C43.8312 84.4232 40.027 84.0497 37.442 86.0179L37.4264 86.0298L37.4101 86.0409C37.0413 86.2923 36.5476 86.2945 36.1764 86.0392L36.1759 86.0388C35.68 85.6972 35.5693 85.0077 35.9513 84.5305L36.0522 84.4045L36.196 84.3312C37.3229 83.7565 38.2408 82.8939 38.8469 81.8552C40.5696 78.8908 39.4234 75.1548 36.1967 73.5133L36.1959 73.5129C32.9437 71.8538 28.8963 72.9972 27.1543 75.9887C25.4317 78.9476 26.5762 82.6845 29.805 84.3312L29.9509 84.4056L30.0525 84.5341C30.3535 84.9147 30.3535 85.4469 30.0525 85.8275L30.0475 85.8338L30.0475 85.8338C29.6804 86.2879 29.0343 86.3472 28.5873 86.0381L28.5736 86.0286L28.5603 86.0186C27.7798 85.426 26.848 85.0217 25.8491 84.8455C22.5421 84.2756 19.4389 86.3302 18.849 89.3233L33.215 91.4776ZM33.215 91.4776L33.2152 91.4861C33.2969 95.0765 33.7469 97.0652 34.4037 98.5609C34.7285 99.3006 35.0956 99.8997 35.4525 100.476L35.4949 100.544C35.6398 100.778 35.7833 101.009 35.9254 101.25M33.215 91.4776L35.9254 101.25M35.9254 101.25H30.0753C30.2173 101.01 30.3608 100.778 30.5057 100.544C30.5199 100.522 30.5341 100.499 30.5483 100.476C30.9052 99.8997 31.2724 99.3006 31.5972 98.5609C32.2541 97.0652 32.704 95.0765 32.7858 91.4861L32.786 91.4776V91.469C32.786 90.8348 32.2505 90.4198 31.7144 90.4198C31.2029 90.4198 30.6977 90.7954 30.6473 91.3737C30.033 94.34 26.9455 96.3689 23.6566 95.8018C20.358 95.2281 18.263 92.2993 18.849 89.3234L35.9254 101.25ZM33.8578 91.469V91.4715C33.8578 91.4707 33.8578 91.4698 33.8578 91.469ZM32.1432 91.469C32.1432 91.4698 32.1432 91.4707 32.1432 91.4715V91.469Z" fill="black" fill-opacity="0.8" stroke="black" stroke-width="1.5"/>
<path d="M80.4373 147.13V147.138L80.4375 147.147C80.6213 155.217 81.6313 159.588 83.0516 162.823C83.7582 164.432 84.5579 165.739 85.3665 167.045C85.4004 167.099 85.4342 167.154 85.468 167.208C86.063 168.168 86.6627 169.136 87.2548 170.25H70.7465C71.3386 169.136 71.9383 168.169 72.5332 167.209C72.5672 167.154 72.6012 167.099 72.6352 167.045C73.444 165.739 74.2439 164.432 74.9505 162.823C76.371 159.588 77.381 155.217 77.5648 147.147L77.565 147.138V147.13C77.565 146.284 76.8466 145.702 76.0859 145.702C75.3482 145.702 74.6575 146.247 74.6105 147.043C73.135 154.353 65.5899 159.255 57.6585 157.887C49.7154 156.505 44.5498 149.407 45.9923 142.083C47.4393 134.74 55.0026 129.809 62.9545 131.181C65.3638 131.605 67.6176 132.581 69.5111 134.019L69.5244 134.029L69.5381 134.038C70.1648 134.472 71.0662 134.381 71.5688 133.759L71.5689 133.759L71.5739 133.753C71.9829 133.236 71.9829 132.517 71.5738 132L71.4722 131.871L71.3263 131.797C63.5536 127.833 60.7321 118.771 64.9287 111.563C69.1455 104.322 78.881 101.606 86.6758 105.583L86.6766 105.583C94.4465 109.536 97.2704 118.596 93.0739 125.817C91.6049 128.334 89.3866 130.415 86.6759 131.797L86.5321 131.87L86.4312 131.996C85.9149 132.641 86.0614 133.573 86.7377 134.039L86.7382 134.039C87.254 134.394 87.9465 134.392 88.4612 134.041L88.4775 134.03L88.4931 134.018C94.7419 129.26 103.932 130.149 109.001 135.992L109.002 135.993C114.043 141.784 113.119 150.313 106.899 155.049C100.65 159.807 91.4579 158.908 86.3876 153.086C84.8658 151.329 83.8379 149.257 83.3918 147.043C83.3447 146.246 82.6522 145.702 81.9164 145.702C81.1557 145.702 80.4373 146.284 80.4373 147.13Z" fill="black" fill-opacity="0.8" stroke="black" stroke-width="1.5"/>
<defs>
<filter id="filter0_dd_350_2418" x="2" y="14" width="128" height="184" filterUnits="userSpaceOnUse" color-interpolation-filters="sRGB">
<feFlood flood-opacity="0" result="BackgroundImageFix"/>
<feColorMatrix in="SourceAlpha" type="matrix" values="0 0 0 0 0 0 0 0 0 0 0 0 0 0 0 0 0 0 127 0" result="hardAlpha"/>
<feOffset dy="6"/>
<feGaussianBlur stdDeviation="4"/>
<feColorMatrix type="matrix" values="0 0 0 0 0 0 0 0 0 0 0 0 0 0 0 0 0 0 0.15 0"/>
<feBlend mode="normal" in2="BackgroundImageFix" result="effect1_dropShadow_350_2418"/>
<feColorMatrix in="SourceAlpha" type="matrix" values="0 0 0 0 0 0 0 0 0 0 0 0 0 0 0 0 0 0 127 0" result="hardAlpha"/>
<feOffset dy="4"/>
<feGaussianBlur stdDeviation="2"/>
<feColorMatrix type="matrix" values="0 0 0 0 0 0 0 0 0 0 0 0 0 0 0 0 0 0 0.25 0"/>
<feBlend mode="normal" in2="effect1_dropShadow_350_2418" result="effect2_dropShadow_350_2418"/>
<feBlend mode="normal" in="SourceGraphic" in2="effect2_dropShadow_350_2418" result="shape"/>
</filter>
</defs>
</svg>
