<svg width="132" height="200" viewBox="0 0 132 200" fill="none" xmlns="http://www.w3.org/2000/svg">
<g filter="url(#filter0_dd_350_2808)">
<rect x="10" y="16" width="112" height="168" rx="12" fill="#F1F5F9"/>
</g>
<path d="M16.52 61.84V56.84C17.24 56.84 17.8533 56.8 18.36 56.72C18.8667 56.64 19.2667 56.4933 19.56 56.28C19.8533 56.04 20.0667 55.7067 20.2 55.28C20.3333 54.8267 20.4 54.2533 20.4 53.56V28.6H27.56V53.88C27.56 55.64 27.3333 57.12 26.88 58.32C26.4533 59.4933 25.6933 60.3733 24.6 60.96C23.5067 61.5467 21.9733 61.84 20 61.84H16.52Z" fill="black" fill-opacity="0.8"/>
<path d="M16.52 61.84H15.02C15.02 62.6684 15.6916 63.34 16.52 63.34L16.52 61.84ZM16.52 56.84V55.34C15.6916 55.34 15.02 56.0116 15.02 56.84H16.52ZM18.36 56.72L18.1261 55.2384H18.1261L18.36 56.72ZM19.56 56.28L20.4423 57.4931C20.4653 57.4764 20.4878 57.459 20.5099 57.4409L19.56 56.28ZM20.2 55.28L21.6317 55.7274C21.6342 55.7194 21.6367 55.7113 21.639 55.7033L20.2 55.28ZM20.4 28.6V27.1C19.5716 27.1 18.9 27.7716 18.9 28.6H20.4ZM27.56 28.6H29.06C29.06 27.7716 28.3884 27.1 27.56 27.1V28.6ZM26.88 58.32L25.4768 57.7899C25.4746 57.7957 25.4724 57.8015 25.4703 57.8074L26.88 58.32ZM24.6 60.96L23.8908 59.6383H23.8908L24.6 60.96ZM18.02 61.84V56.84H15.02V61.84H18.02ZM16.52 58.34C17.2897 58.34 17.986 58.2976 18.5939 58.2016L18.1261 55.2384C17.7207 55.3024 17.1903 55.34 16.52 55.34V58.34ZM18.5939 58.2016C19.2439 58.099 19.8944 57.8916 20.4423 57.4931L18.6777 55.0669C18.639 55.0951 18.4894 55.181 18.1261 55.2384L18.5939 58.2016ZM20.5099 57.4409C21.0683 56.984 21.4269 56.3827 21.6317 55.7274L18.7683 54.8326C18.7064 55.0306 18.6384 55.096 18.6101 55.1191L20.5099 57.4409ZM21.639 55.7033C21.8269 55.0646 21.9 54.3363 21.9 53.56H18.9C18.9 54.1704 18.8398 54.5887 18.761 54.8568L21.639 55.7033ZM21.9 53.56V28.6H18.9V53.56H21.9ZM20.4 30.1H27.56V27.1H20.4V30.1ZM26.06 28.6V53.88H29.06V28.6H26.06ZM26.06 53.88C26.06 55.5217 25.8472 56.8095 25.4768 57.7899L28.2832 58.8501C28.8195 57.4305 29.06 55.7583 29.06 53.88H26.06ZM25.4703 57.8074C25.1688 58.6364 24.6568 59.2272 23.8908 59.6383L25.3092 62.2817C26.7298 61.5195 27.7378 60.3502 28.2897 58.8326L25.4703 57.8074ZM23.8908 59.6383C23.1076 60.0585 21.8572 60.34 20 60.34V63.34C22.0895 63.34 23.9057 63.0348 25.3092 62.2817L23.8908 59.6383ZM20 60.34H16.52V63.34H20V60.34Z" fill="black"/>
<path d="M33.215 91.4776V91.469C33.215 90.8348 33.7505 90.4198 34.2866 90.4198C34.7969 90.4198 35.3033 90.7949 35.3537 91.3738C35.5385 92.2674 35.9563 93.1068 36.5756 93.8218C38.6646 96.2201 42.4699 96.5972 45.0547 94.6295C47.611 92.6831 47.9811 89.1982 45.9199 86.8309L45.9191 86.8299C43.8312 84.4232 40.027 84.0497 37.442 86.0179L37.4264 86.0298L37.4101 86.0409C37.0413 86.2923 36.5476 86.2945 36.1764 86.0392L36.1759 86.0388C35.68 85.6972 35.5693 85.0077 35.9513 84.5305L36.0522 84.4045L36.196 84.3312C37.3229 83.7565 38.2408 82.8939 38.8469 81.8552C40.5696 78.8908 39.4234 75.1548 36.1967 73.5133L36.1959 73.5129C32.9437 71.8538 28.8963 72.9972 27.1543 75.9887C25.4317 78.9476 26.5762 82.6845 29.805 84.3312L29.9509 84.4056L30.0525 84.5341C30.3535 84.9147 30.3535 85.4469 30.0525 85.8275L30.0475 85.8338L30.0475 85.8338C29.6804 86.2879 29.0343 86.3472 28.5873 86.0381L28.5736 86.0286L28.5603 86.0186C27.7798 85.426 26.848 85.0217 25.8491 84.8455C22.5421 84.2756 19.4389 86.3302 18.849 89.3233L33.215 91.4776ZM33.215 91.4776L33.2152 91.4861C33.2969 95.0765 33.7469 97.0652 34.4037 98.5609C34.7285 99.3006 35.0956 99.8997 35.4525 100.476L35.4949 100.544C35.6398 100.778 35.7833 101.009 35.9254 101.25M33.215 91.4776L35.9254 101.25M35.9254 101.25H30.0753C30.2173 101.01 30.3608 100.778 30.5057 100.544C30.5199 100.522 30.5341 100.499 30.5483 100.476C30.9052 99.8997 31.2724 99.3006 31.5972 98.5609C32.2541 97.0652 32.704 95.0765 32.7858 91.4861L32.786 91.4776V91.469C32.786 90.8348 32.2505 90.4198 31.7144 90.4198C31.2029 90.4198 30.6977 90.7954 30.6473 91.3737C30.033 94.34 26.9455 96.3689 23.6566 95.8018C20.358 95.2281 18.263 92.2993 18.849 89.3234L35.9254 101.25ZM33.8578 91.469V91.4715C33.8578 91.4707 33.8578 91.4698 33.8578 91.469ZM32.1432 91.469C32.1432 91.4698 32.1432 91.4707 32.1432 91.4715V91.469Z" fill="black" fill-opacity="0.8" stroke="black" stroke-width="1.5"/>
<path d="M80.4373 147.13V147.138L80.4375 147.147C80.6213 155.217 81.6313 159.588 83.0516 162.823C83.7582 164.432 84.5579 165.739 85.3665 167.045C85.4004 167.099 85.4342 167.154 85.468 167.208C86.063 168.168 86.6627 169.136 87.2548 170.25H70.7465C71.3386 169.136 71.9383 168.169 72.5332 167.209C72.5672 167.154 72.6012 167.099 72.6352 167.045C73.444 165.739 74.2439 164.432 74.9505 162.823C76.371 159.588 77.381 155.217 77.5648 147.147L77.565 147.138V147.13C77.565 146.284 76.8466 145.702 76.0859 145.702C75.3482 145.702 74.6575 146.247 74.6105 147.043C73.135 154.353 65.5899 159.255 57.6585 157.887C49.7154 156.505 44.5498 149.407 45.9923 142.083C47.4393 134.74 55.0026 129.809 62.9545 131.181C65.3638 131.605 67.6176 132.581 69.5111 134.019L69.5244 134.029L69.5381 134.038C70.1648 134.472 71.0662 134.381 71.5688 133.759L71.5689 133.759L71.5739 133.753C71.9829 133.236 71.9829 132.517 71.5738 132L71.4722 131.871L71.3263 131.797C63.5536 127.833 60.7321 118.771 64.9287 111.563C69.1455 104.322 78.881 101.606 86.6758 105.583L86.6766 105.583C94.4465 109.536 97.2704 118.596 93.0739 125.817C91.6049 128.334 89.3866 130.415 86.6759 131.797L86.5321 131.87L86.4312 131.996C85.9149 132.641 86.0614 133.573 86.7377 134.039L86.7382 134.039C87.254 134.394 87.9465 134.392 88.4612 134.041L88.4775 134.03L88.4931 134.018C94.7419 129.26 103.932 130.149 109.001 135.992L109.002 135.993C114.043 141.784 113.119 150.313 106.899 155.049C100.65 159.807 91.4579 158.908 86.3876 153.086C84.8658 151.329 83.8379 149.257 83.3918 147.043C83.3447 146.246 82.6522 145.702 81.9164 145.702C81.1557 145.702 80.4373 146.284 80.4373 147.13Z" fill="black" fill-opacity="0.8" stroke="black" stroke-width="1.5"/>
<defs>
<filter id="filter0_dd_350_2808" x="2" y="14" width="128" height="184" filterUnits="userSpaceOnUse" color-interpolation-filters="sRGB">
<feFlood flood-opacity="0" result="BackgroundImageFix"/>
<feColorMatrix in="SourceAlpha" type="matrix" values="0 0 0 0 0 0 0 0 0 0 0 0 0 0 0 0 0 0 127 0" result="hardAlpha"/>
<feOffset dy="6"/>
<feGaussianBlur stdDeviation="4"/>
<feColorMatrix type="matrix" values="0 0 0 0 0 0 0 0 0 0 0 0 0 0 0 0 0 0 0.15 0"/>
<feBlend mode="normal" in2="BackgroundImageFix" result="effect1_dropShadow_350_2808"/>
<feColorMatrix in="SourceAlpha" type="matrix" values="0 0 0 0 0 0 0 0 0 0 0 0 0 0 0 0 0 0 127 0" result="hardAlpha"/>
<feOffset dy="4"/>
<feGaussianBlur stdDeviation="2"/>
<feColorMatrix type="matrix" values="0 0 0 0 0 0 0 0 0 0 0 0 0 0 0 0 0 0 0.25 0"/>
<feBlend mode="normal" in2="effect1_dropShadow_350_2808" result="effect2_dropShadow_350_2808"/>
<feBlend mode="normal" in="SourceGraphic" in2="effect2_dropShadow_350_2808" result="shape"/>
</filter>
</defs>
</svg>
