<svg width="132" height="200" viewBox="0 0 132 200" fill="none" xmlns="http://www.w3.org/2000/svg">
<g filter="url(#filter0_dd_350_2478)">
<rect x="10" y="16" width="112" height="168" rx="12" fill="#F1F5F9"/>
</g>
<path d="M35.914 100.541C36.0822 100.774 36.2497 101.006 36.4161 101.25H29.5837C29.7501 101.006 29.9177 100.774 30.0858 100.541C30.1009 100.52 30.116 100.499 30.1311 100.479C30.5149 99.9481 30.9115 99.3999 31.2577 98.7546C31.9969 97.3765 32.4682 95.6321 32.4682 92.5501C32.4682 91.8377 31.8221 91.5 31.352 91.5C30.8812 91.5 30.2359 91.8382 30.2359 92.5501C30.2359 94.4882 28.2592 96.3 25.4928 96.3C22.7266 96.3 20.75 94.4882 20.75 92.5501C20.75 88.5726 22.9109 85.4931 25.6865 82.3805C26.2614 81.7358 26.8655 81.0876 27.4787 80.4298C29.4489 78.3163 31.5123 76.1026 33 73.5791C34.4876 76.1027 36.5511 78.3164 38.5213 80.43C39.1345 81.0878 39.7385 81.7358 40.3134 82.3805C43.089 85.4931 45.25 88.5726 45.25 92.5501C45.25 94.4882 43.2732 96.3 40.5069 96.3C37.7407 96.3 35.7641 94.4882 35.7641 92.5501C35.7641 91.8377 35.1179 91.5 34.6478 91.5C34.1777 91.5 33.5315 91.8377 33.5315 92.5501C33.5315 95.6322 34.003 97.3765 34.7422 98.7546C35.0883 99.3998 35.4849 99.948 35.8686 100.478C35.8838 100.499 35.8989 100.52 35.914 100.541Z" fill="black" fill-opacity="0.8" stroke="black" stroke-width="1.5"/>
<path d="M70.7441 115.238C73.8662 111.909 76.7713 108.406 79 104.547C81.2285 108.406 84.1336 111.909 87.2557 115.238C89.2048 117.316 91.2803 119.368 93.3326 121.398C94.8695 122.917 96.3933 124.424 97.8414 125.919C104.704 133.006 110.25 140.211 110.25 149.58C110.25 152.11 108.893 154.455 106.588 156.194C104.283 157.933 101.065 159.03 97.4786 159.03C93.8924 159.03 90.6744 157.933 88.3695 156.194C86.065 154.455 84.7078 152.11 84.7078 149.58C84.7078 149.105 84.4507 148.731 84.1455 148.501C83.8405 148.271 83.4529 148.15 83.0561 148.15C82.6594 148.15 82.2718 148.271 81.9668 148.501C81.6616 148.731 81.4045 149.105 81.4045 149.58C81.4045 156.471 82.5482 160.267 84.2672 163.218C85.0862 164.624 86.0263 165.82 86.9786 167.032L87.0791 167.16C87.8335 168.121 88.6013 169.106 89.3599 170.25H68.6396C69.3983 169.106 70.1662 168.121 70.9206 167.16L71.0207 167.033C71.9732 165.82 72.9134 164.624 73.7324 163.218C75.4513 160.267 76.5949 156.471 76.5949 149.58C76.5949 149.105 76.3379 148.731 76.0326 148.501C75.7277 148.271 75.3401 148.15 74.9433 148.15C74.5465 148.15 74.1589 148.271 73.854 148.501C73.5488 148.731 73.2922 149.106 73.2922 149.58C73.2922 152.11 71.9349 154.455 69.6302 156.194C67.3252 157.933 64.107 159.03 60.5208 159.03C56.9346 159.03 53.7166 157.933 51.4117 156.194C49.1073 154.455 47.75 152.11 47.75 149.58C47.75 140.211 53.2956 133.006 60.1584 125.919C61.6066 124.424 63.1306 122.917 64.6676 121.397C66.7198 119.368 68.7951 117.316 70.7441 115.238Z" fill="black" fill-opacity="0.8" stroke="black" stroke-width="1.5"/>
<path d="M32.9717 61V53.72H23.0117V48.8L31.4517 28.6H39.2117V48.76H42.2117V53.72H39.2117V61H32.9717ZM28.0917 48.76H32.9717V35.28L28.0917 48.76Z" fill="black" fill-opacity="0.8"/>
<path d="M32.9717 61H31.4717C31.4717 61.8284 32.1433 62.5 32.9717 62.5V61ZM32.9717 53.72H34.4717C34.4717 52.8916 33.8001 52.22 32.9717 52.22V53.72ZM23.0117 53.72H21.5117C21.5117 54.5484 22.1833 55.22 23.0117 55.22V53.72ZM23.0117 48.8L21.6277 48.2217C21.5511 48.4049 21.5117 48.6015 21.5117 48.8H23.0117ZM31.4517 28.6V27.1C30.8467 27.1 30.3009 27.4635 30.0677 28.0217L31.4517 28.6ZM39.2117 28.6H40.7117C40.7117 27.7716 40.0401 27.1 39.2117 27.1V28.6ZM39.2117 48.76H37.7117C37.7117 49.5884 38.3833 50.26 39.2117 50.26V48.76ZM42.2117 48.76H43.7117C43.7117 47.9316 43.0401 47.26 42.2117 47.26V48.76ZM42.2117 53.72V55.22C43.0401 55.22 43.7117 54.5484 43.7117 53.72H42.2117ZM39.2117 53.72V52.22C38.3833 52.22 37.7117 52.8916 37.7117 53.72H39.2117ZM39.2117 61V62.5C40.0401 62.5 40.7117 61.8284 40.7117 61H39.2117ZM28.0917 48.76L26.6813 48.2494C26.5149 48.7091 26.5829 49.2211 26.8637 49.6214C27.1445 50.0217 27.6028 50.26 28.0917 50.26V48.76ZM32.9717 48.76V50.26C33.8001 50.26 34.4717 49.5884 34.4717 48.76H32.9717ZM32.9717 35.28H34.4717C34.4717 34.5516 33.9484 33.9284 33.2309 33.8026C32.5134 33.6767 31.8093 34.0845 31.5613 34.7694L32.9717 35.28ZM34.4717 61V53.72H31.4717V61H34.4717ZM32.9717 52.22H23.0117V55.22H32.9717V52.22ZM24.5117 53.72V48.8H21.5117V53.72H24.5117ZM24.3958 49.3783L32.8358 29.1783L30.0677 28.0217L21.6277 48.2217L24.3958 49.3783ZM31.4517 30.1H39.2117V27.1H31.4517V30.1ZM37.7117 28.6V48.76H40.7117V28.6H37.7117ZM39.2117 50.26H42.2117V47.26H39.2117V50.26ZM40.7117 48.76V53.72H43.7117V48.76H40.7117ZM42.2117 52.22H39.2117V55.22H42.2117V52.22ZM37.7117 53.72V61H40.7117V53.72H37.7117ZM39.2117 59.5H32.9717V62.5H39.2117V59.5ZM28.0917 50.26H32.9717V47.26H28.0917V50.26ZM34.4717 48.76V35.28H31.4717V48.76H34.4717ZM31.5613 34.7694L26.6813 48.2494L29.5021 49.2706L34.3821 35.7906L31.5613 34.7694Z" fill="black"/>
<defs>
<filter id="filter0_dd_350_2478" x="2" y="14" width="128" height="184" filterUnits="userSpaceOnUse" color-interpolation-filters="sRGB">
<feFlood flood-opacity="0" result="BackgroundImageFix"/>
<feColorMatrix in="SourceAlpha" type="matrix" values="0 0 0 0 0 0 0 0 0 0 0 0 0 0 0 0 0 0 127 0" result="hardAlpha"/>
<feOffset dy="6"/>
<feGaussianBlur stdDeviation="4"/>
<feColorMatrix type="matrix" values="0 0 0 0 0 0 0 0 0 0 0 0 0 0 0 0 0 0 0.15 0"/>
<feBlend mode="normal" in2="BackgroundImageFix" result="effect1_dropShadow_350_2478"/>
<feColorMatrix in="SourceAlpha" type="matrix" values="0 0 0 0 0 0 0 0 0 0 0 0 0 0 0 0 0 0 127 0" result="hardAlpha"/>
<feOffset dy="4"/>
<feGaussianBlur stdDeviation="2"/>
<feColorMatrix type="matrix" values="0 0 0 0 0 0 0 0 0 0 0 0 0 0 0 0 0 0 0.25 0"/>
<feBlend mode="normal" in2="effect1_dropShadow_350_2478" result="effect2_dropShadow_350_2478"/>
<feBlend mode="normal" in="SourceGraphic" in2="effect2_dropShadow_350_2478" result="shape"/>
</filter>
</defs>
</svg>
