<svg width="132" height="200" viewBox="0 0 132 200" fill="none" xmlns="http://www.w3.org/2000/svg">
<g filter="url(#filter0_dd_350_2388)">
<rect x="10" y="16" width="112" height="168" rx="12" fill="#F1F5F9"/>
</g>
<path d="M22.3244 61L28.4444 28.6H36.6044L42.6444 61H36.0444L34.9644 54.16H30.2044L29.0844 61H22.3244ZM30.8444 49.88H34.2844L32.5644 37.24L30.8444 49.88Z" fill="#FF191A"/>
<path d="M22.3244 61L20.8504 60.7216C20.7676 61.1604 20.8845 61.6133 21.1695 61.9572C21.4544 62.301 21.8778 62.5 22.3244 62.5V61ZM28.4444 28.6V27.1C27.7233 27.1 27.1043 27.6131 26.9704 28.3216L28.4444 28.6ZM36.6044 28.6L38.079 28.3251C37.9466 27.6149 37.3268 27.1 36.6044 27.1V28.6ZM42.6444 61V62.5C43.0903 62.5 43.5132 62.3016 43.7981 61.9586C44.0831 61.6155 44.2007 61.1635 44.119 60.7251L42.6444 61ZM36.0444 61L34.5627 61.2339C34.6778 61.963 35.3063 62.5 36.0444 62.5V61ZM34.9644 54.16L36.446 53.9261C36.3309 53.197 35.7025 52.66 34.9644 52.66V54.16ZM30.2044 54.16V52.66C29.4695 52.66 28.8428 53.1924 28.7241 53.9176L30.2044 54.16ZM29.0844 61V62.5C29.8192 62.5 30.4459 61.9676 30.5647 61.2424L29.0844 61ZM30.8444 49.88L29.3581 49.6777C29.2997 50.1069 29.4296 50.5403 29.7145 50.8666C29.9993 51.1928 30.4113 51.38 30.8444 51.38V49.88ZM34.2844 49.88V51.38C34.7175 51.38 35.1294 51.1928 35.4143 50.8666C35.6991 50.5403 35.8291 50.1069 35.7707 49.6777L34.2844 49.88ZM32.5644 37.24L34.0507 37.0377C33.9495 36.2943 33.3146 35.74 32.5644 35.74C31.8141 35.74 31.1792 36.2943 31.0781 37.0377L32.5644 37.24ZM23.7983 61.2784L29.9183 28.8784L26.9704 28.3216L20.8504 60.7216L23.7983 61.2784ZM28.4444 30.1H36.6044V27.1H28.4444V30.1ZM35.1298 28.8749L41.1698 61.2749L44.119 60.7251L38.079 28.3251L35.1298 28.8749ZM42.6444 59.5H36.0444V62.5H42.6444V59.5ZM37.526 60.7661L36.446 53.9261L33.4827 54.3939L34.5627 61.2339L37.526 60.7661ZM34.9644 52.66H30.2044V55.66H34.9644V52.66ZM28.7241 53.9176L27.6041 60.7576L30.5647 61.2424L31.6847 54.4024L28.7241 53.9176ZM29.0844 59.5H22.3244V62.5H29.0844V59.5ZM30.8444 51.38H34.2844V48.38H30.8444V51.38ZM35.7707 49.6777L34.0507 37.0377L31.0781 37.4422L32.7981 50.0822L35.7707 49.6777ZM31.0781 37.0377L29.3581 49.6777L32.3307 50.0822L34.0507 37.4422L31.0781 37.0377Z" fill="#DF191A"/>
<path d="M33.0003 73.7031C33.316 74.1973 33.7261 74.7824 34.1999 75.4233C35.3051 76.9183 36.7895 78.7609 38.3209 80.5516C39.8516 82.3417 41.4401 84.0925 42.7542 85.4009C43.4077 86.0515 44.0061 86.6056 44.5032 87.0024C44.0061 87.3993 43.4077 87.9533 42.7542 88.6039C41.4401 89.9122 39.8517 91.6628 38.3209 93.4526C36.7896 95.243 35.3052 97.0851 34.2 98.5794C33.7261 99.2201 33.316 99.8048 33.0003 100.299C32.6845 99.8048 32.2744 99.2201 31.8005 98.5794C30.6953 97.0851 29.2109 95.243 27.6795 93.4526C26.1487 91.6628 24.5603 89.9121 23.2461 88.6038C22.5925 87.9533 21.9941 87.3993 21.497 87.0024C21.9941 86.6056 22.5925 86.0515 23.2461 85.4009C24.5603 84.0925 26.1488 82.3417 27.6796 80.5516C29.2109 78.7609 30.6954 76.9183 31.8006 75.4233C32.2744 74.7824 32.6845 74.1973 33.0003 73.7031Z" fill="#FF191A" stroke="#DF191A" stroke-width="1.5" stroke-linejoin="round"/>
<path d="M79.0006 168.966C78.8648 168.718 78.7124 168.455 78.5453 168.178C77.8283 166.99 76.8087 165.497 75.5854 163.816C73.1367 160.452 69.8399 156.294 66.4336 152.248C63.0279 148.202 59.502 144.254 56.5942 141.313C55.142 139.844 53.8312 138.613 52.7592 137.744C52.4122 137.463 52.0835 137.214 51.7776 137.005C52.0835 136.797 52.4122 136.548 52.7592 136.267C53.8313 135.398 55.1421 134.167 56.5942 132.698C59.5021 129.756 63.0279 125.808 66.4337 121.762C69.8399 117.714 73.1368 113.556 75.5855 110.19C76.8088 108.509 77.8284 107.014 78.5454 105.825C78.7125 105.548 78.8648 105.285 79.0006 105.037C79.1363 105.285 79.2887 105.548 79.4557 105.825C80.1727 107.014 81.1923 108.509 82.4156 110.19C84.8643 113.556 88.1611 117.714 91.5673 121.762C94.973 125.808 98.4987 129.756 101.406 132.698C102.858 134.167 104.169 135.398 105.241 136.267C105.588 136.548 105.917 136.797 106.223 137.005C105.917 137.214 105.588 137.463 105.241 137.744C104.169 138.613 102.859 139.844 101.406 141.313C98.4988 144.254 94.973 148.202 91.5674 152.248C88.1612 156.294 84.8644 160.452 82.4157 163.816C81.1924 165.497 80.1728 166.99 79.4559 168.178C79.2888 168.455 79.1363 168.718 79.0006 168.966Z" fill="#FF191A" stroke="#DF191A" stroke-width="1.5" stroke-linejoin="round"/>
<defs>
<filter id="filter0_dd_350_2388" x="2" y="14" width="128" height="184" filterUnits="userSpaceOnUse" color-interpolation-filters="sRGB">
<feFlood flood-opacity="0" result="BackgroundImageFix"/>
<feColorMatrix in="SourceAlpha" type="matrix" values="0 0 0 0 0 0 0 0 0 0 0 0 0 0 0 0 0 0 127 0" result="hardAlpha"/>
<feOffset dy="6"/>
<feGaussianBlur stdDeviation="4"/>
<feColorMatrix type="matrix" values="0 0 0 0 0 0 0 0 0 0 0 0 0 0 0 0 0 0 0.15 0"/>
<feBlend mode="normal" in2="BackgroundImageFix" result="effect1_dropShadow_350_2388"/>
<feColorMatrix in="SourceAlpha" type="matrix" values="0 0 0 0 0 0 0 0 0 0 0 0 0 0 0 0 0 0 127 0" result="hardAlpha"/>
<feOffset dy="4"/>
<feGaussianBlur stdDeviation="2"/>
<feColorMatrix type="matrix" values="0 0 0 0 0 0 0 0 0 0 0 0 0 0 0 0 0 0 0.25 0"/>
<feBlend mode="normal" in2="effect1_dropShadow_350_2388" result="effect2_dropShadow_350_2388"/>
<feBlend mode="normal" in="SourceGraphic" in2="effect2_dropShadow_350_2388" result="shape"/>
</filter>
</defs>
</svg>
