<svg width="132" height="200" viewBox="0 0 132 200" fill="none" xmlns="http://www.w3.org/2000/svg">
<g filter="url(#filter0_dd_350_2428)">
<rect x="10" y="16" width="112" height="168" rx="12" fill="#F1F5F9"/>
</g>
<path d="M23.8666 61V56.28L31.6266 44.36C32.2132 43.48 32.7599 42.6267 33.2666 41.8C33.7999 40.9733 34.2266 40.1333 34.5466 39.28C34.8932 38.4267 35.0666 37.5333 35.0666 36.6C35.0666 35.6667 34.8799 34.9733 34.5066 34.52C34.1332 34.0667 33.6266 33.84 32.9866 33.84C32.2666 33.84 31.7066 34.04 31.3066 34.44C30.9066 34.84 30.6266 35.3733 30.4666 36.04C30.3332 36.7067 30.2666 37.4533 30.2666 38.28V39.88H23.7866V38.16C23.7866 36.24 24.0932 34.5333 24.7066 33.04C25.3199 31.52 26.2932 30.3333 27.6266 29.48C28.9599 28.6 30.7066 28.16 32.8666 28.16C35.7732 28.16 37.9599 28.92 39.4266 30.44C40.9199 31.9333 41.6666 34.0267 41.6666 36.72C41.6666 38.0267 41.4532 39.24 41.0266 40.36C40.6266 41.48 40.0799 42.5733 39.3866 43.64C38.7199 44.68 37.9999 45.7733 37.2266 46.92L31.3066 55.76H40.7866V61H23.8666Z" fill="#FF191A"/>
<path d="M23.8666 61H22.3666C22.3666 61.8284 23.0381 62.5 23.8666 62.5V61ZM23.8666 56.28L22.6095 55.4616C22.451 55.7051 22.3666 55.9894 22.3666 56.28H23.8666ZM31.6266 44.36L30.3785 43.528C30.3755 43.5325 30.3725 43.5371 30.3695 43.5416L31.6266 44.36ZM33.2666 41.8L32.0061 40.9868C31.9999 40.9965 31.9937 41.0063 31.9877 41.0162L33.2666 41.8ZM34.5466 39.28L33.1569 38.7154C33.1518 38.728 33.1468 38.7406 33.1421 38.7533L34.5466 39.28ZM34.5066 34.52L35.6645 33.5664L35.6645 33.5664L34.5066 34.52ZM30.4666 36.04L29.008 35.6899C29.0035 35.7085 28.9994 35.7271 28.9957 35.7458L30.4666 36.04ZM30.2666 39.88V41.38C31.095 41.38 31.7666 40.7084 31.7666 39.88H30.2666ZM23.7866 39.88H22.2866C22.2866 40.7084 22.9581 41.38 23.7866 41.38V39.88ZM24.7066 33.04L26.0941 33.6099L26.0976 33.6013L24.7066 33.04ZM27.6266 29.48L28.4351 30.7434C28.4411 30.7396 28.447 30.7358 28.4528 30.7319L27.6266 29.48ZM39.4266 30.44L38.3471 31.4816C38.3533 31.488 38.3596 31.4943 38.3659 31.5007L39.4266 30.44ZM41.0266 40.36L39.6248 39.826C39.6211 39.8358 39.6175 39.8456 39.614 39.8555L41.0266 40.36ZM39.3866 43.64L38.1289 42.8225L38.1237 42.8305L39.3866 43.64ZM37.2266 46.92L35.9829 46.0813L35.9802 46.0853L37.2266 46.92ZM31.3066 55.76L30.0602 54.9253C29.7521 55.3855 29.7225 55.9779 29.9833 56.4664C30.2441 56.9549 30.7528 57.26 31.3066 57.26V55.76ZM40.7866 55.76H42.2866C42.2866 54.9316 41.615 54.26 40.7866 54.26V55.76ZM40.7866 61V62.5C41.615 62.5 42.2866 61.8284 42.2866 61H40.7866ZM25.3666 61V56.28H22.3666V61H25.3666ZM25.1236 57.0984L32.8836 45.1784L30.3695 43.5416L22.6095 55.4616L25.1236 57.0984ZM32.8746 45.1921C33.4709 44.2976 34.028 43.4282 34.5455 42.5838L31.9877 41.0162C31.4918 41.8252 30.9555 42.6624 30.3785 43.528L32.8746 45.1921ZM34.527 42.6132C35.1139 41.7035 35.5906 40.768 35.9511 39.8067L33.1421 38.7533C32.8626 39.4987 32.4859 40.2431 32.0061 40.9868L34.527 42.6132ZM35.9363 39.8446C36.3568 38.8095 36.5666 37.7242 36.5666 36.6H33.5666C33.5666 37.3424 33.4297 38.0438 33.1569 38.7154L35.9363 39.8446ZM36.5666 36.6C36.5666 35.5113 36.3564 34.4066 35.6645 33.5664L33.3487 35.4736C33.4034 35.54 33.5666 35.822 33.5666 36.6H36.5666ZM35.6645 33.5664C34.9783 32.7332 34.029 32.34 32.9866 32.34V35.34C33.2241 35.34 33.2882 35.4001 33.3487 35.4736L35.6645 33.5664ZM32.9866 32.34C31.9827 32.34 30.9987 32.6266 30.2459 33.3793L32.3672 35.5007C32.4145 35.4534 32.5504 35.34 32.9866 35.34V32.34ZM30.2459 33.3793C29.6125 34.0128 29.2188 34.8115 29.008 35.6899L31.9251 36.3901C32.0343 35.9352 32.2007 35.6672 32.3672 35.5007L30.2459 33.3793ZM28.9957 35.7458C28.8394 36.5274 28.7666 37.3749 28.7666 38.28H31.7666C31.7666 37.5318 31.8271 36.8859 31.9374 36.3342L28.9957 35.7458ZM28.7666 38.28V39.88H31.7666V38.28H28.7666ZM30.2666 38.38H23.7866V41.38H30.2666V38.38ZM25.2866 39.88V38.16H22.2866V39.88H25.2866ZM25.2866 38.16C25.2866 36.3992 25.5677 34.8916 26.0941 33.6099L23.319 32.4701C22.6188 34.1751 22.2866 36.0808 22.2866 38.16H25.2866ZM26.0976 33.6013C26.5988 32.3592 27.3739 31.4226 28.4351 30.7434L26.818 28.2166C25.2126 29.244 24.041 30.6808 23.3155 32.4787L26.0976 33.6013ZM28.4528 30.7319C29.4686 30.0615 30.8996 29.66 32.8666 29.66V26.66C30.5136 26.66 28.4512 27.1385 26.8003 28.2281L28.4528 30.7319ZM32.8666 29.66C35.5234 29.66 37.2564 30.3511 38.3471 31.4816L40.506 29.3984C38.6634 27.4889 36.0231 26.66 32.8666 26.66V29.66ZM38.3659 31.5007C39.5059 32.6407 40.1666 34.3096 40.1666 36.72H43.1666C43.1666 33.7438 42.3339 31.226 40.4872 29.3793L38.3659 31.5007ZM40.1666 36.72C40.1666 37.8607 39.9809 38.8913 39.6248 39.826L42.4283 40.894C42.9256 39.5887 43.1666 38.1927 43.1666 36.72H40.1666ZM39.614 39.8555C39.2559 40.8581 38.763 41.847 38.1289 42.8225L40.6442 44.4575C41.3968 43.2997 41.9973 42.1019 42.4392 40.8645L39.614 39.8555ZM38.1237 42.8305C37.4641 43.8596 36.7505 44.9432 35.983 46.0813L38.4702 47.7587C39.2493 46.6035 39.9757 45.5004 40.6494 44.4495L38.1237 42.8305ZM35.9802 46.0853L30.0602 54.9253L32.5529 56.5947L38.4729 47.7547L35.9802 46.0853ZM31.3066 57.26H40.7866V54.26H31.3066V57.26ZM39.2866 55.76V61H42.2866V55.76H39.2866ZM40.7866 59.5H23.8666V62.5H40.7866V59.5Z" fill="#DF191A"/>
<path d="M33.0003 73.7031C33.316 74.1973 33.7261 74.7824 34.1999 75.4233C35.3051 76.9183 36.7895 78.7609 38.3209 80.5516C39.8516 82.3417 41.4401 84.0925 42.7542 85.4009C43.4077 86.0515 44.0061 86.6056 44.5032 87.0024C44.0061 87.3993 43.4077 87.9533 42.7542 88.6039C41.4401 89.9122 39.8517 91.6628 38.3209 93.4526C36.7896 95.243 35.3052 97.0851 34.2 98.5794C33.7261 99.2201 33.316 99.8048 33.0003 100.299C32.6845 99.8048 32.2744 99.2201 31.8005 98.5794C30.6953 97.0851 29.2109 95.243 27.6795 93.4526C26.1487 91.6628 24.5603 89.9121 23.2461 88.6038C22.5925 87.9533 21.9941 87.3993 21.497 87.0024C21.9941 86.6056 22.5925 86.0515 23.2461 85.4009C24.5603 84.0925 26.1488 82.3417 27.6796 80.5516C29.2109 78.7609 30.6954 76.9183 31.8006 75.4233C32.2744 74.7824 32.6845 74.1973 33.0003 73.7031Z" fill="#FF191A" stroke="#DF191A" stroke-width="1.5" stroke-linejoin="round"/>
<path d="M79.0006 168.966C78.8648 168.718 78.7124 168.455 78.5453 168.178C77.8283 166.99 76.8087 165.497 75.5854 163.816C73.1367 160.452 69.8399 156.294 66.4336 152.248C63.0279 148.202 59.502 144.254 56.5942 141.313C55.142 139.844 53.8312 138.613 52.7592 137.744C52.4122 137.463 52.0835 137.214 51.7776 137.005C52.0835 136.797 52.4122 136.548 52.7592 136.267C53.8313 135.398 55.1421 134.167 56.5942 132.698C59.5021 129.756 63.0279 125.808 66.4337 121.762C69.8399 117.714 73.1368 113.556 75.5855 110.19C76.8088 108.509 77.8284 107.014 78.5454 105.825C78.7125 105.548 78.8648 105.285 79.0006 105.037C79.1363 105.285 79.2887 105.548 79.4557 105.825C80.1727 107.014 81.1923 108.509 82.4156 110.19C84.8643 113.556 88.1611 117.714 91.5673 121.762C94.973 125.808 98.4987 129.756 101.406 132.698C102.858 134.167 104.169 135.398 105.241 136.267C105.588 136.548 105.917 136.797 106.223 137.005C105.917 137.214 105.588 137.463 105.241 137.744C104.169 138.613 102.859 139.844 101.406 141.313C98.4988 144.254 94.973 148.202 91.5674 152.248C88.1612 156.294 84.8644 160.452 82.4157 163.816C81.1924 165.497 80.1728 166.99 79.4559 168.178C79.2888 168.455 79.1363 168.718 79.0006 168.966Z" fill="#FF191A" stroke="#DF191A" stroke-width="1.5" stroke-linejoin="round"/>
<defs>
<filter id="filter0_dd_350_2428" x="2" y="14" width="128" height="184" filterUnits="userSpaceOnUse" color-interpolation-filters="sRGB">
<feFlood flood-opacity="0" result="BackgroundImageFix"/>
<feColorMatrix in="SourceAlpha" type="matrix" values="0 0 0 0 0 0 0 0 0 0 0 0 0 0 0 0 0 0 127 0" result="hardAlpha"/>
<feOffset dy="6"/>
<feGaussianBlur stdDeviation="4"/>
<feColorMatrix type="matrix" values="0 0 0 0 0 0 0 0 0 0 0 0 0 0 0 0 0 0 0.15 0"/>
<feBlend mode="normal" in2="BackgroundImageFix" result="effect1_dropShadow_350_2428"/>
<feColorMatrix in="SourceAlpha" type="matrix" values="0 0 0 0 0 0 0 0 0 0 0 0 0 0 0 0 0 0 127 0" result="hardAlpha"/>
<feOffset dy="4"/>
<feGaussianBlur stdDeviation="2"/>
<feColorMatrix type="matrix" values="0 0 0 0 0 0 0 0 0 0 0 0 0 0 0 0 0 0 0.25 0"/>
<feBlend mode="normal" in2="effect1_dropShadow_350_2428" result="effect2_dropShadow_350_2428"/>
<feBlend mode="normal" in="SourceGraphic" in2="effect2_dropShadow_350_2428" result="shape"/>
</filter>
</defs>
</svg>
