<svg width="132" height="200" viewBox="0 0 132 200" fill="none" xmlns="http://www.w3.org/2000/svg">
<g filter="url(#filter0_dd_350_2508)">
<rect x="10" y="16" width="112" height="168" rx="12" fill="#F1F5F9"/>
</g>
<path d="M32.9717 61V53.72H23.0117V48.8L31.4517 28.6H39.2117V48.76H42.2117V53.72H39.2117V61H32.9717ZM28.0917 48.76H32.9717V35.28L28.0917 48.76Z" fill="#FF191A"/>
<path d="M32.9717 61H31.4717C31.4717 61.8284 32.1433 62.5 32.9717 62.5V61ZM32.9717 53.72H34.4717C34.4717 52.8916 33.8001 52.22 32.9717 52.22V53.72ZM23.0117 53.72H21.5117C21.5117 54.5484 22.1833 55.22 23.0117 55.22V53.72ZM23.0117 48.8L21.6277 48.2217C21.5511 48.4049 21.5117 48.6015 21.5117 48.8H23.0117ZM31.4517 28.6V27.1C30.8467 27.1 30.3009 27.4635 30.0677 28.0217L31.4517 28.6ZM39.2117 28.6H40.7117C40.7117 27.7716 40.0401 27.1 39.2117 27.1V28.6ZM39.2117 48.76H37.7117C37.7117 49.5884 38.3833 50.26 39.2117 50.26V48.76ZM42.2117 48.76H43.7117C43.7117 47.9316 43.0401 47.26 42.2117 47.26V48.76ZM42.2117 53.72V55.22C43.0401 55.22 43.7117 54.5484 43.7117 53.72H42.2117ZM39.2117 53.72V52.22C38.3833 52.22 37.7117 52.8916 37.7117 53.72H39.2117ZM39.2117 61V62.5C40.0401 62.5 40.7117 61.8284 40.7117 61H39.2117ZM28.0917 48.76L26.6813 48.2494C26.5149 48.7091 26.5829 49.2211 26.8637 49.6214C27.1445 50.0217 27.6028 50.26 28.0917 50.26V48.76ZM32.9717 48.76V50.26C33.8001 50.26 34.4717 49.5884 34.4717 48.76H32.9717ZM32.9717 35.28H34.4717C34.4717 34.5516 33.9484 33.9284 33.2309 33.8026C32.5134 33.6767 31.8093 34.0845 31.5613 34.7694L32.9717 35.28ZM34.4717 61V53.72H31.4717V61H34.4717ZM32.9717 52.22H23.0117V55.22H32.9717V52.22ZM24.5117 53.72V48.8H21.5117V53.72H24.5117ZM24.3958 49.3783L32.8358 29.1783L30.0677 28.0217L21.6277 48.2217L24.3958 49.3783ZM31.4517 30.1H39.2117V27.1H31.4517V30.1ZM37.7117 28.6V48.76H40.7117V28.6H37.7117ZM39.2117 50.26H42.2117V47.26H39.2117V50.26ZM40.7117 48.76V53.72H43.7117V48.76H40.7117ZM42.2117 52.22H39.2117V55.22H42.2117V52.22ZM37.7117 53.72V61H40.7117V53.72H37.7117ZM39.2117 59.5H32.9717V62.5H39.2117V59.5ZM28.0917 50.26H32.9717V47.26H28.0917V50.26ZM34.4717 48.76V35.28H31.4717V48.76H34.4717ZM31.5613 34.7694L26.6813 48.2494L29.5021 49.2706L34.3821 35.7906L31.5613 34.7694Z" fill="#DF191A"/>
<path d="M33.0003 73.7031C33.316 74.1973 33.7261 74.7824 34.1999 75.4233C35.3051 76.9183 36.7895 78.7609 38.3209 80.5516C39.8516 82.3417 41.4401 84.0925 42.7542 85.4009C43.4077 86.0515 44.0061 86.6056 44.5032 87.0024C44.0061 87.3993 43.4077 87.9533 42.7542 88.6039C41.4401 89.9122 39.8517 91.6628 38.3209 93.4526C36.7896 95.243 35.3052 97.0851 34.2 98.5794C33.7261 99.2201 33.316 99.8048 33.0003 100.299C32.6845 99.8048 32.2744 99.2201 31.8005 98.5794C30.6953 97.0851 29.2109 95.243 27.6795 93.4526C26.1487 91.6628 24.5603 89.9121 23.2461 88.6038C22.5925 87.9533 21.9941 87.3993 21.497 87.0024C21.9941 86.6056 22.5925 86.0515 23.2461 85.4009C24.5603 84.0925 26.1488 82.3417 27.6796 80.5516C29.2109 78.7609 30.6954 76.9183 31.8006 75.4233C32.2744 74.7824 32.6845 74.1973 33.0003 73.7031Z" fill="#FF191A" stroke="#DF191A" stroke-width="1.5" stroke-linejoin="round"/>
<path d="M79.0006 168.966C78.8648 168.718 78.7124 168.455 78.5453 168.178C77.8283 166.99 76.8087 165.497 75.5854 163.816C73.1367 160.452 69.8399 156.294 66.4336 152.248C63.0279 148.202 59.502 144.254 56.5942 141.313C55.142 139.844 53.8312 138.613 52.7592 137.744C52.4122 137.463 52.0835 137.214 51.7776 137.005C52.0835 136.797 52.4122 136.548 52.7592 136.267C53.8313 135.398 55.1421 134.167 56.5942 132.698C59.5021 129.756 63.0279 125.808 66.4337 121.762C69.8399 117.714 73.1368 113.556 75.5855 110.19C76.8088 108.509 77.8284 107.014 78.5454 105.825C78.7125 105.548 78.8648 105.285 79.0006 105.037C79.1363 105.285 79.2887 105.548 79.4557 105.825C80.1727 107.014 81.1923 108.509 82.4156 110.19C84.8643 113.556 88.1611 117.714 91.5673 121.762C94.973 125.808 98.4987 129.756 101.406 132.698C102.858 134.167 104.169 135.398 105.241 136.267C105.588 136.548 105.917 136.797 106.223 137.005C105.917 137.214 105.588 137.463 105.241 137.744C104.169 138.613 102.859 139.844 101.406 141.313C98.4988 144.254 94.973 148.202 91.5674 152.248C88.1612 156.294 84.8644 160.452 82.4157 163.816C81.1924 165.497 80.1728 166.99 79.4559 168.178C79.2888 168.455 79.1363 168.718 79.0006 168.966Z" fill="#FF191A" stroke="#DF191A" stroke-width="1.5" stroke-linejoin="round"/>
<defs>
<filter id="filter0_dd_350_2508" x="2" y="14" width="128" height="184" filterUnits="userSpaceOnUse" color-interpolation-filters="sRGB">
<feFlood flood-opacity="0" result="BackgroundImageFix"/>
<feColorMatrix in="SourceAlpha" type="matrix" values="0 0 0 0 0 0 0 0 0 0 0 0 0 0 0 0 0 0 127 0" result="hardAlpha"/>
<feOffset dy="6"/>
<feGaussianBlur stdDeviation="4"/>
<feColorMatrix type="matrix" values="0 0 0 0 0 0 0 0 0 0 0 0 0 0 0 0 0 0 0.15 0"/>
<feBlend mode="normal" in2="BackgroundImageFix" result="effect1_dropShadow_350_2508"/>
<feColorMatrix in="SourceAlpha" type="matrix" values="0 0 0 0 0 0 0 0 0 0 0 0 0 0 0 0 0 0 127 0" result="hardAlpha"/>
<feOffset dy="4"/>
<feGaussianBlur stdDeviation="2"/>
<feColorMatrix type="matrix" values="0 0 0 0 0 0 0 0 0 0 0 0 0 0 0 0 0 0 0.25 0"/>
<feBlend mode="normal" in2="effect1_dropShadow_350_2508" result="effect2_dropShadow_350_2508"/>
<feBlend mode="normal" in="SourceGraphic" in2="effect2_dropShadow_350_2508" result="shape"/>
</filter>
</defs>
</svg>
