<svg width="132" height="200" viewBox="0 0 132 200" fill="none" xmlns="http://www.w3.org/2000/svg">
<g filter="url(#filter0_dd_350_2628)">
<rect x="10" y="16" width="112" height="168" rx="12" fill="#F1F5F9"/>
</g>
<path d="M25.8109 61L32.8509 33.68H24.0109V28.6H39.3709V33.2L32.3309 61H25.8109Z" fill="#FF191A"/>
<path d="M25.8109 61L24.3584 60.6257C24.2427 61.0748 24.3412 61.5522 24.6253 61.9188C24.9094 62.2854 25.3471 62.5 25.8109 62.5V61ZM32.8509 33.68L34.3035 34.0543C34.4192 33.6052 34.3207 33.1278 34.0366 32.7612C33.7525 32.3946 33.3147 32.18 32.8509 32.18V33.68ZM24.0109 33.68H22.5109C22.5109 34.5084 23.1825 35.18 24.0109 35.18V33.68ZM24.0109 28.6V27.1C23.1825 27.1 22.5109 27.7716 22.5109 28.6H24.0109ZM39.3709 28.6H40.8709C40.8709 27.7716 40.1994 27.1 39.3709 27.1V28.6ZM39.3709 33.2L40.825 33.5682C40.8555 33.4479 40.8709 33.3242 40.8709 33.2H39.3709ZM32.3309 61V62.5C33.0175 62.5 33.6165 62.0338 33.785 61.3682L32.3309 61ZM27.2635 61.3743L34.3035 34.0543L31.3984 33.3057L24.3584 60.6257L27.2635 61.3743ZM32.8509 32.18H24.0109V35.18H32.8509V32.18ZM25.5109 33.68V28.6H22.5109V33.68H25.5109ZM24.0109 30.1H39.3709V27.1H24.0109V30.1ZM37.8709 28.6V33.2H40.8709V28.6H37.8709ZM37.9168 32.8318L30.8768 60.6318L33.785 61.3682L40.825 33.5682L37.9168 32.8318ZM32.3309 59.5H25.8109V62.5H32.3309V59.5Z" fill="#DF191A"/>
<path d="M33.0003 73.7031C33.316 74.1973 33.7261 74.7824 34.1999 75.4233C35.3051 76.9183 36.7895 78.7609 38.3209 80.5516C39.8516 82.3417 41.4401 84.0925 42.7542 85.4009C43.4077 86.0515 44.0061 86.6056 44.5032 87.0024C44.0061 87.3993 43.4077 87.9533 42.7542 88.6039C41.4401 89.9122 39.8517 91.6628 38.3209 93.4526C36.7896 95.243 35.3052 97.0851 34.2 98.5794C33.7261 99.2201 33.316 99.8048 33.0003 100.299C32.6845 99.8048 32.2744 99.2201 31.8005 98.5794C30.6953 97.0851 29.2109 95.243 27.6795 93.4526C26.1487 91.6628 24.5603 89.9121 23.2461 88.6038C22.5925 87.9533 21.9941 87.3993 21.497 87.0024C21.9941 86.6056 22.5925 86.0515 23.2461 85.4009C24.5603 84.0925 26.1488 82.3417 27.6796 80.5516C29.2109 78.7609 30.6954 76.9183 31.8006 75.4233C32.2744 74.7824 32.6845 74.1973 33.0003 73.7031Z" fill="#FF191A" stroke="#DF191A" stroke-width="1.5" stroke-linejoin="round"/>
<path d="M79.0006 168.966C78.8648 168.718 78.7124 168.455 78.5453 168.178C77.8283 166.99 76.8087 165.497 75.5854 163.816C73.1367 160.452 69.8399 156.294 66.4336 152.248C63.0279 148.202 59.502 144.254 56.5942 141.313C55.142 139.844 53.8312 138.613 52.7592 137.744C52.4122 137.463 52.0835 137.214 51.7776 137.005C52.0835 136.797 52.4122 136.548 52.7592 136.267C53.8313 135.398 55.1421 134.167 56.5942 132.698C59.5021 129.756 63.0279 125.808 66.4337 121.762C69.8399 117.714 73.1368 113.556 75.5855 110.19C76.8088 108.509 77.8284 107.014 78.5454 105.825C78.7125 105.548 78.8648 105.285 79.0006 105.037C79.1363 105.285 79.2887 105.548 79.4557 105.825C80.1727 107.014 81.1923 108.509 82.4156 110.19C84.8643 113.556 88.1611 117.714 91.5673 121.762C94.973 125.808 98.4987 129.756 101.406 132.698C102.858 134.167 104.169 135.398 105.241 136.267C105.588 136.548 105.917 136.797 106.223 137.005C105.917 137.214 105.588 137.463 105.241 137.744C104.169 138.613 102.859 139.844 101.406 141.313C98.4988 144.254 94.973 148.202 91.5674 152.248C88.1612 156.294 84.8644 160.452 82.4157 163.816C81.1924 165.497 80.1728 166.99 79.4559 168.178C79.2888 168.455 79.1363 168.718 79.0006 168.966Z" fill="#FF191A" stroke="#DF191A" stroke-width="1.5" stroke-linejoin="round"/>
<defs>
<filter id="filter0_dd_350_2628" x="2" y="14" width="128" height="184" filterUnits="userSpaceOnUse" color-interpolation-filters="sRGB">
<feFlood flood-opacity="0" result="BackgroundImageFix"/>
<feColorMatrix in="SourceAlpha" type="matrix" values="0 0 0 0 0 0 0 0 0 0 0 0 0 0 0 0 0 0 127 0" result="hardAlpha"/>
<feOffset dy="6"/>
<feGaussianBlur stdDeviation="4"/>
<feColorMatrix type="matrix" values="0 0 0 0 0 0 0 0 0 0 0 0 0 0 0 0 0 0 0.15 0"/>
<feBlend mode="normal" in2="BackgroundImageFix" result="effect1_dropShadow_350_2628"/>
<feColorMatrix in="SourceAlpha" type="matrix" values="0 0 0 0 0 0 0 0 0 0 0 0 0 0 0 0 0 0 127 0" result="hardAlpha"/>
<feOffset dy="4"/>
<feGaussianBlur stdDeviation="2"/>
<feColorMatrix type="matrix" values="0 0 0 0 0 0 0 0 0 0 0 0 0 0 0 0 0 0 0.25 0"/>
<feBlend mode="normal" in2="effect1_dropShadow_350_2628" result="effect2_dropShadow_350_2628"/>
<feBlend mode="normal" in="SourceGraphic" in2="effect2_dropShadow_350_2628" result="shape"/>
</filter>
</defs>
</svg>
