<svg width="132" height="200" viewBox="0 0 132 200" fill="none" xmlns="http://www.w3.org/2000/svg">
<g filter="url(#filter0_dd_350_2838)">
<rect x="10" y="16" width="112" height="168" rx="12" fill="#F1F5F9"/>
</g>
<path d="M19.32 61V35.2C19.0267 35.36 18.6933 35.52 18.32 35.68C17.9467 35.84 17.5467 36.0133 17.12 36.2C16.72 36.36 16.32 36.52 15.92 36.68C15.5467 36.84 15.2 37 14.88 37.16V32.2C15.1733 32.04 15.5867 31.8267 16.12 31.56C16.6533 31.2667 17.2267 30.9467 17.84 30.6C18.4533 30.2533 19.0267 29.9067 19.56 29.56C20.0933 29.1867 20.4933 28.8667 20.76 28.6H26V61H19.32ZM38.3469 61.6C36.4002 61.6 34.7735 61.2133 33.4669 60.44C32.1602 59.64 31.1735 58.5467 30.5069 57.16C29.8402 55.7733 29.5069 54.16 29.5069 52.32V37.64C29.5069 35.7467 29.8135 34.0933 30.4269 32.68C31.0669 31.24 32.0402 30.12 33.3469 29.32C34.6535 28.52 36.3202 28.12 38.3469 28.12C40.3735 28.12 42.0269 28.52 43.3069 29.32C44.6135 30.12 45.5735 31.24 46.1869 32.68C46.8269 34.0933 47.1469 35.7467 47.1469 37.64V52.32C47.1469 54.1333 46.8135 55.7467 46.1469 57.16C45.4802 58.5467 44.4935 59.64 43.1869 60.44C41.8802 61.2133 40.2669 61.6 38.3469 61.6ZM38.3469 55.64C38.9869 55.64 39.4402 55.44 39.7069 55.04C40.0002 54.6133 40.1735 54.1333 40.2269 53.6C40.3069 53.04 40.3469 52.56 40.3469 52.16V37.8C40.3469 37.3467 40.3202 36.84 40.2669 36.28C40.2135 35.6933 40.0402 35.1867 39.7469 34.76C39.4802 34.3067 39.0135 34.08 38.3469 34.08C37.6802 34.08 37.2002 34.3067 36.9069 34.76C36.6402 35.1867 36.4802 35.6933 36.4269 36.28C36.3735 36.84 36.3469 37.3467 36.3469 37.8V52.16C36.3469 52.56 36.3869 53.04 36.4669 53.6C36.5469 54.1333 36.7202 54.6133 36.9869 55.04C37.2802 55.44 37.7335 55.64 38.3469 55.64Z" fill="#FF191A"/>
<path d="M19.32 61H17.82C17.82 61.8284 18.4916 62.5 19.32 62.5V61ZM19.32 35.2H20.82C20.82 34.6706 20.5409 34.1804 20.0857 33.9102C19.6305 33.6399 19.0665 33.6296 18.6017 33.8832L19.32 35.2ZM18.32 35.68L18.9109 37.0587L18.9109 37.0587L18.32 35.68ZM17.12 36.2L17.6771 37.5927C17.6919 37.5868 17.7066 37.5806 17.7212 37.5742L17.12 36.2ZM15.92 36.68L15.3629 35.2873C15.3516 35.2918 15.3403 35.2965 15.3291 35.3013L15.92 36.68ZM14.88 37.16H13.38C13.38 37.6799 13.6492 38.1627 14.0914 38.436C14.5336 38.7093 15.0858 38.7341 15.5508 38.5016L14.88 37.16ZM14.88 32.2L14.1617 30.8832C13.6798 31.146 13.38 31.6511 13.38 32.2H14.88ZM16.12 31.56L16.7908 32.9016C16.8084 32.8929 16.8257 32.8838 16.8429 32.8743L16.12 31.56ZM17.84 30.6L17.1019 29.2942H17.1019L17.84 30.6ZM19.56 29.56L20.3775 30.8177C20.3919 30.8083 20.4061 30.7987 20.4202 30.7888L19.56 29.56ZM20.76 28.6V27.1C20.3622 27.1 19.9806 27.258 19.6993 27.5393L20.76 28.6ZM26 28.6H27.5C27.5 27.7716 26.8284 27.1 26 27.1V28.6ZM26 61V62.5C26.8284 62.5 27.5 61.8284 27.5 61H26ZM20.82 61V35.2H17.82V61H20.82ZM18.6017 33.8832C18.3575 34.0163 18.0679 34.1561 17.7291 34.3013L18.9109 37.0587C19.3188 36.8839 19.6958 36.7037 20.0383 36.5168L18.6017 33.8832ZM17.7291 34.3013C17.3519 34.463 16.9484 34.6378 16.5188 34.8258L17.7212 37.5742C18.1449 37.3889 18.5415 37.217 18.9109 37.0587L17.7291 34.3013ZM16.5629 34.8073C16.5582 34.8092 16.4927 34.8354 16.4879 34.8373C16.4832 34.8392 16.4177 34.8654 16.4129 34.8673C16.4082 34.8692 16.3427 34.8954 16.3379 34.8973C16.3332 34.8992 16.2677 34.9254 16.2629 34.9273C16.2582 34.9292 16.1927 34.9554 16.1879 34.9573C16.1832 34.9592 16.1177 34.9854 16.1129 34.9873C16.1082 34.9892 16.0427 35.0154 16.0379 35.0173C16.0332 35.0192 15.9677 35.0454 15.9629 35.0473C15.8963 35.0739 15.7295 35.1406 15.6629 35.1673C15.5963 35.1939 15.4295 35.2606 15.3629 35.2873L16.4771 38.0727C16.7015 37.9829 16.8526 37.9225 17.0771 37.8327C17.1342 37.8099 17.32 37.7356 17.3771 37.7127C17.4342 37.6899 17.62 37.6156 17.6771 37.5927L16.5629 34.8073ZM15.3291 35.3013C14.9323 35.4713 14.5587 35.6436 14.2092 35.8184L15.5508 38.5016C15.8413 38.3564 16.161 38.2087 16.5109 38.0587L15.3291 35.3013ZM16.38 37.16V32.2H13.38V37.16H16.38ZM15.5983 33.5168C15.8684 33.3695 16.2632 33.1655 16.7908 32.9016L15.4492 30.2184C14.9101 30.4879 14.4783 30.7105 14.1617 30.8832L15.5983 33.5168ZM16.8429 32.8743C17.382 32.5778 17.9605 32.2549 18.5781 31.9058L17.1019 29.2942C16.4929 29.6384 15.9247 29.9555 15.3971 30.2457L16.8429 32.8743ZM18.5781 31.9058C19.2156 31.5455 19.8156 31.1829 20.3775 30.8177L18.7425 28.3023C18.2377 28.6304 17.6911 28.9611 17.1019 29.2942L18.5781 31.9058ZM20.4202 30.7888C20.9817 30.3958 21.4635 30.0178 21.8207 29.6607L19.6993 27.5393C19.5232 27.7155 19.205 27.9775 18.6998 28.3312L20.4202 30.7888ZM20.76 30.1H26V27.1H20.76V30.1ZM24.5 28.6V61H27.5V28.6H24.5ZM26 59.5H19.32V62.5H26V59.5ZM33.4669 60.44L32.6836 61.7193C32.69 61.7232 32.6964 61.7271 32.7029 61.7309L33.4669 60.44ZM30.5069 57.16L31.8588 56.5101L30.5069 57.16ZM30.4269 32.68L29.0561 32.0708L29.0509 32.0829L30.4269 32.68ZM33.3469 29.32L32.5636 28.0407V28.0407L33.3469 29.32ZM43.3069 29.32L42.5118 30.5921L42.5236 30.5993L43.3069 29.32ZM46.1869 32.68L44.8068 33.2678C44.8113 33.2782 44.8158 33.2885 44.8204 33.2988L46.1869 32.68ZM46.1469 57.16L47.4988 57.81L47.5035 57.7999L46.1469 57.16ZM43.1869 60.44L43.9509 61.7309C43.9573 61.7271 43.9637 61.7232 43.9701 61.7193L43.1869 60.44ZM39.7069 55.04L38.4708 54.1902C38.4668 54.1961 38.4628 54.202 38.4588 54.208L39.7069 55.04ZM40.2269 53.6L38.742 53.3879C38.739 53.4088 38.7364 53.4297 38.7343 53.4507L40.2269 53.6ZM40.2669 36.28L38.773 36.4158L38.7736 36.4222L40.2669 36.28ZM39.7469 34.76L38.454 35.5205C38.4719 35.5509 38.4908 35.5807 38.5108 35.6098L39.7469 34.76ZM36.9069 34.76L35.6475 33.9451C35.6433 33.9517 35.639 33.9583 35.6349 33.965L36.9069 34.76ZM36.4269 36.28L37.9201 36.4222L37.9207 36.4158L36.4269 36.28ZM36.4669 53.6L34.9819 53.8121L34.9835 53.8225L36.4669 53.6ZM36.9869 55.04L35.7149 55.835C35.7345 55.8664 35.7553 55.8971 35.7773 55.927L36.9869 55.04ZM38.3469 60.1C36.5946 60.1 35.2496 59.7521 34.2309 59.1491L32.7029 61.7309C34.2975 62.6746 36.2059 63.1 38.3469 63.1V60.1ZM34.2501 59.1607C33.1907 58.5121 32.4009 57.6378 31.8588 56.5101L29.155 57.8099C29.9462 59.4556 31.1297 60.7679 32.6836 61.7193L34.2501 59.1607ZM31.8588 56.5101C31.3068 55.3621 31.0069 53.9785 31.0069 52.32H28.0069C28.0069 54.3415 28.3736 56.1846 29.155 57.8099L31.8588 56.5101ZM31.0069 52.32V37.64H28.0069V52.32H31.0069ZM31.0069 37.64C31.0069 35.9063 31.2878 34.4641 31.8029 33.2771L29.0509 32.0829C28.3393 33.7225 28.0069 35.587 28.0069 37.64H31.0069ZM31.7976 33.2892C32.3179 32.1185 33.0904 31.2358 34.1301 30.5993L32.5636 28.0407C30.99 29.0042 29.8158 30.3615 29.0562 32.0708L31.7976 33.2892ZM34.1301 30.5993C35.1365 29.9831 36.5097 29.62 38.3469 29.62V26.62C36.1307 26.62 34.1706 27.0569 32.5636 28.0407L34.1301 30.5993ZM38.3469 29.62C40.186 29.62 41.5388 29.9838 42.5119 30.592L44.1019 28.048C42.5149 27.0562 40.5611 26.62 38.3469 26.62V29.62ZM42.5236 30.5993C43.5583 31.2327 44.3129 32.1081 44.8068 33.2678L47.5669 32.0922C46.8342 30.3719 45.6688 29.0073 44.0901 28.0407L42.5236 30.5993ZM44.8204 33.2988C45.3552 34.4798 45.6469 35.9141 45.6469 37.64H48.6469C48.6469 35.5793 48.2985 33.7069 47.5533 32.0612L44.8204 33.2988ZM45.6469 37.64V52.32H48.6469V37.64H45.6469ZM45.6469 52.32C45.6469 53.9474 45.3485 55.3365 44.7902 56.5201L47.5035 57.7999C48.2786 56.1568 48.6469 54.3193 48.6469 52.32H45.6469ZM44.795 56.5101C44.2528 57.6378 43.4631 58.5121 42.4036 59.1607L43.9701 61.7193C45.524 60.7679 46.7076 59.4556 47.4988 57.8099L44.795 56.5101ZM42.4229 59.1491C41.4013 59.7538 40.0682 60.1 38.3469 60.1V63.1C40.4655 63.1 42.3592 62.6729 43.9509 61.7309L42.4229 59.1491ZM38.3469 57.14C39.3042 57.14 40.3214 56.8223 40.955 55.8721L38.4588 54.208C38.4701 54.191 38.4879 54.1699 38.5116 54.1502C38.535 54.1306 38.5541 54.1208 38.5614 54.1176C38.5725 54.1127 38.5167 54.14 38.3469 54.14V57.14ZM40.9429 55.8898C41.3845 55.2475 41.6419 54.5248 41.7194 53.7493L38.7343 53.4507C38.7052 53.7419 38.6159 53.9792 38.4708 54.1902L40.9429 55.8898ZM41.7118 53.8121C41.7981 53.2081 41.8469 52.6533 41.8469 52.16H38.8469C38.8469 52.4667 38.8157 52.8719 38.742 53.3879L41.7118 53.8121ZM41.8469 52.16V37.8H38.8469V52.16H41.8469ZM41.8469 37.8C41.8469 37.2895 41.8169 36.7343 41.7601 36.1378L38.7736 36.4222C38.8235 36.9457 38.8469 37.4038 38.8469 37.8H41.8469ZM41.7607 36.1442C41.6873 35.3372 41.4411 34.5766 40.9829 33.9102L38.5108 35.6098C38.6393 35.7967 38.7397 36.0495 38.773 36.4158L41.7607 36.1442ZM41.0398 33.9995C40.4296 32.9621 39.3808 32.58 38.3469 32.58V35.58C38.5157 35.58 38.5621 35.6092 38.5415 35.5993C38.5301 35.5937 38.5104 35.5818 38.4895 35.5624C38.4687 35.5431 38.4575 35.5265 38.454 35.5205L41.0398 33.9995ZM38.3469 32.58C37.3081 32.58 36.2841 32.9613 35.6475 33.9451L38.1662 35.5749C38.1683 35.5716 38.1642 35.5786 38.1524 35.589C38.1405 35.5994 38.1303 35.605 38.1274 35.6064C38.1226 35.6086 38.18 35.58 38.3469 35.58V32.58ZM35.6349 33.965C35.224 34.6224 35.004 35.3634 34.933 36.1442L37.9207 36.4158C37.9564 36.0233 38.0564 35.7509 38.1789 35.555L35.6349 33.965ZM34.9336 36.1378C34.8768 36.7343 34.8469 37.2895 34.8469 37.8H37.8469C37.8469 37.4038 37.8703 36.9457 37.9201 36.4222L34.9336 36.1378ZM34.8469 37.8V52.16H37.8469V37.8H34.8469ZM34.8469 52.16C34.8469 52.6533 34.8957 53.2081 34.982 53.8121L37.9518 53.3879C37.8781 52.8719 37.8469 52.4667 37.8469 52.16H34.8469ZM34.9835 53.8225C35.0917 54.5443 35.3316 55.2217 35.7149 55.835L38.2589 54.245C38.1088 54.0049 38.002 53.7223 37.9503 53.3775L34.9835 53.8225ZM35.7773 55.927C36.4204 56.804 37.382 57.14 38.3469 57.14V54.14C38.2005 54.14 38.1486 54.116 38.1523 54.1176C38.1546 54.1186 38.1643 54.1234 38.1765 54.1332C38.1886 54.143 38.1953 54.1513 38.1965 54.153L35.7773 55.927Z" fill="#DF191A"/>
<path d="M33.0003 73.7031C33.316 74.1973 33.7261 74.7824 34.1999 75.4233C35.3051 76.9183 36.7895 78.7609 38.3209 80.5516C39.8516 82.3417 41.4401 84.0925 42.7542 85.4009C43.4077 86.0515 44.0061 86.6056 44.5032 87.0024C44.0061 87.3993 43.4077 87.9533 42.7542 88.6039C41.4401 89.9122 39.8517 91.6628 38.3209 93.4526C36.7896 95.243 35.3052 97.0851 34.2 98.5794C33.7261 99.2201 33.316 99.8048 33.0003 100.299C32.6845 99.8048 32.2744 99.2201 31.8005 98.5794C30.6953 97.0851 29.2109 95.243 27.6795 93.4526C26.1487 91.6628 24.5603 89.9121 23.2461 88.6038C22.5925 87.9533 21.9941 87.3993 21.497 87.0024C21.9941 86.6056 22.5925 86.0515 23.2461 85.4009C24.5603 84.0925 26.1488 82.3417 27.6796 80.5516C29.2109 78.7609 30.6954 76.9183 31.8006 75.4233C32.2744 74.7824 32.6845 74.1973 33.0003 73.7031Z" fill="#FF191A" stroke="#DF191A" stroke-width="1.5" stroke-linejoin="round"/>
<path d="M79.0006 168.966C78.8648 168.718 78.7124 168.455 78.5453 168.178C77.8283 166.99 76.8087 165.497 75.5854 163.816C73.1367 160.452 69.8399 156.294 66.4336 152.248C63.0279 148.202 59.502 144.254 56.5942 141.313C55.142 139.844 53.8312 138.613 52.7592 137.744C52.4122 137.463 52.0835 137.214 51.7776 137.005C52.0835 136.797 52.4122 136.548 52.7592 136.267C53.8313 135.398 55.1421 134.167 56.5942 132.698C59.5021 129.756 63.0279 125.808 66.4337 121.762C69.8399 117.714 73.1368 113.556 75.5855 110.19C76.8088 108.509 77.8284 107.014 78.5454 105.825C78.7125 105.548 78.8648 105.285 79.0006 105.037C79.1363 105.285 79.2887 105.548 79.4557 105.825C80.1727 107.014 81.1923 108.509 82.4156 110.19C84.8643 113.556 88.1611 117.714 91.5673 121.762C94.973 125.808 98.4987 129.756 101.406 132.698C102.858 134.167 104.169 135.398 105.241 136.267C105.588 136.548 105.917 136.797 106.223 137.005C105.917 137.214 105.588 137.463 105.241 137.744C104.169 138.613 102.859 139.844 101.406 141.313C98.4988 144.254 94.973 148.202 91.5674 152.248C88.1612 156.294 84.8644 160.452 82.4157 163.816C81.1924 165.497 80.1728 166.99 79.4559 168.178C79.2888 168.455 79.1363 168.718 79.0006 168.966Z" fill="#FF191A" stroke="#DF191A" stroke-width="1.5" stroke-linejoin="round"/>
<defs>
<filter id="filter0_dd_350_2838" x="2" y="14" width="128" height="184" filterUnits="userSpaceOnUse" color-interpolation-filters="sRGB">
<feFlood flood-opacity="0" result="BackgroundImageFix"/>
<feColorMatrix in="SourceAlpha" type="matrix" values="0 0 0 0 0 0 0 0 0 0 0 0 0 0 0 0 0 0 127 0" result="hardAlpha"/>
<feOffset dy="6"/>
<feGaussianBlur stdDeviation="4"/>
<feColorMatrix type="matrix" values="0 0 0 0 0 0 0 0 0 0 0 0 0 0 0 0 0 0 0.15 0"/>
<feBlend mode="normal" in2="BackgroundImageFix" result="effect1_dropShadow_350_2838"/>
<feColorMatrix in="SourceAlpha" type="matrix" values="0 0 0 0 0 0 0 0 0 0 0 0 0 0 0 0 0 0 127 0" result="hardAlpha"/>
<feOffset dy="4"/>
<feGaussianBlur stdDeviation="2"/>
<feColorMatrix type="matrix" values="0 0 0 0 0 0 0 0 0 0 0 0 0 0 0 0 0 0 0.25 0"/>
<feBlend mode="normal" in2="effect1_dropShadow_350_2838" result="effect2_dropShadow_350_2838"/>
<feBlend mode="normal" in="SourceGraphic" in2="effect2_dropShadow_350_2838" result="shape"/>
</filter>
</defs>
</svg>
