<svg width="132" height="200" viewBox="0 0 132 200" fill="none" xmlns="http://www.w3.org/2000/svg">
<g filter="url(#filter0_dd_350_2848)">
<rect x="10" y="16" width="112" height="168" rx="12" fill="#F1F5F9"/>
</g>
<path d="M22.5473 61.84V56.84C23.2673 56.84 23.8807 56.8 24.3873 56.72C24.894 56.64 25.294 56.4933 25.5873 56.28C25.8807 56.04 26.094 55.7067 26.2273 55.28C26.3607 54.8267 26.4273 54.2533 26.4273 53.56V28.6H33.5873V53.88C33.5873 55.64 33.3607 57.12 32.9073 58.32C32.4807 59.4933 31.7207 60.3733 30.6273 60.96C29.534 61.5467 28.0007 61.84 26.0273 61.84H22.5473Z" fill="#FF191A"/>
<path d="M22.5473 61.84H21.0473C21.0473 62.6684 21.7189 63.34 22.5473 63.34L22.5473 61.84ZM22.5473 56.84V55.34C21.7189 55.34 21.0473 56.0116 21.0473 56.84H22.5473ZM24.3873 56.72L24.1534 55.2384H24.1534L24.3873 56.72ZM25.5873 56.28L26.4696 57.4931C26.4926 57.4764 26.5152 57.459 26.5372 57.4409L25.5873 56.28ZM26.2273 55.28L27.6591 55.7274C27.6616 55.7194 27.664 55.7113 27.6664 55.7033L26.2273 55.28ZM26.4273 28.6V27.1C25.5989 27.1 24.9273 27.7716 24.9273 28.6H26.4273ZM33.5873 28.6H35.0873C35.0873 27.7716 34.4158 27.1 33.5873 27.1V28.6ZM32.9073 58.32L31.5041 57.7899C31.5019 57.7957 31.4998 57.8015 31.4977 57.8074L32.9073 58.32ZM30.6273 60.96L29.9181 59.6383H29.9181L30.6273 60.96ZM24.0473 61.84V56.84H21.0473V61.84H24.0473ZM22.5473 58.34C23.317 58.34 24.0133 58.2976 24.6213 58.2016L24.1534 55.2384C23.748 55.3024 23.2177 55.34 22.5473 55.34V58.34ZM24.6213 58.2016C25.2713 58.099 25.9217 57.8916 26.4696 57.4931L24.7051 55.0669C24.6663 55.0951 24.5168 55.181 24.1534 55.2384L24.6213 58.2016ZM26.5372 57.4409C27.0956 56.984 27.4543 56.3827 27.6591 55.7274L24.7956 54.8326C24.7337 55.0306 24.6657 55.096 24.6375 55.1191L26.5372 57.4409ZM27.6664 55.7033C27.8542 55.0646 27.9273 54.3363 27.9273 53.56H24.9273C24.9273 54.1704 24.8671 54.5887 24.7883 54.8568L27.6664 55.7033ZM27.9273 53.56V28.6H24.9273V53.56H27.9273ZM26.4273 30.1H33.5873V27.1H26.4273V30.1ZM32.0873 28.6V53.88H35.0873V28.6H32.0873ZM32.0873 53.88C32.0873 55.5217 31.8745 56.8095 31.5041 57.7899L34.3106 58.8501C34.8468 57.4305 35.0873 55.7583 35.0873 53.88H32.0873ZM31.4977 57.8074C31.1962 58.6364 30.6842 59.2272 29.9181 59.6383L31.3366 62.2817C32.7572 61.5195 33.7652 60.3502 34.317 58.8326L31.4977 57.8074ZM29.9181 59.6383C29.135 60.0585 27.8846 60.34 26.0273 60.34V63.34C28.1168 63.34 29.9331 63.0348 31.3366 62.2817L29.9181 59.6383ZM26.0273 60.34H22.5473V63.34H26.0273V60.34Z" fill="#DF191A"/>
<path d="M33.0003 73.7031C33.316 74.1973 33.7261 74.7824 34.1999 75.4233C35.3051 76.9183 36.7895 78.7609 38.3209 80.5516C39.8516 82.3417 41.4401 84.0925 42.7542 85.4009C43.4077 86.0515 44.0061 86.6056 44.5032 87.0024C44.0061 87.3993 43.4077 87.9533 42.7542 88.6039C41.4401 89.9122 39.8517 91.6628 38.3209 93.4526C36.7896 95.243 35.3052 97.0851 34.2 98.5794C33.7261 99.2201 33.316 99.8048 33.0003 100.299C32.6845 99.8048 32.2744 99.2201 31.8005 98.5794C30.6953 97.0851 29.2109 95.243 27.6795 93.4526C26.1487 91.6628 24.5603 89.9121 23.2461 88.6038C22.5925 87.9533 21.9941 87.3993 21.497 87.0024C21.9941 86.6056 22.5925 86.0515 23.2461 85.4009C24.5603 84.0925 26.1488 82.3417 27.6796 80.5516C29.2109 78.7609 30.6954 76.9183 31.8006 75.4233C32.2744 74.7824 32.6845 74.1973 33.0003 73.7031Z" fill="#FF191A" stroke="#DF191A" stroke-width="1.5" stroke-linejoin="round"/>
<path d="M79.0006 168.966C78.8648 168.718 78.7124 168.455 78.5453 168.178C77.8283 166.99 76.8087 165.497 75.5854 163.816C73.1367 160.452 69.8399 156.294 66.4336 152.248C63.0279 148.202 59.502 144.254 56.5942 141.313C55.142 139.844 53.8312 138.613 52.7592 137.744C52.4122 137.463 52.0835 137.214 51.7776 137.005C52.0835 136.797 52.4122 136.548 52.7592 136.267C53.8313 135.398 55.1421 134.167 56.5942 132.698C59.5021 129.756 63.0279 125.808 66.4337 121.762C69.8399 117.714 73.1368 113.556 75.5855 110.19C76.8088 108.509 77.8284 107.014 78.5454 105.825C78.7125 105.548 78.8648 105.285 79.0006 105.037C79.1363 105.285 79.2887 105.548 79.4557 105.825C80.1727 107.014 81.1923 108.509 82.4156 110.19C84.8643 113.556 88.1611 117.714 91.5673 121.762C94.973 125.808 98.4987 129.756 101.406 132.698C102.858 134.167 104.169 135.398 105.241 136.267C105.588 136.548 105.917 136.797 106.223 137.005C105.917 137.214 105.588 137.463 105.241 137.744C104.169 138.613 102.859 139.844 101.406 141.313C98.4988 144.254 94.973 148.202 91.5674 152.248C88.1612 156.294 84.8644 160.452 82.4157 163.816C81.1924 165.497 80.1728 166.99 79.4559 168.178C79.2888 168.455 79.1363 168.718 79.0006 168.966Z" fill="#FF191A" stroke="#DF191A" stroke-width="1.5" stroke-linejoin="round"/>
<defs>
<filter id="filter0_dd_350_2848" x="2" y="14" width="128" height="184" filterUnits="userSpaceOnUse" color-interpolation-filters="sRGB">
<feFlood flood-opacity="0" result="BackgroundImageFix"/>
<feColorMatrix in="SourceAlpha" type="matrix" values="0 0 0 0 0 0 0 0 0 0 0 0 0 0 0 0 0 0 127 0" result="hardAlpha"/>
<feOffset dy="6"/>
<feGaussianBlur stdDeviation="4"/>
<feColorMatrix type="matrix" values="0 0 0 0 0 0 0 0 0 0 0 0 0 0 0 0 0 0 0.15 0"/>
<feBlend mode="normal" in2="BackgroundImageFix" result="effect1_dropShadow_350_2848"/>
<feColorMatrix in="SourceAlpha" type="matrix" values="0 0 0 0 0 0 0 0 0 0 0 0 0 0 0 0 0 0 127 0" result="hardAlpha"/>
<feOffset dy="4"/>
<feGaussianBlur stdDeviation="2"/>
<feColorMatrix type="matrix" values="0 0 0 0 0 0 0 0 0 0 0 0 0 0 0 0 0 0 0.25 0"/>
<feBlend mode="normal" in2="effect1_dropShadow_350_2848" result="effect2_dropShadow_350_2848"/>
<feBlend mode="normal" in="SourceGraphic" in2="effect2_dropShadow_350_2848" result="shape"/>
</filter>
</defs>
</svg>
