<svg width="132" height="200" viewBox="0 0 132 200" fill="none" xmlns="http://www.w3.org/2000/svg">
<g filter="url(#filter0_dd_350_2858)">
<rect x="10" y="16" width="112" height="168" rx="12" fill="#F1F5F9"/>
</g>
<path d="M35 67.36C34.4133 67.0933 33.7067 66.6533 32.88 66.04C32.0533 65.4533 31.2267 64.7467 30.4 63.92C29.6 63.12 28.92 62.2933 28.36 61.44C28.2533 61.4667 28.1467 61.48 28.04 61.48C27.9333 61.48 27.8133 61.48 27.68 61.48C25.2533 61.48 23.3333 61.0533 21.92 60.2C20.5067 59.3467 19.4933 58.12 18.88 56.52C18.2667 54.92 17.96 53.0133 17.96 50.8V38.76C17.96 36.52 18.2667 34.6133 18.88 33.04C19.4933 31.4667 20.5067 30.2667 21.92 29.44C23.3333 28.5867 25.2533 28.16 27.68 28.16C30.1333 28.16 32.0667 28.5867 33.48 29.44C34.92 30.2667 35.9467 31.4667 36.56 33.04C37.1733 34.6133 37.48 36.52 37.48 38.76V50.8C37.48 52.32 37.3333 53.6933 37.04 54.92C36.7733 56.1467 36.32 57.2133 35.68 58.12C35.0667 59.0267 34.24 59.7467 33.2 60.28C33.5467 60.6533 33.9067 61.0133 34.28 61.36C34.6533 61.7333 35.0267 62.0667 35.4 62.36C35.7733 62.68 36.1467 62.9333 36.52 63.12L35 67.36ZM27.68 56.4C28.4267 56.4 28.9733 56.2133 29.32 55.84C29.6667 55.4667 29.8933 54.9867 30 54.4C30.1067 53.8133 30.16 53.2133 30.16 52.6V37C30.16 36.36 30.1067 35.76 30 35.2C29.8933 34.6133 29.6667 34.1333 29.32 33.76C28.9733 33.3867 28.4267 33.2 27.68 33.2C26.9333 33.2 26.3867 33.3867 26.04 33.76C25.72 34.1333 25.5067 34.6133 25.4 35.2C25.32 35.76 25.28 36.36 25.28 37V52.6C25.28 53.2133 25.32 53.8133 25.4 54.4C25.5067 54.9867 25.72 55.4667 26.04 55.84C26.3867 56.2133 26.9333 56.4 27.68 56.4Z" fill="#FF191A"/>
<path d="M35 67.36L34.3793 68.7256C34.761 68.8991 35.1979 68.9049 35.5841 68.7416C35.9703 68.5783 36.2705 68.2609 36.412 67.8662L35 67.36ZM32.88 66.04L33.7738 64.8354C33.7653 64.8291 33.7567 64.8229 33.7481 64.8167L32.88 66.04ZM30.4 63.92L29.3393 64.9807H29.3393L30.4 63.92ZM28.36 61.44L29.6141 60.617C29.2641 60.0837 28.6151 59.8301 27.9962 59.9848L28.36 61.44ZM21.92 60.2L21.1447 61.4841L21.92 60.2ZM18.88 33.04L17.4824 32.4952L17.4824 32.4952L18.88 33.04ZM21.92 29.44L22.6773 30.7348C22.6833 30.7313 22.6893 30.7277 22.6953 30.7241L21.92 29.44ZM33.48 29.44L32.7047 30.7241C32.7141 30.7298 32.7236 30.7354 32.7332 30.7409L33.48 29.44ZM36.56 33.04L35.1624 33.5848L36.56 33.04ZM37.04 54.92L35.5811 54.5711C35.5787 54.5812 35.5764 54.5913 35.5742 54.6014L37.04 54.92ZM35.68 58.12L34.4545 57.255C34.4488 57.2631 34.4432 57.2713 34.4376 57.2795L35.68 58.12ZM33.2 60.28L32.5155 58.9453C32.0976 59.1596 31.8042 59.5573 31.7227 60.0199C31.6413 60.4825 31.7812 60.9565 32.1008 61.3007L33.2 60.28ZM34.28 61.36L35.3407 60.2993C35.3276 60.2863 35.3142 60.2734 35.3007 60.2608L34.28 61.36ZM35.4 62.36L36.3762 61.2211C36.36 61.2072 36.3435 61.1937 36.3267 61.1805L35.4 62.36ZM36.52 63.12L37.932 63.6262C38.1882 62.9114 37.87 62.1179 37.1908 61.7784L36.52 63.12ZM29.32 55.84L28.2208 54.8193L28.2208 54.8193L29.32 55.84ZM30 54.4L31.4758 54.6683H31.4758L30 54.4ZM30 35.2L28.5241 35.4683L28.5265 35.4807L30 35.2ZM29.32 33.76L28.2208 34.7807L28.2208 34.7807L29.32 33.76ZM26.04 33.76L24.9408 32.7393C24.9273 32.7539 24.9141 32.7687 24.9011 32.7838L26.04 33.76ZM25.4 35.2L23.9242 34.9317C23.9208 34.9503 23.9178 34.9691 23.9151 34.9879L25.4 35.2ZM25.4 54.4L23.9138 54.6027C23.9167 54.6246 23.9202 54.6465 23.9242 54.6683L25.4 54.4ZM26.04 55.84L24.9011 56.8162C24.9141 56.8313 24.9273 56.8461 24.9408 56.8607L26.04 55.84ZM35.6207 65.9944C35.1701 65.7896 34.5593 65.4182 33.7738 64.8354L31.9862 67.2446C32.854 67.8885 33.6566 68.3971 34.3793 68.7256L35.6207 65.9944ZM33.7481 64.8167C32.9996 64.2855 32.2366 63.6353 31.4607 62.8593L29.3393 64.9807C30.2167 65.858 31.1071 66.6212 32.0119 67.2633L33.7481 64.8167ZM31.4607 62.8593C30.7254 62.1241 30.1122 61.3761 29.6141 60.617L27.1059 62.263C27.7278 63.2106 28.4746 64.1159 29.3393 64.9807L31.4607 62.8593ZM27.9962 59.9848C28.0048 59.9826 28.0203 59.98 28.04 59.98V62.98C28.273 62.98 28.5018 62.9507 28.7238 62.8952L27.9962 59.9848ZM28.04 59.98C28.0398 59.98 28.0396 59.98 28.0394 59.98C28.0392 59.98 28.039 59.98 28.0388 59.98C28.0385 59.98 28.0383 59.98 28.0381 59.98C28.0379 59.98 28.0377 59.98 28.0375 59.98C28.0373 59.98 28.0371 59.98 28.0369 59.98C28.0367 59.98 28.0365 59.98 28.0362 59.98C28.036 59.98 28.0358 59.98 28.0356 59.98C28.0354 59.98 28.0352 59.98 28.035 59.98C28.0348 59.98 28.0346 59.98 28.0344 59.98C28.0342 59.98 28.0339 59.98 28.0337 59.98C28.0335 59.98 28.0333 59.98 28.0331 59.98C28.0329 59.98 28.0327 59.98 28.0325 59.98C28.0323 59.98 28.0321 59.98 28.0319 59.98C28.0316 59.98 28.0314 59.98 28.0312 59.98C28.031 59.98 28.0308 59.98 28.0306 59.98C28.0304 59.98 28.0302 59.98 28.03 59.98C28.0298 59.98 28.0295 59.98 28.0293 59.98C28.0291 59.98 28.0289 59.98 28.0287 59.98C28.0285 59.98 28.0283 59.98 28.0281 59.98C28.0279 59.98 28.0277 59.98 28.0274 59.98C28.0272 59.98 28.027 59.98 28.0268 59.98C28.0266 59.98 28.0264 59.98 28.0262 59.98C28.026 59.98 28.0258 59.98 28.0255 59.98C28.0253 59.98 28.0251 59.98 28.0249 59.98C28.0247 59.98 28.0245 59.98 28.0243 59.98C28.0241 59.98 28.0239 59.98 28.0236 59.98C28.0234 59.98 28.0232 59.98 28.023 59.98C28.0228 59.98 28.0226 59.98 28.0224 59.98C28.0222 59.98 28.022 59.98 28.0217 59.98C28.0215 59.98 28.0213 59.98 28.0211 59.98C28.0209 59.98 28.0207 59.98 28.0205 59.98C28.0203 59.98 28.0201 59.98 28.0198 59.98C28.0196 59.98 28.0194 59.98 28.0192 59.98C28.019 59.98 28.0188 59.98 28.0186 59.98C28.0184 59.98 28.0182 59.98 28.0179 59.98C28.0177 59.98 28.0175 59.98 28.0173 59.98C28.0171 59.98 28.0169 59.98 28.0167 59.98C28.0165 59.98 28.0162 59.98 28.016 59.98C28.0158 59.98 28.0156 59.98 28.0154 59.98C28.0152 59.98 28.015 59.98 28.0148 59.98C28.0145 59.98 28.0143 59.98 28.0141 59.98C28.0139 59.98 28.0137 59.98 28.0135 59.98C28.0133 59.98 28.0131 59.98 28.0128 59.98C28.0126 59.98 28.0124 59.98 28.0122 59.98C28.012 59.98 28.0118 59.98 28.0116 59.98C28.0114 59.98 28.0111 59.98 28.0109 59.98C28.0107 59.98 28.0105 59.98 28.0103 59.98C28.0101 59.98 28.0099 59.98 28.0096 59.98C28.0094 59.98 28.0092 59.98 28.009 59.98C28.0088 59.98 28.0086 59.98 28.0084 59.98C28.0082 59.98 28.0079 59.98 28.0077 59.98C28.0075 59.98 28.0073 59.98 28.0071 59.98C28.0069 59.98 28.0067 59.98 28.0064 59.98C28.0062 59.98 28.006 59.98 28.0058 59.98C28.0056 59.98 28.0054 59.98 28.0052 59.98C28.005 59.98 28.0047 59.98 28.0045 59.98C28.0043 59.98 28.0041 59.98 28.0039 59.98C28.0037 59.98 28.0035 59.98 28.0032 59.98C28.003 59.98 28.0028 59.98 28.0026 59.98C28.0024 59.98 28.0022 59.98 28.002 59.98C28.0017 59.98 28.0015 59.98 28.0013 59.98C28.0011 59.98 28.0009 59.98 28.0007 59.98C28.0005 59.98 28.0002 59.98 28 59.98C27.9998 59.98 27.9996 59.98 27.9994 59.98C27.9992 59.98 27.9989 59.98 27.9987 59.98C27.9985 59.98 27.9983 59.98 27.9981 59.98C27.9979 59.98 27.9977 59.98 27.9974 59.98C27.9972 59.98 27.997 59.98 27.9968 59.98C27.9966 59.98 27.9964 59.98 27.9962 59.98C27.9959 59.98 27.9957 59.98 27.9955 59.98C27.9953 59.98 27.9951 59.98 27.9949 59.98C27.9946 59.98 27.9944 59.98 27.9942 59.98C27.994 59.98 27.9938 59.98 27.9936 59.98C27.9933 59.98 27.9931 59.98 27.9929 59.98C27.9927 59.98 27.9925 59.98 27.9923 59.98C27.9921 59.98 27.9918 59.98 27.9916 59.98C27.9914 59.98 27.9912 59.98 27.991 59.98C27.9908 59.98 27.9905 59.98 27.9903 59.98C27.9901 59.98 27.9899 59.98 27.9897 59.98C27.9895 59.98 27.9892 59.98 27.989 59.98C27.9888 59.98 27.9886 59.98 27.9884 59.98C27.9882 59.98 27.9879 59.98 27.9877 59.98C27.9875 59.98 27.9873 59.98 27.9871 59.98C27.9869 59.98 27.9866 59.98 27.9864 59.98C27.9862 59.98 27.986 59.98 27.9858 59.98C27.9856 59.98 27.9853 59.98 27.9851 59.98C27.9849 59.98 27.9847 59.98 27.9845 59.98C27.9843 59.98 27.984 59.98 27.9838 59.98C27.9836 59.98 27.9834 59.98 27.9832 59.98C27.983 59.98 27.9827 59.98 27.9825 59.98C27.9823 59.98 27.9821 59.98 27.9819 59.98C27.9816 59.98 27.9814 59.98 27.9812 59.98C27.981 59.98 27.9808 59.98 27.9806 59.98C27.9803 59.98 27.9801 59.98 27.9799 59.98C27.9797 59.98 27.9795 59.98 27.9792 59.98C27.979 59.98 27.9788 59.98 27.9786 59.98C27.9784 59.98 27.9782 59.98 27.9779 59.98C27.9777 59.98 27.9775 59.98 27.9773 59.98C27.9771 59.98 27.9768 59.98 27.9766 59.98C27.9764 59.98 27.9762 59.98 27.976 59.98C27.9758 59.98 27.9755 59.98 27.9753 59.98C27.9751 59.98 27.9749 59.98 27.9747 59.98C27.9744 59.98 27.9742 59.98 27.974 59.98C27.9738 59.98 27.9736 59.98 27.9734 59.98C27.9731 59.98 27.9729 59.98 27.9727 59.98C27.9725 59.98 27.9723 59.98 27.972 59.98C27.9718 59.98 27.9716 59.98 27.9714 59.98C27.9712 59.98 27.9709 59.98 27.9707 59.98C27.9705 59.98 27.9703 59.98 27.9701 59.98C27.9698 59.98 27.9696 59.98 27.9694 59.98C27.9692 59.98 27.969 59.98 27.9687 59.98C27.9685 59.98 27.9683 59.98 27.9681 59.98C27.9679 59.98 27.9676 59.98 27.9674 59.98C27.9672 59.98 27.967 59.98 27.9668 59.98C27.9665 59.98 27.9663 59.98 27.9661 59.98C27.9659 59.98 27.9657 59.98 27.9654 59.98C27.9652 59.98 27.965 59.98 27.9648 59.98C27.9646 59.98 27.9643 59.98 27.9641 59.98C27.9639 59.98 27.9637 59.98 27.9635 59.98C27.9632 59.98 27.963 59.98 27.9628 59.98C27.9626 59.98 27.9624 59.98 27.9621 59.98C27.9619 59.98 27.9617 59.98 27.9615 59.98C27.9613 59.98 27.961 59.98 27.9608 59.98C27.9606 59.98 27.9604 59.98 27.9602 59.98C27.9599 59.98 27.9597 59.98 27.9595 59.98C27.9593 59.98 27.959 59.98 27.9588 59.98C27.9586 59.98 27.9584 59.98 27.9582 59.98C27.9579 59.98 27.9577 59.98 27.9575 59.98C27.9573 59.98 27.9571 59.98 27.9568 59.98C27.9566 59.98 27.9564 59.98 27.9562 59.98C27.956 59.98 27.9557 59.98 27.9555 59.98C27.9553 59.98 27.9551 59.98 27.9548 59.98C27.9546 59.98 27.9544 59.98 27.9542 59.98C27.954 59.98 27.9537 59.98 27.9535 59.98C27.9533 59.98 27.9531 59.98 27.9528 59.98C27.9526 59.98 27.9524 59.98 27.9522 59.98C27.952 59.98 27.9517 59.98 27.9515 59.98C27.9513 59.98 27.9511 59.98 27.9508 59.98C27.9506 59.98 27.9504 59.98 27.9502 59.98C27.95 59.98 27.9497 59.98 27.9495 59.98C27.9493 59.98 27.9491 59.98 27.9488 59.98C27.9486 59.98 27.9484 59.98 27.9482 59.98C27.948 59.98 27.9477 59.98 27.9475 59.98C27.9473 59.98 27.9471 59.98 27.9468 59.98C27.9466 59.98 27.9464 59.98 27.9462 59.98C27.9459 59.98 27.9457 59.98 27.9455 59.98C27.9453 59.98 27.9451 59.98 27.9448 59.98C27.9446 59.98 27.9444 59.98 27.9442 59.98C27.9439 59.98 27.9437 59.98 27.9435 59.98C27.9433 59.98 27.943 59.98 27.9428 59.98C27.9426 59.98 27.9424 59.98 27.9421 59.98C27.9419 59.98 27.9417 59.98 27.9415 59.98C27.9413 59.98 27.941 59.98 27.9408 59.98C27.9406 59.98 27.9404 59.98 27.9401 59.98C27.9399 59.98 27.9397 59.98 27.9395 59.98C27.9392 59.98 27.939 59.98 27.9388 59.98C27.9386 59.98 27.9383 59.98 27.9381 59.98C27.9379 59.98 27.9377 59.98 27.9374 59.98C27.9372 59.98 27.937 59.98 27.9368 59.98C27.9365 59.98 27.9363 59.98 27.9361 59.98C27.9359 59.98 27.9356 59.98 27.9354 59.98C27.9352 59.98 27.935 59.98 27.9347 59.98C27.9345 59.98 27.9343 59.98 27.9341 59.98C27.9338 59.98 27.9336 59.98 27.9334 59.98C27.9332 59.98 27.9329 59.98 27.9327 59.98C27.9325 59.98 27.9323 59.98 27.932 59.98C27.9318 59.98 27.9316 59.98 27.9314 59.98C27.9311 59.98 27.9309 59.98 27.9307 59.98C27.9305 59.98 27.9302 59.98 27.93 59.98C27.9298 59.98 27.9296 59.98 27.9293 59.98C27.9291 59.98 27.9289 59.98 27.9287 59.98C27.9284 59.98 27.9282 59.98 27.928 59.98C27.9278 59.98 27.9275 59.98 27.9273 59.98C27.9271 59.98 27.9269 59.98 27.9266 59.98C27.9264 59.98 27.9262 59.98 27.926 59.98C27.9257 59.98 27.9255 59.98 27.9253 59.98C27.925 59.98 27.9248 59.98 27.9246 59.98C27.9244 59.98 27.9241 59.98 27.9239 59.98C27.9237 59.98 27.9235 59.98 27.9232 59.98C27.923 59.98 27.9228 59.98 27.9226 59.98C27.9223 59.98 27.9221 59.98 27.9219 59.98C27.9216 59.98 27.9214 59.98 27.9212 59.98C27.921 59.98 27.9207 59.98 27.9205 59.98C27.9203 59.98 27.9201 59.98 27.9198 59.98C27.9196 59.98 27.9194 59.98 27.9192 59.98C27.9189 59.98 27.9187 59.98 27.9185 59.98C27.9182 59.98 27.918 59.98 27.9178 59.98C27.9176 59.98 27.9173 59.98 27.9171 59.98C27.9169 59.98 27.9167 59.98 27.9164 59.98C27.9162 59.98 27.916 59.98 27.9157 59.98C27.9155 59.98 27.9153 59.98 27.9151 59.98C27.9148 59.98 27.9146 59.98 27.9144 59.98C27.9141 59.98 27.9139 59.98 27.9137 59.98C27.9135 59.98 27.9132 59.98 27.913 59.98C27.9128 59.98 27.9126 59.98 27.9123 59.98C27.9121 59.98 27.9119 59.98 27.9116 59.98C27.9114 59.98 27.9112 59.98 27.911 59.98C27.9107 59.98 27.9105 59.98 27.9103 59.98C27.91 59.98 27.9098 59.98 27.9096 59.98C27.9094 59.98 27.9091 59.98 27.9089 59.98C27.9087 59.98 27.9084 59.98 27.9082 59.98C27.908 59.98 27.9078 59.98 27.9075 59.98C27.9073 59.98 27.9071 59.98 27.9068 59.98C27.9066 59.98 27.9064 59.98 27.9062 59.98C27.9059 59.98 27.9057 59.98 27.9055 59.98C27.9052 59.98 27.905 59.98 27.9048 59.98C27.9045 59.98 27.9043 59.98 27.9041 59.98C27.9039 59.98 27.9036 59.98 27.9034 59.98C27.9032 59.98 27.9029 59.98 27.9027 59.98C27.9025 59.98 27.9023 59.98 27.902 59.98C27.9018 59.98 27.9016 59.98 27.9013 59.98C27.9011 59.98 27.9009 59.98 27.9006 59.98C27.9004 59.98 27.9002 59.98 27.9 59.98C27.8997 59.98 27.8995 59.98 27.8993 59.98C27.899 59.98 27.8988 59.98 27.8986 59.98C27.8983 59.98 27.8981 59.98 27.8979 59.98C27.8977 59.98 27.8974 59.98 27.8972 59.98C27.897 59.98 27.8967 59.98 27.8965 59.98C27.8963 59.98 27.896 59.98 27.8958 59.98C27.8956 59.98 27.8953 59.98 27.8951 59.98C27.8949 59.98 27.8947 59.98 27.8944 59.98C27.8942 59.98 27.894 59.98 27.8937 59.98C27.8935 59.98 27.8933 59.98 27.893 59.98C27.8928 59.98 27.8926 59.98 27.8923 59.98C27.8921 59.98 27.8919 59.98 27.8917 59.98C27.8914 59.98 27.8912 59.98 27.891 59.98C27.8907 59.98 27.8905 59.98 27.8903 59.98C27.89 59.98 27.8898 59.98 27.8896 59.98C27.8893 59.98 27.8891 59.98 27.8889 59.98C27.8886 59.98 27.8884 59.98 27.8882 59.98C27.8879 59.98 27.8877 59.98 27.8875 59.98C27.8873 59.98 27.887 59.98 27.8868 59.98C27.8866 59.98 27.8863 59.98 27.8861 59.98C27.8859 59.98 27.8856 59.98 27.8854 59.98C27.8852 59.98 27.8849 59.98 27.8847 59.98C27.8845 59.98 27.8842 59.98 27.884 59.98C27.8838 59.98 27.8835 59.98 27.8833 59.98C27.8831 59.98 27.8828 59.98 27.8826 59.98C27.8824 59.98 27.8821 59.98 27.8819 59.98C27.8817 59.98 27.8814 59.98 27.8812 59.98C27.881 59.98 27.8807 59.98 27.8805 59.98C27.8803 59.98 27.88 59.98 27.8798 59.98C27.8796 59.98 27.8793 59.98 27.8791 59.98C27.8789 59.98 27.8786 59.98 27.8784 59.98C27.8782 59.98 27.8779 59.98 27.8777 59.98C27.8775 59.98 27.8773 59.98 27.877 59.98C27.8768 59.98 27.8765 59.98 27.8763 59.98C27.8761 59.98 27.8758 59.98 27.8756 59.98C27.8754 59.98 27.8751 59.98 27.8749 59.98C27.8747 59.98 27.8744 59.98 27.8742 59.98C27.874 59.98 27.8737 59.98 27.8735 59.98C27.8733 59.98 27.873 59.98 27.8728 59.98C27.8726 59.98 27.8723 59.98 27.8721 59.98C27.8719 59.98 27.8716 59.98 27.8714 59.98C27.8712 59.98 27.8709 59.98 27.8707 59.98C27.8705 59.98 27.8702 59.98 27.87 59.98C27.8698 59.98 27.8695 59.98 27.8693 59.98C27.8691 59.98 27.8688 59.98 27.8686 59.98C27.8684 59.98 27.8681 59.98 27.8679 59.98C27.8677 59.98 27.8674 59.98 27.8672 59.98C27.867 59.98 27.8667 59.98 27.8665 59.98C27.8662 59.98 27.866 59.98 27.8658 59.98C27.8655 59.98 27.8653 59.98 27.8651 59.98C27.8648 59.98 27.8646 59.98 27.8644 59.98C27.8641 59.98 27.8639 59.98 27.8637 59.98C27.8634 59.98 27.8632 59.98 27.863 59.98C27.8627 59.98 27.8625 59.98 27.8622 59.98C27.862 59.98 27.8618 59.98 27.8615 59.98C27.8613 59.98 27.8611 59.98 27.8608 59.98C27.8606 59.98 27.8604 59.98 27.8601 59.98C27.8599 59.98 27.8597 59.98 27.8594 59.98C27.8592 59.98 27.8589 59.98 27.8587 59.98C27.8585 59.98 27.8582 59.98 27.858 59.98C27.8578 59.98 27.8575 59.98 27.8573 59.98C27.8571 59.98 27.8568 59.98 27.8566 59.98C27.8563 59.98 27.8561 59.98 27.8559 59.98C27.8556 59.98 27.8554 59.98 27.8552 59.98C27.8549 59.98 27.8547 59.98 27.8545 59.98C27.8542 59.98 27.854 59.98 27.8537 59.98C27.8535 59.98 27.8533 59.98 27.853 59.98C27.8528 59.98 27.8526 59.98 27.8523 59.98C27.8521 59.98 27.8519 59.98 27.8516 59.98C27.8514 59.98 27.8511 59.98 27.8509 59.98C27.8507 59.98 27.8504 59.98 27.8502 59.98C27.85 59.98 27.8497 59.98 27.8495 59.98C27.8492 59.98 27.849 59.98 27.8488 59.98C27.8485 59.98 27.8483 59.98 27.8481 59.98C27.8478 59.98 27.8476 59.98 27.8473 59.98C27.8471 59.98 27.8469 59.98 27.8466 59.98C27.8464 59.98 27.8462 59.98 27.8459 59.98C27.8457 59.98 27.8454 59.98 27.8452 59.98C27.845 59.98 27.8447 59.98 27.8445 59.98C27.8443 59.98 27.844 59.98 27.8438 59.98C27.8435 59.98 27.8433 59.98 27.8431 59.98C27.8428 59.98 27.8426 59.98 27.8423 59.98C27.8421 59.98 27.8419 59.98 27.8416 59.98C27.8414 59.98 27.8412 59.98 27.8409 59.98C27.8407 59.98 27.8404 59.98 27.8402 59.98C27.84 59.98 27.8397 59.98 27.8395 59.98C27.8392 59.98 27.839 59.98 27.8388 59.98C27.8385 59.98 27.8383 59.98 27.8381 59.98C27.8378 59.98 27.8376 59.98 27.8373 59.98C27.8371 59.98 27.8369 59.98 27.8366 59.98C27.8364 59.98 27.8361 59.98 27.8359 59.98C27.8357 59.98 27.8354 59.98 27.8352 59.98C27.8349 59.98 27.8347 59.98 27.8345 59.98C27.8342 59.98 27.834 59.98 27.8337 59.98C27.8335 59.98 27.8333 59.98 27.833 59.98C27.8328 59.98 27.8325 59.98 27.8323 59.98C27.8321 59.98 27.8318 59.98 27.8316 59.98C27.8313 59.98 27.8311 59.98 27.8309 59.98C27.8306 59.98 27.8304 59.98 27.8301 59.98C27.8299 59.98 27.8297 59.98 27.8294 59.98C27.8292 59.98 27.8289 59.98 27.8287 59.98C27.8285 59.98 27.8282 59.98 27.828 59.98C27.8277 59.98 27.8275 59.98 27.8273 59.98C27.827 59.98 27.8268 59.98 27.8265 59.98C27.8263 59.98 27.8261 59.98 27.8258 59.98C27.8256 59.98 27.8253 59.98 27.8251 59.98C27.8249 59.98 27.8246 59.98 27.8244 59.98C27.8241 59.98 27.8239 59.98 27.8237 59.98C27.8234 59.98 27.8232 59.98 27.8229 59.98C27.8227 59.98 27.8224 59.98 27.8222 59.98C27.822 59.98 27.8217 59.98 27.8215 59.98C27.8212 59.98 27.821 59.98 27.8208 59.98C27.8205 59.98 27.8203 59.98 27.82 59.98C27.8198 59.98 27.8196 59.98 27.8193 59.98C27.8191 59.98 27.8188 59.98 27.8186 59.98C27.8183 59.98 27.8181 59.98 27.8179 59.98C27.8176 59.98 27.8174 59.98 27.8171 59.98C27.8169 59.98 27.8167 59.98 27.8164 59.98C27.8162 59.98 27.8159 59.98 27.8157 59.98C27.8154 59.98 27.8152 59.98 27.815 59.98C27.8147 59.98 27.8145 59.98 27.8142 59.98C27.814 59.98 27.8137 59.98 27.8135 59.98C27.8133 59.98 27.813 59.98 27.8128 59.98C27.8125 59.98 27.8123 59.98 27.812 59.98C27.8118 59.98 27.8116 59.98 27.8113 59.98C27.8111 59.98 27.8108 59.98 27.8106 59.98C27.8103 59.98 27.8101 59.98 27.8099 59.98C27.8096 59.98 27.8094 59.98 27.8091 59.98C27.8089 59.98 27.8086 59.98 27.8084 59.98C27.8082 59.98 27.8079 59.98 27.8077 59.98C27.8074 59.98 27.8072 59.98 27.8069 59.98C27.8067 59.98 27.8065 59.98 27.8062 59.98C27.806 59.98 27.8057 59.98 27.8055 59.98C27.8052 59.98 27.805 59.98 27.8048 59.98C27.8045 59.98 27.8043 59.98 27.804 59.98C27.8038 59.98 27.8035 59.98 27.8033 59.98C27.803 59.98 27.8028 59.98 27.8026 59.98C27.8023 59.98 27.8021 59.98 27.8018 59.98C27.8016 59.98 27.8013 59.98 27.8011 59.98C27.8009 59.98 27.8006 59.98 27.8004 59.98C27.8001 59.98 27.7999 59.98 27.7996 59.98C27.7994 59.98 27.7991 59.98 27.7989 59.98C27.7987 59.98 27.7984 59.98 27.7982 59.98C27.7979 59.98 27.7977 59.98 27.7974 59.98C27.7972 59.98 27.7969 59.98 27.7967 59.98C27.7964 59.98 27.7962 59.98 27.796 59.98C27.7957 59.98 27.7955 59.98 27.7952 59.98C27.795 59.98 27.7947 59.98 27.7945 59.98C27.7942 59.98 27.794 59.98 27.7938 59.98C27.7935 59.98 27.7933 59.98 27.793 59.98C27.7928 59.98 27.7925 59.98 27.7923 59.98C27.792 59.98 27.7918 59.98 27.7915 59.98C27.7913 59.98 27.7911 59.98 27.7908 59.98C27.7906 59.98 27.7903 59.98 27.7901 59.98C27.7898 59.98 27.7896 59.98 27.7893 59.98C27.7891 59.98 27.7888 59.98 27.7886 59.98C27.7884 59.98 27.7881 59.98 27.7879 59.98C27.7876 59.98 27.7874 59.98 27.7871 59.98C27.7869 59.98 27.7866 59.98 27.7864 59.98C27.7861 59.98 27.7859 59.98 27.7856 59.98C27.7854 59.98 27.7852 59.98 27.7849 59.98C27.7847 59.98 27.7844 59.98 27.7842 59.98C27.7839 59.98 27.7837 59.98 27.7834 59.98C27.7832 59.98 27.7829 59.98 27.7827 59.98C27.7824 59.98 27.7822 59.98 27.7819 59.98C27.7817 59.98 27.7815 59.98 27.7812 59.98C27.781 59.98 27.7807 59.98 27.7805 59.98C27.7802 59.98 27.78 59.98 27.7797 59.98C27.7795 59.98 27.7792 59.98 27.779 59.98C27.7787 59.98 27.7785 59.98 27.7782 59.98C27.778 59.98 27.7777 59.98 27.7775 59.98C27.7773 59.98 27.777 59.98 27.7768 59.98C27.7765 59.98 27.7763 59.98 27.776 59.98C27.7758 59.98 27.7755 59.98 27.7753 59.98C27.775 59.98 27.7748 59.98 27.7745 59.98C27.7743 59.98 27.774 59.98 27.7738 59.98C27.7735 59.98 27.7733 59.98 27.773 59.98C27.7728 59.98 27.7725 59.98 27.7723 59.98C27.772 59.98 27.7718 59.98 27.7716 59.98C27.7713 59.98 27.7711 59.98 27.7708 59.98C27.7706 59.98 27.7703 59.98 27.7701 59.98C27.7698 59.98 27.7696 59.98 27.7693 59.98C27.7691 59.98 27.7688 59.98 27.7686 59.98C27.7683 59.98 27.7681 59.98 27.7678 59.98C27.7676 59.98 27.7673 59.98 27.7671 59.98C27.7668 59.98 27.7666 59.98 27.7663 59.98C27.7661 59.98 27.7658 59.98 27.7656 59.98C27.7653 59.98 27.7651 59.98 27.7648 59.98C27.7646 59.98 27.7643 59.98 27.7641 59.98C27.7638 59.98 27.7636 59.98 27.7633 59.98C27.7631 59.98 27.7628 59.98 27.7626 59.98C27.7623 59.98 27.7621 59.98 27.7618 59.98C27.7616 59.98 27.7613 59.98 27.7611 59.98C27.7608 59.98 27.7606 59.98 27.7604 59.98C27.7601 59.98 27.7599 59.98 27.7596 59.98C27.7594 59.98 27.7591 59.98 27.7589 59.98C27.7586 59.98 27.7584 59.98 27.7581 59.98C27.7579 59.98 27.7576 59.98 27.7574 59.98C27.7571 59.98 27.7569 59.98 27.7566 59.98C27.7563 59.98 27.7561 59.98 27.7558 59.98C27.7556 59.98 27.7553 59.98 27.7551 59.98C27.7548 59.98 27.7546 59.98 27.7543 59.98C27.7541 59.98 27.7538 59.98 27.7536 59.98C27.7533 59.98 27.7531 59.98 27.7528 59.98C27.7526 59.98 27.7523 59.98 27.7521 59.98C27.7518 59.98 27.7516 59.98 27.7513 59.98C27.7511 59.98 27.7508 59.98 27.7506 59.98C27.7503 59.98 27.7501 59.98 27.7498 59.98C27.7496 59.98 27.7493 59.98 27.7491 59.98C27.7488 59.98 27.7486 59.98 27.7483 59.98C27.7481 59.98 27.7478 59.98 27.7476 59.98C27.7473 59.98 27.7471 59.98 27.7468 59.98C27.7466 59.98 27.7463 59.98 27.7461 59.98C27.7458 59.98 27.7456 59.98 27.7453 59.98C27.7451 59.98 27.7448 59.98 27.7445 59.98C27.7443 59.98 27.744 59.98 27.7438 59.98C27.7435 59.98 27.7433 59.98 27.743 59.98C27.7428 59.98 27.7425 59.98 27.7423 59.98C27.742 59.98 27.7418 59.98 27.7415 59.98C27.7413 59.98 27.741 59.98 27.7408 59.98C27.7405 59.98 27.7403 59.98 27.74 59.98C27.7398 59.98 27.7395 59.98 27.7393 59.98C27.739 59.98 27.7387 59.98 27.7385 59.98C27.7382 59.98 27.738 59.98 27.7377 59.98C27.7375 59.98 27.7372 59.98 27.737 59.98C27.7367 59.98 27.7365 59.98 27.7362 59.98C27.736 59.98 27.7357 59.98 27.7355 59.98C27.7352 59.98 27.735 59.98 27.7347 59.98C27.7344 59.98 27.7342 59.98 27.7339 59.98C27.7337 59.98 27.7334 59.98 27.7332 59.98C27.7329 59.98 27.7327 59.98 27.7324 59.98C27.7322 59.98 27.7319 59.98 27.7317 59.98C27.7314 59.98 27.7312 59.98 27.7309 59.98C27.7306 59.98 27.7304 59.98 27.7301 59.98C27.7299 59.98 27.7296 59.98 27.7294 59.98C27.7291 59.98 27.7289 59.98 27.7286 59.98C27.7284 59.98 27.7281 59.98 27.7279 59.98C27.7276 59.98 27.7273 59.98 27.7271 59.98C27.7268 59.98 27.7266 59.98 27.7263 59.98C27.7261 59.98 27.7258 59.98 27.7256 59.98C27.7253 59.98 27.7251 59.98 27.7248 59.98C27.7245 59.98 27.7243 59.98 27.724 59.98C27.7238 59.98 27.7235 59.98 27.7233 59.98C27.723 59.98 27.7228 59.98 27.7225 59.98C27.7223 59.98 27.722 59.98 27.7217 59.98C27.7215 59.98 27.7212 59.98 27.721 59.98C27.7207 59.98 27.7205 59.98 27.7202 59.98C27.72 59.98 27.7197 59.98 27.7194 59.98C27.7192 59.98 27.7189 59.98 27.7187 59.98C27.7184 59.98 27.7182 59.98 27.7179 59.98C27.7177 59.98 27.7174 59.98 27.7171 59.98C27.7169 59.98 27.7166 59.98 27.7164 59.98C27.7161 59.98 27.7159 59.98 27.7156 59.98C27.7154 59.98 27.7151 59.98 27.7148 59.98C27.7146 59.98 27.7143 59.98 27.7141 59.98C27.7138 59.98 27.7136 59.98 27.7133 59.98C27.7131 59.98 27.7128 59.98 27.7125 59.98C27.7123 59.98 27.712 59.98 27.7118 59.98C27.7115 59.98 27.7113 59.98 27.711 59.98C27.7108 59.98 27.7105 59.98 27.7102 59.98C27.71 59.98 27.7097 59.98 27.7095 59.98C27.7092 59.98 27.709 59.98 27.7087 59.98C27.7084 59.98 27.7082 59.98 27.7079 59.98C27.7077 59.98 27.7074 59.98 27.7072 59.98C27.7069 59.98 27.7066 59.98 27.7064 59.98C27.7061 59.98 27.7059 59.98 27.7056 59.98C27.7054 59.98 27.7051 59.98 27.7048 59.98C27.7046 59.98 27.7043 59.98 27.7041 59.98C27.7038 59.98 27.7036 59.98 27.7033 59.98C27.703 59.98 27.7028 59.98 27.7025 59.98C27.7023 59.98 27.702 59.98 27.7018 59.98C27.7015 59.98 27.7012 59.98 27.701 59.98C27.7007 59.98 27.7005 59.98 27.7002 59.98C27.7 59.98 27.6997 59.98 27.6994 59.98C27.6992 59.98 27.6989 59.98 27.6987 59.98C27.6984 59.98 27.6981 59.98 27.6979 59.98C27.6976 59.98 27.6974 59.98 27.6971 59.98C27.6969 59.98 27.6966 59.98 27.6963 59.98C27.6961 59.98 27.6958 59.98 27.6956 59.98C27.6953 59.98 27.695 59.98 27.6948 59.98C27.6945 59.98 27.6943 59.98 27.694 59.98C27.6938 59.98 27.6935 59.98 27.6932 59.98C27.693 59.98 27.6927 59.98 27.6925 59.98C27.6922 59.98 27.6919 59.98 27.6917 59.98C27.6914 59.98 27.6912 59.98 27.6909 59.98C27.6906 59.98 27.6904 59.98 27.6901 59.98C27.6899 59.98 27.6896 59.98 27.6894 59.98C27.6891 59.98 27.6888 59.98 27.6886 59.98C27.6883 59.98 27.6881 59.98 27.6878 59.98C27.6875 59.98 27.6873 59.98 27.687 59.98C27.6868 59.98 27.6865 59.98 27.6862 59.98C27.686 59.98 27.6857 59.98 27.6855 59.98C27.6852 59.98 27.6849 59.98 27.6847 59.98C27.6844 59.98 27.6842 59.98 27.6839 59.98C27.6836 59.98 27.6834 59.98 27.6831 59.98C27.6829 59.98 27.6826 59.98 27.6823 59.98C27.6821 59.98 27.6818 59.98 27.6816 59.98C27.6813 59.98 27.681 59.98 27.6808 59.98C27.6805 59.98 27.6803 59.98 27.68 59.98V62.98C27.6803 62.98 27.6805 62.98 27.6808 62.98C27.681 62.98 27.6813 62.98 27.6816 62.98C27.6818 62.98 27.6821 62.98 27.6823 62.98C27.6826 62.98 27.6829 62.98 27.6831 62.98C27.6834 62.98 27.6836 62.98 27.6839 62.98C27.6842 62.98 27.6844 62.98 27.6847 62.98C27.6849 62.98 27.6852 62.98 27.6855 62.98C27.6857 62.98 27.686 62.98 27.6862 62.98C27.6865 62.98 27.6868 62.98 27.687 62.98C27.6873 62.98 27.6875 62.98 27.6878 62.98C27.6881 62.98 27.6883 62.98 27.6886 62.98C27.6888 62.98 27.6891 62.98 27.6894 62.98C27.6896 62.98 27.6899 62.98 27.6901 62.98C27.6904 62.98 27.6906 62.98 27.6909 62.98C27.6912 62.98 27.6914 62.98 27.6917 62.98C27.6919 62.98 27.6922 62.98 27.6925 62.98C27.6927 62.98 27.693 62.98 27.6932 62.98C27.6935 62.98 27.6938 62.98 27.694 62.98C27.6943 62.98 27.6945 62.98 27.6948 62.98C27.695 62.98 27.6953 62.98 27.6956 62.98C27.6958 62.98 27.6961 62.98 27.6963 62.98C27.6966 62.98 27.6969 62.98 27.6971 62.98C27.6974 62.98 27.6976 62.98 27.6979 62.98C27.6981 62.98 27.6984 62.98 27.6987 62.98C27.6989 62.98 27.6992 62.98 27.6994 62.98C27.6997 62.98 27.7 62.98 27.7002 62.98C27.7005 62.98 27.7007 62.98 27.701 62.98C27.7012 62.98 27.7015 62.98 27.7018 62.98C27.702 62.98 27.7023 62.98 27.7025 62.98C27.7028 62.98 27.703 62.98 27.7033 62.98C27.7036 62.98 27.7038 62.98 27.7041 62.98C27.7043 62.98 27.7046 62.98 27.7048 62.98C27.7051 62.98 27.7054 62.98 27.7056 62.98C27.7059 62.98 27.7061 62.98 27.7064 62.98C27.7066 62.98 27.7069 62.98 27.7072 62.98C27.7074 62.98 27.7077 62.98 27.7079 62.98C27.7082 62.98 27.7084 62.98 27.7087 62.98C27.709 62.98 27.7092 62.98 27.7095 62.98C27.7097 62.98 27.71 62.98 27.7102 62.98C27.7105 62.98 27.7108 62.98 27.711 62.98C27.7113 62.98 27.7115 62.98 27.7118 62.98C27.712 62.98 27.7123 62.98 27.7125 62.98C27.7128 62.98 27.7131 62.98 27.7133 62.98C27.7136 62.98 27.7138 62.98 27.7141 62.98C27.7143 62.98 27.7146 62.98 27.7148 62.98C27.7151 62.98 27.7154 62.98 27.7156 62.98C27.7159 62.98 27.7161 62.98 27.7164 62.98C27.7166 62.98 27.7169 62.98 27.7171 62.98C27.7174 62.98 27.7177 62.98 27.7179 62.98C27.7182 62.98 27.7184 62.98 27.7187 62.98C27.7189 62.98 27.7192 62.98 27.7194 62.98C27.7197 62.98 27.72 62.98 27.7202 62.98C27.7205 62.98 27.7207 62.98 27.721 62.98C27.7212 62.98 27.7215 62.98 27.7217 62.98C27.722 62.98 27.7223 62.98 27.7225 62.98C27.7228 62.98 27.723 62.98 27.7233 62.98C27.7235 62.98 27.7238 62.98 27.724 62.98C27.7243 62.98 27.7245 62.98 27.7248 62.98C27.7251 62.98 27.7253 62.98 27.7256 62.98C27.7258 62.98 27.7261 62.98 27.7263 62.98C27.7266 62.98 27.7268 62.98 27.7271 62.98C27.7273 62.98 27.7276 62.98 27.7279 62.98C27.7281 62.98 27.7284 62.98 27.7286 62.98C27.7289 62.98 27.7291 62.98 27.7294 62.98C27.7296 62.98 27.7299 62.98 27.7301 62.98C27.7304 62.98 27.7306 62.98 27.7309 62.98C27.7312 62.98 27.7314 62.98 27.7317 62.98C27.7319 62.98 27.7322 62.98 27.7324 62.98C27.7327 62.98 27.7329 62.98 27.7332 62.98C27.7334 62.98 27.7337 62.98 27.7339 62.98C27.7342 62.98 27.7344 62.98 27.7347 62.98C27.735 62.98 27.7352 62.98 27.7355 62.98C27.7357 62.98 27.736 62.98 27.7362 62.98C27.7365 62.98 27.7367 62.98 27.737 62.98C27.7372 62.98 27.7375 62.98 27.7377 62.98C27.738 62.98 27.7382 62.98 27.7385 62.98C27.7387 62.98 27.739 62.98 27.7393 62.98C27.7395 62.98 27.7398 62.98 27.74 62.98C27.7403 62.98 27.7405 62.98 27.7408 62.98C27.741 62.98 27.7413 62.98 27.7415 62.98C27.7418 62.98 27.742 62.98 27.7423 62.98C27.7425 62.98 27.7428 62.98 27.743 62.98C27.7433 62.98 27.7435 62.98 27.7438 62.98C27.744 62.98 27.7443 62.98 27.7445 62.98C27.7448 62.98 27.7451 62.98 27.7453 62.98C27.7456 62.98 27.7458 62.98 27.7461 62.98C27.7463 62.98 27.7466 62.98 27.7468 62.98C27.7471 62.98 27.7473 62.98 27.7476 62.98C27.7478 62.98 27.7481 62.98 27.7483 62.98C27.7486 62.98 27.7488 62.98 27.7491 62.98C27.7493 62.98 27.7496 62.98 27.7498 62.98C27.7501 62.98 27.7503 62.98 27.7506 62.98C27.7508 62.98 27.7511 62.98 27.7513 62.98C27.7516 62.98 27.7518 62.98 27.7521 62.98C27.7523 62.98 27.7526 62.98 27.7528 62.98C27.7531 62.98 27.7533 62.98 27.7536 62.98C27.7538 62.98 27.7541 62.98 27.7543 62.98C27.7546 62.98 27.7548 62.98 27.7551 62.98C27.7553 62.98 27.7556 62.98 27.7558 62.98C27.7561 62.98 27.7563 62.98 27.7566 62.98C27.7569 62.98 27.7571 62.98 27.7574 62.98C27.7576 62.98 27.7579 62.98 27.7581 62.98C27.7584 62.98 27.7586 62.98 27.7589 62.98C27.7591 62.98 27.7594 62.98 27.7596 62.98C27.7599 62.98 27.7601 62.98 27.7604 62.98C27.7606 62.98 27.7608 62.98 27.7611 62.98C27.7613 62.98 27.7616 62.98 27.7618 62.98C27.7621 62.98 27.7623 62.98 27.7626 62.98C27.7628 62.98 27.7631 62.98 27.7633 62.98C27.7636 62.98 27.7638 62.98 27.7641 62.98C27.7643 62.98 27.7646 62.98 27.7648 62.98C27.7651 62.98 27.7653 62.98 27.7656 62.98C27.7658 62.98 27.7661 62.98 27.7663 62.98C27.7666 62.98 27.7668 62.98 27.7671 62.98C27.7673 62.98 27.7676 62.98 27.7678 62.98C27.7681 62.98 27.7683 62.98 27.7686 62.98C27.7688 62.98 27.7691 62.98 27.7693 62.98C27.7696 62.98 27.7698 62.98 27.7701 62.98C27.7703 62.98 27.7706 62.98 27.7708 62.98C27.7711 62.98 27.7713 62.98 27.7716 62.98C27.7718 62.98 27.772 62.98 27.7723 62.98C27.7725 62.98 27.7728 62.98 27.773 62.98C27.7733 62.98 27.7735 62.98 27.7738 62.98C27.774 62.98 27.7743 62.98 27.7745 62.98C27.7748 62.98 27.775 62.98 27.7753 62.98C27.7755 62.98 27.7758 62.98 27.776 62.98C27.7763 62.98 27.7765 62.98 27.7768 62.98C27.777 62.98 27.7773 62.98 27.7775 62.98C27.7777 62.98 27.778 62.98 27.7782 62.98C27.7785 62.98 27.7787 62.98 27.779 62.98C27.7792 62.98 27.7795 62.98 27.7797 62.98C27.78 62.98 27.7802 62.98 27.7805 62.98C27.7807 62.98 27.781 62.98 27.7812 62.98C27.7815 62.98 27.7817 62.98 27.7819 62.98C27.7822 62.98 27.7824 62.98 27.7827 62.98C27.7829 62.98 27.7832 62.98 27.7834 62.98C27.7837 62.98 27.7839 62.98 27.7842 62.98C27.7844 62.98 27.7847 62.98 27.7849 62.98C27.7852 62.98 27.7854 62.98 27.7856 62.98C27.7859 62.98 27.7861 62.98 27.7864 62.98C27.7866 62.98 27.7869 62.98 27.7871 62.98C27.7874 62.98 27.7876 62.98 27.7879 62.98C27.7881 62.98 27.7884 62.98 27.7886 62.98C27.7888 62.98 27.7891 62.98 27.7893 62.98C27.7896 62.98 27.7898 62.98 27.7901 62.98C27.7903 62.98 27.7906 62.98 27.7908 62.98C27.7911 62.98 27.7913 62.98 27.7915 62.98C27.7918 62.98 27.792 62.98 27.7923 62.98C27.7925 62.98 27.7928 62.98 27.793 62.98C27.7933 62.98 27.7935 62.98 27.7938 62.98C27.794 62.98 27.7942 62.98 27.7945 62.98C27.7947 62.98 27.795 62.98 27.7952 62.98C27.7955 62.98 27.7957 62.98 27.796 62.98C27.7962 62.98 27.7964 62.98 27.7967 62.98C27.7969 62.98 27.7972 62.98 27.7974 62.98C27.7977 62.98 27.7979 62.98 27.7982 62.98C27.7984 62.98 27.7987 62.98 27.7989 62.98C27.7991 62.98 27.7994 62.98 27.7996 62.98C27.7999 62.98 27.8001 62.98 27.8004 62.98C27.8006 62.98 27.8009 62.98 27.8011 62.98C27.8013 62.98 27.8016 62.98 27.8018 62.98C27.8021 62.98 27.8023 62.98 27.8026 62.98C27.8028 62.98 27.803 62.98 27.8033 62.98C27.8035 62.98 27.8038 62.98 27.804 62.98C27.8043 62.98 27.8045 62.98 27.8048 62.98C27.805 62.98 27.8052 62.98 27.8055 62.98C27.8057 62.98 27.806 62.98 27.8062 62.98C27.8065 62.98 27.8067 62.98 27.8069 62.98C27.8072 62.98 27.8074 62.98 27.8077 62.98C27.8079 62.98 27.8082 62.98 27.8084 62.98C27.8086 62.98 27.8089 62.98 27.8091 62.98C27.8094 62.98 27.8096 62.98 27.8099 62.98C27.8101 62.98 27.8103 62.98 27.8106 62.98C27.8108 62.98 27.8111 62.98 27.8113 62.98C27.8116 62.98 27.8118 62.98 27.812 62.98C27.8123 62.98 27.8125 62.98 27.8128 62.98C27.813 62.98 27.8133 62.98 27.8135 62.98C27.8137 62.98 27.814 62.98 27.8142 62.98C27.8145 62.98 27.8147 62.98 27.815 62.98C27.8152 62.98 27.8154 62.98 27.8157 62.98C27.8159 62.98 27.8162 62.98 27.8164 62.98C27.8167 62.98 27.8169 62.98 27.8171 62.98C27.8174 62.98 27.8176 62.98 27.8179 62.98C27.8181 62.98 27.8183 62.98 27.8186 62.98C27.8188 62.98 27.8191 62.98 27.8193 62.98C27.8196 62.98 27.8198 62.98 27.82 62.98C27.8203 62.98 27.8205 62.98 27.8208 62.98C27.821 62.98 27.8212 62.98 27.8215 62.98C27.8217 62.98 27.822 62.98 27.8222 62.98C27.8224 62.98 27.8227 62.98 27.8229 62.98C27.8232 62.98 27.8234 62.98 27.8237 62.98C27.8239 62.98 27.8241 62.98 27.8244 62.98C27.8246 62.98 27.8249 62.98 27.8251 62.98C27.8253 62.98 27.8256 62.98 27.8258 62.98C27.8261 62.98 27.8263 62.98 27.8265 62.98C27.8268 62.98 27.827 62.98 27.8273 62.98C27.8275 62.98 27.8277 62.98 27.828 62.98C27.8282 62.98 27.8285 62.98 27.8287 62.98C27.8289 62.98 27.8292 62.98 27.8294 62.98C27.8297 62.98 27.8299 62.98 27.8301 62.98C27.8304 62.98 27.8306 62.98 27.8309 62.98C27.8311 62.98 27.8313 62.98 27.8316 62.98C27.8318 62.98 27.8321 62.98 27.8323 62.98C27.8325 62.98 27.8328 62.98 27.833 62.98C27.8333 62.98 27.8335 62.98 27.8337 62.98C27.834 62.98 27.8342 62.98 27.8345 62.98C27.8347 62.98 27.8349 62.98 27.8352 62.98C27.8354 62.98 27.8357 62.98 27.8359 62.98C27.8361 62.98 27.8364 62.98 27.8366 62.98C27.8369 62.98 27.8371 62.98 27.8373 62.98C27.8376 62.98 27.8378 62.98 27.8381 62.98C27.8383 62.98 27.8385 62.98 27.8388 62.98C27.839 62.98 27.8392 62.98 27.8395 62.98C27.8397 62.98 27.84 62.98 27.8402 62.98C27.8404 62.98 27.8407 62.98 27.8409 62.98C27.8412 62.98 27.8414 62.98 27.8416 62.98C27.8419 62.98 27.8421 62.98 27.8423 62.98C27.8426 62.98 27.8428 62.98 27.8431 62.98C27.8433 62.98 27.8435 62.98 27.8438 62.98C27.844 62.98 27.8443 62.98 27.8445 62.98C27.8447 62.98 27.845 62.98 27.8452 62.98C27.8454 62.98 27.8457 62.98 27.8459 62.98C27.8462 62.98 27.8464 62.98 27.8466 62.98C27.8469 62.98 27.8471 62.98 27.8473 62.98C27.8476 62.98 27.8478 62.98 27.8481 62.98C27.8483 62.98 27.8485 62.98 27.8488 62.98C27.849 62.98 27.8492 62.98 27.8495 62.98C27.8497 62.98 27.85 62.98 27.8502 62.98C27.8504 62.98 27.8507 62.98 27.8509 62.98C27.8511 62.98 27.8514 62.98 27.8516 62.98C27.8519 62.98 27.8521 62.98 27.8523 62.98C27.8526 62.98 27.8528 62.98 27.853 62.98C27.8533 62.98 27.8535 62.98 27.8537 62.98C27.854 62.98 27.8542 62.98 27.8545 62.98C27.8547 62.98 27.8549 62.98 27.8552 62.98C27.8554 62.98 27.8556 62.98 27.8559 62.98C27.8561 62.98 27.8563 62.98 27.8566 62.98C27.8568 62.98 27.8571 62.98 27.8573 62.98C27.8575 62.98 27.8578 62.98 27.858 62.98C27.8582 62.98 27.8585 62.98 27.8587 62.98C27.8589 62.98 27.8592 62.98 27.8594 62.98C27.8597 62.98 27.8599 62.98 27.8601 62.98C27.8604 62.98 27.8606 62.98 27.8608 62.98C27.8611 62.98 27.8613 62.98 27.8615 62.98C27.8618 62.98 27.862 62.98 27.8622 62.98C27.8625 62.98 27.8627 62.98 27.863 62.98C27.8632 62.98 27.8634 62.98 27.8637 62.98C27.8639 62.98 27.8641 62.98 27.8644 62.98C27.8646 62.98 27.8648 62.98 27.8651 62.98C27.8653 62.98 27.8655 62.98 27.8658 62.98C27.866 62.98 27.8662 62.98 27.8665 62.98C27.8667 62.98 27.867 62.98 27.8672 62.98C27.8674 62.98 27.8677 62.98 27.8679 62.98C27.8681 62.98 27.8684 62.98 27.8686 62.98C27.8688 62.98 27.8691 62.98 27.8693 62.98C27.8695 62.98 27.8698 62.98 27.87 62.98C27.8702 62.98 27.8705 62.98 27.8707 62.98C27.8709 62.98 27.8712 62.98 27.8714 62.98C27.8716 62.98 27.8719 62.98 27.8721 62.98C27.8723 62.98 27.8726 62.98 27.8728 62.98C27.873 62.98 27.8733 62.98 27.8735 62.98C27.8737 62.98 27.874 62.98 27.8742 62.98C27.8744 62.98 27.8747 62.98 27.8749 62.98C27.8751 62.98 27.8754 62.98 27.8756 62.98C27.8758 62.98 27.8761 62.98 27.8763 62.98C27.8765 62.98 27.8768 62.98 27.877 62.98C27.8773 62.98 27.8775 62.98 27.8777 62.98C27.8779 62.98 27.8782 62.98 27.8784 62.98C27.8786 62.98 27.8789 62.98 27.8791 62.98C27.8793 62.98 27.8796 62.98 27.8798 62.98C27.88 62.98 27.8803 62.98 27.8805 62.98C27.8807 62.98 27.881 62.98 27.8812 62.98C27.8814 62.98 27.8817 62.98 27.8819 62.98C27.8821 62.98 27.8824 62.98 27.8826 62.98C27.8828 62.98 27.8831 62.98 27.8833 62.98C27.8835 62.98 27.8838 62.98 27.884 62.98C27.8842 62.98 27.8845 62.98 27.8847 62.98C27.8849 62.98 27.8852 62.98 27.8854 62.98C27.8856 62.98 27.8859 62.98 27.8861 62.98C27.8863 62.98 27.8866 62.98 27.8868 62.98C27.887 62.98 27.8873 62.98 27.8875 62.98C27.8877 62.98 27.8879 62.98 27.8882 62.98C27.8884 62.98 27.8886 62.98 27.8889 62.98C27.8891 62.98 27.8893 62.98 27.8896 62.98C27.8898 62.98 27.89 62.98 27.8903 62.98C27.8905 62.98 27.8907 62.98 27.891 62.98C27.8912 62.98 27.8914 62.98 27.8917 62.98C27.8919 62.98 27.8921 62.98 27.8923 62.98C27.8926 62.98 27.8928 62.98 27.893 62.98C27.8933 62.98 27.8935 62.98 27.8937 62.98C27.894 62.98 27.8942 62.98 27.8944 62.98C27.8947 62.98 27.8949 62.98 27.8951 62.98C27.8953 62.98 27.8956 62.98 27.8958 62.98C27.896 62.98 27.8963 62.98 27.8965 62.98C27.8967 62.98 27.897 62.98 27.8972 62.98C27.8974 62.98 27.8977 62.98 27.8979 62.98C27.8981 62.98 27.8983 62.98 27.8986 62.98C27.8988 62.98 27.899 62.98 27.8993 62.98C27.8995 62.98 27.8997 62.98 27.9 62.98C27.9002 62.98 27.9004 62.98 27.9006 62.98C27.9009 62.98 27.9011 62.98 27.9013 62.98C27.9016 62.98 27.9018 62.98 27.902 62.98C27.9023 62.98 27.9025 62.98 27.9027 62.98C27.9029 62.98 27.9032 62.98 27.9034 62.98C27.9036 62.98 27.9039 62.98 27.9041 62.98C27.9043 62.98 27.9045 62.98 27.9048 62.98C27.905 62.98 27.9052 62.98 27.9055 62.98C27.9057 62.98 27.9059 62.98 27.9062 62.98C27.9064 62.98 27.9066 62.98 27.9068 62.98C27.9071 62.98 27.9073 62.98 27.9075 62.98C27.9078 62.98 27.908 62.98 27.9082 62.98C27.9084 62.98 27.9087 62.98 27.9089 62.98C27.9091 62.98 27.9094 62.98 27.9096 62.98C27.9098 62.98 27.91 62.98 27.9103 62.98C27.9105 62.98 27.9107 62.98 27.911 62.98C27.9112 62.98 27.9114 62.98 27.9116 62.98C27.9119 62.98 27.9121 62.98 27.9123 62.98C27.9126 62.98 27.9128 62.98 27.913 62.98C27.9132 62.98 27.9135 62.98 27.9137 62.98C27.9139 62.98 27.9141 62.98 27.9144 62.98C27.9146 62.98 27.9148 62.98 27.9151 62.98C27.9153 62.98 27.9155 62.98 27.9157 62.98C27.916 62.98 27.9162 62.98 27.9164 62.98C27.9167 62.98 27.9169 62.98 27.9171 62.98C27.9173 62.98 27.9176 62.98 27.9178 62.98C27.918 62.98 27.9182 62.98 27.9185 62.98C27.9187 62.98 27.9189 62.98 27.9192 62.98C27.9194 62.98 27.9196 62.98 27.9198 62.98C27.9201 62.98 27.9203 62.98 27.9205 62.98C27.9207 62.98 27.921 62.98 27.9212 62.98C27.9214 62.98 27.9216 62.98 27.9219 62.98C27.9221 62.98 27.9223 62.98 27.9226 62.98C27.9228 62.98 27.923 62.98 27.9232 62.98C27.9235 62.98 27.9237 62.98 27.9239 62.98C27.9241 62.98 27.9244 62.98 27.9246 62.98C27.9248 62.98 27.925 62.98 27.9253 62.98C27.9255 62.98 27.9257 62.98 27.926 62.98C27.9262 62.98 27.9264 62.98 27.9266 62.98C27.9269 62.98 27.9271 62.98 27.9273 62.98C27.9275 62.98 27.9278 62.98 27.928 62.98C27.9282 62.98 27.9284 62.98 27.9287 62.98C27.9289 62.98 27.9291 62.98 27.9293 62.98C27.9296 62.98 27.9298 62.98 27.93 62.98C27.9302 62.98 27.9305 62.98 27.9307 62.98C27.9309 62.98 27.9311 62.98 27.9314 62.98C27.9316 62.98 27.9318 62.98 27.932 62.98C27.9323 62.98 27.9325 62.98 27.9327 62.98C27.9329 62.98 27.9332 62.98 27.9334 62.98C27.9336 62.98 27.9338 62.98 27.9341 62.98C27.9343 62.98 27.9345 62.98 27.9347 62.98C27.935 62.98 27.9352 62.98 27.9354 62.98C27.9356 62.98 27.9359 62.98 27.9361 62.98C27.9363 62.98 27.9365 62.98 27.9368 62.98C27.937 62.98 27.9372 62.98 27.9374 62.98C27.9377 62.98 27.9379 62.98 27.9381 62.98C27.9383 62.98 27.9386 62.98 27.9388 62.98C27.939 62.98 27.9392 62.98 27.9395 62.98C27.9397 62.98 27.9399 62.98 27.9401 62.98C27.9404 62.98 27.9406 62.98 27.9408 62.98C27.941 62.98 27.9413 62.98 27.9415 62.98C27.9417 62.98 27.9419 62.98 27.9421 62.98C27.9424 62.98 27.9426 62.98 27.9428 62.98C27.943 62.98 27.9433 62.98 27.9435 62.98C27.9437 62.98 27.9439 62.98 27.9442 62.98C27.9444 62.98 27.9446 62.98 27.9448 62.98C27.9451 62.98 27.9453 62.98 27.9455 62.98C27.9457 62.98 27.9459 62.98 27.9462 62.98C27.9464 62.98 27.9466 62.98 27.9468 62.98C27.9471 62.98 27.9473 62.98 27.9475 62.98C27.9477 62.98 27.948 62.98 27.9482 62.98C27.9484 62.98 27.9486 62.98 27.9488 62.98C27.9491 62.98 27.9493 62.98 27.9495 62.98C27.9497 62.98 27.95 62.98 27.9502 62.98C27.9504 62.98 27.9506 62.98 27.9508 62.98C27.9511 62.98 27.9513 62.98 27.9515 62.98C27.9517 62.98 27.952 62.98 27.9522 62.98C27.9524 62.98 27.9526 62.98 27.9528 62.98C27.9531 62.98 27.9533 62.98 27.9535 62.98C27.9537 62.98 27.954 62.98 27.9542 62.98C27.9544 62.98 27.9546 62.98 27.9548 62.98C27.9551 62.98 27.9553 62.98 27.9555 62.98C27.9557 62.98 27.956 62.98 27.9562 62.98C27.9564 62.98 27.9566 62.98 27.9568 62.98C27.9571 62.98 27.9573 62.98 27.9575 62.98C27.9577 62.98 27.9579 62.98 27.9582 62.98C27.9584 62.98 27.9586 62.98 27.9588 62.98C27.959 62.98 27.9593 62.98 27.9595 62.98C27.9597 62.98 27.9599 62.98 27.9602 62.98C27.9604 62.98 27.9606 62.98 27.9608 62.98C27.961 62.98 27.9613 62.98 27.9615 62.98C27.9617 62.98 27.9619 62.98 27.9621 62.98C27.9624 62.98 27.9626 62.98 27.9628 62.98C27.963 62.98 27.9632 62.98 27.9635 62.98C27.9637 62.98 27.9639 62.98 27.9641 62.98C27.9643 62.98 27.9646 62.98 27.9648 62.98C27.965 62.98 27.9652 62.98 27.9654 62.98C27.9657 62.98 27.9659 62.98 27.9661 62.98C27.9663 62.98 27.9665 62.98 27.9668 62.98C27.967 62.98 27.9672 62.98 27.9674 62.98C27.9676 62.98 27.9679 62.98 27.9681 62.98C27.9683 62.98 27.9685 62.98 27.9687 62.98C27.969 62.98 27.9692 62.98 27.9694 62.98C27.9696 62.98 27.9698 62.98 27.9701 62.98C27.9703 62.98 27.9705 62.98 27.9707 62.98C27.9709 62.98 27.9712 62.98 27.9714 62.98C27.9716 62.98 27.9718 62.98 27.972 62.98C27.9723 62.98 27.9725 62.98 27.9727 62.98C27.9729 62.98 27.9731 62.98 27.9734 62.98C27.9736 62.98 27.9738 62.98 27.974 62.98C27.9742 62.98 27.9744 62.98 27.9747 62.98C27.9749 62.98 27.9751 62.98 27.9753 62.98C27.9755 62.98 27.9758 62.98 27.976 62.98C27.9762 62.98 27.9764 62.98 27.9766 62.98C27.9768 62.98 27.9771 62.98 27.9773 62.98C27.9775 62.98 27.9777 62.98 27.9779 62.98C27.9782 62.98 27.9784 62.98 27.9786 62.98C27.9788 62.98 27.979 62.98 27.9792 62.98C27.9795 62.98 27.9797 62.98 27.9799 62.98C27.9801 62.98 27.9803 62.98 27.9806 62.98C27.9808 62.98 27.981 62.98 27.9812 62.98C27.9814 62.98 27.9816 62.98 27.9819 62.98C27.9821 62.98 27.9823 62.98 27.9825 62.98C27.9827 62.98 27.983 62.98 27.9832 62.98C27.9834 62.98 27.9836 62.98 27.9838 62.98C27.984 62.98 27.9843 62.98 27.9845 62.98C27.9847 62.98 27.9849 62.98 27.9851 62.98C27.9853 62.98 27.9856 62.98 27.9858 62.98C27.986 62.98 27.9862 62.98 27.9864 62.98C27.9866 62.98 27.9869 62.98 27.9871 62.98C27.9873 62.98 27.9875 62.98 27.9877 62.98C27.9879 62.98 27.9882 62.98 27.9884 62.98C27.9886 62.98 27.9888 62.98 27.989 62.98C27.9892 62.98 27.9895 62.98 27.9897 62.98C27.9899 62.98 27.9901 62.98 27.9903 62.98C27.9905 62.98 27.9908 62.98 27.991 62.98C27.9912 62.98 27.9914 62.98 27.9916 62.98C27.9918 62.98 27.9921 62.98 27.9923 62.98C27.9925 62.98 27.9927 62.98 27.9929 62.98C27.9931 62.98 27.9933 62.98 27.9936 62.98C27.9938 62.98 27.994 62.98 27.9942 62.98C27.9944 62.98 27.9946 62.98 27.9949 62.98C27.9951 62.98 27.9953 62.98 27.9955 62.98C27.9957 62.98 27.9959 62.98 27.9962 62.98C27.9964 62.98 27.9966 62.98 27.9968 62.98C27.997 62.98 27.9972 62.98 27.9974 62.98C27.9977 62.98 27.9979 62.98 27.9981 62.98C27.9983 62.98 27.9985 62.98 27.9987 62.98C27.9989 62.98 27.9992 62.98 27.9994 62.98C27.9996 62.98 27.9998 62.98 28 62.98C28.0002 62.98 28.0005 62.98 28.0007 62.98C28.0009 62.98 28.0011 62.98 28.0013 62.98C28.0015 62.98 28.0017 62.98 28.002 62.98C28.0022 62.98 28.0024 62.98 28.0026 62.98C28.0028 62.98 28.003 62.98 28.0032 62.98C28.0035 62.98 28.0037 62.98 28.0039 62.98C28.0041 62.98 28.0043 62.98 28.0045 62.98C28.0047 62.98 28.005 62.98 28.0052 62.98C28.0054 62.98 28.0056 62.98 28.0058 62.98C28.006 62.98 28.0062 62.98 28.0064 62.98C28.0067 62.98 28.0069 62.98 28.0071 62.98C28.0073 62.98 28.0075 62.98 28.0077 62.98C28.0079 62.98 28.0082 62.98 28.0084 62.98C28.0086 62.98 28.0088 62.98 28.009 62.98C28.0092 62.98 28.0094 62.98 28.0096 62.98C28.0099 62.98 28.0101 62.98 28.0103 62.98C28.0105 62.98 28.0107 62.98 28.0109 62.98C28.0111 62.98 28.0114 62.98 28.0116 62.98C28.0118 62.98 28.012 62.98 28.0122 62.98C28.0124 62.98 28.0126 62.98 28.0128 62.98C28.0131 62.98 28.0133 62.98 28.0135 62.98C28.0137 62.98 28.0139 62.98 28.0141 62.98C28.0143 62.98 28.0145 62.98 28.0148 62.98C28.015 62.98 28.0152 62.98 28.0154 62.98C28.0156 62.98 28.0158 62.98 28.016 62.98C28.0162 62.98 28.0165 62.98 28.0167 62.98C28.0169 62.98 28.0171 62.98 28.0173 62.98C28.0175 62.98 28.0177 62.98 28.0179 62.98C28.0182 62.98 28.0184 62.98 28.0186 62.98C28.0188 62.98 28.019 62.98 28.0192 62.98C28.0194 62.98 28.0196 62.98 28.0198 62.98C28.0201 62.98 28.0203 62.98 28.0205 62.98C28.0207 62.98 28.0209 62.98 28.0211 62.98C28.0213 62.98 28.0215 62.98 28.0217 62.98C28.022 62.98 28.0222 62.98 28.0224 62.98C28.0226 62.98 28.0228 62.98 28.023 62.98C28.0232 62.98 28.0234 62.98 28.0236 62.98C28.0239 62.98 28.0241 62.98 28.0243 62.98C28.0245 62.98 28.0247 62.98 28.0249 62.98C28.0251 62.98 28.0253 62.98 28.0255 62.98C28.0258 62.98 28.026 62.98 28.0262 62.98C28.0264 62.98 28.0266 62.98 28.0268 62.98C28.027 62.98 28.0272 62.98 28.0274 62.98C28.0277 62.98 28.0279 62.98 28.0281 62.98C28.0283 62.98 28.0285 62.98 28.0287 62.98C28.0289 62.98 28.0291 62.98 28.0293 62.98C28.0295 62.98 28.0298 62.98 28.03 62.98C28.0302 62.98 28.0304 62.98 28.0306 62.98C28.0308 62.98 28.031 62.98 28.0312 62.98C28.0314 62.98 28.0316 62.98 28.0319 62.98C28.0321 62.98 28.0323 62.98 28.0325 62.98C28.0327 62.98 28.0329 62.98 28.0331 62.98C28.0333 62.98 28.0335 62.98 28.0337 62.98C28.0339 62.98 28.0342 62.98 28.0344 62.98C28.0346 62.98 28.0348 62.98 28.035 62.98C28.0352 62.98 28.0354 62.98 28.0356 62.98C28.0358 62.98 28.036 62.98 28.0362 62.98C28.0365 62.98 28.0367 62.98 28.0369 62.98C28.0371 62.98 28.0373 62.98 28.0375 62.98C28.0377 62.98 28.0379 62.98 28.0381 62.98C28.0383 62.98 28.0385 62.98 28.0388 62.98C28.039 62.98 28.0392 62.98 28.0394 62.98C28.0396 62.98 28.0398 62.98 28.04 62.98V59.98ZM27.68 59.98C25.4063 59.98 23.7896 59.5766 22.6953 58.9159L21.1447 61.4841C22.8771 62.53 25.1003 62.98 27.68 62.98V59.98ZM22.6953 58.9159C21.5792 58.242 20.7793 57.2841 20.2806 55.9831L17.4794 57.0569C18.2073 58.9559 19.4341 60.4513 21.1447 61.4841L22.6953 58.9159ZM20.2806 55.9831C19.749 54.5964 19.46 52.8807 19.46 50.8H16.46C16.46 53.1459 16.7843 55.2436 17.4794 57.0569L20.2806 55.9831ZM19.46 50.8V38.76H16.46V50.8H19.46ZM19.46 38.76C19.46 36.6489 19.7501 34.938 20.2776 33.5848L17.4824 32.4952C16.7833 34.2887 16.46 36.3911 16.46 38.76H19.46ZM20.2776 33.5848C20.7723 32.3158 21.5656 31.3851 22.6773 30.7348L21.1627 28.1452C19.4478 29.1483 18.2144 30.6175 17.4824 32.4952L20.2776 33.5848ZM22.6953 30.7241C23.7896 30.0634 25.4063 29.66 27.68 29.66V26.66C25.1003 26.66 22.8771 27.1099 21.1447 28.1559L22.6953 30.7241ZM27.68 29.66C29.9839 29.66 31.6125 30.0646 32.7047 30.7241L34.2553 28.1559C32.5209 27.1087 30.2827 26.66 27.68 26.66V29.66ZM32.7332 30.7409C33.8709 31.394 34.6711 32.3245 35.1624 33.5848L37.9576 32.4952C37.2222 30.6089 35.9691 29.1393 34.2268 28.1391L32.7332 30.7409ZM35.1624 33.5848C35.6899 34.938 35.98 36.6489 35.98 38.76H38.98C38.98 36.3911 38.6567 34.2887 37.9576 32.4952L35.1624 33.5848ZM35.98 38.76V50.8H38.98V38.76H35.98ZM35.98 50.8C35.98 52.2256 35.8422 53.4792 35.5811 54.5711L38.4989 55.2689C38.8244 53.9074 38.98 52.4144 38.98 50.8H35.98ZM35.5742 54.6014C35.3447 55.6573 34.9644 56.5327 34.4545 57.255L36.9055 58.985C37.6756 57.894 38.202 56.636 38.5058 55.2386L35.5742 54.6014ZM34.4376 57.2795C33.9752 57.963 33.3466 58.5191 32.5155 58.9453L33.8845 61.6147C35.1334 60.9743 36.1581 60.0903 36.9224 58.9605L34.4376 57.2795ZM32.1008 61.3007C32.4727 61.7011 32.8589 62.0873 33.2593 62.4592L35.3007 60.2608C34.9545 59.9393 34.6207 59.6055 34.2992 59.2593L32.1008 61.3007ZM33.2193 62.4207C33.6303 62.8316 34.0481 63.2054 34.4733 63.5395L36.3267 61.1805C36.0052 60.9279 35.6764 60.635 35.3407 60.2993L33.2193 62.4207ZM34.4238 63.4989C34.8742 63.885 35.3488 64.2114 35.8492 64.4616L37.1908 61.7784C36.9446 61.6552 36.6724 61.475 36.3762 61.2211L34.4238 63.4989ZM35.108 62.6138L33.588 66.8538L36.412 67.8662L37.932 63.6262L35.108 62.6138ZM27.68 57.9C28.6478 57.9 29.6783 57.6585 30.4192 56.8607L28.2208 54.8193C28.2683 54.7682 28.2055 54.9 27.68 54.9V57.9ZM30.4192 56.8607C30.9918 56.244 31.3268 55.4877 31.4758 54.6683L28.5242 54.1317C28.4598 54.4856 28.3415 54.6894 28.2208 54.8193L30.4192 56.8607ZM31.4758 54.6683C31.599 53.9906 31.66 53.3008 31.66 52.6H28.66C28.66 53.1259 28.6143 53.636 28.5242 54.1317L31.4758 54.6683ZM31.66 52.6V37H28.66V52.6H31.66ZM31.66 37C31.66 36.2771 31.5998 35.5823 31.4735 34.9193L28.5265 35.4807C28.6135 35.9377 28.66 36.4429 28.66 37H31.66ZM31.4758 34.9317C31.3268 34.1123 30.9918 33.356 30.4192 32.7393L28.2208 34.7807C28.3415 34.9106 28.4598 35.1144 28.5242 35.4683L31.4758 34.9317ZM30.4192 32.7393C29.6783 31.9415 28.6478 31.7 27.68 31.7V34.7C28.2055 34.7 28.2683 34.8318 28.2208 34.7807L30.4192 32.7393ZM27.68 31.7C26.7122 31.7 25.6817 31.9415 24.9408 32.7393L27.1392 34.7807C27.0917 34.8318 27.1545 34.7 27.68 34.7V31.7ZM24.9011 32.7838C24.3747 33.398 24.0683 34.1389 23.9242 34.9317L26.8758 35.4683C26.945 35.0877 27.0653 34.8686 27.1789 34.7362L24.9011 32.7838ZM23.9151 34.9879C23.8238 35.6266 23.78 36.2981 23.78 37H26.78C26.78 36.4219 26.8162 35.8934 26.8849 35.4121L23.9151 34.9879ZM23.78 37V52.6H26.78V37H23.78ZM23.78 52.6C23.78 53.2787 23.8243 53.9465 23.9138 54.6027L26.8862 54.1973C26.8157 53.6802 26.78 53.148 26.78 52.6H23.78ZM23.9242 54.6683C24.0683 55.4611 24.3747 56.202 24.9011 56.8162L27.1789 54.8638C27.0653 54.7313 26.945 54.5123 26.8758 54.1317L23.9242 54.6683ZM24.9408 56.8607C25.6817 57.6585 26.7122 57.9 27.68 57.9V54.9C27.1545 54.9 27.0917 54.7682 27.1392 54.8193L24.9408 56.8607Z" fill="#DF191A"/>
<path d="M33.0003 73.7031C33.316 74.1973 33.7261 74.7824 34.1999 75.4233C35.3051 76.9183 36.7895 78.7609 38.3209 80.5516C39.8516 82.3417 41.4401 84.0925 42.7542 85.4009C43.4077 86.0515 44.0061 86.6056 44.5032 87.0024C44.0061 87.3993 43.4077 87.9533 42.7542 88.6039C41.4401 89.9122 39.8517 91.6628 38.3209 93.4526C36.7896 95.243 35.3052 97.0851 34.2 98.5794C33.7261 99.2201 33.316 99.8048 33.0003 100.299C32.6845 99.8048 32.2744 99.2201 31.8005 98.5794C30.6953 97.0851 29.2109 95.243 27.6795 93.4526C26.1487 91.6628 24.5603 89.9121 23.2461 88.6038C22.5925 87.9533 21.9941 87.3993 21.497 87.0024C21.9941 86.6056 22.5925 86.0515 23.2461 85.4009C24.5603 84.0925 26.1488 82.3417 27.6796 80.5516C29.2109 78.7609 30.6954 76.9183 31.8006 75.4233C32.2744 74.7824 32.6845 74.1973 33.0003 73.7031Z" fill="#FF191A" stroke="#DF191A" stroke-width="1.5" stroke-linejoin="round"/>
<path d="M79.0006 168.966C78.8648 168.718 78.7124 168.455 78.5453 168.178C77.8283 166.99 76.8087 165.497 75.5854 163.816C73.1367 160.452 69.8399 156.294 66.4336 152.248C63.0279 148.202 59.502 144.254 56.5942 141.313C55.142 139.844 53.8312 138.613 52.7592 137.744C52.4122 137.463 52.0835 137.214 51.7776 137.005C52.0835 136.797 52.4122 136.548 52.7592 136.267C53.8313 135.398 55.1421 134.167 56.5942 132.698C59.5021 129.756 63.0279 125.808 66.4337 121.762C69.8399 117.714 73.1368 113.556 75.5855 110.19C76.8088 108.509 77.8284 107.014 78.5454 105.825C78.7125 105.548 78.8648 105.285 79.0006 105.037C79.1363 105.285 79.2887 105.548 79.4557 105.825C80.1727 107.014 81.1923 108.509 82.4156 110.19C84.8643 113.556 88.1611 117.714 91.5673 121.762C94.973 125.808 98.4987 129.756 101.406 132.698C102.858 134.167 104.169 135.398 105.241 136.267C105.588 136.548 105.917 136.797 106.223 137.005C105.917 137.214 105.588 137.463 105.241 137.744C104.169 138.613 102.859 139.844 101.406 141.313C98.4988 144.254 94.973 148.202 91.5674 152.248C88.1612 156.294 84.8644 160.452 82.4157 163.816C81.1924 165.497 80.1728 166.99 79.4559 168.178C79.2888 168.455 79.1363 168.718 79.0006 168.966Z" fill="#FF191A" stroke="#DF191A" stroke-width="1.5" stroke-linejoin="round"/>
<defs>
<filter id="filter0_dd_350_2858" x="2" y="14" width="128" height="184" filterUnits="userSpaceOnUse" color-interpolation-filters="sRGB">
<feFlood flood-opacity="0" result="BackgroundImageFix"/>
<feColorMatrix in="SourceAlpha" type="matrix" values="0 0 0 0 0 0 0 0 0 0 0 0 0 0 0 0 0 0 127 0" result="hardAlpha"/>
<feOffset dy="6"/>
<feGaussianBlur stdDeviation="4"/>
<feColorMatrix type="matrix" values="0 0 0 0 0 0 0 0 0 0 0 0 0 0 0 0 0 0 0.15 0"/>
<feBlend mode="normal" in2="BackgroundImageFix" result="effect1_dropShadow_350_2858"/>
<feColorMatrix in="SourceAlpha" type="matrix" values="0 0 0 0 0 0 0 0 0 0 0 0 0 0 0 0 0 0 127 0" result="hardAlpha"/>
<feOffset dy="4"/>
<feGaussianBlur stdDeviation="2"/>
<feColorMatrix type="matrix" values="0 0 0 0 0 0 0 0 0 0 0 0 0 0 0 0 0 0 0.25 0"/>
<feBlend mode="normal" in2="effect1_dropShadow_350_2858" result="effect2_dropShadow_350_2858"/>
<feBlend mode="normal" in="SourceGraphic" in2="effect2_dropShadow_350_2858" result="shape"/>
</filter>
</defs>
</svg>
