<svg width="132" height="200" viewBox="0 0 132 200" fill="none" xmlns="http://www.w3.org/2000/svg">
<g filter="url(#filter0_dd_350_2868)">
<rect x="10" y="16" width="112" height="168" rx="12" fill="#F1F5F9"/>
</g>
<path d="M18.4 61V28.6H25.56V41.84L31 28.6H38L32 43.24L38.28 61H31L26.32 46.68L25.56 47.96V61H18.4Z" fill="#FF191A"/>
<path d="M18.4 61H16.9C16.9 61.8284 17.5716 62.5 18.4 62.5V61ZM18.4 28.6V27.1C17.5716 27.1 16.9 27.7716 16.9 28.6H18.4ZM25.56 28.6H27.06C27.06 27.7716 26.3884 27.1 25.56 27.1V28.6ZM25.56 41.84H24.06C24.06 42.5564 24.5666 43.1728 25.2695 43.3116C25.9723 43.4504 26.6752 43.0727 26.9475 42.4101L25.56 41.84ZM31 28.6V27.1C30.3918 27.1 29.8437 27.4673 29.6126 28.0299L31 28.6ZM38 28.6L39.388 29.1688C39.5776 28.7062 39.5242 28.1795 39.2456 27.7643C38.9671 27.3491 38.5 27.1 38 27.1V28.6ZM32 43.24L30.612 42.6712C30.4723 43.0121 30.463 43.3926 30.5858 43.7401L32 43.24ZM38.28 61V62.5C38.767 62.5 39.2236 62.2636 39.5048 61.866C39.7859 61.4684 39.8565 60.959 39.6942 60.4999L38.28 61ZM31 61L29.5742 61.466C29.7758 62.0828 30.3511 62.5 31 62.5V61ZM26.32 46.68L27.7458 46.214C27.5629 45.6545 27.0697 45.2537 26.4846 45.1891C25.8995 45.1245 25.3307 45.408 25.0302 45.9142L26.32 46.68ZM25.56 47.96L24.2702 47.1942C24.1326 47.4259 24.06 47.6905 24.06 47.96H25.56ZM25.56 61V62.5C26.3884 62.5 27.06 61.8284 27.06 61H25.56ZM19.9 61V28.6H16.9V61H19.9ZM18.4 30.1H25.56V27.1H18.4V30.1ZM24.06 28.6V41.84H27.06V28.6H24.06ZM26.9475 42.4101L32.3875 29.1701L29.6126 28.0299L24.1725 41.2699L26.9475 42.4101ZM31 30.1H38V27.1H31V30.1ZM36.612 28.0312L30.612 42.6712L33.388 43.8088L39.388 29.1688L36.612 28.0312ZM30.5858 43.7401L36.8658 61.5001L39.6942 60.4999L33.4142 42.7399L30.5858 43.7401ZM38.28 59.5H31V62.5H38.28V59.5ZM32.4258 60.534L27.7458 46.214L24.8942 47.146L29.5742 61.466L32.4258 60.534ZM25.0302 45.9142L24.2702 47.1942L26.8498 48.7258L27.6098 47.4458L25.0302 45.9142ZM24.06 47.96V61H27.06V47.96H24.06ZM25.56 59.5H18.4V62.5H25.56V59.5Z" fill="#DF191A"/>
<path d="M33.0003 73.7031C33.316 74.1973 33.7261 74.7824 34.1999 75.4233C35.3051 76.9183 36.7895 78.7609 38.3209 80.5516C39.8516 82.3417 41.4401 84.0925 42.7542 85.4009C43.4077 86.0515 44.0061 86.6056 44.5032 87.0024C44.0061 87.3993 43.4077 87.9533 42.7542 88.6039C41.4401 89.9122 39.8517 91.6628 38.3209 93.4526C36.7896 95.243 35.3052 97.0851 34.2 98.5794C33.7261 99.2201 33.316 99.8048 33.0003 100.299C32.6845 99.8048 32.2744 99.2201 31.8005 98.5794C30.6953 97.0851 29.2109 95.243 27.6795 93.4526C26.1487 91.6628 24.5603 89.9121 23.2461 88.6038C22.5925 87.9533 21.9941 87.3993 21.497 87.0024C21.9941 86.6056 22.5925 86.0515 23.2461 85.4009C24.5603 84.0925 26.1488 82.3417 27.6796 80.5516C29.2109 78.7609 30.6954 76.9183 31.8006 75.4233C32.2744 74.7824 32.6845 74.1973 33.0003 73.7031Z" fill="#FF191A" stroke="#DF191A" stroke-width="1.5" stroke-linejoin="round"/>
<path d="M79.0006 168.966C78.8648 168.718 78.7124 168.455 78.5453 168.178C77.8283 166.99 76.8087 165.497 75.5854 163.816C73.1367 160.452 69.8399 156.294 66.4336 152.248C63.0279 148.202 59.502 144.254 56.5942 141.313C55.142 139.844 53.8312 138.613 52.7592 137.744C52.4122 137.463 52.0835 137.214 51.7776 137.005C52.0835 136.797 52.4122 136.548 52.7592 136.267C53.8313 135.398 55.1421 134.167 56.5942 132.698C59.5021 129.756 63.0279 125.808 66.4337 121.762C69.8399 117.714 73.1368 113.556 75.5855 110.19C76.8088 108.509 77.8284 107.014 78.5454 105.825C78.7125 105.548 78.8648 105.285 79.0006 105.037C79.1363 105.285 79.2887 105.548 79.4557 105.825C80.1727 107.014 81.1923 108.509 82.4156 110.19C84.8643 113.556 88.1611 117.714 91.5673 121.762C94.973 125.808 98.4987 129.756 101.406 132.698C102.858 134.167 104.169 135.398 105.241 136.267C105.588 136.548 105.917 136.797 106.223 137.005C105.917 137.214 105.588 137.463 105.241 137.744C104.169 138.613 102.859 139.844 101.406 141.313C98.4988 144.254 94.973 148.202 91.5674 152.248C88.1612 156.294 84.8644 160.452 82.4157 163.816C81.1924 165.497 80.1728 166.99 79.4559 168.178C79.2888 168.455 79.1363 168.718 79.0006 168.966Z" fill="#FF191A" stroke="#DF191A" stroke-width="1.5" stroke-linejoin="round"/>
<defs>
<filter id="filter0_dd_350_2868" x="2" y="14" width="128" height="184" filterUnits="userSpaceOnUse" color-interpolation-filters="sRGB">
<feFlood flood-opacity="0" result="BackgroundImageFix"/>
<feColorMatrix in="SourceAlpha" type="matrix" values="0 0 0 0 0 0 0 0 0 0 0 0 0 0 0 0 0 0 127 0" result="hardAlpha"/>
<feOffset dy="6"/>
<feGaussianBlur stdDeviation="4"/>
<feColorMatrix type="matrix" values="0 0 0 0 0 0 0 0 0 0 0 0 0 0 0 0 0 0 0.15 0"/>
<feBlend mode="normal" in2="BackgroundImageFix" result="effect1_dropShadow_350_2868"/>
<feColorMatrix in="SourceAlpha" type="matrix" values="0 0 0 0 0 0 0 0 0 0 0 0 0 0 0 0 0 0 127 0" result="hardAlpha"/>
<feOffset dy="4"/>
<feGaussianBlur stdDeviation="2"/>
<feColorMatrix type="matrix" values="0 0 0 0 0 0 0 0 0 0 0 0 0 0 0 0 0 0 0.25 0"/>
<feBlend mode="normal" in2="effect1_dropShadow_350_2868" result="effect2_dropShadow_350_2868"/>
<feBlend mode="normal" in="SourceGraphic" in2="effect2_dropShadow_350_2868" result="shape"/>
</filter>
</defs>
</svg>
