<svg width="132" height="200" viewBox="0 0 132 200" fill="none" xmlns="http://www.w3.org/2000/svg">
<g filter="url(#filter0_dd_350_2638)">
<rect x="10" y="16" width="112" height="168" rx="12" fill="#F1F5F9"/>
</g>
<path d="M35.914 100.541C36.0822 100.774 36.2497 101.006 36.4161 101.25H29.5837C29.7501 101.006 29.9177 100.774 30.0858 100.541C30.1009 100.52 30.116 100.499 30.1311 100.479C30.5149 99.9481 30.9115 99.3999 31.2577 98.7546C31.9969 97.3765 32.4682 95.6321 32.4682 92.5501C32.4682 91.8377 31.8221 91.5 31.352 91.5C30.8812 91.5 30.2359 91.8382 30.2359 92.5501C30.2359 94.4882 28.2592 96.3 25.4928 96.3C22.7266 96.3 20.75 94.4882 20.75 92.5501C20.75 88.5726 22.9109 85.4931 25.6865 82.3805C26.2614 81.7358 26.8655 81.0876 27.4787 80.4298C29.4489 78.3163 31.5123 76.1026 33 73.5791C34.4876 76.1027 36.5511 78.3164 38.5213 80.43C39.1345 81.0878 39.7385 81.7358 40.3134 82.3805C43.089 85.4931 45.25 88.5726 45.25 92.5501C45.25 94.4882 43.2732 96.3 40.5069 96.3C37.7407 96.3 35.7641 94.4882 35.7641 92.5501C35.7641 91.8377 35.1179 91.5 34.6478 91.5C34.1777 91.5 33.5315 91.8377 33.5315 92.5501C33.5315 95.6322 34.003 97.3765 34.7422 98.7546C35.0883 99.3998 35.4849 99.948 35.8686 100.478C35.8838 100.499 35.8989 100.52 35.914 100.541Z" fill="black" fill-opacity="0.8" stroke="black" stroke-width="1.5"/>
<path d="M70.7441 115.238C73.8662 111.909 76.7713 108.406 79 104.547C81.2285 108.406 84.1336 111.909 87.2557 115.238C89.2048 117.316 91.2803 119.368 93.3326 121.398C94.8695 122.917 96.3933 124.424 97.8414 125.919C104.704 133.006 110.25 140.211 110.25 149.58C110.25 152.11 108.893 154.455 106.588 156.194C104.283 157.933 101.065 159.03 97.4786 159.03C93.8924 159.03 90.6744 157.933 88.3695 156.194C86.065 154.455 84.7078 152.11 84.7078 149.58C84.7078 149.105 84.4507 148.731 84.1455 148.501C83.8405 148.271 83.4529 148.15 83.0561 148.15C82.6594 148.15 82.2718 148.271 81.9668 148.501C81.6616 148.731 81.4045 149.105 81.4045 149.58C81.4045 156.471 82.5482 160.267 84.2672 163.218C85.0862 164.624 86.0263 165.82 86.9786 167.032L87.0791 167.16C87.8335 168.121 88.6013 169.106 89.3599 170.25H68.6396C69.3983 169.106 70.1662 168.121 70.9206 167.16L71.0207 167.033C71.9732 165.82 72.9134 164.624 73.7324 163.218C75.4513 160.267 76.5949 156.471 76.5949 149.58C76.5949 149.105 76.3379 148.731 76.0326 148.501C75.7277 148.271 75.3401 148.15 74.9433 148.15C74.5465 148.15 74.1589 148.271 73.854 148.501C73.5488 148.731 73.2922 149.106 73.2922 149.58C73.2922 152.11 71.9349 154.455 69.6302 156.194C67.3252 157.933 64.107 159.03 60.5208 159.03C56.9346 159.03 53.7166 157.933 51.4117 156.194C49.1073 154.455 47.75 152.11 47.75 149.58C47.75 140.211 53.2956 133.006 60.1584 125.919C61.6066 124.424 63.1306 122.917 64.6676 121.397C66.7198 119.368 68.7951 117.316 70.7441 115.238Z" fill="black" fill-opacity="0.8" stroke="black" stroke-width="1.5"/>
<path d="M32.4703 61.52C30.2836 61.52 28.537 61.0933 27.2303 60.24C25.9236 59.36 24.9903 58.16 24.4303 56.64C23.8703 55.0933 23.5903 53.3333 23.5903 51.36C23.617 50.56 23.697 49.7867 23.8303 49.04C23.9903 48.2667 24.217 47.56 24.5103 46.92C24.8303 46.2533 25.217 45.68 25.6703 45.2C26.1503 44.6933 26.7103 44.28 27.3503 43.96C26.5236 43.3467 25.7903 42.4667 25.1503 41.32C24.5103 40.1467 24.1636 38.6667 24.1103 36.88C24.0836 35.0667 24.377 33.5067 24.9903 32.2C25.6303 30.8933 26.577 29.8933 27.8303 29.2C29.0836 28.5067 30.6303 28.16 32.4703 28.16C34.337 28.16 35.8836 28.52 37.1103 29.24C38.3636 29.9333 39.297 30.9333 39.9103 32.24C40.5236 33.52 40.8036 35.0667 40.7503 36.88C40.7236 38.6933 40.4036 40.1867 39.7903 41.36C39.177 42.5067 38.4436 43.3733 37.5903 43.96C38.2303 44.28 38.777 44.6933 39.2303 45.2C39.7103 45.68 40.097 46.2533 40.3903 46.92C40.7103 47.56 40.9503 48.2667 41.1103 49.04C41.2703 49.7867 41.3503 50.56 41.3503 51.36C41.4036 53.3333 41.137 55.0933 40.5503 56.64C39.9903 58.16 39.057 59.36 37.7503 60.24C36.4436 61.0933 34.6836 61.52 32.4703 61.52ZM32.4703 56.6C33.1903 56.6 33.7103 56.3333 34.0303 55.8C34.3503 55.2667 34.5503 54.64 34.6303 53.92C34.7103 53.1733 34.7503 52.4933 34.7503 51.88C34.777 51.0533 34.737 50.2533 34.6303 49.48C34.5503 48.7067 34.3503 48.08 34.0303 47.6C33.7103 47.0933 33.1903 46.84 32.4703 46.84C31.777 46.84 31.2703 47.0933 30.9503 47.6C30.6303 48.08 30.417 48.7067 30.3103 49.48C30.2303 50.2267 30.1903 51.0267 30.1903 51.88C30.1903 52.4933 30.2303 53.1733 30.3103 53.92C30.3903 54.6667 30.5903 55.3067 30.9103 55.84C31.257 56.3467 31.777 56.6 32.4703 56.6ZM32.4703 41.56C32.9236 41.56 33.297 41.3867 33.5903 41.04C33.8836 40.6667 34.097 40.12 34.2303 39.4C34.3903 38.68 34.4703 37.7867 34.4703 36.72C34.4703 35.6267 34.297 34.76 33.9503 34.12C33.6303 33.48 33.137 33.16 32.4703 33.16C31.8036 33.16 31.2836 33.48 30.9103 34.12C30.5636 34.76 30.3903 35.6133 30.3903 36.68C30.3903 37.7467 30.457 38.6533 30.5903 39.4C30.7503 40.12 30.9903 40.6667 31.3103 41.04C31.6303 41.3867 32.017 41.56 32.4703 41.56Z" fill="black" fill-opacity="0.8"/>
<path d="M27.2303 60.24L26.3924 61.4842C26.3983 61.4881 26.4042 61.492 26.4101 61.4959L27.2303 60.24ZM24.4303 56.64L23.0199 57.1507L23.0228 57.1586L24.4303 56.64ZM23.5903 51.36L22.0911 51.31C22.0906 51.3267 22.0903 51.3433 22.0903 51.36H23.5903ZM23.8303 49.04L22.3614 48.7361C22.3587 48.7495 22.3561 48.7629 22.3537 48.7763L23.8303 49.04ZM24.5103 46.92L23.158 46.2709C23.1542 46.2789 23.1504 46.2869 23.1467 46.295L24.5103 46.92ZM25.6703 45.2L24.5814 44.1684L24.5798 44.1701L25.6703 45.2ZM27.3503 43.96L28.0211 45.3016C28.4874 45.0685 28.7991 44.6101 28.8446 44.0908C28.8901 43.5716 28.6627 43.0659 28.2441 42.7554L27.3503 43.96ZM25.1503 41.32L23.8335 42.0383C23.8358 42.0425 23.8381 42.0468 23.8405 42.051L25.1503 41.32ZM24.1103 36.88L22.6105 36.9021C22.6106 36.9096 22.6108 36.9172 22.611 36.9248L24.1103 36.88ZM24.9903 32.2L23.6432 31.5402C23.6396 31.5476 23.636 31.5551 23.6325 31.5626L24.9903 32.2ZM27.8303 29.2L28.5564 30.5126H28.5564L27.8303 29.2ZM37.1103 29.24L36.351 30.5336C36.362 30.5401 36.3731 30.5464 36.3842 30.5525L37.1103 29.24ZM39.9103 32.24L38.5524 32.8774L38.5576 32.8882L39.9103 32.24ZM40.7503 36.88L39.251 36.8359C39.2507 36.8432 39.2506 36.8506 39.2505 36.8579L40.7503 36.88ZM39.7903 41.36L41.113 42.0675C41.1152 42.0633 41.1175 42.0591 41.1197 42.0549L39.7903 41.36ZM37.5903 43.96L36.7405 42.7239C36.3031 43.0247 36.0571 43.5343 36.0939 44.0639C36.1307 44.5935 36.4447 45.0642 36.9195 45.3016L37.5903 43.96ZM39.2303 45.2L38.1124 46.2002C38.131 46.2209 38.15 46.241 38.1697 46.2607L39.2303 45.2ZM40.3903 46.92L39.0173 47.5241C39.0272 47.5466 39.0377 47.5688 39.0487 47.5908L40.3903 46.92ZM41.1103 49.04L39.6414 49.3439L39.6436 49.3543L41.1103 49.04ZM41.3503 51.36H39.8503C39.8503 51.3735 39.8505 51.387 39.8509 51.4005L41.3503 51.36ZM40.5503 56.64L39.1478 56.108C39.1461 56.1125 39.1444 56.117 39.1428 56.1214L40.5503 56.64ZM37.7503 60.24L38.5705 61.4959C38.5764 61.492 38.5823 61.4881 38.5882 61.4842L37.7503 60.24ZM34.0303 55.8L35.3166 56.5717H35.3166L34.0303 55.8ZM34.6303 53.92L36.1212 54.0856L36.1218 54.0798L34.6303 53.92ZM34.7503 51.88L33.2511 51.8316C33.2506 51.8478 33.2503 51.8639 33.2503 51.88H34.7503ZM34.6303 49.48L33.1383 49.6343C33.14 49.6512 33.1421 49.6681 33.1444 49.685L34.6303 49.48ZM34.0303 47.6L32.7621 48.401C32.7687 48.4114 32.7754 48.4218 32.7822 48.432L34.0303 47.6ZM30.9503 47.6L32.1984 48.432C32.2052 48.4218 32.212 48.4114 32.2185 48.401L30.9503 47.6ZM30.3103 49.48L28.8244 49.275C28.8223 49.2901 28.8205 49.3051 28.8188 49.3202L30.3103 49.48ZM30.3103 53.92L31.8018 53.7602L30.3103 53.92ZM30.9103 55.84L29.6241 56.6117C29.6394 56.6373 29.6555 56.6624 29.6724 56.687L30.9103 55.84ZM33.5903 41.04L34.7354 42.0089C34.7471 41.9951 34.7586 41.981 34.7698 41.9667L33.5903 41.04ZM34.2303 39.4L32.766 39.0746C32.7622 39.092 32.7586 39.1094 32.7554 39.1269L34.2303 39.4ZM33.9503 34.12L32.6087 34.7908C32.616 34.8055 32.6236 34.82 32.6314 34.8344L33.9503 34.12ZM30.9103 34.12L29.6146 33.3642C29.6067 33.3779 29.5989 33.3917 29.5914 33.4056L30.9103 34.12ZM30.5903 39.4L29.1137 39.6637C29.1174 39.6843 29.1215 39.7049 29.126 39.7254L30.5903 39.4ZM31.3103 41.04L30.1714 42.0162C30.1834 42.0302 30.1956 42.0439 30.2081 42.0574L31.3103 41.04ZM32.4703 60.02C30.4627 60.02 29.0338 59.6262 28.0505 58.9841L26.4101 61.4959C28.0402 62.5604 30.1046 63.02 32.4703 63.02V60.02ZM28.0682 58.9958C27.0307 58.2971 26.2922 57.3547 25.8378 56.1214L23.0228 57.1586C23.6884 58.9653 24.8166 60.4229 26.3924 61.4842L28.0682 58.9958ZM25.8407 56.1293C25.3505 54.7754 25.0903 53.193 25.0903 51.36H22.0903C22.0903 53.4737 22.3901 55.4112 23.0199 57.1507L25.8407 56.1293ZM25.0895 51.41C25.1139 50.6777 25.1869 49.976 25.307 49.3037L22.3537 48.7763C22.2071 49.5974 22.1201 50.4423 22.0911 51.31L25.0895 51.41ZM25.2992 49.3439C25.439 48.668 25.633 48.0707 25.8739 47.545L23.1467 46.295C22.801 47.0493 22.5416 47.8653 22.3614 48.7361L25.2992 49.3439ZM25.8626 47.5691C26.1235 47.0256 26.4258 46.5847 26.7608 46.2299L24.5798 44.1701C24.0081 44.7753 23.5371 45.4811 23.158 46.2709L25.8626 47.5691ZM26.7592 46.2316C27.116 45.8551 27.5335 45.5455 28.0211 45.3016L26.6795 42.6184C25.8871 43.0145 25.1847 43.5316 24.5814 44.1684L26.7592 46.2316ZM28.2441 42.7554C27.6282 42.2984 27.0241 41.5994 26.4601 40.5889L23.8405 42.051C24.5566 43.334 25.419 44.3949 26.4565 45.1646L28.2441 42.7554ZM26.4672 40.6017C25.9716 39.6932 25.6582 38.4622 25.6096 36.8352L22.611 36.9248C22.6691 38.8711 23.049 40.6001 23.8335 42.0383L26.4672 40.6017ZM25.6102 36.8579C25.586 35.2155 25.8532 33.8919 26.3482 32.8374L23.6325 31.5626C22.9008 33.1214 22.5813 34.9178 22.6105 36.9021L25.6102 36.8579ZM26.3374 32.8598C26.8445 31.8245 27.5766 31.0546 28.5564 30.5126L27.1042 27.8874C25.5774 28.7321 24.4162 29.9621 23.6432 31.5402L26.3374 32.8598ZM28.5564 30.5126C29.533 29.9723 30.8138 29.66 32.4703 29.66V26.66C30.4468 26.66 28.6343 27.041 27.1042 27.8874L28.5564 30.5126ZM32.4703 29.66C34.1512 29.66 35.4157 29.9846 36.351 30.5336L37.8696 27.9464C36.3516 27.0553 34.5228 26.66 32.4703 26.66V29.66ZM36.3842 30.5525C37.3588 31.0917 38.0722 31.8543 38.5525 32.8774L41.2682 31.6026C40.5217 30.0124 39.3685 28.775 37.8364 27.9274L36.3842 30.5525ZM38.5576 32.8882C39.0428 33.9008 39.2992 35.1971 39.251 36.8359L42.2497 36.9241C42.3081 34.9363 42.0045 33.1392 41.263 31.5918L38.5576 32.8882ZM39.2505 36.8579C39.226 38.5189 38.9331 39.7619 38.461 40.6651L41.1197 42.0549C41.8742 40.6114 42.2212 38.8677 42.2502 36.9021L39.2505 36.8579ZM38.4676 40.6525C37.9391 41.6406 37.3521 42.3035 36.7405 42.7239L38.4401 45.1961C39.5352 44.4432 40.4148 43.3727 41.113 42.0675L38.4676 40.6525ZM36.9195 45.3016C37.3993 45.5415 37.7918 45.8418 38.1124 46.2002L40.3482 44.1998C39.7622 43.5448 39.0613 43.0185 38.2611 42.6184L36.9195 45.3016ZM38.1697 46.2607C38.5088 46.5998 38.7934 47.0152 39.0173 47.5241L41.7633 46.3159C41.4006 45.4915 40.9118 44.7602 40.291 44.1393L38.1697 46.2607ZM39.0487 47.5908C39.3049 48.1032 39.5051 48.6849 39.6414 49.3439L42.5792 48.7361C42.3956 47.8485 42.1158 47.0168 41.732 46.2492L39.0487 47.5908ZM39.6436 49.3543C39.7804 49.9929 39.8503 50.6606 39.8503 51.36H42.8503C42.8503 50.4594 42.7602 49.5805 42.577 48.7257L39.6436 49.3543ZM39.8509 51.4005C39.8999 53.2155 39.6532 54.7757 39.1478 56.108L41.9528 57.172C42.6208 55.4109 42.9074 53.4511 42.8498 51.3195L39.8509 51.4005ZM39.1428 56.1214C38.6884 57.3547 37.9499 58.2971 36.9124 58.9958L38.5882 61.4842C40.164 60.4229 41.2922 58.9653 41.9578 57.1586L39.1428 56.1214ZM36.9301 58.9841C35.9494 59.6246 34.5089 60.02 32.4703 60.02V63.02C34.8584 63.02 36.9379 62.5621 38.5705 61.4959L36.9301 58.9841ZM32.4703 58.1C33.6188 58.1 34.6784 57.6354 35.3166 56.5717L32.7441 55.0283C32.7285 55.0543 32.7189 55.0633 32.7183 55.0638C32.7183 55.0638 32.7188 55.0637 32.7158 55.0653C32.7112 55.0676 32.6466 55.1 32.4703 55.1V58.1ZM35.3166 56.5717C35.7644 55.8254 36.0212 54.985 36.1211 54.0856L33.1395 53.7544C33.0794 54.295 32.9363 54.7079 32.7441 55.0283L35.3166 56.5717ZM36.1218 54.0798C36.2063 53.2913 36.2503 52.557 36.2503 51.88H33.2503C33.2503 52.4297 33.2144 53.0553 33.1388 53.7602L36.1218 54.0798ZM36.2495 51.9284C36.2788 51.022 36.2351 50.1371 36.1162 49.275L33.1444 49.685C33.2388 50.3696 33.2752 51.0846 33.2511 51.8316L36.2495 51.9284ZM36.1224 49.3256C36.0256 48.3905 35.7723 47.5088 35.2784 46.7679L32.7822 48.432C32.9283 48.6512 33.075 49.0228 33.1383 49.6343L36.1224 49.3256ZM35.2985 46.799C34.6451 45.7644 33.5847 45.34 32.4703 45.34V48.34C32.6571 48.34 32.7319 48.3729 32.7434 48.3785C32.7491 48.3813 32.7484 48.3816 32.7464 48.3798C32.7447 48.3783 32.7506 48.3828 32.7621 48.401L35.2985 46.799ZM32.4703 45.34C31.3572 45.34 30.324 45.7826 29.6821 46.799L32.2185 48.401C32.2258 48.3894 32.2315 48.3821 32.2349 48.3779C32.2384 48.3737 32.2403 48.372 32.2405 48.3717C32.2407 48.3716 32.2403 48.3719 32.2396 48.3724C32.2389 48.3729 32.2392 48.3726 32.2411 48.3716C32.2447 48.3699 32.3052 48.34 32.4703 48.34V45.34ZM29.7022 46.7679C29.2204 47.4907 28.9516 48.3526 28.8244 49.275L31.7962 49.685C31.8823 49.0607 32.0402 48.6693 32.1984 48.432L29.7022 46.7679ZM28.8188 49.3202C28.7325 50.1265 28.6903 50.9803 28.6903 51.88H31.6903C31.6903 51.073 31.7282 50.3268 31.8018 49.6398L28.8188 49.3202ZM28.6903 51.88C28.6903 52.557 28.7344 53.2913 28.8188 54.0798L31.8018 53.7602C31.7263 53.0553 31.6903 52.4297 31.6903 51.88H28.6903ZM28.8188 54.0798C28.9173 54.9988 29.1713 55.8571 29.6241 56.6117L32.1966 55.0683C32.0093 54.7562 31.8633 54.3345 31.8018 53.7602L28.8188 54.0798ZM29.6724 56.687C30.3383 57.6603 31.3565 58.1 32.4703 58.1V55.1C32.3066 55.1 32.2359 55.0706 32.2173 55.0615C32.2056 55.0558 32.184 55.0452 32.1483 54.993L29.6724 56.687ZM32.4703 43.06C33.3658 43.06 34.1576 42.6917 34.7354 42.0089L32.4452 40.0711C32.4336 40.0848 32.429 40.0877 32.4328 40.0847C32.4369 40.0815 32.4458 40.0754 32.4586 40.0695C32.4715 40.0635 32.4821 40.0606 32.4875 40.0594C32.4925 40.0584 32.4877 40.06 32.4703 40.06V43.06ZM34.7698 41.9667C35.2726 41.3267 35.5495 40.5141 35.7052 39.6731L32.7554 39.1269C32.6445 39.7259 32.4947 40.0066 32.4108 40.1133L34.7698 41.9667ZM35.6946 39.7254C35.8863 38.8628 35.9703 37.8522 35.9703 36.72H32.9703C32.9703 37.7212 32.8944 38.4972 32.766 39.0746L35.6946 39.7254ZM35.9703 36.72C35.9703 35.4925 35.7797 34.3479 35.2693 33.4056L32.6314 34.8344C32.8143 35.1721 32.9703 35.7609 32.9703 36.72H35.9703ZM35.292 33.4492C35.0382 32.9418 34.6717 32.4757 34.1566 32.1416C33.6354 31.8035 33.0535 31.66 32.4703 31.66V34.66C32.5166 34.66 32.537 34.6655 32.5389 34.666C32.5395 34.6661 32.5324 34.6639 32.524 34.6584C32.5023 34.6443 32.5424 34.6582 32.6087 34.7908L35.292 33.4492ZM32.4703 31.66C31.2021 31.66 30.2207 32.3253 29.6146 33.3642L32.206 34.8758C32.2946 34.7239 32.357 34.6833 32.3665 34.6775C32.3727 34.6737 32.3785 34.6709 32.3884 34.6683C32.3991 34.6654 32.4244 34.66 32.4703 34.66V31.66ZM29.5914 33.4056C29.0833 34.3435 28.8903 35.4718 28.8903 36.68H31.8903C31.8903 35.7549 32.0439 35.1765 32.2293 34.8344L29.5914 33.4056ZM28.8903 36.68C28.8903 37.8025 28.96 38.8029 29.1137 39.6637L32.067 39.1363C31.954 38.5037 31.8903 37.6908 31.8903 36.68H28.8903ZM29.126 39.7254C29.3149 40.5752 29.6309 41.3856 30.1714 42.0162L32.4492 40.0638C32.3497 39.9478 32.1857 39.6648 32.0546 39.0746L29.126 39.7254ZM30.2081 42.0574C30.799 42.6976 31.5795 43.06 32.4703 43.06V40.06C32.4615 40.06 32.4553 40.0596 32.4516 40.0592C32.4478 40.0588 32.4461 40.0585 32.4459 40.0584C32.4459 40.0584 32.4468 40.0586 32.4486 40.0592C32.4504 40.0598 32.4522 40.0605 32.4539 40.0612C32.4579 40.063 32.4573 40.0634 32.4518 40.0593C32.446 40.0551 32.4325 40.0443 32.4125 40.0226L30.2081 42.0574Z" fill="black"/>
<defs>
<filter id="filter0_dd_350_2638" x="2" y="14" width="128" height="184" filterUnits="userSpaceOnUse" color-interpolation-filters="sRGB">
<feFlood flood-opacity="0" result="BackgroundImageFix"/>
<feColorMatrix in="SourceAlpha" type="matrix" values="0 0 0 0 0 0 0 0 0 0 0 0 0 0 0 0 0 0 127 0" result="hardAlpha"/>
<feOffset dy="6"/>
<feGaussianBlur stdDeviation="4"/>
<feColorMatrix type="matrix" values="0 0 0 0 0 0 0 0 0 0 0 0 0 0 0 0 0 0 0.15 0"/>
<feBlend mode="normal" in2="BackgroundImageFix" result="effect1_dropShadow_350_2638"/>
<feColorMatrix in="SourceAlpha" type="matrix" values="0 0 0 0 0 0 0 0 0 0 0 0 0 0 0 0 0 0 127 0" result="hardAlpha"/>
<feOffset dy="4"/>
<feGaussianBlur stdDeviation="2"/>
<feColorMatrix type="matrix" values="0 0 0 0 0 0 0 0 0 0 0 0 0 0 0 0 0 0 0.25 0"/>
<feBlend mode="normal" in2="effect1_dropShadow_350_2638" result="effect2_dropShadow_350_2638"/>
<feBlend mode="normal" in="SourceGraphic" in2="effect2_dropShadow_350_2638" result="shape"/>
</filter>
</defs>
</svg>
