<svg xmlns="http://www.w3.org/2000/svg" xml:space="preserve" viewBox="0 0 2344 272">
  <path fill="#29abe2" d="M473 226c-39.3 0-80.8-25.7-101.2-44.4-22.3-20.4-83.5-86.8-83.8-87.1C247.8 49.7 193.9 0 140 0 75.1 0 18.6 44.9 3.8 104.4 5 100.5 25.6 46 103 46c39.3 0 80.8 25.7 101.2 44.4 22.3 20.4 83.5 86.8 83.8 87.1 40.2 44.8 94.1 94.5 148 94.5 64.9 0 121.4-44.9 136.2-104.4-1.2 3.9-21.8 58.4-99.2 58.4z"/>
  <linearGradient id="a" x1="212.578" x2="23.135" y1="254.208" y2="58.034" gradientUnits="userSpaceOnUse">
    <stop offset=".221" stop-color="#ed1e79"/>
    <stop offset=".892" stop-color="#522785"/>
  </linearGradient>
  <path fill="url(#a)" d="M288 177.5c-.1-.2-17.8-19.3-37.5-40.1-10.7 12.7-26.1 30-43.8 45.5-33 28.9-54.4 35-66.7 35-46.3 0-84-36.7-84-81.8 0-44.8 37.7-81.5 84-81.8 1.7 0 3.7.2 6.2.6-13.9-5.4-28.7-8.9-43.2-8.9-77.4 0-98 54.5-99.2 58.4C1.3 114.6 0 125.1 0 136c0 75 61.9 136 139 136 32.2 0 68.2-16.5 105.3-49 17.5-15.4 32.7-31.8 44.2-45l-.5-.5z"/>
  <linearGradient id="b" x1="318.409" x2="128.966" y1="-1719.239" y2="-1915.414" gradientTransform="rotate(180 340.855 -850.665)" gradientUnits="userSpaceOnUse">
    <stop offset=".21" stop-color="#f15a24"/>
    <stop offset=".684" stop-color="#fbb03b"/>
  </linearGradient>
  <path fill="url(#b)" d="M288 94.5c.1.2 17.8 19.3 37.5 40.1 10.7-12.7 26.1-30 43.8-45.5 33-28.9 54.4-35 66.7-35 46.3 0 84 36.7 84 81.8 0 44.8-37.7 81.5-84 81.8-1.7 0-3.7-.2-6.2-.6 13.9 5.3 28.7 8.8 43.2 8.8 77.4 0 98-54.5 99.2-58.4 2.5-10.1 3.8-20.7 3.8-31.6C576 61 513.1 0 436 0c-32.2 0-67.2 16.5-104.3 49-17.5 15.4-32.7 31.8-44.2 45l.5.5z"/>
  <path fill="#fff" d="M658.1 174c2.8 0 5-2.2 5-5v-68c0-2.8-2.2-5-5-5h-5.4c-2.8 0-5 2.2-5 5v68c0 2.8 2.2 5 5 5h5.4zm117.8 0c2.8 0 5-2.2 5-5v-68c0-2.8-2.2-5-5-5h-5.2c-2.8 0-5 2.2-5 5v46.6l-31-49.3c-.9-1.5-2.5-2.3-4.2-2.3h-11.2c-2.8 0-5 2.2-5 5v68c0 2.8 2.2 5 5 5h5.2c2.8 0 5-2.2 5-5v-50.3l33.9 53c.9 1.4 2.5 2.3 4.2 2.3h8.3zm108.5-63.6c2.8 0 5-2.2 5-5V101c0-2.8-2.2-5-5-5h-54.6c-2.8 0-5 2.2-5 5v4.4c0 2.8 2.2 5 5 5h19.6V169c0 2.8 2.2 5 5 5h5.3c2.8 0 5-2.2 5-5v-58.6h19.7zm92.8 63.6c2.8 0 5-2.2 5-5v-4.3c0-2.8-2.2-5-5-5h-28.7v-18H974c2.8 0 5-2.2 5-5v-3.5c0-2.8-2.2-5-5-5h-25.5v-17.8h28.7c2.8 0 5-2.2 5-5V101c0-2.8-2.2-5-5-5h-38.8c-2.8 0-5 2.2-5 5v68c0 2.8 2.2 5 5 5h38.8zm90-2.7c.9 1.7 2.6 2.7 4.5 2.7h5.6c3.8 0 6.2-4 4.4-7.3l-12.9-24.6c10.2-3 16.6-11.2 16.6-22.1 0-13.5-9.7-24-24.9-24H1035c-2.8 0-5 2.2-5 5v68c0 2.8 2.2 5 5 5h5.3c2.8 0 5-2.2 5-5v-25h7.9l14 27.3zm-21.8-40.4v-21.7h12.3c7.7 0 12.2 4.3 12.2 10.9 0 6.4-4.5 10.8-12.2 10.8h-12.3zm148.5 43.1c2.8 0 5-2.2 5-5v-68c0-2.8-2.2-5-5-5h-5.2c-2.8 0-5 2.2-5 5v46.6l-31-49.3c-.9-1.5-2.5-2.3-4.2-2.3h-11.2c-2.8 0-5 2.2-5 5v68c0 2.8 2.2 5 5 5h5.2c2.8 0 5-2.2 5-5v-50.3l33.9 53c.9 1.4 2.5 2.3 4.2 2.3h8.3zm100.2 0c2.8 0 5-2.2 5-5v-4.3c0-2.8-2.2-5-5-5h-28.7v-18h25.5c2.8 0 5-2.2 5-5v-3.5c0-2.8-2.2-5-5-5h-25.5v-17.8h28.7c2.8 0 5-2.2 5-5V101c0-2.8-2.2-5-5-5h-38.8c-2.8 0-5 2.2-5 5v68c0 2.8 2.2 5 5 5h38.8zm105.1-63.6c2.8 0 5-2.2 5-5V101c0-2.8-2.2-5-5-5h-54.6c-2.8 0-5 2.2-5 5v4.4c0 2.8 2.2 5 5 5h19.6V169c0 2.8 2.2 5 5 5h5.3c2.8 0 5-2.2 5-5v-58.6h19.7zm140.3 65.3c19.2 0 30.2-11.2 34.6-22 1-2.5-.5-5.1-3.1-5.9l-4.8-1.4c-2.7-.8-5.4.8-6.8 3.2-3.2 5.9-9.5 11.3-20 11.3-12.5 0-24.2-9.1-24.2-25.7 0-17.7 12.3-26.1 24-26.1 10.6 0 16.6 5 19.6 10.8 1.3 2.6 4.2 4.2 6.9 3.4l4.8-1.5c2.5-.8 4-3.4 3-5.9-4.4-11.1-15.3-21.4-34.3-21.4-20.9 0-39.7 15.8-39.7 40.7s18.2 40.5 40 40.5zm92-40.8c0-17.6 12.3-26 24.3-26 12.1 0 24.4 8.4 24.4 26s-12.3 26-24.4 26c-12 0-24.3-8.4-24.3-26zm-15.8.2c0 25.1 18.9 40.6 40 40.6 21.2 0 40.2-15.5 40.2-40.6 0-25.2-18.9-40.7-40.2-40.7-21.1 0-40 15.5-40 40.7zm208.8 38.9c2.8 0 5-2.2 5-5v-68c0-2.8-2.2-5-5-5h-12.3c-2 0-3.9 1.2-4.6 3.1l-21.6 53.2-22.2-53.2c-.8-1.9-2.6-3.1-4.6-3.1h-11.7c-2.8 0-5 2.2-5 5v68c0 2.8 2.2 5 5 5h4.5c2.8 0 5-2.2 5-5v-49.2l21.2 51.1c.8 1.9 2.6 3.1 4.6 3.1h6c2 0 3.9-1.2 4.6-3.1l21.2-51.6V169c0 2.8 2.2 5 5 5h4.9zm71.6-42.5v-22.3h12c7.6 0 12.2 4.3 12.2 11.2 0 6.7-4.6 11.1-12.2 11.1h-12zm13.9 13.1c15.4 0 25.6-10.1 25.6-24.3 0-14.1-10.2-24.3-25.6-24.3h-24.2c-2.8 0-5 2.2-5 5v68c0 2.8 2.2 5 5 5h5.2c2.8 0 5-2.2 5-5v-24.4h14zm99.7 31.2c16.7 0 30-10.2 30-29.4V101c0-2.8-2.2-5-5-5h-5.2c-2.8 0-5 2.2-5 5v44.3c0 10.2-5.6 15.6-14.9 15.6-9 0-14.7-5.4-14.7-15.6V101c0-2.8-2.2-5-5-5h-5.2c-2.8 0-5 2.2-5 5v45.4c.1 19.1 13.4 29.4 30 29.4zm132.9-65.4c2.8 0 5-2.2 5-5V101c0-2.8-2.2-5-5-5H2088c-2.8 0-5 2.2-5 5v4.4c0 2.8 2.2 5 5 5h19.6V169c0 2.8 2.2 5 5 5h5.3c2.8 0 5-2.2 5-5v-58.6h19.7zm92.7 63.6c2.8 0 5-2.2 5-5v-4.3c0-2.8-2.2-5-5-5h-28.7v-18h25.5c2.8 0 5-2.2 5-5v-3.5c0-2.8-2.2-5-5-5h-25.5v-17.8h28.7c2.8 0 5-2.2 5-5V101c0-2.8-2.2-5-5-5h-38.8c-2.8 0-5 2.2-5 5v68c0 2.8 2.2 5 5 5h38.8zm90-2.7c.9 1.7 2.6 2.7 4.5 2.7h5.6c3.8 0 6.2-4 4.4-7.3l-12.9-24.6c10.2-3 16.6-11.2 16.6-22.1 0-13.5-9.7-24-24.9-24h-25.5c-2.8 0-5 2.2-5 5v68c0 2.8 2.2 5 5 5h5.3c2.8 0 5-2.2 5-5v-25h7.9l14 27.3zm-21.8-40.4v-21.7h12.3c7.7 0 12.2 4.3 12.2 10.9 0 6.4-4.5 10.8-12.2 10.8h-12.3z"/>
</svg>
