<svg width="40" height="41" viewBox="0 0 40 41" fill="none" xmlns="http://www.w3.org/2000/svg">
<rect y="0.5" width="40" height="40" rx="20" fill="white"/>
<g clip-path="url(#clip0_664_4267)">
<path d="M28.299 12.9091C31.0063 16.8894 32.3433 21.3792 31.8435 26.548C31.8414 26.5698 31.83 26.5899 31.812 26.6031C29.7619 28.1085 27.7756 29.0221 25.8171 29.628C25.8019 29.6326 25.7856 29.6323 25.7705 29.6272C25.7554 29.6221 25.7423 29.6124 25.7329 29.5995C25.2805 28.97 24.8694 28.3063 24.5092 27.6093C24.4885 27.5682 24.5074 27.5188 24.55 27.5026C25.2029 27.2566 25.8237 26.9618 26.4209 26.6127C26.468 26.5851 26.4709 26.5177 26.4275 26.4854C26.3008 26.3913 26.1752 26.2924 26.0551 26.1935C26.0326 26.1752 26.0023 26.1716 25.9768 26.1839C22.0998 27.9743 17.8528 27.9743 13.9299 26.1839C13.9044 26.1725 13.8742 26.1764 13.8523 26.1944C13.7324 26.2933 13.6066 26.3913 13.481 26.4854C13.4376 26.5177 13.4412 26.5851 13.4885 26.6127C14.0857 26.9552 14.7066 27.2566 15.3586 27.5038C15.4008 27.52 15.4209 27.5682 15.3999 27.6093C15.0476 28.3072 14.6364 28.9708 14.1756 29.6004C14.1555 29.6259 14.1226 29.6375 14.0914 29.628C12.1423 29.0221 10.156 28.1085 8.10584 26.6031C8.08876 26.5899 8.07647 26.569 8.07468 26.5471C7.65698 22.0762 8.50825 17.5492 11.6158 12.9082C11.6233 12.8959 11.6347 12.8863 11.6479 12.8806C13.1769 12.1788 14.815 11.6626 16.5272 11.3677C16.5583 11.3629 16.5895 11.3773 16.6057 11.4049C16.8172 11.7794 17.059 12.2597 17.2226 12.6523C19.0273 12.3766 20.8602 12.3766 22.7027 12.6523C22.8663 12.2681 23.0997 11.7794 23.3104 11.4049C23.3179 11.3912 23.3295 11.3802 23.3436 11.3736C23.3577 11.3669 23.3735 11.3648 23.3889 11.3677C25.1019 11.6635 26.74 12.1797 28.2679 12.8806C28.2814 12.8863 28.2924 12.8959 28.299 12.9091ZM18.1401 21.4098C18.159 20.0881 17.1954 18.9944 15.9857 18.9944C14.786 18.9944 13.8316 20.0785 13.8316 21.4098C13.8316 22.7408 14.8048 23.8249 15.9857 23.8249C17.1858 23.8249 18.1401 22.7408 18.1401 21.4098ZM26.1051 21.4098C26.124 20.0881 25.1603 18.9944 23.951 18.9944C22.7509 18.9944 21.7966 20.0785 21.7966 21.4098C21.7966 22.7408 22.7698 23.8249 23.951 23.8249C25.1603 23.8249 26.1051 22.7408 26.1051 21.4098Z" fill="#8B5CF6"/>
</g>
<defs>
<clipPath id="clip0_664_4267">
<rect width="25" height="18.28" fill="white" transform="translate(7.5 11.3601)"/>
</clipPath>
</defs>
</svg>
