<svg width="40" height="41" viewBox="0 0 40 41" fill="none" xmlns="http://www.w3.org/2000/svg">
<g clip-path="url(#clip0_901_7424)">
<path d="M17.229 6.85498L15.499 7.41198" stroke="#DAA7D1" stroke-width="0.2"/>
<path d="M15.4988 7.41211C13.9348 8.07878 12.6145 9.05578 11.5378 10.3431" stroke="#E5A6C8" stroke-width="0.2"/>
<path d="M11.5378 10.343C7.94584 14.735 7.92584 20.644 11.4308 25.106" stroke="#EEA5C2" stroke-width="0.2"/>
<path d="M11.4309 25.1062C12.2676 26.1202 13.2499 26.9725 14.3779 27.6632" stroke="#E5A6C8" stroke-width="0.2"/>
<path d="M14.3779 27.6631C15.7593 28.5171 17.2583 29.0364 18.8749 29.2211" stroke="#DAA7D1" stroke-width="0.2"/>
<path d="M18.875 29.2211C20.4617 29.4291 21.988 29.2221 23.454 28.6001" stroke="#CBA9DC" stroke-width="0.2"/>
<path d="M23.4539 28.6002C26.3709 27.4192 28.3959 24.5612 28.7289 21.4882C29.1449 17.6402 27.1549 14.2352 23.7789 12.4512" stroke="#BBABE8" stroke-width="0.2"/>
<path d="M23.779 12.451C22.2256 11.701 20.5843 11.4807 18.855 11.79" stroke="#CBA9DC" stroke-width="0.2"/>
<path d="M18.855 11.79C17.3957 12.0674 16.0083 12.575 14.693 13.313C14.6683 13.327 14.6563 13.3484 14.657 13.377L14.986 23.523C14.9885 23.5974 15.0201 23.668 15.074 23.72C15.978 24.586 17.049 25.123 18.287 25.331C18.321 25.337 18.3377 25.3227 18.337 25.288L18.198 15.724C18.1973 15.6927 18.212 15.673 18.242 15.665L19.048 15.467" stroke="#DAA7D1" stroke-width="0.2"/>
<path d="M19.0479 15.4671C20.5392 15.1784 21.8892 15.4194 23.0979 16.1901" stroke="#CBA9DC" stroke-width="0.2"/>
<path d="M23.0979 16.1902C26.1789 18.3642 26.2579 22.6992 23.3839 25.0802" stroke="#BBABE8" stroke-width="0.2"/>
<path d="M23.384 25.0801C21.982 26.0674 20.3957 26.4671 18.625 26.2791" stroke="#CBA9DC" stroke-width="0.2"/>
<path d="M18.6251 26.279C17.2184 26.1437 15.9364 25.6757 14.7791 24.875" stroke="#DAA7D1" stroke-width="0.2"/>
<path d="M14.779 24.875C13.3396 23.7817 12.334 22.361 11.762 20.613" stroke="#E5A6C8" stroke-width="0.2"/>
<path d="M11.762 20.6131C11.1813 18.7958 11.1623 16.9578 11.705 15.0991" stroke="#EEA5C2" stroke-width="0.2"/>
<path d="M11.7048 15.0991C12.3688 13.0344 13.6012 11.4028 15.4018 10.2041" stroke="#E5A6C8" stroke-width="0.2"/>
<path d="M15.4019 10.2042C15.9939 9.78949 16.6279 9.50749 17.3039 9.35815" stroke="#DAA7D1" stroke-width="0.2"/>
<path d="M17.304 9.3581C19.4873 8.85543 21.636 8.95976 23.75 9.6711" stroke="#CBA9DC" stroke-width="0.2"/>
<path d="M23.75 9.67114C25.5813 10.3278 27.152 11.3731 28.462 12.8071" stroke="#BBABE8" stroke-width="0.2"/>
<path d="M28.462 12.8071C30.779 15.4011 31.879 18.9781 31.266 22.3941C30.8433 24.7548 29.8073 26.7941 28.158 28.5121" stroke="#A6AEF8" stroke-width="0.2"/>
<path d="M28.1579 28.512C26.9379 29.716 25.5672 30.612 24.0459 31.2" stroke="#BBABE8" stroke-width="0.2"/>
<path d="M24.0458 31.2002C22.5012 31.7549 20.9118 32.0019 19.2778 31.9412" stroke="#CBA9DC" stroke-width="0.2"/>
<path d="M19.2779 31.941C17.6626 31.865 16.0922 31.4847 14.5669 30.8" stroke="#DAA7D1" stroke-width="0.2"/>
<path d="M14.5669 30.8C13.8595 30.46 13.1379 30.0334 12.4019 29.52" stroke="#E5A6C8" stroke-width="0.2"/>
<path d="M12.4019 29.5201C10.0459 27.7034 8.51391 25.3204 7.80591 22.3711" stroke="#EEA5C2" stroke-width="0.2"/>
<path d="M7.80595 22.3712C7.29328 19.9958 7.38228 17.6478 8.07295 15.3272C8.23595 14.7802 8.23795 14.3312 7.65995 14.1112C7.62728 14.0985 7.60328 14.1078 7.58795 14.1392C5.56095 18.1792 5.55695 22.7782 7.57795 26.8262" stroke="#FAA3B8" stroke-width="0.2"/>
<path d="M7.57788 26.8262C8.67255 28.9662 10.2132 30.7088 12.1999 32.0542" stroke="#EEA5C2" stroke-width="0.2"/>
<path d="M12.2 32.0542C12.882 32.5262 13.6326 32.9402 14.452 33.2962" stroke="#E5A6C8" stroke-width="0.2"/>
<path d="M14.4519 33.2961C15.8632 33.9161 17.3712 34.2888 18.9759 34.4141" stroke="#DAA7D1" stroke-width="0.2"/>
<path d="M18.9758 34.4141C20.6758 34.5367 22.3432 34.3527 23.9778 33.8621" stroke="#CBA9DC" stroke-width="0.2"/>
<path d="M23.978 33.862C25.5154 33.3953 26.9334 32.6877 28.232 31.739" stroke="#BBABE8" stroke-width="0.2"/>
<path d="M28.2319 31.739C35.5759 26.256 35.7859 15.62 28.8609 9.74097" stroke="#A6AEF8" stroke-width="0.2"/>
<path d="M28.8609 9.74107C27.3696 8.51507 25.7019 7.63507 23.8579 7.10107" stroke="#BBABE8" stroke-width="0.2"/>
<path d="M23.858 7.10108C21.6587 6.45575 19.449 6.37375 17.229 6.85508" stroke="#CBA9DC" stroke-width="0.2"/>
<path d="M23.8579 7.10107C24.0213 7.25841 24.0443 7.46374 23.9269 7.71707C23.9116 7.75041 23.9089 7.78474 23.9189 7.82007C23.9843 8.04407 23.9899 8.27107 23.9359 8.50107C23.9279 8.53641 23.9296 8.57107 23.9409 8.60507C23.9969 8.76841 23.9929 8.93074 23.9289 9.09207C23.9169 9.12341 23.9159 9.15507 23.9259 9.18707C23.9773 9.35441 23.9436 9.50174 23.8249 9.62907C23.8183 9.63641 23.8103 9.63807 23.8009 9.63407C23.7943 9.63141 23.7859 9.62841 23.7759 9.62507C23.7715 9.62377 23.7668 9.62419 23.7628 9.62623C23.7587 9.62827 23.7555 9.63179 23.7539 9.63607C23.7493 9.64807 23.7479 9.65974 23.7499 9.67107" stroke="#8755C5" stroke-width="0.2"/>
<path d="M17.3039 9.35798C17.1726 9.30598 17.1156 9.20398 17.1329 9.05198C17.2209 8.28998 17.0589 7.65698 17.2289 6.85498" stroke="#A551AE" stroke-width="0.2"/>
<path d="M15.4019 10.2041C15.4159 10.0721 15.5142 9.98144 15.6969 9.93211C15.7315 9.92278 15.7335 9.90878 15.7029 9.89011L15.6469 9.85711C15.6222 9.84244 15.6095 9.82078 15.6089 9.79211L15.5659 8.25911C15.5645 8.22552 15.5514 8.19362 15.5289 8.16911C15.4642 8.09844 15.4629 8.02744 15.5249 7.95611C15.5457 7.93206 15.5586 7.90239 15.5619 7.87111C15.5805 7.71111 15.5595 7.55811 15.4989 7.41211" stroke="#BF4E9A" stroke-width="0.2"/>
<path d="M28.8609 9.74097L28.7089 9.86897C28.6829 9.89097 28.6682 9.91897 28.6649 9.95297C28.5779 10.824 28.6189 11.7 28.6239 12.575C28.6246 12.6463 28.5906 12.6773 28.5219 12.668C28.5059 12.666 28.5012 12.672 28.5079 12.686C28.5232 12.7206 28.5079 12.761 28.4619 12.807" stroke="#625AE1" stroke-width="0.2"/>
<path d="M11.7048 15.099L11.8528 14.554C11.8628 14.5167 11.8512 14.5077 11.8178 14.527L11.7938 14.542C11.7705 14.5554 11.7568 14.5487 11.7528 14.522C11.6942 14.1474 11.6818 13.7714 11.7158 13.394C11.7348 13.177 11.6758 12.942 11.6898 12.717C11.7358 11.98 11.7048 11.246 11.6988 10.506C11.6988 10.4727 11.6852 10.4464 11.6578 10.427L11.5378 10.343" stroke="#D34C8B" stroke-width="0.2"/>
<path d="M28.232 31.739L28.131 31.745C28.0857 31.7476 28.082 31.7366 28.12 31.712C28.2933 31.5993 28.3213 31.438 28.204 31.228C28.189 31.2012 28.1817 31.1703 28.183 31.139C28.2257 30.2856 28.2173 29.41 28.158 28.512" stroke="#625AE1" stroke-width="0.2"/>
<path d="M11.7619 20.613C11.7586 20.6583 11.7509 20.693 11.7389 20.717C11.7367 20.7217 11.7332 20.7257 11.7287 20.7283C11.7242 20.7309 11.719 20.732 11.7137 20.7316C11.7084 20.7312 11.7033 20.7292 11.6991 20.7259C11.6949 20.7225 11.6917 20.7181 11.6899 20.713L11.6549 20.606C11.6524 20.599 11.6478 20.5928 11.6417 20.5885C11.6355 20.5842 11.6282 20.5819 11.6208 20.582C11.6134 20.5821 11.6063 20.5846 11.6006 20.5891C11.5948 20.5936 11.5907 20.5999 11.5889 20.607C11.5089 20.881 11.5949 21.135 11.5639 21.397C11.5309 21.677 11.5689 22.029 11.5689 22.226C11.5722 23.1007 11.5746 23.9753 11.5759 24.85C11.5759 24.9013 11.5276 24.9867 11.4309 25.106" stroke="#D34C8B" stroke-width="0.2"/>
<path d="M23.9781 33.8622L23.8201 33.7232C23.8121 33.7165 23.8131 33.7115 23.8231 33.7082C23.8351 33.7049 23.8471 33.7009 23.8591 33.6962C23.8811 33.6869 23.8911 33.6702 23.8891 33.6462C23.8364 33.0729 23.8307 32.4992 23.8721 31.9252C23.8794 31.8279 23.8627 31.7329 23.8221 31.6402C23.8221 31.6391 23.8216 31.6381 23.8209 31.6374C23.8201 31.6366 23.8191 31.6362 23.8181 31.6362C23.817 31.6362 23.816 31.6366 23.8152 31.6374C23.8145 31.6381 23.8141 31.6391 23.8141 31.6402L23.7971 31.6732C23.7871 31.6912 23.7834 31.6902 23.7861 31.6702C23.7961 31.5842 23.7824 31.4979 23.7451 31.4112C23.7304 31.3779 23.7404 31.3565 23.7751 31.3472C23.8791 31.3179 23.9694 31.2689 24.0461 31.2002" stroke="#8755C5" stroke-width="0.2"/>
<path d="M14.7789 24.875C14.7736 25.0037 14.7109 25.083 14.5909 25.113C14.5583 25.121 14.5416 25.1417 14.5409 25.175C14.5236 25.7437 14.5306 26.368 14.5619 27.048C14.5733 27.294 14.5119 27.499 14.3779 27.663" stroke="#BF4E9A" stroke-width="0.2"/>
<path d="M18.625 26.2791C18.6843 26.3437 18.7577 26.3771 18.845 26.3791C18.8817 26.3804 18.901 26.3994 18.903 26.4361C18.919 26.6921 18.9213 26.9467 18.91 27.2001C18.882 27.7851 18.964 28.3671 18.889 28.9641C18.885 28.9954 18.8953 29.0211 18.92 29.0411L18.982 29.0921C19.0047 29.1101 19.0013 29.1197 18.972 29.1211C18.9153 29.1231 18.883 29.1564 18.875 29.2211" stroke="#A551AE" stroke-width="0.2"/>
<path d="M19.2779 31.9412L18.8299 31.9812C18.8165 31.9818 18.8159 31.9858 18.8279 31.9932L18.9339 32.0582C18.9625 32.0762 18.9769 32.1018 18.9769 32.1352L18.9579 34.2682C18.9579 34.27 18.9571 34.2718 18.9558 34.2731C18.9545 34.2744 18.9527 34.2752 18.9509 34.2752C18.9422 34.2752 18.9335 34.2742 18.9249 34.2722C18.9204 34.2714 18.9162 34.2724 18.9133 34.275C18.9104 34.2776 18.9088 34.2816 18.9089 34.2863C18.909 34.291 18.9108 34.296 18.914 34.3004C18.9171 34.3048 18.9213 34.3083 18.9259 34.3102C19.0665 34.3548 19.0832 34.3895 18.9759 34.4142" stroke="#A551AE" stroke-width="0.2"/>
<path d="M14.5669 30.8C14.4442 31.05 14.3982 31.3384 14.4289 31.665C14.4819 32.218 14.3959 32.728 14.4519 33.296" stroke="#BF4E9A" stroke-width="0.2"/>
<path d="M23.454 28.6001L23.425 28.5751C23.4057 28.5584 23.4023 28.5387 23.415 28.5161C23.4203 28.5074 23.426 28.4984 23.432 28.4891C23.444 28.4737 23.449 28.4564 23.447 28.4371C23.39 27.9041 23.43 27.3821 23.385 26.8521C23.36 26.5431 23.423 26.2471 23.406 25.9461C23.3987 25.8107 23.3973 25.6737 23.402 25.5351C23.4033 25.4904 23.3853 25.4561 23.348 25.4321L23.217 25.3481C23.1917 25.3314 23.1917 25.3151 23.217 25.2991C23.3177 25.2351 23.3733 25.1621 23.384 25.0801" stroke="#8755C5" stroke-width="0.2"/>
<path d="M12.402 29.52C12.3053 30.3667 12.27 31.2164 12.296 32.069C12.2959 32.0696 12.2957 32.0701 12.2954 32.0706C12.295 32.071 12.2946 32.0714 12.2941 32.0716C12.2936 32.0718 12.293 32.0718 12.2924 32.0717C12.2919 32.0716 12.2914 32.0714 12.291 32.071L12.262 32.038C12.2553 32.0307 12.247 32.028 12.237 32.03C12.2236 32.034 12.2113 32.042 12.2 32.054" stroke="#D34C8B" stroke-width="0.2"/>
<path d="M23.7789 12.451L23.7929 12.503C23.8029 12.543 23.7896 12.5534 23.7529 12.534L23.4569 12.378C23.4486 12.3738 23.4394 12.372 23.4301 12.3727C23.4209 12.3735 23.412 12.3768 23.4045 12.3823C23.3971 12.3878 23.3913 12.3953 23.3878 12.4039C23.3843 12.4125 23.3833 12.4219 23.3849 12.431C23.4359 12.72 23.3489 13 23.3609 13.252C23.4019 14.109 23.4329 14.885 23.3299 15.735C23.326 15.769 23.3319 15.8036 23.3469 15.835C23.4042 15.9537 23.3826 16.0524 23.2819 16.131C23.2672 16.1424 23.2539 16.1417 23.2419 16.129L23.2199 16.108C23.2066 16.094 23.1902 16.0897 23.1709 16.095C23.1289 16.1064 23.1046 16.138 23.0979 16.19" stroke="#8755C5" stroke-width="0.2"/>
<path d="M19.048 15.467C18.95 14.6384 18.9176 14.1077 18.951 13.875C19.034 13.295 18.969 12.769 18.964 12.192C18.9626 12.0647 18.9263 11.9307 18.855 11.79" stroke="#A551AE" stroke-width="0.2"/>
<path d="M7.80588 22.3711C7.77121 22.5998 7.78855 22.8188 7.85788 23.0281C7.86855 23.0601 7.87055 23.0924 7.86388 23.1251C7.74321 23.7144 7.69088 24.1144 7.70688 24.3251C7.74488 24.8211 7.74821 25.3184 7.71688 25.8171C7.69688 26.1331 7.77088 26.4721 7.57788 26.8261" stroke="#E9497B" stroke-width="0.2"/>
<path d="M19.458 0.5H20.56C31.317 0.963 39.558 9.189 40 19.953V21.079C39.617 31.709 31.214 40.178 20.493 40.5H19.496C8.802 40.149 0.344 31.728 0 21.019V19.995C0.371 9.324 8.725 0.856 19.458 0.5ZM17.229 6.855L15.499 7.412C13.935 8.07867 12.6147 9.05567 11.538 10.343C7.946 14.735 7.926 20.644 11.431 25.106C12.2677 26.12 13.25 26.9723 14.378 27.663C15.7593 28.517 17.2583 29.0363 18.875 29.221C20.4617 29.429 21.988 29.222 23.454 28.6C26.371 27.419 28.396 24.561 28.729 21.488C29.145 17.64 27.155 14.235 23.779 12.451C22.2257 11.701 20.5843 11.4807 18.855 11.79C17.3957 12.0673 16.0083 12.575 14.693 13.313C14.6683 13.327 14.6563 13.3483 14.657 13.377L14.986 23.523C14.9885 23.5973 15.0201 23.668 15.074 23.72C15.978 24.586 17.049 25.123 18.287 25.331C18.321 25.337 18.3377 25.3227 18.337 25.288L18.198 15.724C18.1973 15.6927 18.212 15.673 18.242 15.665L19.048 15.467C20.5393 15.1783 21.8893 15.4193 23.098 16.19C26.179 18.364 26.258 22.699 23.384 25.08C21.982 26.0673 20.3957 26.467 18.625 26.279C17.2183 26.1437 15.9363 25.6757 14.779 24.875C13.3397 23.7817 12.334 22.361 11.762 20.613C11.1813 18.7957 11.1623 16.9577 11.705 15.099C12.369 13.0343 13.6013 11.4027 15.402 10.204C15.994 9.78933 16.628 9.50733 17.304 9.358C19.4873 8.85533 21.636 8.95967 23.75 9.671C25.5813 10.3277 27.152 11.373 28.462 12.807C30.779 15.401 31.879 18.978 31.266 22.394C30.8433 24.7547 29.8073 26.794 28.158 28.512C26.938 29.716 25.5673 30.612 24.046 31.2C22.5013 31.7547 20.912 32.0017 19.278 31.941C17.6627 31.865 16.0923 31.4847 14.567 30.8C13.8597 30.46 13.138 30.0333 12.402 29.52C10.046 27.7033 8.514 25.3203 7.806 22.371C7.29333 19.9957 7.38233 17.6477 8.073 15.327C8.236 14.78 8.238 14.331 7.66 14.111C7.62733 14.0983 7.60333 14.1077 7.588 14.139C5.561 18.179 5.557 22.778 7.578 26.826C8.67267 28.966 10.2133 30.7087 12.2 32.054C12.882 32.526 13.6327 32.94 14.452 33.296C15.8633 33.916 17.3713 34.2887 18.976 34.414C20.676 34.5367 22.3433 34.3527 23.978 33.862C25.5153 33.3953 26.9333 32.6877 28.232 31.739C35.576 26.256 35.786 15.62 28.861 9.741C27.3697 8.515 25.702 7.635 23.858 7.101C21.6587 6.45567 19.449 6.37367 17.229 6.855Z" fill="white"/>
<path d="M23.8579 7.10108C24.0212 7.25842 24.0442 7.46375 23.9269 7.71708C23.9116 7.75042 23.9089 7.78475 23.9189 7.82008C23.9842 8.04408 23.9899 8.27108 23.9359 8.50108C23.9279 8.53642 23.9296 8.57108 23.9409 8.60508C23.9969 8.76842 23.9929 8.93075 23.9289 9.09208C23.9169 9.12342 23.9159 9.15508 23.9259 9.18708C23.9772 9.35442 23.9436 9.50175 23.8249 9.62908C23.8182 9.63642 23.8102 9.63808 23.8009 9.63408C23.7942 9.63142 23.7859 9.62842 23.7759 9.62508C23.7715 9.62378 23.7668 9.6242 23.7627 9.62624C23.7587 9.62828 23.7555 9.6318 23.7539 9.63608C23.7492 9.64808 23.7479 9.65975 23.7499 9.67108C21.6359 8.95975 19.4872 8.85542 17.3039 9.35808C17.1726 9.30608 17.1156 9.20408 17.1329 9.05208C17.2209 8.29008 17.0589 7.65708 17.2289 6.85508C19.4489 6.37375 21.6586 6.45575 23.8579 7.10108Z" fill="#9653B9"/>
<path d="M17.2291 6.85498C17.0591 7.65698 17.2211 8.28998 17.1331 9.05198C17.1158 9.20398 17.1728 9.30598 17.3041 9.35798C16.6281 9.50731 15.9941 9.78931 15.4021 10.204C15.4161 10.072 15.5144 9.98131 15.6971 9.93198C15.7318 9.92265 15.7338 9.90865 15.7031 9.88998L15.6471 9.85698C15.6224 9.84231 15.6098 9.82065 15.6091 9.79198L15.5661 8.25898C15.5648 8.22539 15.5517 8.19349 15.5291 8.16898C15.4644 8.09831 15.4631 8.02731 15.5251 7.95598C15.5459 7.93193 15.5588 7.90226 15.5621 7.87098C15.5808 7.71098 15.5598 7.55798 15.4991 7.41198L17.2291 6.85498Z" fill="#B44FA2"/>
<path d="M23.8579 7.10107C25.7019 7.63507 27.3696 8.51507 28.8609 9.74107L28.7089 9.86907C28.6829 9.89107 28.6683 9.91907 28.6649 9.95307C28.5779 10.8241 28.6189 11.7001 28.6239 12.5751C28.6246 12.6464 28.5906 12.6774 28.5219 12.6681C28.5059 12.6661 28.5013 12.6721 28.5079 12.6861C28.5233 12.7207 28.5079 12.7611 28.4619 12.8071C27.1519 11.3731 25.5813 10.3277 23.7499 9.67107C23.7479 9.65974 23.7493 9.64807 23.7539 9.63607C23.7555 9.63179 23.7587 9.62827 23.7628 9.62623C23.7668 9.62419 23.7715 9.62377 23.7759 9.62507C23.7859 9.62841 23.7943 9.63141 23.8009 9.63407C23.8103 9.63807 23.8183 9.63641 23.8249 9.62907C23.9436 9.50174 23.9773 9.35441 23.9259 9.18707C23.9159 9.15507 23.9169 9.12341 23.9289 9.09207C23.9929 8.93074 23.9969 8.76841 23.9409 8.60507C23.9296 8.57107 23.9279 8.53641 23.9359 8.50107C23.9899 8.27107 23.9843 8.04407 23.9189 7.82007C23.9089 7.78474 23.9116 7.75041 23.9269 7.71707C24.0443 7.46374 24.0213 7.25841 23.8579 7.10107Z" fill="#7757D1"/>
<path d="M15.4991 7.41211C15.5598 7.55811 15.5808 7.71111 15.5621 7.87111C15.5588 7.90239 15.5459 7.93206 15.5251 7.95611C15.4631 8.02744 15.4644 8.09844 15.5291 8.16911C15.5516 8.19362 15.5648 8.22552 15.5661 8.25911L15.6091 9.79211C15.6098 9.82078 15.6224 9.84244 15.6471 9.85711L15.7031 9.89011C15.7338 9.90878 15.7318 9.92278 15.6971 9.93211C15.5144 9.98144 15.4161 10.0721 15.4021 10.2041C13.6014 11.4028 12.3691 13.0344 11.7051 15.0991L11.8531 14.5541C11.8631 14.5168 11.8514 14.5078 11.8181 14.5271L11.7941 14.5421C11.7708 14.5554 11.7571 14.5488 11.7531 14.5221C11.6944 14.1474 11.6821 13.7714 11.7161 13.3941C11.7351 13.1771 11.6761 12.9421 11.6901 12.7171C11.7361 11.9801 11.7051 11.2461 11.6991 10.5061C11.6991 10.4728 11.6854 10.4464 11.6581 10.4271L11.5381 10.3431C12.6148 9.05578 13.9351 8.07878 15.4991 7.41211Z" fill="#CA4D91"/>
<path d="M28.861 9.74097C35.786 15.62 35.576 26.256 28.232 31.739L28.131 31.745C28.0857 31.7476 28.082 31.7366 28.12 31.712C28.2933 31.5993 28.3213 31.438 28.204 31.228C28.189 31.2012 28.1817 31.1703 28.183 31.139C28.2257 30.2856 28.2173 29.41 28.158 28.512C29.8073 26.794 30.8433 24.7546 31.266 22.394C31.879 18.978 30.779 15.401 28.462 12.807C28.508 12.761 28.5233 12.7206 28.508 12.686C28.5013 12.672 28.506 12.666 28.522 12.668C28.5907 12.6773 28.6247 12.6463 28.624 12.575C28.619 11.7 28.578 10.824 28.665 9.95297C28.6683 9.91897 28.683 9.89097 28.709 9.86897L28.861 9.74097Z" fill="#4D5DF0"/>
<path d="M11.5381 10.343L11.6581 10.427C11.6854 10.4464 11.6991 10.4727 11.6991 10.506C11.7051 11.246 11.7361 11.98 11.6901 12.717C11.6761 12.942 11.7351 13.177 11.7161 13.394C11.6821 13.7714 11.6944 14.1474 11.7531 14.522C11.7571 14.5487 11.7708 14.5554 11.7941 14.542L11.8181 14.527C11.8514 14.5077 11.8631 14.5167 11.8531 14.554L11.7051 15.099C11.1624 16.9577 11.1814 18.7957 11.7621 20.613C11.7588 20.6584 11.7511 20.693 11.7391 20.717C11.7369 20.7218 11.7333 20.7257 11.7288 20.7283C11.7243 20.7309 11.7191 20.7321 11.7139 20.7316C11.7086 20.7312 11.7035 20.7292 11.6993 20.7259C11.695 20.7226 11.6918 20.7181 11.6901 20.713L11.6551 20.606C11.6526 20.599 11.648 20.5928 11.6418 20.5885C11.6357 20.5842 11.6284 20.5819 11.621 20.5821C11.6136 20.5822 11.6065 20.5847 11.6008 20.5891C11.595 20.5936 11.5909 20.5999 11.5891 20.607C11.5091 20.881 11.5951 21.135 11.5641 21.397C11.5311 21.677 11.5691 22.029 11.5691 22.226C11.5724 23.1007 11.5748 23.9754 11.5761 24.85C11.5761 24.9014 11.5278 24.9867 11.4311 25.106C7.92609 20.644 7.94609 14.735 11.5381 10.343Z" fill="#DC4A84"/>
<path d="M23.779 12.451L23.793 12.503C23.803 12.543 23.7896 12.5534 23.753 12.534L23.457 12.378C23.4487 12.3738 23.4394 12.372 23.4302 12.3727C23.4209 12.3735 23.4121 12.3768 23.4046 12.3823C23.3971 12.3878 23.3914 12.3953 23.3879 12.4039C23.3844 12.4125 23.3834 12.4219 23.385 12.431C23.436 12.72 23.349 13 23.361 13.252C23.402 14.109 23.433 14.885 23.33 15.735C23.3261 15.769 23.332 15.8037 23.347 15.835C23.4043 15.9537 23.3826 16.0524 23.282 16.131C23.2673 16.1424 23.254 16.1417 23.242 16.129L23.22 16.108C23.2066 16.094 23.1903 16.0897 23.171 16.095C23.129 16.1064 23.1046 16.138 23.098 16.19C21.8893 15.4194 20.5393 15.1784 19.048 15.467C18.95 14.6384 18.9176 14.1077 18.951 13.875C19.034 13.295 18.969 12.769 18.964 12.192C18.9626 12.0647 18.9263 11.9307 18.855 11.79C20.5843 11.4807 22.2256 11.701 23.779 12.451Z" fill="#9653B9"/>
<path d="M18.855 11.79C18.9263 11.9307 18.9627 12.0647 18.964 12.192C18.969 12.769 19.034 13.295 18.951 13.875C18.9177 14.1077 18.95 14.6384 19.048 15.467L18.242 15.665C18.212 15.673 18.1973 15.6927 18.198 15.724L18.337 25.288C18.3377 25.3227 18.321 25.337 18.287 25.331C17.049 25.123 15.978 24.586 15.074 23.72C15.0201 23.668 14.9885 23.5974 14.986 23.523L14.657 13.377C14.6563 13.3484 14.6683 13.327 14.693 13.313C16.0083 12.575 17.3957 12.0674 18.855 11.79Z" fill="#B44FA2"/>
<path d="M23.7789 12.451C27.1549 14.235 29.1449 17.64 28.7289 21.488C28.3959 24.561 26.3709 27.419 23.4539 28.6L23.4249 28.575C23.4056 28.5584 23.4022 28.5387 23.4149 28.516C23.4202 28.5074 23.4259 28.4984 23.4319 28.489C23.4439 28.4737 23.4489 28.4564 23.4469 28.437C23.3899 27.904 23.4299 27.382 23.3849 26.852C23.3599 26.543 23.4229 26.247 23.4059 25.946C23.3986 25.8107 23.3972 25.6737 23.4019 25.535C23.4032 25.4904 23.3852 25.456 23.3479 25.432L23.2169 25.348C23.1916 25.3314 23.1916 25.315 23.2169 25.299C23.3176 25.235 23.3732 25.162 23.3839 25.08C26.2579 22.699 26.1789 18.364 23.0979 16.19C23.1046 16.138 23.1289 16.1064 23.1709 16.095C23.1902 16.0897 23.2066 16.094 23.2199 16.108L23.2419 16.129C23.2539 16.1417 23.2672 16.1424 23.2819 16.131C23.3826 16.0524 23.4042 15.9537 23.3469 15.835C23.3319 15.8036 23.326 15.769 23.3299 15.735C23.4329 14.885 23.4019 14.109 23.3609 13.252C23.3489 13 23.4359 12.72 23.3849 12.431C23.3833 12.4219 23.3843 12.4125 23.3878 12.4039C23.3913 12.3953 23.3971 12.3878 23.4045 12.3823C23.412 12.3768 23.4209 12.3735 23.4301 12.3727C23.4394 12.372 23.4486 12.3738 23.4569 12.378L23.7529 12.534C23.7896 12.5534 23.8029 12.543 23.7929 12.503L23.7789 12.451Z" fill="#7757D1"/>
<path d="M7.80595 22.3709C7.77128 22.5996 7.78861 22.8186 7.85795 23.0279C7.86861 23.0599 7.87061 23.0923 7.86395 23.1249C7.74328 23.7143 7.69095 24.1143 7.70695 24.3249C7.74495 24.8209 7.74828 25.3183 7.71695 25.8169C7.69695 26.1329 7.77095 26.4719 7.57795 26.8259C5.55695 22.7779 5.56095 18.1789 7.58795 14.1389C7.60328 14.1076 7.62728 14.0983 7.65995 14.1109C8.23795 14.3309 8.23595 14.7799 8.07295 15.3269C7.38228 17.6476 7.29328 19.9956 7.80595 22.3709Z" fill="#F54771"/>
<path d="M11.7619 20.613C12.3339 22.361 13.3396 23.7817 14.7789 24.875C14.7736 25.0037 14.7109 25.083 14.5909 25.113C14.5582 25.121 14.5416 25.1417 14.5409 25.175C14.5236 25.7437 14.5306 26.368 14.5619 27.048C14.5732 27.294 14.5119 27.499 14.3779 27.663C13.2499 26.9723 12.2676 26.12 11.4309 25.106C11.5276 24.9867 11.5759 24.9013 11.5759 24.85C11.5746 23.9753 11.5722 23.1007 11.5689 22.226C11.5689 22.029 11.5309 21.677 11.5639 21.397C11.5949 21.135 11.5089 20.881 11.5889 20.607C11.5907 20.5999 11.5948 20.5936 11.6006 20.5891C11.6063 20.5846 11.6134 20.5821 11.6208 20.582C11.6282 20.5819 11.6355 20.5842 11.6417 20.5885C11.6478 20.5928 11.6524 20.599 11.6549 20.606L11.6899 20.713C11.6917 20.7181 11.6949 20.7225 11.6991 20.7259C11.7033 20.7292 11.7084 20.7312 11.7137 20.7316C11.719 20.732 11.7242 20.7309 11.7287 20.7283C11.7332 20.7257 11.7367 20.7217 11.7389 20.717C11.7509 20.693 11.7586 20.6583 11.7619 20.613Z" fill="#CA4D91"/>
<path d="M7.80588 22.3711C8.51388 25.3204 10.0459 27.7034 12.4019 29.5201C12.3052 30.3668 12.2699 31.2164 12.2959 32.0691C12.2958 32.0697 12.2956 32.0702 12.2953 32.0706C12.295 32.0711 12.2945 32.0714 12.294 32.0717C12.2935 32.0719 12.2929 32.0719 12.2924 32.0718C12.2918 32.0717 12.2913 32.0715 12.2909 32.0711L12.2619 32.0381C12.2552 32.0308 12.2469 32.0281 12.2369 32.0301C12.2235 32.0341 12.2112 32.0421 12.1999 32.0541C10.2132 30.7088 8.67255 28.9661 7.57788 26.8261C7.77088 26.4721 7.69688 26.1331 7.71688 25.8171C7.74821 25.3184 7.74488 24.8211 7.70688 24.3251C7.69088 24.1144 7.74321 23.7144 7.86388 23.1251C7.87055 23.0924 7.86855 23.0601 7.85788 23.0281C7.78855 22.8188 7.77121 22.5998 7.80588 22.3711Z" fill="#DC4A84"/>
<path d="M14.7789 24.875C15.9363 25.6757 17.2183 26.1437 18.6249 26.279C18.6843 26.3437 18.7576 26.377 18.8449 26.379C18.8816 26.3803 18.9009 26.3993 18.9029 26.436C18.9189 26.692 18.9213 26.9467 18.9099 27.2C18.8819 27.785 18.9639 28.367 18.8889 28.964C18.8849 28.9953 18.8953 29.021 18.9199 29.041L18.9819 29.092C19.0046 29.11 19.0013 29.1197 18.9719 29.121C18.9153 29.123 18.8829 29.1563 18.8749 29.221C17.2583 29.0363 15.7593 28.517 14.3779 27.663C14.5119 27.499 14.5733 27.294 14.5619 27.048C14.5306 26.368 14.5236 25.7437 14.5409 25.175C14.5416 25.1417 14.5583 25.121 14.5909 25.113C14.7109 25.083 14.7736 25.0037 14.7789 24.875Z" fill="#B44FA2"/>
<path d="M23.384 25.0801C23.3733 25.1621 23.3177 25.2351 23.217 25.2991C23.1917 25.3151 23.1917 25.3314 23.217 25.3481L23.348 25.4321C23.3853 25.4561 23.4033 25.4904 23.402 25.5351C23.3973 25.6737 23.3987 25.8107 23.406 25.9461C23.423 26.2471 23.36 26.5431 23.385 26.8521C23.43 27.3821 23.39 27.9041 23.447 28.4371C23.449 28.4564 23.444 28.4737 23.432 28.4891C23.426 28.4984 23.4203 28.5074 23.415 28.5161C23.4023 28.5387 23.4057 28.5584 23.425 28.5751L23.454 28.6001C21.988 29.2221 20.4617 29.4291 18.875 29.2211C18.883 29.1564 18.9153 29.1231 18.972 29.1211C19.0013 29.1197 19.0047 29.1101 18.982 29.0921L18.92 29.0411C18.8953 29.0211 18.885 28.9954 18.889 28.9641C18.964 28.3671 18.882 27.7851 18.91 27.2001C18.9213 26.9467 18.919 26.6921 18.903 26.4361C18.901 26.3994 18.8817 26.3804 18.845 26.3791C18.7577 26.3771 18.6843 26.3437 18.625 26.2791C20.3957 26.4671 21.982 26.0674 23.384 25.0801Z" fill="#9653B9"/>
<path d="M28.1581 28.512C28.2174 29.41 28.2257 30.2856 28.1831 31.139C28.1818 31.1703 28.189 31.2012 28.2041 31.228C28.3214 31.438 28.2934 31.5993 28.1201 31.712C28.0821 31.7366 28.0857 31.7476 28.1311 31.745L28.2321 31.739C26.9334 32.6876 25.5154 33.3953 23.9781 33.862L23.8201 33.723C23.8121 33.7163 23.8131 33.7113 23.8231 33.708C23.8351 33.7046 23.8471 33.7006 23.8591 33.696C23.8811 33.6866 23.8911 33.67 23.8891 33.646C23.8364 33.0726 23.8307 32.499 23.8721 31.925C23.8794 31.8276 23.8627 31.7326 23.8221 31.64C23.8221 31.6389 23.8216 31.6379 23.8209 31.6371C23.8201 31.6364 23.8191 31.636 23.8181 31.636C23.817 31.636 23.816 31.6364 23.8152 31.6371C23.8145 31.6379 23.8141 31.6389 23.8141 31.64L23.7971 31.673C23.7871 31.691 23.7834 31.69 23.7861 31.67C23.7961 31.584 23.7824 31.4976 23.7451 31.411C23.7304 31.3776 23.7404 31.3563 23.7751 31.347C23.8791 31.3176 23.9694 31.2686 24.0461 31.2C25.5674 30.612 26.9381 29.716 28.1581 28.512Z" fill="#7757D1"/>
<path d="M12.402 29.52C13.138 30.0334 13.8596 30.46 14.567 30.8C14.4443 31.05 14.3983 31.3384 14.429 31.665C14.482 32.218 14.396 32.728 14.452 33.296C13.6326 32.94 12.882 32.526 12.2 32.054C12.2113 32.042 12.2236 32.034 12.237 32.03C12.247 32.028 12.2553 32.0307 12.262 32.038L12.291 32.071C12.2914 32.0714 12.2919 32.0716 12.2924 32.0717C12.293 32.0718 12.2936 32.0718 12.2941 32.0716C12.2946 32.0714 12.295 32.071 12.2954 32.0706C12.2957 32.0701 12.2959 32.0696 12.296 32.069C12.27 31.2164 12.3053 30.3667 12.402 29.52Z" fill="#CA4D91"/>
<path d="M14.5671 30.8C16.0925 31.4847 17.6628 31.865 19.2781 31.941L18.8301 31.981C18.8168 31.9817 18.8161 31.9857 18.8281 31.993L18.9341 32.058C18.9628 32.076 18.9771 32.1017 18.9771 32.135L18.9581 34.268C18.9581 34.2699 18.9574 34.2717 18.9561 34.273C18.9548 34.2743 18.953 34.275 18.9511 34.275C18.9425 34.275 18.9338 34.274 18.9251 34.272C18.9206 34.2712 18.9165 34.2722 18.9136 34.2749C18.9106 34.2775 18.9091 34.2815 18.9092 34.2862C18.9093 34.2909 18.9111 34.2959 18.9142 34.3003C18.9173 34.3047 18.9216 34.3082 18.9261 34.31C19.0668 34.3547 19.0835 34.3894 18.9761 34.4141C17.3715 34.2887 15.8635 33.916 14.4521 33.296C14.3961 32.728 14.4821 32.218 14.4291 31.665C14.3985 31.3384 14.4445 31.05 14.5671 30.8Z" fill="#B44FA2"/>
<path d="M24.0461 31.2C23.9694 31.2686 23.8791 31.3176 23.7751 31.347C23.7404 31.3563 23.7304 31.3776 23.7451 31.4109C23.7824 31.4976 23.7961 31.584 23.7861 31.67C23.7834 31.69 23.7871 31.691 23.7971 31.673L23.8141 31.64C23.8141 31.6389 23.8145 31.6379 23.8153 31.6371C23.816 31.6364 23.817 31.6359 23.8181 31.6359C23.8192 31.6359 23.8202 31.6364 23.8209 31.6371C23.8217 31.6379 23.8221 31.6389 23.8221 31.64C23.8628 31.7326 23.8794 31.8276 23.8721 31.925C23.8308 32.499 23.8364 33.0726 23.8891 33.646C23.8911 33.67 23.8811 33.6866 23.8591 33.696C23.8471 33.7006 23.8351 33.7046 23.8231 33.7079C23.8131 33.7113 23.8121 33.7163 23.8201 33.723L23.9781 33.862C22.3434 34.3526 20.6761 34.5366 18.9761 34.414C19.0834 34.3893 19.0668 34.3546 18.9261 34.31C18.9216 34.3081 18.9173 34.3046 18.9142 34.3002C18.9111 34.2958 18.9093 34.2908 18.9092 34.2861C18.909 34.2814 18.9106 34.2774 18.9135 34.2748C18.9165 34.2722 18.9206 34.2712 18.9251 34.272C18.9338 34.274 18.9424 34.275 18.9511 34.275C18.953 34.275 18.9547 34.2742 18.9561 34.2729C18.9574 34.2716 18.9581 34.2698 18.9581 34.268L18.9771 32.135C18.9771 32.1016 18.9628 32.0759 18.9341 32.0579L18.8281 31.993C18.8161 31.9856 18.8168 31.9816 18.8301 31.981L19.2781 31.941C20.9121 32.0016 22.5014 31.7546 24.0461 31.2Z" fill="#9653B9"/>
</g>
<defs>
<clipPath id="clip0_901_7424">
<rect width="40" height="40" fill="white" transform="translate(0 0.5)"/>
</clipPath>
</defs>
</svg>
