<svg width="40" height="41" viewBox="0 0 40 41" fill="none" xmlns="http://www.w3.org/2000/svg">
<rect y="0.5" width="40" height="40" rx="20" fill="white"/>
<g clip-path="url(#clip0_664_4264)">
<path d="M13.8969 12.5488C18.2584 12.5488 21.7938 16.1089 21.7938 20.5C21.7938 24.8911 18.2581 28.4509 13.8969 28.4509C9.53588 28.4509 6 24.8911 6 20.5C6 16.109 9.53555 12.5488 13.8969 12.5488ZM26.5078 13.0145C28.6885 13.0145 30.4564 16.3656 30.4564 20.5H30.4567C30.4567 24.6333 28.6889 27.9854 26.5083 27.9854C24.3276 27.9854 22.5597 24.6333 22.5597 20.5C22.5597 16.3667 24.3272 13.0145 26.5079 13.0145H26.5078ZM32.6113 13.7943C33.3781 13.7943 34 16.7965 34 20.5001C34 24.2024 33.3783 27.2058 32.6113 27.2058C31.8442 27.2058 31.2229 24.2033 31.2229 20.5001C31.2229 16.7967 31.8446 13.7943 32.6113 13.7943Z" fill="black"/>
</g>
<defs>
<clipPath id="clip0_664_4264">
<rect width="28" height="15.9712" fill="white" transform="translate(6 12.5144)"/>
</clipPath>
</defs>
</svg>
