<svg width="40" height="41" viewBox="0 0 40 41" fill="none" xmlns="http://www.w3.org/2000/svg">
<g clip-path="url(#clip0_901_7496)">
<path d="M14.7961 7.51587C13.0307 8.24987 11.4661 9.29454 10.1021 10.6499" stroke="#BEA0E7" stroke-width="0.2"/>
<path d="M10.1022 10.6499C8.77486 11.9639 7.75552 13.4869 7.04419 15.2189" stroke="#B4A1E3" stroke-width="0.2"/>
<path d="M7.04409 15.219C6.53942 16.5043 6.20676 17.829 6.04609 19.193C5.66709 22.413 6.69809 26.046 8.57709 28.672C10.6984 31.638 13.5294 33.5333 17.0701 34.358C17.4121 34.4373 17.7864 34.48 18.1931 34.486C19.3784 34.5033 20.5638 34.5087 21.7491 34.502C23.5811 34.491 25.7231 33.582 27.2791 32.655" stroke="#A9A2DE" stroke-width="0.2"/>
<path d="M27.2791 32.6549C29.5604 31.2502 31.3304 29.3669 32.5891 27.0049" stroke="#BEA0E7" stroke-width="0.2"/>
<path d="M32.5891 27.0049C33.1565 25.8409 33.5905 24.6299 33.8911 23.3719C33.9625 23.0752 33.9978 22.7562 33.9971 22.4149C33.9971 21.2069 33.9998 19.9986 34.0051 18.7899C34.0071 18.4226 33.9731 18.0822 33.9031 17.7689C32.5691 11.7879 27.8321 7.37289 21.7481 6.56189C21.0731 6.47289 20.3501 6.49889 19.6451 6.49989C17.9661 6.50189 16.3491 6.8879 14.7961 7.5159" stroke="#CE9FEE" stroke-width="0.2"/>
<path d="M32.5892 27.0049C32.5872 26.9889 32.5812 26.9769 32.5712 26.9689C32.5392 26.9449 32.5138 26.9506 32.4952 26.9859L32.4742 27.0249C32.4727 27.0271 32.4704 27.0288 32.4679 27.0298C32.4653 27.0308 32.4626 27.031 32.4601 27.0305C32.4577 27.0299 32.4556 27.0285 32.4544 27.0266C32.4531 27.0247 32.4527 27.0223 32.4532 27.0199C32.4805 26.9333 32.4628 26.8716 32.4002 26.8349C32.3715 26.8183 32.3482 26.7963 32.3302 26.7689C32.0112 26.2799 31.4482 26.0879 31.1652 25.6009C30.9498 25.2296 30.6428 24.9076 30.2442 24.6349C30.0402 24.4949 30.1562 24.1439 29.8082 23.9669C29.5675 23.8443 29.3855 23.6599 29.2622 23.4139C29.2468 23.3833 29.2245 23.3586 29.1952 23.3399C28.9378 23.1786 28.7622 22.9486 28.6682 22.6499C28.6568 22.6133 28.6325 22.5923 28.5952 22.5869C28.5345 22.5789 28.5192 22.5456 28.5492 22.4869C28.556 22.473 28.5577 22.4571 28.5538 22.4422C28.55 22.4273 28.5408 22.4144 28.5282 22.4059C28.4922 22.3826 28.4562 22.3826 28.4202 22.4059" stroke="#8D40D6" stroke-width="0.2"/>
<path d="M28.42 22.4059C29.521 16.6889 25.068 11.4799 19.177 12.0889" stroke="#CE9FEE" stroke-width="0.2"/>
<path d="M19.1771 12.0889C19.0971 11.9229 19.0198 11.8035 18.9451 11.7309C18.4431 11.2459 17.8921 10.8099 17.5361 10.1759C17.5277 10.1609 17.5161 10.148 17.502 10.1381C17.488 10.1282 17.472 10.1217 17.4551 10.1189C17.2938 10.0895 17.1855 10.0025 17.1301 9.85787C17.1181 9.82587 17.1001 9.79754 17.0761 9.77287C16.7575 9.4522 16.4365 9.1342 16.1131 8.81887C15.9031 8.61487 15.8421 8.36187 15.6191 8.15287C15.5181 8.05787 15.4671 7.86687 15.3631 7.81287C15.2361 7.74787 14.8771 7.88687 14.9721 7.60087C14.9742 7.59448 14.9744 7.58763 14.9727 7.58114C14.971 7.57465 14.9674 7.56878 14.9625 7.56425C14.9575 7.55972 14.9514 7.55671 14.9447 7.55557C14.9381 7.55444 14.9313 7.55524 14.9251 7.55787C14.8651 7.58254 14.8221 7.56854 14.7961 7.51587" stroke="#8D40D6" stroke-width="0.2"/>
<path d="M28.42 22.406C27.848 25.096 25.971 27.283 23.511 28.447" stroke="#BEA0E7" stroke-width="0.2"/>
<path d="M23.5111 28.4468C22.0991 29.0388 20.8341 29.2478 19.3161 29.1278C14.5811 28.7528 11.1571 24.4078 11.5511 19.7488" stroke="#A9A2DE" stroke-width="0.2"/>
<path d="M19.1771 12.0889C17.2531 12.2929 15.5884 13.0575 14.1831 14.3829" stroke="#BEA0E7" stroke-width="0.2"/>
<path d="M14.1831 14.383L14.1791 14.347C14.1724 14.299 14.1521 14.292 14.1181 14.326L13.8121 14.631C13.7874 14.6563 13.7611 14.6576 13.7331 14.635C13.6384 14.5596 13.6354 14.4656 13.7241 14.353C13.7474 14.323 13.7421 14.2996 13.7081 14.283L13.4741 14.172C13.4594 14.1647 13.447 14.1537 13.4383 14.1401C13.4297 14.1265 13.4251 14.1109 13.4251 14.095V13.93C13.4251 13.8967 13.4118 13.8644 13.3881 13.84C13.0394 13.49 12.7727 13.197 12.5881 12.961C12.5161 12.8683 12.4337 12.8106 12.3411 12.788C12.3137 12.7813 12.3004 12.7636 12.3011 12.735C12.3031 12.61 11.8321 12.199 11.7271 12.076C11.2891 11.56 10.8141 11.132 10.4191 10.583C10.4011 10.5583 10.3854 10.5596 10.3721 10.587C10.3661 10.599 10.3607 10.612 10.3561 10.626C10.3481 10.656 10.3291 10.667 10.2991 10.659C10.2337 10.6416 10.1681 10.6386 10.1021 10.65" stroke="#7342CB" stroke-width="0.2"/>
<path d="M23.511 28.4468C24.1503 29.2694 24.8373 30.0631 25.572 30.8278C25.668 30.9278 25.652 31.1028 25.79 31.1908C25.8767 31.2454 25.975 31.2678 26.085 31.2578C26.1577 31.2504 26.188 31.2824 26.176 31.3538C26.1733 31.3698 26.174 31.3868 26.178 31.4048C26.1827 31.4281 26.1927 31.4491 26.208 31.4678C26.381 31.6838 26.577 31.8198 26.723 32.0568C26.8377 32.2421 26.9663 32.4191 27.109 32.5878C27.1217 32.6024 27.1347 32.6028 27.148 32.5888L27.175 32.5618C27.1977 32.5398 27.2167 32.5424 27.232 32.5698L27.279 32.6548" stroke="#6843C6" stroke-width="0.2"/>
<path d="M14.183 14.3828C12.6464 15.8401 11.769 17.6288 11.551 19.7488" stroke="#B4A1E3" stroke-width="0.2"/>
<path d="M11.5512 19.749L11.4462 19.675C11.4122 19.6503 11.3965 19.659 11.3992 19.701L11.4092 19.866C11.4095 19.8715 11.4086 19.8771 11.4066 19.8823C11.4046 19.8875 11.4015 19.8921 11.3975 19.896C11.3935 19.8999 11.3888 19.9029 11.3835 19.9048C11.3783 19.9067 11.3727 19.9074 11.3672 19.907C10.9092 19.862 9.95519 18.56 9.67519 18.166C9.65519 18.138 9.62852 18.1197 9.59519 18.111L9.39019 18.059C9.35552 18.0503 9.32919 18.0307 9.31119 18C9.00519 17.494 8.63719 17.0387 8.20719 16.634C7.97119 16.412 7.87819 16.117 7.64119 15.876C7.61586 15.8507 7.59919 15.8203 7.59119 15.785C7.56119 15.655 7.48419 15.5727 7.36019 15.538C7.32886 15.5293 7.30352 15.512 7.28419 15.486C7.22819 15.4113 7.21019 15.3277 7.23019 15.235C7.23208 15.2263 7.23164 15.2173 7.22891 15.2089C7.22617 15.2005 7.22125 15.1929 7.21463 15.187C7.20802 15.1811 7.19995 15.1771 7.19127 15.1753C7.18258 15.1736 7.17358 15.1741 7.16519 15.177L7.04419 15.219" stroke="#5E44C2" stroke-width="0.2"/>
<path d="M26.2091 19.3499C26.6281 15.6409 22.1261 13.7419 19.5521 16.3519C19.4308 16.4746 19.3421 16.6003 19.2861 16.7289C19.2765 16.7509 19.2745 16.7753 19.2805 16.7984C19.2865 16.8215 19.3001 16.8417 19.3191 16.8559C21.2978 18.3746 23.5331 19.2553 26.0251 19.4979C26.1351 19.5086 26.1964 19.4593 26.2091 19.3499Z" stroke="#BEA0E7" stroke-width="0.2"/>
<path d="M25.557 19.9618C24.615 19.8308 23.635 19.6608 22.767 19.3608C21.399 18.8878 20.241 18.1578 19.063 17.3288C19.0284 17.3048 18.9967 17.3081 18.968 17.3388C18.478 17.8628 18.521 19.1838 18.659 19.7728C19.553 23.6018 24.636 23.7548 26.053 20.1868C26.0583 20.1735 26.0608 20.1593 26.0602 20.145C26.0597 20.1307 26.0561 20.1167 26.0498 20.1039C26.0435 20.0911 26.0346 20.0797 26.0236 20.0706C26.0126 20.0614 25.9998 20.0547 25.986 20.0508C25.856 20.0135 25.713 19.9838 25.557 19.9618Z" stroke="#BEA0E7" stroke-width="0.2"/>
<path d="M19.458 0.5H20.56C31.317 0.963 39.558 9.189 40 19.953V21.079C39.617 31.709 31.214 40.177 20.493 40.5H19.496C8.805 40.149 0.339 31.726 0 21.017V19.995C0.371 9.324 8.725 0.856 19.458 0.5ZM14.796 7.516C13.0307 8.25 11.466 9.29467 10.102 10.65C8.77467 11.964 7.75533 13.487 7.044 15.219C6.53933 16.5043 6.20667 17.829 6.046 19.193C5.667 22.413 6.698 26.046 8.577 28.672C10.6983 31.638 13.5293 33.5333 17.07 34.358C17.412 34.4373 17.7863 34.48 18.193 34.486C19.3783 34.5033 20.5637 34.5087 21.749 34.502C23.581 34.491 25.723 33.582 27.279 32.655C29.5603 31.2503 31.3303 29.367 32.589 27.005C33.1563 25.841 33.5903 24.63 33.891 23.372C33.9623 23.0753 33.9977 22.7563 33.997 22.415C33.997 21.207 33.9997 19.9987 34.005 18.79C34.007 18.4227 33.973 18.0823 33.903 17.769C32.569 11.788 27.832 7.373 21.748 6.562C21.073 6.473 20.35 6.499 19.645 6.5C17.966 6.502 16.349 6.888 14.796 7.516Z" fill="white"/>
<path d="M32.5889 27.0049C32.5869 26.9889 32.5809 26.9769 32.5709 26.9689C32.5389 26.9449 32.5136 26.9506 32.4949 26.9859L32.4739 27.0249C32.4724 27.027 32.4702 27.0288 32.4676 27.0298C32.4651 27.0308 32.4623 27.031 32.4599 27.0304C32.4574 27.0298 32.4554 27.0285 32.4541 27.0266C32.4528 27.0246 32.4524 27.0223 32.4529 27.0199C32.4802 26.9332 32.4626 26.8716 32.3999 26.8349C32.3712 26.8182 32.3479 26.7962 32.3299 26.7689C32.0109 26.2799 31.4479 26.0879 31.1649 25.6009C30.9496 25.2296 30.6426 24.9076 30.2439 24.6349C30.0399 24.4949 30.1559 24.1439 29.8079 23.9669C29.5672 23.8442 29.3852 23.6599 29.2619 23.4139C29.2466 23.3832 29.2242 23.3586 29.1949 23.3399C28.9376 23.1786 28.7619 22.9486 28.6679 22.6499C28.6566 22.6132 28.6322 22.5922 28.5949 22.5869C28.5342 22.5789 28.5189 22.5456 28.5489 22.4869C28.5558 22.473 28.5574 22.4571 28.5536 22.4422C28.5497 22.4273 28.5406 22.4144 28.5279 22.4059C28.4919 22.3826 28.4559 22.3826 28.4199 22.4059C29.5209 16.6889 25.0679 11.4799 19.1769 12.0889C19.0969 11.9229 19.0196 11.8036 18.9449 11.7309C18.4429 11.2459 17.8919 10.8099 17.5359 10.1759C17.5275 10.1609 17.5158 10.148 17.5018 10.1381C17.4878 10.1283 17.4718 10.1217 17.4549 10.1189C17.2936 10.0896 17.1852 10.0026 17.1299 9.85789C17.1179 9.82589 17.0999 9.79756 17.0759 9.7729C16.7572 9.45223 16.4362 9.13423 16.1129 8.81889C15.9029 8.61489 15.8419 8.36189 15.6189 8.15289C15.5179 8.05789 15.4669 7.86689 15.3629 7.81289C15.2359 7.74789 14.8769 7.88689 14.9719 7.60089C14.974 7.59451 14.9742 7.58766 14.9724 7.58116C14.9707 7.57467 14.9672 7.56881 14.9622 7.56428C14.9573 7.55974 14.9511 7.55673 14.9445 7.5556C14.9379 7.55447 14.9311 7.55527 14.9249 7.55789C14.8649 7.58256 14.8219 7.56856 14.7959 7.5159C16.3489 6.8879 17.9659 6.50189 19.6449 6.49989C20.3499 6.49889 21.0729 6.47289 21.7479 6.56189C27.8319 7.37289 32.5689 11.7879 33.9029 17.7689C34.1499 19.0999 34.1519 20.4326 34.1499 20.7999C34.1463 21.6126 34.0821 22.5767 33.8909 23.3719C33.5902 24.6299 33.1562 25.8409 32.5889 27.0049Z" fill="#9D3FDD"/>
<path d="M14.7961 7.51611C14.8221 7.56878 14.8651 7.58278 14.9251 7.55811C14.9312 7.55548 14.938 7.55469 14.9447 7.55582C14.9513 7.55695 14.9574 7.55996 14.9624 7.56449C14.9673 7.56903 14.9709 7.57489 14.9726 7.58138C14.9743 7.58788 14.9741 7.59473 14.9721 7.60111C14.8771 7.88711 15.2361 7.74811 15.3631 7.81311C15.4671 7.86711 15.5181 8.05811 15.6191 8.15311C15.8421 8.36211 15.9031 8.61511 16.1131 8.81911C16.4364 9.13445 16.7574 9.45245 17.0761 9.77311C17.1001 9.79778 17.1181 9.82611 17.1301 9.85811C17.1854 10.0028 17.2937 10.0898 17.4551 10.1191C17.4719 10.1219 17.4879 10.1285 17.502 10.1383C17.516 10.1482 17.5276 10.1611 17.5361 10.1761C17.8921 10.8101 18.4431 11.2461 18.9451 11.7311C19.0197 11.8038 19.0971 11.9231 19.1771 12.0891C17.2531 12.2931 15.5884 13.0578 14.1831 14.3831L14.1791 14.3471C14.1724 14.2991 14.1521 14.2921 14.1181 14.3261L13.8121 14.6311C13.7874 14.6564 13.7611 14.6578 13.7331 14.6351C13.6384 14.5598 13.6354 14.4658 13.7241 14.3531C13.7474 14.3231 13.7421 14.2998 13.7081 14.2831L13.4741 14.1721C13.4594 14.1649 13.447 14.1538 13.4383 14.1402C13.4297 14.1266 13.4251 14.111 13.4251 14.0951V13.9301C13.4251 13.8968 13.4118 13.8645 13.3881 13.8401C13.0394 13.4901 12.7727 13.1971 12.5881 12.9611C12.5161 12.8684 12.4337 12.8108 12.3411 12.7881C12.3137 12.7814 12.3004 12.7638 12.3011 12.7351C12.3031 12.6101 11.8321 12.1991 11.7271 12.0761C11.2891 11.5601 10.8141 11.1321 10.4191 10.5831C10.4011 10.5584 10.3854 10.5598 10.3721 10.5871C10.3661 10.5991 10.3607 10.6121 10.3561 10.6261C10.3481 10.6561 10.3291 10.6671 10.2991 10.6591C10.2337 10.6418 10.1681 10.6388 10.1021 10.6501C11.4661 9.29478 13.0307 8.25011 14.7961 7.51611Z" fill="#7C41CF"/>
<path d="M14.1829 14.383C12.6463 15.8403 11.7689 17.629 11.5509 19.749L11.4459 19.675C11.4119 19.6503 11.3963 19.659 11.3989 19.701L11.4089 19.866C11.4092 19.8715 11.4084 19.8771 11.4063 19.8823C11.4043 19.8874 11.4012 19.8921 11.3972 19.896C11.3933 19.8999 11.3885 19.9029 11.3833 19.9048C11.3781 19.9067 11.3725 19.9074 11.3669 19.907C10.9089 19.862 9.95495 18.56 9.67495 18.166C9.65495 18.138 9.62828 18.1196 9.59494 18.111L9.38995 18.059C9.35528 18.0503 9.32895 18.0306 9.31095 18C9.00495 17.494 8.63695 17.0386 8.20695 16.634C7.97095 16.412 7.87795 16.117 7.64095 15.876C7.61561 15.8506 7.59895 15.8203 7.59095 15.785C7.56095 15.655 7.48394 15.5726 7.35994 15.538C7.32861 15.5293 7.30328 15.512 7.28394 15.486C7.22794 15.4113 7.20995 15.3276 7.22995 15.235C7.23184 15.2263 7.2314 15.2173 7.22866 15.2089C7.22593 15.2004 7.221 15.1929 7.21439 15.187C7.20777 15.1811 7.19971 15.1771 7.19102 15.1753C7.18233 15.1735 7.17333 15.1741 7.16495 15.177L7.04395 15.219C7.75528 13.487 8.77461 11.964 10.1019 10.65C10.1679 10.6386 10.2336 10.6416 10.2989 10.659C10.3289 10.667 10.3479 10.656 10.3559 10.626C10.3606 10.612 10.3659 10.599 10.3719 10.587C10.3853 10.5596 10.4009 10.5583 10.4189 10.583C10.8139 11.132 11.2889 11.56 11.7269 12.076C11.8319 12.199 12.3029 12.61 12.3009 12.735C12.3003 12.7636 12.3136 12.7813 12.3409 12.788C12.4336 12.8106 12.5159 12.8683 12.5879 12.961C12.7726 13.197 13.0393 13.49 13.3879 13.84C13.4117 13.8644 13.425 13.8967 13.4249 13.93V14.095C13.425 14.1109 13.4296 14.1265 13.4382 14.1401C13.4469 14.1537 13.4593 14.1647 13.4739 14.172L13.7079 14.283C13.7419 14.2996 13.7473 14.323 13.7239 14.353C13.6353 14.4656 13.6383 14.5596 13.7329 14.635C13.7609 14.6576 13.7873 14.6563 13.8119 14.631L14.1179 14.326C14.1519 14.292 14.1723 14.299 14.1789 14.347L14.1829 14.383Z" fill="#6943C7"/>
<path d="M28.4201 22.4059C27.8481 25.0959 25.9711 27.2829 23.5111 28.4469C22.0991 29.0389 20.8341 29.2479 19.3161 29.1279C14.5811 28.7529 11.1571 24.4079 11.5511 19.7489C11.7691 17.6289 12.6464 15.8402 14.1831 14.3829C15.5884 13.0576 17.2531 12.2929 19.1771 12.0889C25.0681 11.4799 29.5211 16.6889 28.4201 22.4059ZM26.2091 19.3499C26.6281 15.6409 22.1261 13.7419 19.5521 16.3519C19.4308 16.4746 19.3421 16.6002 19.2861 16.7289C19.2765 16.7508 19.2745 16.7753 19.2805 16.7983C19.2865 16.8214 19.3001 16.8417 19.3191 16.8559C21.2978 18.3745 23.5331 19.2552 26.0251 19.4979C26.1351 19.5085 26.1964 19.4592 26.2091 19.3499ZM25.5571 19.9619C24.6151 19.8309 23.6351 19.6609 22.7671 19.3609C21.3991 18.8879 20.2411 18.1579 19.0631 17.3289C19.0284 17.3049 18.9968 17.3082 18.9681 17.3389C18.4781 17.8629 18.5211 19.1839 18.6591 19.7729C19.5531 23.6019 24.6361 23.7549 26.0531 20.1869C26.0584 20.1736 26.0609 20.1594 26.0603 20.1451C26.0598 20.1308 26.0562 20.1168 26.0499 20.104C26.0436 20.0911 26.0346 20.0798 26.0236 20.0706C26.0127 20.0615 25.9999 20.0548 25.9861 20.0509C25.8561 20.0135 25.7131 19.9839 25.5571 19.9619Z" fill="white"/>
<path d="M19.5521 16.3519C22.1261 13.7419 26.6281 15.6409 26.2091 19.3499C26.1964 19.4593 26.1351 19.5086 26.0251 19.4979C23.5331 19.2553 21.2978 18.3746 19.3191 16.8559C19.3001 16.8417 19.2865 16.8215 19.2805 16.7984C19.2745 16.7753 19.2765 16.7509 19.2861 16.7289C19.3421 16.6003 19.4308 16.4746 19.5521 16.3519Z" fill="#7C41CF"/>
<path d="M11.5511 19.749C11.1571 24.408 14.5811 28.753 19.3161 29.128C20.8341 29.248 22.0991 29.039 23.5111 28.447C24.1504 29.2697 24.8374 30.0633 25.5721 30.828C25.6681 30.928 25.6521 31.103 25.7901 31.191C25.8768 31.2457 25.9751 31.268 26.0851 31.258C26.1578 31.2507 26.1881 31.2827 26.1761 31.354C26.1734 31.37 26.1741 31.387 26.1781 31.405C26.1828 31.4283 26.1928 31.4493 26.2081 31.468C26.3811 31.684 26.5771 31.82 26.7231 32.057C26.8378 32.2423 26.9664 32.4193 27.1091 32.588C27.1218 32.6027 27.1348 32.603 27.1481 32.589L27.1751 32.562C27.1978 32.54 27.2168 32.5427 27.2321 32.57L27.2791 32.655C25.7231 33.582 23.5811 34.491 21.7491 34.502C20.5638 34.5087 19.3784 34.5033 18.1931 34.486C17.7864 34.48 17.4121 34.4373 17.0701 34.358C13.5294 33.5333 10.6984 31.638 8.57709 28.672C6.69809 26.046 5.66709 22.413 6.04609 19.193C6.20676 17.829 6.53942 16.5043 7.04409 15.219L7.16509 15.177C7.17348 15.1741 7.18248 15.1736 7.19117 15.1753C7.19985 15.1771 7.20792 15.1811 7.21453 15.187C7.22115 15.1929 7.22607 15.2005 7.22881 15.2089C7.23154 15.2173 7.23198 15.2263 7.23009 15.235C7.21009 15.3277 7.22809 15.4113 7.28409 15.486C7.30342 15.512 7.32876 15.5293 7.36009 15.538C7.48409 15.5727 7.56109 15.655 7.59109 15.785C7.59909 15.8203 7.61576 15.8507 7.64109 15.876C7.87809 16.117 7.97109 16.412 8.20709 16.634C8.63709 17.0387 9.00509 17.494 9.31109 18C9.32909 18.0307 9.35542 18.0503 9.39009 18.059L9.59509 18.111C9.62842 18.1197 9.65509 18.138 9.67509 18.166C9.95509 18.56 10.9091 19.862 11.3671 19.907C11.3726 19.9074 11.3782 19.9067 11.3834 19.9048C11.3887 19.9029 11.3934 19.8999 11.3974 19.896C11.4014 19.8921 11.4045 19.8875 11.4065 19.8823C11.4085 19.8771 11.4094 19.8715 11.4091 19.866L11.3991 19.701C11.3964 19.659 11.4121 19.6503 11.4461 19.675L11.5511 19.749Z" fill="#5344BD"/>
<path d="M25.557 19.962C25.713 19.984 25.856 20.0137 25.986 20.051C25.9998 20.0549 26.0126 20.0617 26.0236 20.0708C26.0346 20.0799 26.0435 20.0913 26.0498 20.1041C26.0561 20.1169 26.0597 20.131 26.0602 20.1452C26.0608 20.1595 26.0583 20.1738 26.053 20.187C24.636 23.755 19.553 23.602 18.659 19.773C18.521 19.184 18.478 17.863 18.968 17.339C18.9967 17.3084 19.0284 17.305 19.063 17.329C20.241 18.158 21.399 18.888 22.767 19.361C23.635 19.661 24.615 19.831 25.557 19.962Z" fill="#7C41CF"/>
<path d="M32.589 27.0049C31.3303 29.3669 29.5603 31.2503 27.279 32.6549L27.232 32.5699C27.2167 32.5426 27.1977 32.5399 27.175 32.5619L27.148 32.5889C27.1347 32.6029 27.1217 32.6026 27.109 32.5879C26.9663 32.4193 26.8377 32.2423 26.723 32.0569C26.577 31.8199 26.381 31.6839 26.208 31.4679C26.1927 31.4493 26.1827 31.4283 26.178 31.4049C26.174 31.3869 26.1733 31.3699 26.176 31.3539C26.188 31.2826 26.1577 31.2506 26.085 31.2579C25.975 31.2679 25.8767 31.2456 25.79 31.1909C25.652 31.1029 25.668 30.9279 25.572 30.8279C24.8373 30.0633 24.1503 29.2696 23.511 28.4469C25.971 27.2829 27.848 25.0959 28.42 22.4059C28.456 22.3826 28.492 22.3826 28.528 22.4059C28.5407 22.4144 28.5498 22.4273 28.5537 22.4422C28.5575 22.4571 28.5559 22.473 28.549 22.4869C28.519 22.5456 28.5343 22.5789 28.595 22.5869C28.6323 22.5923 28.6567 22.6133 28.668 22.6499C28.762 22.9486 28.9377 23.1786 29.195 23.3399C29.2243 23.3586 29.2467 23.3833 29.262 23.4139C29.3853 23.6599 29.5673 23.8443 29.808 23.9669C30.156 24.1439 30.04 24.4949 30.244 24.6349C30.6427 24.9076 30.9497 25.2296 31.165 25.6009C31.448 26.0879 32.011 26.2799 32.33 26.7689C32.348 26.7963 32.3713 26.8183 32.4 26.8349C32.4627 26.8716 32.4803 26.9333 32.453 27.0199C32.4525 27.0223 32.4529 27.0247 32.4542 27.0266C32.4555 27.0285 32.4575 27.0299 32.4599 27.0305C32.4624 27.031 32.4651 27.0308 32.4677 27.0298C32.4703 27.0288 32.4725 27.0271 32.474 27.0249L32.495 26.9859C32.5137 26.9506 32.539 26.9449 32.571 26.9689C32.581 26.9769 32.587 26.9889 32.589 27.0049Z" fill="#7C41CF"/>
</g>
<defs>
<clipPath id="clip0_901_7496">
<rect width="40" height="40" fill="white" transform="translate(0 0.5)"/>
</clipPath>
</defs>
</svg>
