<svg width="40" height="41" viewBox="0 0 40 41" fill="none" xmlns="http://www.w3.org/2000/svg">
<rect y="0.5" width="40" height="40" rx="20" fill="white"/>
<path d="M27.2358 30.8018C25.1674 32.1901 22.6783 33 20 33C12.8203 33 7 27.1797 7 20C7 12.8203 12.8203 7 20 7C22.678 7 25.1669 7.80975 27.2351 9.19777L23.6993 14.0644C22.6263 13.3942 21.3584 13.0069 20 13.0069C16.1378 13.0069 13.0069 16.1378 13.0069 20C13.0069 23.8622 16.1378 26.9931 20 26.9931C21.3587 26.9931 22.6268 26.6056 23.7 25.9352L27.2358 30.8018Z" fill="#F5852F"/>
<path d="M28.3813 29.9379C31.206 27.5532 33 23.9861 33 20C33 16.0136 31.2057 12.4462 28.3806 10.0616L24.8325 14.9452C26.1639 16.2184 26.9931 18.0124 26.9931 20C26.9931 21.9873 26.1641 23.7811 24.8331 25.0542L28.3813 29.9379Z" fill="#F5852F"/>
<path d="M28.3813 29.9378C31.206 27.5532 33.0001 23.9861 33.0001 20C33.0001 16.0135 31.2057 12.4462 28.3807 10.0615L24.8325 14.9452C26.1639 16.2184 26.9932 18.0123 26.9932 20C26.9932 21.9873 26.1642 23.781 24.8331 25.0542L28.3813 29.9378Z" fill="#BF207C"/>
</svg>
