<svg width="40" height="41" viewBox="0 0 40 41" fill="none" xmlns="http://www.w3.org/2000/svg">
<rect y="0.5" width="40" height="40" rx="20" fill="white"/>
<g clip-path="url(#clip0_886_1598)">
<path d="M31.6253 13.1714C30.7563 13.557 29.823 13.8177 28.8416 13.9349C29.8432 13.3351 30.6104 12.3848 30.9727 11.2537C30.0213 11.8187 28.9801 12.2165 27.8943 12.4298C27.0107 11.4879 25.7507 10.8999 24.3566 10.8999C21.6809 10.8999 19.5108 13.0691 19.5108 15.7464C19.5108 16.1258 19.5535 16.4959 19.6357 16.8512C15.6077 16.6487 12.0366 14.7193 9.64626 11.7875C9.22888 12.5035 8.98997 13.336 8.98997 14.2243C8.98997 15.9055 9.84569 17.3889 11.146 18.2578C10.3762 18.2339 9.62338 18.0262 8.95037 17.6519V17.7131C8.95037 20.0615 10.6207 22.0197 12.838 22.465C12.4307 22.5766 12.0032 22.6349 11.561 22.6349C11.2484 22.6349 10.945 22.6053 10.6487 22.5496C11.2654 24.4744 13.0553 25.8755 15.1755 25.9151C13.5168 27.2154 11.4268 27.9905 9.15675 27.9905C8.76577 27.9905 8.37935 27.9671 8 27.9214C10.1452 29.2969 12.6922 30.0999 15.4293 30.0999C24.3434 30.0999 29.2187 22.7149 29.2187 16.3105C29.2187 16.1002 29.214 15.8915 29.2039 15.6836C30.1538 14.9966 30.9737 14.1459 31.6253 13.1714Z" fill="#0EA5E9"/>
</g>
<defs>
<clipPath id="clip0_886_1598">
<rect width="24" height="19.2" fill="white" transform="translate(8 10.8999)"/>
</clipPath>
</defs>
</svg>
