<svg width="50" height="50" viewBox="0 0 50 50" fill="none" xmlns="http://www.w3.org/2000/svg">
<path d="M20.022 12.5555C19.3619 12.5555 18.7289 12.8178 18.2621 13.2845C17.7954 13.7513 17.5331 14.3843 17.5331 15.0444C17.5331 15.7045 17.7954 16.3376 18.2621 16.8043C18.7289 17.2711 19.3619 17.5333 20.022 17.5333H33.925L30.7068 20.7514C30.2535 21.2209 30.0026 21.8496 30.0083 22.5021C30.0139 23.1547 30.2757 23.779 30.7371 24.2404C31.1986 24.7019 31.8228 24.9636 32.4754 24.9693C33.128 24.975 33.7567 24.7241 34.2261 24.2707L41.6928 16.8041C42.1594 16.3373 42.4215 15.7044 42.4215 15.0444C42.4215 14.3845 42.1594 13.7515 41.6928 13.2848L34.2261 5.81812C33.9965 5.5804 33.7219 5.39079 33.4182 5.26035C33.1146 5.12991 32.788 5.06125 32.4575 5.05838C32.127 5.05551 31.7993 5.11848 31.4934 5.24363C31.1876 5.36877 30.9097 5.55358 30.676 5.78727C30.4423 6.02096 30.2575 6.29884 30.1323 6.60472C30.0072 6.9106 29.9442 7.23833 29.9471 7.5688C29.95 7.89928 30.0186 8.22587 30.1491 8.52952C30.2795 8.83318 30.4691 9.10781 30.7068 9.3374L33.925 12.5555H20.022Z" fill="url(#paint0_linear_18_768)"/>
<path d="M29.9776 37.4444C30.6377 37.4444 31.2707 37.1822 31.7375 36.7154C32.2043 36.2487 32.4665 35.6156 32.4665 34.9555C32.4665 34.2954 32.2043 33.6624 31.7375 33.1956C31.2707 32.7289 30.6377 32.4666 29.9776 32.4666H16.0747L19.2928 29.2485C19.5305 29.0189 19.7201 28.7443 19.8506 28.4406C19.981 28.137 20.0497 27.8104 20.0525 27.4799C20.0554 27.1494 19.9924 26.8217 19.8673 26.5158C19.7421 26.21 19.5573 25.9321 19.3236 25.6984C19.09 25.4647 18.8121 25.2799 18.5062 25.1547C18.2003 25.0296 17.8726 24.9666 17.5421 24.9695C17.2116 24.9724 16.885 25.041 16.5814 25.1715C16.2777 25.3019 16.0031 25.4915 15.7735 25.7292L8.30684 33.1959C7.84024 33.6626 7.57812 34.2956 7.57812 34.9555C7.57812 35.6155 7.84024 36.2484 8.30684 36.7152L15.7735 44.1818C16.2429 44.6352 16.8716 44.8861 17.5242 44.8804C18.1768 44.8747 18.801 44.613 19.2625 44.1515C19.7239 43.6901 19.9857 43.0658 19.9914 42.4132C19.997 41.7607 19.7462 41.132 19.2928 40.6626L16.0747 37.4444H29.9776Z" fill="url(#paint1_linear_18_768)"/>
<defs>
<linearGradient id="paint0_linear_18_768" x1="13.9298" y1="64.3768" x2="65.7249" y2="29.0872" gradientUnits="userSpaceOnUse">
<stop stop-color="#982DEC"/>
<stop offset="0.572917" stop-color="#DC8DF8"/>
<stop offset="0.895833" stop-color="#A9C4F3"/>
</linearGradient>
<linearGradient id="paint1_linear_18_768" x1="13.9298" y1="64.3768" x2="65.7249" y2="29.0872" gradientUnits="userSpaceOnUse">
<stop stop-color="#982DEC"/>
<stop offset="0.572917" stop-color="#DC8DF8"/>
<stop offset="0.895833" stop-color="#A9C4F3"/>
</linearGradient>
</defs>
</svg>
