<svg width="50" height="50" viewBox="0 0 50 50" fill="none" xmlns="http://www.w3.org/2000/svg">
<path fill-rule="evenodd" clip-rule="evenodd" d="M31.2222 8.40741C33.931 8.40741 36.2374 10.1393 37.0919 12.5556H18.7778C16.0274 12.5556 13.3897 13.6481 11.4448 15.593C9.50002 17.5378 8.40743 20.1755 8.40743 22.9259V32.9437C7.19394 32.5144 6.14341 31.7193 5.40052 30.6681C4.65762 29.6169 4.25891 28.3613 4.25928 27.0741V14.6296C4.25928 12.9794 4.91483 11.3967 6.08172 10.2299C7.24862 9.06296 8.83126 8.40741 10.4815 8.40741H31.2222ZM39.5185 16.7037H18.7778C17.1276 16.7037 15.5449 17.3593 14.378 18.5262C13.2111 19.693 12.5556 21.2757 12.5556 22.9259V35.3704C12.5556 37.0206 13.2111 38.6033 14.378 39.7701C15.5449 40.937 17.1276 41.5926 18.7778 41.5926H39.5185C41.1688 41.5926 42.7514 40.937 43.9183 39.7701C45.0852 38.6033 45.7408 37.0206 45.7408 35.3704V22.9259C45.7408 21.2757 45.0852 19.693 43.9183 18.5262C42.7514 17.3593 41.1688 16.7037 39.5185 16.7037ZM33.2963 29.1481C33.2963 30.2483 32.8593 31.3034 32.0813 32.0813C31.3034 32.8593 30.2483 33.2963 29.1482 33.2963C28.048 33.2963 26.9929 32.8593 26.215 32.0813C25.4371 31.3034 25 30.2483 25 29.1481C25 28.048 25.4371 26.9929 26.215 26.215C26.9929 25.437 28.048 25 29.1482 25C30.2483 25 31.3034 25.437 32.0813 26.215C32.8593 26.9929 33.2963 28.048 33.2963 29.1481Z" fill="url(#paint0_linear_18_765)"/>
<defs>
<linearGradient id="paint0_linear_18_765" x1="11.821" y1="57.8395" x2="58.1833" y2="12.7123" gradientUnits="userSpaceOnUse">
<stop stop-color="#982DEC"/>
<stop offset="0.572917" stop-color="#DC8DF8"/>
<stop offset="0.895833" stop-color="#A9C4F3"/>
</linearGradient>
</defs>
</svg>
