<svg width="50" height="50" viewBox="0 0 50 50" fill="none" xmlns="http://www.w3.org/2000/svg">
<path d="M39.9333 15.6666V11.9333C39.9333 9.87435 38.2589 8.19995 36.1999 8.19995H11.9333C8.84579 8.19995 6.33325 10.7125 6.33325 13.8V36.1999C6.33325 40.3085 9.68205 41.7999 11.9333 41.7999H39.9333C41.9922 41.7999 43.6666 40.1255 43.6666 38.0666V19.4C43.6666 17.341 41.9922 15.6666 39.9333 15.6666ZM36.1999 32.4666H32.4666V25H36.1999V32.4666ZM11.9333 15.6666C11.4526 15.6451 10.9988 15.4391 10.6663 15.0913C10.3338 14.7436 10.1482 14.2811 10.1482 13.8C10.1482 13.3188 10.3338 12.8563 10.6663 12.5086C10.9988 12.1608 11.4526 11.9548 11.9333 11.9333H36.1999V15.6666H11.9333Z" fill="url(#paint0_linear_18_762)"/>
<defs>
<linearGradient id="paint0_linear_18_762" x1="13.1388" y1="58.2499" x2="59.6098" y2="18.0428" gradientUnits="userSpaceOnUse">
<stop stop-color="#982DEC"/>
<stop offset="0.572917" stop-color="#DC8DF8"/>
<stop offset="0.895833" stop-color="#A9C4F3"/>
</linearGradient>
</defs>
</svg>
